<svg width="124" height="32" viewBox="0 0 124 32" fill="none" xmlns="http://www.w3.org/2000/svg">
<g clip-path="url(#clip0_895_6335)">
<path d="M34.8816 7.06356V7.01923C34.8816 5.82228 35.7091 4.97998 36.8174 4.97998C37.7336 4.97998 38.4429 5.43807 38.5316 6.37642H37.7779C37.6966 5.84445 37.4011 5.57107 36.8248 5.57107C36.1229 5.57107 35.6648 6.11782 35.6648 7.01184V7.05618C35.6648 7.95758 36.0933 8.48217 36.8322 8.48217C37.3863 8.48217 37.7779 8.20141 37.8518 7.63987H38.5759C38.4577 8.60039 37.7779 9.08804 36.8322 9.08804C35.5835 9.08804 34.8816 8.29007 34.8816 7.06356Z" fill="white"/>
<path d="M39.322 7.0635V7.01917C39.322 5.85177 40.1569 4.9873 41.3391 4.9873C42.5213 4.9873 43.3488 5.8296 43.3488 6.997V7.04133C43.3488 8.20873 42.5508 9.08059 41.3391 9.08059C40.12 9.08797 39.322 8.21612 39.322 7.0635ZM42.5804 7.05611V7.01178C42.5804 6.19165 42.1223 5.58578 41.3391 5.58578C40.5559 5.58578 40.0978 6.16209 40.0978 7.01917V7.0635C40.0978 7.93535 40.6298 8.49689 41.3539 8.49689C42.1075 8.4895 42.5804 7.92058 42.5804 7.05611Z" fill="white"/>
<path d="M44.2576 5.04639H45.1442L46.8214 7.92794V5.04639H47.4938V9.03623H46.7254L44.9299 5.97735V9.03623H44.2576V5.04639Z" fill="white"/>
<path d="M48.447 7.79491H49.1637C49.2154 8.19389 49.378 8.53377 50.0503 8.53377C50.4937 8.53377 50.804 8.28994 50.804 7.92051C50.804 7.55108 50.6193 7.4107 49.9765 7.30726C49.0233 7.18165 48.5726 6.88611 48.5726 6.13986C48.5726 5.48966 49.1268 4.99463 49.9617 4.99463C50.8188 4.99463 51.336 5.38622 51.4098 6.14725H50.7301C50.6562 5.7261 50.4198 5.54877 49.9617 5.54877C49.5036 5.54877 49.2745 5.76304 49.2745 6.07336C49.2745 6.39846 49.4075 6.56101 50.1021 6.65706C51.0404 6.78267 51.5281 7.05605 51.5281 7.85402C51.5281 8.54854 50.9444 9.08791 50.0577 9.08791C48.9568 9.08791 48.4987 8.54854 48.447 7.79491Z" fill="white"/>
<path d="M52.4812 5.04639H54.9785V5.63009H53.2275V6.7236H54.6313V7.28513H53.2275V8.45253H55.0746V9.03623H52.4886L52.4812 5.04639Z" fill="white"/>
<path d="M56.0203 5.04639H56.9069L58.5841 7.92794V5.04639H59.2565V9.03623H58.4881L56.6926 5.97735V9.03623H56.0203V5.04639Z" fill="white"/>
<path d="M60.2097 7.79491H60.9264C60.9781 8.19389 61.1407 8.53377 61.813 8.53377C62.2564 8.53377 62.5667 8.28994 62.5667 7.92051C62.5667 7.55108 62.382 7.4107 61.7392 7.30726C60.786 7.18165 60.3353 6.88611 60.3353 6.13986C60.3353 5.48966 60.8895 4.99463 61.7244 4.99463C62.5815 4.99463 63.0987 5.38622 63.1725 6.14725H62.4928C62.4189 5.7261 62.1825 5.54877 61.7244 5.54877C61.2663 5.54877 61.0372 5.76304 61.0372 6.07336C61.0372 6.39846 61.1702 6.56101 61.8648 6.65706C62.8031 6.78267 63.2834 7.05605 63.2834 7.85402C63.2834 8.54854 62.6997 9.08791 61.8204 9.08791C60.7195 9.08791 60.2614 8.54854 60.2097 7.79491Z" fill="white"/>
<path d="M65.0123 7.3073L63.6897 5.04639H64.5098L65.4112 6.69404L66.2831 5.04639H67.0072L65.7585 7.3073V9.02884H65.0123V7.3073Z" fill="white"/>
<path d="M67.4209 7.79491H68.1376C68.1893 8.19389 68.3519 8.53377 69.0242 8.53377C69.4675 8.53377 69.7779 8.28994 69.7779 7.92051C69.7779 7.55108 69.5931 7.4107 68.9503 7.30726C67.9972 7.18165 67.5465 6.88611 67.5465 6.13986C67.5465 5.48966 68.1006 4.99463 68.9356 4.99463C69.7926 4.99463 70.3098 5.38622 70.3837 6.14725H69.704C69.6301 5.7261 69.3937 5.54877 68.9356 5.54877C68.4775 5.54877 68.2484 5.76304 68.2484 6.07336C68.2484 6.39846 68.3814 6.56101 69.0759 6.65706C70.0143 6.78267 70.5019 7.05605 70.5019 7.85402C70.5019 8.54854 69.9182 9.08791 69.0316 9.08791C67.9381 9.08791 67.48 8.54854 67.4209 7.79491Z" fill="white"/>
<path d="M35.1846 12.2872C35.1846 12.1615 35.288 12.0581 35.4136 12.0581H40.1423C45.4621 12.0581 48.0851 14.9397 48.0851 19.4689V19.6388C48.0851 24.1754 45.4399 27.2047 40.1202 27.2047H35.4136C35.288 27.2047 35.1846 27.1013 35.1846 26.9757V12.2872ZM40.0167 24.5301C43.0682 24.5301 44.509 22.8159 44.509 19.6831V19.5132C44.509 16.4026 43.1716 14.7254 39.9798 14.7254H38.6203V24.5301H40.0167Z" fill="white"/>
<path d="M49.1489 12.9447C49.1489 11.9916 49.91 11.2749 50.8852 11.2749C51.8827 11.2749 52.6437 11.999 52.6437 12.9447C52.6437 13.8905 51.8827 14.6145 50.8852 14.6145C49.91 14.6219 49.1489 13.8979 49.1489 12.9447ZM49.607 16.1218H52.2004C52.326 16.1218 52.4295 16.2253 52.4295 16.3509V26.9757C52.4295 27.1013 52.326 27.2047 52.2004 27.2047H49.607C49.4814 27.2047 49.378 27.1013 49.378 26.9757V16.3509C49.378 16.2253 49.4814 16.1218 49.607 16.1218Z" fill="white"/>
<path d="M54.816 11.105H57.4094C57.535 11.105 57.6384 11.2084 57.6384 11.334V26.9757C57.6384 27.1013 57.535 27.2047 57.4094 27.2047H54.816C54.6904 27.2047 54.5869 27.1013 54.5869 26.9757V11.334C54.5869 11.2084 54.6904 11.105 54.816 11.105Z" fill="white"/>
<path d="M59.5447 12.9447C59.5447 11.9916 60.3057 11.2749 61.281 11.2749C62.2785 11.2749 63.0395 11.999 63.0395 12.9447C63.0395 13.8905 62.2785 14.6145 61.281 14.6145C60.3057 14.6219 59.5447 13.8979 59.5447 12.9447ZM60.0028 16.1218H62.5962C62.7218 16.1218 62.8252 16.2253 62.8252 16.3509V26.9757C62.8252 27.1013 62.7218 27.2047 62.5962 27.2047H60.0028C59.8772 27.2047 59.7737 27.1013 59.7737 26.9757V16.3509C59.7811 16.2253 59.8772 16.1218 60.0028 16.1218Z" fill="white"/>
<path d="M64.6428 27.4338H67.2436C67.347 27.4338 67.4357 27.5003 67.4652 27.6037C67.7017 28.4829 68.411 29.0445 69.8813 29.0445C71.7432 29.0445 72.6742 28.0692 72.6742 26.3329V24.663C71.9353 25.9265 70.5832 26.7097 69.1129 26.7171C66.4235 26.7171 64.2808 24.7074 64.2808 21.4194V21.2717C64.2808 18.0946 66.4013 15.8706 69.1498 15.8706C70.9527 15.8706 72.0314 16.6538 72.6668 17.7769V16.3509C72.6668 16.2253 72.7703 16.1218 72.8959 16.1218H75.4893C75.6149 16.1218 75.7183 16.2253 75.7183 16.3509V26.3329C75.6961 29.6134 73.5165 31.2906 69.8739 31.2906C66.4382 31.2906 64.798 29.8424 64.4064 27.7071C64.3842 27.5815 64.4655 27.4633 64.5911 27.4411C64.6132 27.4338 64.628 27.4338 64.6428 27.4338ZM72.7629 21.3751V21.2273C72.7629 19.3432 71.7654 18.198 70.0956 18.198C68.3814 18.198 67.4283 19.4245 67.4283 21.2495V21.4194C67.4283 23.2592 68.507 24.4044 70.0365 24.4044C71.6398 24.4044 72.7629 23.2592 72.7629 21.3751Z" fill="white"/>
<path d="M76.8118 21.8036V21.6337C76.8118 18.1389 79.2869 15.8706 82.5084 15.8706C85.3678 15.8706 87.9094 17.5404 87.9094 21.5081V22.1287C87.9094 22.2544 87.806 22.3578 87.6804 22.3578H79.9224C80.011 24.1976 81.0011 25.2615 82.6783 25.2615C84.0083 25.2615 84.7102 24.7221 84.9466 23.8798C84.9762 23.7838 85.0648 23.7173 85.1609 23.7173H87.6139C87.7395 23.7173 87.8429 23.8207 87.8429 23.9463C87.8429 23.9611 87.8429 23.9759 87.8356 23.9907C87.3775 26.2072 85.5008 27.4411 82.5897 27.4411C79.2426 27.4338 76.8118 25.3354 76.8118 21.8036ZM84.9171 20.4663C84.8136 18.7965 83.9639 17.9911 82.501 17.9911C81.1267 17.9911 80.1957 18.8999 79.9593 20.4663H84.9171Z" fill="white"/>
<path d="M89.2542 16.1218H91.8698C91.9954 16.1218 92.0988 16.2253 92.0988 16.3509V17.8803C92.6456 16.7794 93.8573 15.8706 95.697 15.8706C97.8767 15.8706 99.4283 17.1858 99.4283 20.1486V26.9757C99.4283 27.1013 99.3248 27.2047 99.1992 27.2047H96.5837C96.4581 27.2047 96.3546 27.1013 96.3546 26.9757V20.5993C96.3546 19.092 95.7635 18.3753 94.404 18.3753C93.0889 18.3753 92.0988 19.1807 92.0988 20.8136V26.9831C92.0988 27.1087 91.9954 27.2121 91.8698 27.2121H89.2542C89.1286 27.2121 89.0251 27.1087 89.0251 26.9831V16.3509C89.0251 16.2253 89.1286 16.1218 89.2542 16.1218Z" fill="white"/>
<path d="M100.404 21.8036V21.6337C100.404 18.0576 102.967 15.8706 106.122 15.8706C108.612 15.8706 110.925 16.9346 111.309 19.9122C111.324 20.0378 111.235 20.156 111.11 20.1708C111.102 20.1708 111.087 20.1708 111.08 20.1708H108.62C108.516 20.1708 108.42 20.0969 108.398 19.9934C108.147 18.826 107.378 18.2867 106.189 18.2867C104.6 18.2867 103.544 19.4762 103.544 21.5894V21.7593C103.544 23.9833 104.541 25.1285 106.255 25.1285C107.43 25.1285 108.391 24.4709 108.605 23.1779C108.62 23.0671 108.716 22.9932 108.827 22.9932H111.154C111.28 22.9932 111.383 23.0966 111.383 23.2223C111.383 23.2296 111.383 23.237 111.383 23.2444C111.11 25.7344 109.226 27.4411 106.108 27.4411C102.864 27.4338 100.404 25.4241 100.404 21.8036Z" fill="white"/>
<path d="M112.159 21.8036V21.6337C112.159 18.1389 114.634 15.8706 117.856 15.8706C120.715 15.8706 123.257 17.5404 123.257 21.5081V22.1287C123.257 22.2544 123.153 22.3578 123.028 22.3578H115.27C115.358 24.1976 116.348 25.2615 118.025 25.2615C119.355 25.2615 120.057 24.7221 120.294 23.8798C120.323 23.7838 120.412 23.7099 120.515 23.7173H122.968C123.094 23.7173 123.197 23.8207 123.197 23.9463C123.197 23.9611 123.197 23.9759 123.19 23.9907C122.732 26.2072 120.855 27.4411 117.944 27.4411C114.597 27.4338 112.159 25.3354 112.159 21.8036ZM120.272 20.4663C120.168 18.7965 119.318 17.9911 117.856 17.9911C116.481 17.9911 115.55 18.8999 115.314 20.4663H120.272Z" fill="white"/>
<path d="M15.9963 0C7.16694 0 0 7.16694 0 15.9963C0 24.8257 7.16694 32 15.9963 32C24.8257 32 32 24.8331 32 15.9963C32 7.15955 24.8331 0 15.9963 0ZM11.8365 24.7592C11.8365 24.8405 11.77 24.9069 11.6888 24.9069H8.57077C8.48949 24.9069 8.423 24.8405 8.423 24.7592V12.6641C8.423 12.5828 8.48949 12.5163 8.57077 12.5163H11.6888C11.77 12.5163 11.8365 12.5828 11.8365 12.6641V24.7592ZM10.1224 10.8317C9.03625 10.8317 8.17917 10.0263 8.17917 8.96237C8.17917 7.89841 9.03625 7.09305 10.1224 7.09305C11.2381 7.09305 12.0877 7.89841 12.0877 8.96237C12.0877 10.0263 11.2381 10.8317 10.1224 10.8317ZM17.7474 24.7518C17.7474 24.8331 17.6809 24.8996 17.5996 24.8996H14.4816C14.4004 24.8996 14.3339 24.8331 14.3339 24.7518V7.24082C14.3339 7.15955 14.4004 7.09305 14.4816 7.09305H17.5996C17.6809 7.09305 17.7474 7.15955 17.7474 7.24082V24.7518ZM23.6509 24.7592C23.6509 24.8405 23.5844 24.9069 23.5031 24.9069H20.3925C20.3112 24.9069 20.2447 24.8405 20.2447 24.7592V12.6641C20.2447 12.5828 20.3112 12.5163 20.3925 12.5163H23.5105C23.5918 12.5163 23.6583 12.5828 23.6583 12.6641V24.7592H23.6509ZM23.8208 10.6913C23.8208 10.7726 23.7543 10.8391 23.6731 10.8391H20.23C20.1487 10.8391 20.0822 10.7726 20.0822 10.6913V7.24082C20.0822 7.15955 20.1487 7.09305 20.23 7.09305H23.6731C23.7543 7.09305 23.8208 7.15955 23.8208 7.24082V10.6913Z" fill="white"/>
</g>
<defs>
<clipPath id="clip0_895_6335">
<rect width="123.257" height="32" fill="white"/>
</clipPath>
</defs>
</svg>
