<svg width="174" height="32" viewBox="0 0 174 32" fill="none" xmlns="http://www.w3.org/2000/svg">
<path d="M3.01903 25H0.342495C0.27907 25 0.22833 24.9873 0.17759 24.9619C0.12685 24.9366 0.07611 24.8985 0.05074 24.8478C0.012685 24.797 0 24.7463 0 24.6829C0 24.6195 0 24.5687 0.02537 24.518L8.71459 7.17759C8.73996 7.12685 8.77801 7.08879 8.82875 7.05074C8.87949 7.01268 8.93023 7 8.99366 7H11.6702C11.7336 7 11.7844 7.01268 11.8351 7.03805C11.8858 7.06342 11.9366 7.10148 11.9619 7.15222C12 7.20296 12.0127 7.2537 12.0127 7.31712C12.0127 7.38055 12.0127 7.43129 11.9873 7.48203L3.2981 24.8224C3.27273 24.8732 3.23467 24.9112 3.18393 24.9493C3.13319 24.9873 3.08245 25 3.01903 25Z" fill="white"/>
<path d="M11.3277 25H8.56236C8.51162 25 8.46088 24.9873 8.41014 24.9619C8.3594 24.9366 8.32135 24.8985 8.29598 24.8605C8.27061 24.8224 8.24524 24.7717 8.24524 24.7209C8.24524 24.6702 8.24524 24.6195 8.27061 24.5687L16.9979 7.15222C17.0233 7.10148 17.0613 7.06342 17.0994 7.03805C17.1374 7.01268 17.1882 7 17.2389 7H19.9915C20.0423 7 20.093 7.01268 20.1438 7.03805C20.1945 7.06342 20.2326 7.10148 20.2579 7.13953C20.2833 7.17759 20.3087 7.22833 20.3087 7.27907C20.3087 7.32981 20.3087 7.38055 20.2833 7.43129L11.556 24.8478C11.5307 24.8985 11.4926 24.9366 11.4545 24.9619C11.4165 24.9873 11.3784 25 11.3277 25Z" fill="white"/>
<path d="M28.5158 10.1205C28.2368 10.1205 28.0972 10.26 28.0972 10.5391V23.2114C28.0972 23.5031 28.2494 23.63 28.5158 23.63H30.4947C30.5454 23.6427 30.6089 23.63 30.6596 23.6173C30.7103 23.6046 30.7611 23.5666 30.7991 23.5285C30.8372 23.4904 30.8626 23.4397 30.8879 23.3763C30.9006 23.3255 30.9133 23.2621 30.9006 23.1987V18.0613H39.463V23.1987C39.4503 23.2621 39.463 23.3129 39.4757 23.3763C39.4884 23.427 39.5264 23.4778 39.5645 23.5285C39.6025 23.5666 39.6533 23.6046 39.704 23.6173C39.7547 23.63 39.8182 23.6427 39.8689 23.63H41.8478C42.1268 23.63 42.2664 23.4904 42.2664 23.2114V10.5391C42.2664 10.2473 42.1141 10.1205 41.8478 10.1205H39.8816C39.8308 10.1078 39.7674 10.1205 39.7167 10.1332C39.6659 10.1458 39.6152 10.1839 39.5771 10.2219C39.5391 10.26 39.5137 10.3107 39.4883 10.3742C39.4757 10.4249 39.463 10.4883 39.4757 10.5518V15.575H30.9133V10.5518C30.926 10.4883 30.9133 10.4376 30.9006 10.3742C30.8879 10.3234 30.8499 10.2727 30.8118 10.2219C30.7738 10.1839 30.723 10.1458 30.6723 10.1332C30.6215 10.1205 30.5581 10.1078 30.5074 10.1205H28.5158ZM56.8034 10.1205C56.0296 10.1205 55.4841 10.4249 54.8879 11.5919L48.8879 23.1987C48.7611 23.4524 48.8118 23.6427 49.1289 23.6427H51.501C51.5898 23.6553 51.6786 23.6427 51.7547 23.5919C51.8308 23.5412 51.8943 23.4778 51.9196 23.389L53.1755 20.9027H61.7759L63.0698 23.389C63.0951 23.4778 63.1585 23.5539 63.2347 23.5919C63.3108 23.6427 63.3996 23.6553 63.4884 23.6427H65.8097C66.1015 23.6427 66.1522 23.4524 66.0254 23.1987L59.9746 11.5919C59.3657 10.4376 58.8076 10.1205 57.8689 10.1205H56.8034ZM57.2093 13C57.222 12.9619 57.26 12.9239 57.2854 12.8985C57.3235 12.8731 57.3615 12.8604 57.4122 12.8604H57.5264C57.5645 12.8604 57.6152 12.8731 57.6533 12.8985C57.6913 12.9239 57.7167 12.9619 57.7294 13L60.6342 18.6575H54.3298L57.2093 13ZM72.3425 10.1205C72.0634 10.1205 71.9239 10.26 71.9239 10.5391V18.5306C71.9239 22.2346 73.3446 23.63 77.0486 23.63H84.5708C84.6216 23.6427 84.685 23.63 84.7357 23.6173C84.7865 23.6046 84.8372 23.5666 84.8753 23.5285C84.9133 23.4904 84.9387 23.4397 84.964 23.3763C84.9767 23.3255 84.9894 23.2621 84.9767 23.1987V21.3086C84.9894 21.2452 84.9767 21.1945 84.964 21.131C84.9514 21.0803 84.9133 21.0296 84.8753 20.9788C84.8372 20.9408 84.7865 20.9027 84.7357 20.89C84.685 20.8773 84.6216 20.8647 84.5708 20.8773H77.1628C75.2854 20.8773 74.7273 20.2811 74.7273 18.2262V10.5264C74.7399 10.463 74.7273 10.4122 74.7146 10.3488C74.7019 10.2981 74.6638 10.2473 74.6258 10.1966C74.5877 10.1585 74.537 10.1205 74.4862 10.1078C74.4355 10.0951 74.3721 10.0824 74.3213 10.0951H72.3425V10.1205ZM92.2452 10.1205C92.1691 10.1078 92.093 10.1205 92.0169 10.1458C91.9408 10.1712 91.8774 10.2093 91.8266 10.2727C91.7759 10.3234 91.7378 10.3995 91.7125 10.4756C91.6871 10.5518 91.6871 10.6279 91.6871 10.704V23.0592C91.6744 23.1353 91.6871 23.2241 91.7125 23.2875C91.7378 23.3636 91.7759 23.427 91.8266 23.4904C91.8774 23.5412 91.9408 23.5919 92.0169 23.6173C92.093 23.6427 92.1691 23.6553 92.2452 23.6427H103.116C105.552 23.6427 106.351 22.3488 106.351 20.3065V19.1902C106.389 18.6955 106.288 18.1881 106.059 17.7568C105.831 17.3129 105.501 16.945 105.082 16.704C105.463 16.4376 105.767 16.0697 105.983 15.6384C106.186 15.2071 106.288 14.7251 106.262 14.2431V13.3171C106.262 11.1733 105.311 10.1332 102.786 10.1332H92.2452V10.1205ZM102 17.8456C103.205 17.8456 103.586 18.2642 103.586 19.0634V19.7991C103.586 20.611 103.205 20.9788 102.228 20.9788H94.7315C94.5666 20.9788 94.4905 20.9027 94.4905 20.7251V17.8456H102ZM94.5032 13.038C94.5032 12.8604 94.5793 12.7843 94.7442 12.7843H102.228C103.18 12.7843 103.586 13.1522 103.586 13.9386V14.5983C103.586 15.3467 103.218 15.7399 102.013 15.7399H94.5158V13.038H94.5032ZM118.579 10.1205C114.888 10.1205 113.455 11.5158 113.455 15.2198V18.5433C113.455 22.2473 114.875 23.6427 118.579 23.6427H124.224C127.941 23.6427 129.349 22.2473 129.349 18.5433V15.2198C129.349 11.5158 127.941 10.1205 124.224 10.1205H118.579ZM116.258 15.4355C116.258 13.4059 116.803 12.8097 118.693 12.8097H124.123C126.013 12.8097 126.558 13.4059 126.558 15.4355V18.3277C126.558 20.3573 126.013 20.9534 124.123 20.9534H118.693C116.803 20.9534 116.258 20.3573 116.258 18.3277V15.4355ZM137.264 10.1205C137.188 10.1078 137.112 10.1205 137.036 10.1458C136.96 10.1712 136.896 10.2093 136.846 10.2727C136.795 10.3234 136.757 10.3995 136.732 10.4756C136.706 10.5518 136.706 10.6279 136.706 10.704V23.2241C136.706 23.5158 136.846 23.6427 137.125 23.6427H139.091C139.142 23.6553 139.205 23.6427 139.256 23.63C139.307 23.6173 139.357 23.5792 139.395 23.5412C139.433 23.5031 139.459 23.4524 139.484 23.389C139.497 23.3382 139.51 23.2748 139.497 23.2114V19.3678H145.408L148.3 23.389C148.414 23.5666 148.503 23.6427 148.808 23.6427H151.167C151.218 23.6427 151.281 23.63 151.319 23.6046C151.37 23.5792 151.408 23.5285 151.433 23.4778C151.459 23.427 151.471 23.3636 151.459 23.3129C151.459 23.2494 151.433 23.1987 151.395 23.1606L148.275 19.0634C150.19 18.6955 151.002 17.4017 151.002 15.1945V14.0909C151.002 11.4778 149.873 10.1078 147.07 10.1078L137.264 10.1205ZM139.51 13C139.51 12.8477 139.586 12.7716 139.751 12.7716H146.524C147.767 12.7716 148.224 13.3298 148.224 14.4968V15.3086C148.224 16.463 147.767 17.0338 146.524 17.0338H139.522V13H139.51ZM160.008 10.1205C158.892 10.1205 158.359 10.5644 158.359 12.1247V23.2114C158.359 23.5031 158.499 23.63 158.778 23.63H160.693C160.744 23.6427 160.808 23.63 160.858 23.6173C160.909 23.6046 160.96 23.5666 160.998 23.5285C161.036 23.4904 161.061 23.4397 161.087 23.3763C161.099 23.3255 161.112 23.2621 161.099 23.1987V13.1141C161.099 12.9746 161.137 12.9239 161.252 12.9239H161.416C161.467 12.9239 161.505 12.9365 161.556 12.9619C161.594 12.9873 161.632 13.0253 161.658 13.0634L168.482 22.4883C169.218 23.5158 169.484 23.63 170.6 23.63H172.173C173.29 23.63 173.822 23.186 173.822 21.6258V10.5391C173.835 10.4756 173.822 10.4249 173.81 10.3615C173.797 10.3107 173.759 10.26 173.721 10.2093C173.683 10.1712 173.632 10.1332 173.581 10.1205C173.531 10.1078 173.467 10.0951 173.416 10.1078H171.501C171.45 10.0951 171.387 10.1078 171.336 10.1205C171.285 10.1332 171.235 10.1712 171.197 10.2093C171.159 10.2473 171.133 10.2981 171.108 10.3615C171.095 10.4122 171.082 10.4756 171.095 10.5391V20.6236C171.095 20.7632 171.044 20.8139 170.943 20.8139H170.778C170.727 20.8139 170.677 20.8012 170.638 20.7885C170.6 20.7632 170.562 20.7251 170.537 20.6871L163.738 11.2621C163.04 10.2727 162.786 10.1205 161.619 10.1205H160.008Z" fill="white"/>
</svg>
