<svg width="143" height="32" viewBox="0 0 143 32" fill="none" xmlns="http://www.w3.org/2000/svg">
<g clip-path="url(#clip0_895_5870)">
<path fill-rule="evenodd" clip-rule="evenodd" d="M7.93493 13.606L17.7662 23.6137L27.4926 13.7129L35.4674 21.8307L26.2017 31.2627L23.8181 28.901L30.7636 21.8307L27.4926 18.501L17.7662 28.4019L7.93493 18.3941L4.70373 21.6834L11.7549 28.8611L9.37128 31.2229L0 21.6834L7.93493 13.606Z" fill="white"/>
<path fill-rule="evenodd" clip-rule="evenodd" d="M27.5326 18.394L17.7012 8.3863L7.975 18.2872L0.000183105 10.1692L9.26581 0.737305L11.6494 3.09906L4.70391 10.1692L7.975 13.4991L17.7012 3.59811L27.5326 13.6059L30.7638 10.3166L23.7126 3.13888L26.0962 0.777119L35.4675 10.3166L27.5326 18.394Z" fill="white"/>
<path fill-rule="evenodd" clip-rule="evenodd" d="M16.2336 31.0275V24.7222H19.444V31.0275H16.2336Z" fill="white"/>
<path fill-rule="evenodd" clip-rule="evenodd" d="M16.2336 7.27792V0.972656H19.444V7.27792H16.2336Z" fill="white"/>
<path d="M46.2856 8.18164H43.0865V24.2888H46.2856V8.18164Z" fill="white"/>
<path d="M62.5128 12.4316C61.0586 12.4316 59.6716 13.0581 58.9782 14.4227C58.2623 13.0581 56.92 12.4316 55.354 12.4316C53.9446 12.4316 52.8709 12.9686 52.3116 13.9305L51.976 12.6554H49.0677V24.2883H52.1997V17.7783C52.1997 16.0558 53.0946 15.2281 54.4144 15.2281C55.6672 15.2281 56.5174 16.0111 56.5174 17.9126V24.2883H59.5374V17.8454C59.5821 16.0334 60.5217 15.2281 61.7521 15.2281C63.0273 15.2281 63.855 16.0111 63.855 17.756V24.3106H67.0093V17.1296C67.0093 13.9081 64.8393 12.4316 62.5128 12.4316Z" fill="white"/>
<path d="M82.9394 12.4316C81.4849 12.4316 80.0983 13.0581 79.4049 14.4227C78.6887 13.0581 77.3463 12.4316 75.7806 12.4316C74.3713 12.4316 73.2974 12.9686 72.7382 13.9305L72.4026 12.6554H69.4944V24.2883H72.6263V17.7783C72.6263 16.0558 73.5211 15.2281 74.841 15.2281C76.0938 15.2281 76.944 16.0111 76.944 17.9126V24.2883H79.9642V17.8454C80.0084 16.0334 80.9486 15.2281 82.179 15.2281C83.4537 15.2281 84.2819 16.0111 84.2819 17.756V24.3106H87.4362V17.1296C87.4362 13.9081 85.2663 12.4316 82.9394 12.4316Z" fill="white"/>
<path d="M97.5497 12.6558V19.0315C97.5497 20.754 96.7444 21.7831 95.2007 21.8055C93.7242 21.8502 92.7847 20.9777 92.7847 19.1657V12.6558H89.8095V19.5684C89.8095 22.5437 91.5314 24.5124 94.5074 24.5124C95.8941 24.5124 96.9006 23.8859 97.5047 23.0135L97.6617 24.2887H100.525V12.6558H97.5497Z" fill="white"/>
<path d="M109.716 12.4316C107.971 12.4316 106.808 13.0804 106.203 14.0424L106.024 12.6554H103.116V24.2883H106.248V18.1363C106.248 16.2571 107.143 15.1162 108.799 15.1162C110.32 15.1162 111.237 16.1005 111.237 18.0244V24.2883H114.392V17.3756C114.392 14.4003 112.691 12.4316 109.716 12.4316Z" fill="white"/>
<path d="M128.088 18.2929C128.088 14.7359 125.784 12.4316 122.316 12.4316C118.849 12.4316 116.523 14.8477 116.523 18.4719C116.523 22.1183 118.849 24.5343 122.339 24.5343C125.269 24.5343 127.484 22.9013 127.999 20.4852H124.844C124.487 21.4919 123.57 22.0064 122.428 22.0064C120.93 22.0064 119.721 21.0445 119.677 19.3219H128.088V18.2929ZM122.316 14.8701C123.681 14.8701 124.822 15.6531 124.956 17.2638H119.699C119.833 15.6531 120.975 14.8701 122.316 14.8701Z" fill="white"/>
<path d="M129.311 12.6554V15.3846H131.101V24.2883H134.255V15.3846H136.917V12.6554H134.255V11.4698C134.255 10.642 134.478 10.0157 135.754 10.0157H136.917V7.46533H135.061C132.13 7.46533 131.101 8.8971 131.101 11.1565V12.6554H129.311Z" fill="white"/>
<path d="M138.986 10.8657H142.162L142.207 7.46533H139.031L138.986 10.8657ZM139.031 24.2883H142.162V12.6554H139.031V24.2883Z" fill="white"/>
</g>
<defs>
<clipPath id="clip0_895_5870">
<rect width="142.476" height="32" fill="white"/>
</clipPath>
</defs>
</svg>
