<svg width="150" height="32" viewBox="0 0 150 32" fill="none" xmlns="http://www.w3.org/2000/svg">
<g clip-path="url(#clip0_895_6233)">
<path d="M45.7376 20.4611H42.5671C40.283 17.8137 38.1675 14.8322 36.3774 12.6498C36.1391 12.3621 35.8921 12.0831 35.4387 11.56V20.4611H32.0096V5.50391H34.9767C34.9767 5.50391 39.696 11.3857 41.5094 13.5942C41.6808 13.8034 41.8813 13.9865 42.2417 14.3614V5.50391H45.7405C45.7783 8.89812 45.7405 13.2513 45.7405 16.6455C45.7405 17.8893 45.7405 19.1796 45.7405 20.4611H45.7376Z" fill="white"/>
<path d="M119.111 20.4611H115.941C113.657 17.8137 111.541 14.8322 109.751 12.6498C109.513 12.3621 109.266 12.0831 108.812 11.56V20.4611H105.383V5.50391H108.35C108.35 5.50391 113.07 11.3857 114.883 13.5942C115.054 13.8034 115.255 13.9865 115.615 14.3614V5.50391H119.114C119.152 8.89812 119.114 13.2513 119.114 16.6455C119.114 17.8893 119.114 19.1796 119.114 20.4611H119.111Z" fill="white"/>
<path d="M102.811 13.0392C102.806 17.4999 99.3098 20.7953 94.5817 20.7953C89.8827 20.7953 86.3257 17.4389 86.349 13.0276C86.3722 8.50002 89.8623 5.21043 94.6485 5.20752C99.3185 5.20752 102.817 8.56395 102.811 13.0392ZM99.2081 13.0189C99.211 10.2117 97.2697 8.22104 94.5439 8.24139C91.8849 8.25882 89.9582 10.2494 89.9466 12.9927C89.9321 15.7563 91.9372 17.8021 94.6253 17.7702C97.2988 17.7382 99.2022 15.765 99.2051 13.0189H99.2081Z" fill="white"/>
<path d="M56.5073 5.20735C61.2964 5.24803 64.7807 8.5754 64.7487 13.0826C64.7167 17.5172 61.154 20.83 56.4608 20.7922C51.7269 20.7545 48.2629 17.4445 48.2891 12.9809C48.3123 8.50857 51.846 5.16957 56.5102 5.20735H56.5073ZM61.1452 13.0623C61.1714 10.2725 59.2098 8.22668 56.5189 8.2354C53.8337 8.24412 51.9216 10.1911 51.8925 12.946C51.8606 15.7445 53.7814 17.7526 56.5073 17.7729C59.1488 17.7903 61.122 15.7881 61.1481 13.0652L61.1452 13.0623Z" fill="white"/>
<path d="M137.503 20.5335H133.781L132.15 17.3049H125.725L124.29 20.5335H120.773L127.408 5.47461H130.82C130.82 5.47461 137.306 20.025 137.503 20.5335ZM126.812 14.4977H131.346C130.587 12.6786 129.881 10.9902 129.073 9.0548C128.262 11.0047 127.559 12.7018 126.812 14.4977Z" fill="white"/>
<path d="M73.7021 8.38664C73.7021 8.92425 73.7021 9.34271 73.7021 9.76118C73.7021 13.013 73.7166 20.5512 73.7166 20.5512C73.7166 20.5512 71.1157 20.5395 70.18 20.5395V8.39826H65.3967V5.52132L78.4883 5.50098V8.38664C78.4883 8.38664 74.6175 8.38664 73.7021 8.38664Z" fill="white"/>
<path d="M139.099 5.56201H142.539V17.5929H150.051V20.493C150.051 20.493 142.624 20.5134 139.099 20.5134V5.56201Z" fill="white"/>
<path d="M80.351 5.54736H83.7452V20.4639H80.351V5.54736Z" fill="white"/>
<path d="M20.4118 8.35508C20.3798 8.52944 20.345 8.7038 20.3188 8.87816C20.066 10.4736 19.232 11.7319 18.0347 12.7664C16.974 13.6789 15.7099 14.1642 14.3557 14.4461C12.6906 14.7948 11.0341 14.7977 9.41549 14.2136C7.79394 13.6266 6.4659 12.6269 5.47205 11.2204C4.51597 9.8691 4.28059 8.35508 4.71649 6.77421C5.30059 4.66736 6.13171 2.6535 7.1924 0.738446C7.20984 0.709386 7.22727 0.67742 7.24471 0.64836C7.69223 -0.0432684 8.21822 -0.162414 8.91276 0.273486C9.31378 0.526308 9.6625 0.83725 9.95892 1.20631C10.3134 1.64802 10.4849 2.14786 10.4529 2.72325C10.4297 3.19111 10.421 3.66188 10.4326 4.12975C10.4587 5.17882 11.3218 5.98378 12.4377 6.01865C13.4432 6.05062 14.3586 5.2689 14.4313 4.26633C14.4807 3.60958 14.469 2.9441 14.4545 2.28444C14.4458 1.86016 14.5736 1.51435 14.8875 1.23247C15.2159 0.936054 15.5297 0.628018 15.8639 0.340324C16.4684 -0.182756 17.1629 -0.110106 17.561 0.578616C17.9969 1.33418 18.3602 2.13333 18.7438 2.91795C18.8803 3.19983 18.9937 3.49043 19.1215 3.77812C19.1477 3.83915 19.1855 3.89436 19.2203 3.95248C19.2349 3.95248 19.2523 3.94667 19.2668 3.94377C19.2756 3.78684 19.2872 3.62701 19.2959 3.47009C19.3482 2.29316 20.2374 1.30802 21.3766 1.15982C22.5884 1.00289 23.7247 1.70324 24.0676 2.85402C24.3553 3.81881 24.1082 4.66445 23.3963 5.37061C23.3033 5.4636 23.187 5.53625 23.0679 5.59147C22.911 5.66703 22.8034 5.58566 22.8151 5.4113C22.8238 5.26019 22.8587 5.11198 22.8587 4.96087C22.8587 4.82719 22.8296 4.69351 22.8151 4.55693C22.7947 4.55693 22.7744 4.55693 22.754 4.55693C22.7337 4.78069 22.7105 5.00446 22.6901 5.22822C22.6494 5.64959 22.0595 5.9954 21.6672 5.82976C21.5626 5.78617 21.5335 5.71062 21.551 5.606C21.5771 5.44617 21.6149 5.28634 21.6207 5.1236C21.6265 4.9783 21.6004 4.833 21.5887 4.6877C21.5626 4.6877 21.5364 4.6877 21.5132 4.6877C21.5016 4.81266 21.4899 4.93762 21.4783 5.06548C21.4667 5.20497 21.4638 5.34446 21.4434 5.48104C21.4202 5.6554 21.3127 5.73096 21.1383 5.71643C21.0366 5.70771 20.9349 5.69899 20.7867 5.68446C21.0366 5.88788 21.2865 5.95763 21.5539 5.98669C21.952 6.02737 22.3385 5.96053 22.725 5.86463C23.2917 5.71933 23.3352 5.73096 23.5677 6.26857C24.1402 7.5937 24.7621 8.9014 25.259 10.2527C26.0553 12.4177 25.2358 14.7802 23.3352 16.0589C23.0911 16.2216 22.8412 16.2565 22.5593 16.1926C21.798 16.0182 21.3243 15.5503 21.1906 14.7919C20.9872 13.6295 20.4816 12.6153 19.7638 11.697C19.572 11.4529 19.572 11.2262 19.7289 10.9618C20.2084 10.1597 20.4786 9.29372 20.4089 8.34345L20.4118 8.35508ZM12.4871 10.1161C12.336 10.1248 12.2169 10.1248 12.1035 10.1394C11.8565 10.1713 11.7606 10.3166 11.8682 10.5404C11.9408 10.6915 12.0658 10.8165 12.1791 10.9472C12.2547 11.0373 12.3709 11.1187 12.2692 11.2407C11.996 11.5691 11.7723 11.6737 11.4584 11.4325C11.4323 11.4122 11.3974 11.3918 11.3654 11.386C11.3364 11.386 11.2986 11.3977 11.2782 11.418C11.2637 11.4325 11.2637 11.479 11.2782 11.4965C11.3073 11.5371 11.3422 11.5807 11.3858 11.6069C11.6299 11.7696 11.8885 11.7638 12.1181 11.6011C12.3331 11.45 12.5133 11.4325 12.7312 11.6011C12.8911 11.7231 13.0945 11.7609 13.295 11.697C13.3502 11.6795 13.4461 11.6185 13.4345 11.5749C13.4171 11.5255 13.3124 11.5168 13.263 11.5313C13.0131 11.6011 12.8213 11.5168 12.6557 11.3337C12.522 11.1826 12.5249 11.1071 12.6586 10.9589C12.7516 10.8571 12.8707 10.7671 12.9347 10.6479C12.987 10.5462 13.0044 10.4067 12.9841 10.2934C12.9579 10.1626 12.8271 10.119 12.6964 10.1132C12.615 10.1132 12.5336 10.1132 12.49 10.1132L12.4871 10.1161ZM15.4019 1.81076C15.4716 1.75555 15.5413 1.69743 15.614 1.64221C15.8319 1.47948 16.0383 1.2964 16.2708 1.16272C16.5991 0.976738 16.9333 1.0552 17.1716 1.34871C17.2704 1.46785 17.3547 1.60443 17.4215 1.74392C17.7121 2.33675 17.994 2.93248 18.2875 3.5253C18.3369 3.62701 18.4183 3.71129 18.4851 3.80428C18.5258 3.76359 18.5316 3.74325 18.5287 3.73163C18.2062 2.88017 17.8255 2.05486 17.3285 1.28768C17.0961 0.930242 16.6805 0.816908 16.2853 0.979644C15.893 1.14238 15.5937 1.41264 15.4019 1.81076ZM6.63736 3.49915C6.70419 3.36547 6.77103 3.2318 6.84078 3.09812C7.11103 2.57213 7.35514 2.03452 7.65446 1.52597C7.96249 0.999986 8.34609 0.933148 8.84882 1.27024C9.09002 1.43007 9.30797 1.62187 9.54336 1.79332C9.57532 1.81657 9.62763 1.80785 9.67122 1.81367C9.65669 1.77589 9.65088 1.72649 9.62473 1.70324C9.3719 1.4911 9.1278 1.26734 8.86045 1.07554C8.43617 0.773318 7.90728 0.877934 7.61377 1.30802C7.4801 1.50272 7.35804 1.70905 7.24762 1.91828C6.98026 2.41812 6.76522 2.9412 6.64026 3.49915H6.63736ZM16.9043 8.27371C16.7735 7.9773 16.4858 7.78259 16.2184 7.79131C15.9511 7.80003 15.6605 8.01798 15.5501 8.29986C15.9947 8.06448 16.4393 8.04123 16.9043 8.27662V8.27371ZM9.30797 8.17781C9.15395 7.90174 8.93891 7.70704 8.61053 7.71576C8.29378 7.72447 8.09326 7.91918 7.94506 8.19234C8.39839 7.93661 8.84592 7.97439 9.30797 8.17781ZM18.7496 11.4819C18.7612 11.4616 18.7728 11.4442 18.7844 11.4238C18.6885 11.3686 18.6014 11.2959 18.4997 11.264C18.3021 11.2001 18.0957 11.1565 17.8952 11.1071C17.5349 11.017 17.1774 10.924 16.8171 10.8397C16.7967 10.8862 16.7909 10.9153 16.7735 10.9676C17.4332 11.1419 18.0928 11.3134 18.7525 11.4819H18.7496ZM18.735 9.70927C18.6856 9.67731 18.645 9.64244 18.6043 9.60756C17.9708 9.7703 17.3402 9.94175 16.7096 10.1103C16.7415 10.151 16.7619 10.1771 16.7909 10.2207C17.439 10.0551 18.087 9.88073 18.735 9.71218V9.70927ZM8.29959 10.1074C8.17172 10.0725 8.04386 10.0377 7.916 10.0028C7.39582 9.8691 6.87565 9.73543 6.35257 9.60466C6.33223 9.65115 6.3177 9.68602 6.30317 9.7238C6.93086 9.88654 7.55856 10.0464 8.18625 10.2033C8.23275 10.1655 8.27343 10.1306 8.29959 10.1074ZM8.3054 10.9327C8.23566 10.8949 8.20369 10.863 8.15429 10.8339C7.54984 10.985 6.94539 11.1448 6.34385 11.3047C6.35547 11.3424 6.3671 11.3889 6.38163 11.4354C6.82043 11.3279 7.25343 11.2117 7.68933 11.0983C7.89565 11.046 8.09907 10.9879 8.3054 10.9356V10.9327Z" fill="white"/>
<path d="M19.476 11.5864C19.5836 11.7259 19.694 11.8625 19.7986 12.0049C20.4757 12.9348 20.8796 13.9839 21.1208 15.0998C21.1383 15.1841 21.1644 15.2683 21.1819 15.3526C21.2313 15.5851 21.1644 15.6606 20.929 15.6694C20.5658 15.6839 20.1967 15.6781 19.8364 15.7333C17.8719 16.0413 16.3172 17.4885 15.8755 19.4297C15.7825 19.8337 15.7447 20.255 15.736 20.6706C15.7157 21.6848 15.7302 22.7019 15.7302 23.7161C15.7302 23.8323 15.7302 23.9486 15.7215 24.0648C15.6866 24.5385 15.4861 24.7971 15.0299 24.9337C13.0131 25.5352 11.0254 25.4364 9.06093 24.6896C8.66281 24.5385 8.4652 24.2828 8.47683 23.8498C8.49426 23.1668 8.50298 22.481 8.50879 21.7981C8.5146 20.9612 8.49717 20.1272 8.29084 19.3106C7.86657 17.6338 6.80006 16.5499 5.19886 15.9541C5.03031 15.8902 4.86176 15.8321 4.69321 15.7711C4.68449 15.7682 4.67868 15.7565 4.65253 15.7246C5.45749 15.3265 5.96313 14.661 6.28861 13.8328C6.33801 13.8589 6.37288 13.8734 6.40194 13.8967C7.53819 14.8353 8.86623 15.3294 10.3047 15.5647C10.4878 15.5938 10.6709 15.6171 10.8539 15.6461C11.1009 15.6839 11.1678 15.7536 11.2056 16.0006C11.2201 16.0936 11.2317 16.1837 11.2521 16.2738C11.3974 16.8608 11.8594 17.2154 12.458 17.1979C13.0741 17.1805 13.5391 16.8143 13.6205 16.207C13.696 15.6432 13.7687 15.681 14.283 15.6054C15.3234 15.4514 16.3376 15.2131 17.2559 14.6871C17.7121 14.4285 18.1509 14.1234 18.5461 13.7805C19.136 13.2719 19.4208 12.5948 19.4208 11.8073C19.4208 11.7404 19.4208 11.6736 19.4208 11.6097C19.4383 11.6039 19.4586 11.5981 19.476 11.5893V11.5864Z" fill="white"/>
<path d="M8.29665 23.9776C7.91886 23.7626 7.5469 23.6289 7.14296 23.5882C6.51817 23.5301 5.9021 23.5824 5.29474 23.7161C4.76876 23.8323 4.41132 24.181 4.17593 24.6576C4.10328 24.8087 4.04226 24.9657 3.98414 25.1226C3.89696 25.3493 3.83303 25.3754 3.60345 25.2592C2.66772 24.7913 1.88891 24.1345 1.27284 23.2918C0.438816 22.1585 -0.0261447 20.8885 9.33115e-06 19.4704C0.0232573 18.308 0.412662 17.2967 1.36002 16.5673C2.00806 16.0675 2.73456 15.8321 3.57439 15.8495C4.22534 15.8612 4.84722 15.9309 5.43423 16.2012C7.22724 17.0236 8.19203 18.4417 8.29665 20.4032C8.35767 21.5482 8.31118 22.699 8.31118 23.8468C8.31118 23.8788 8.30536 23.9137 8.29665 23.9805V23.9776Z" fill="white"/>
<path d="M15.8785 23.9662C15.8785 23.6873 15.8785 23.3879 15.8785 23.0886C15.8843 22.2081 15.8697 21.3247 15.8988 20.4442C15.9279 19.5549 16.1371 18.7064 16.6515 17.9653C17.6308 16.5501 18.9792 15.8091 20.7111 15.8091C21.147 15.8091 21.5713 15.8846 21.9636 16.1142C22.2019 16.2537 22.4896 16.3176 22.7105 16.4746C23.6346 17.1342 24.1228 18.07 24.1693 19.183C24.2594 21.3944 23.405 23.2019 21.6614 24.5736C21.3563 24.8119 21.0221 25.0124 20.6908 25.2129C20.4147 25.3815 20.3072 25.3379 20.1997 25.0298C20.0457 24.5823 19.8074 24.1958 19.4034 23.943C19.2145 23.8238 19.0024 23.7192 18.7874 23.6756C18.1335 23.5478 17.4709 23.5332 16.8142 23.6378C16.5032 23.6873 16.2068 23.8442 15.8755 23.9633L15.8785 23.9662Z" fill="white"/>
<path d="M4.7281 14.1207C4.80657 14.2631 4.87922 14.4084 4.9693 14.545C5.02742 14.6293 5.1117 14.6961 5.18435 14.7717C5.34999 14.9402 5.35289 14.9925 5.19016 15.1582C5.1611 15.1872 5.13204 15.2163 5.10298 15.2424C4.70486 15.597 4.51597 15.5912 4.14981 15.2134C4.0016 15.0594 3.86211 14.8995 3.71681 14.7426C3.70228 14.7484 3.68775 14.7571 3.67613 14.7629C3.71391 14.8501 3.74006 14.946 3.79528 15.0245C3.88827 15.1553 4.00451 15.2686 4.10331 15.3994C4.1469 15.4575 4.21084 15.5447 4.1934 15.5941C4.17596 15.6493 4.08007 15.7074 4.01032 15.7161C3.42621 15.7975 2.87989 15.6725 2.38296 15.3529C1.47919 14.7717 1.06945 13.7865 1.2874 12.7346C1.48791 11.7669 2.3074 10.988 3.30416 10.8166C4.69614 10.5783 6.08521 11.6651 6.1782 13.0833C6.21888 13.6935 5.95734 14.2108 5.62025 14.6932C5.53597 14.8152 5.42554 14.8065 5.32965 14.6932C5.14947 14.4898 4.97221 14.2864 4.79494 14.0829C4.7746 14.0946 4.75135 14.1091 4.73101 14.1207H4.7281Z" fill="white"/>
<path d="M10.5779 2.01977C10.5779 1.70592 10.6564 1.61583 10.9644 1.57224C11.9524 1.42694 12.9405 1.42985 13.9285 1.57224C14.2424 1.61874 14.3353 1.71464 14.3324 2.02558C14.3266 2.75499 14.3557 3.4902 14.2947 4.21671C14.2133 5.1815 13.3851 5.88184 12.4203 5.87603C11.4729 5.86731 10.6883 5.14663 10.6069 4.17602C10.575 3.78371 10.5779 2.34524 10.5779 2.01977Z" fill="white"/>
<path d="M7.11682 25.1141C7.1081 25.2623 7.09357 25.4076 7.08776 25.5558C7.07614 25.9045 6.98314 26.0004 6.63733 25.9975C6.44553 25.9975 6.25374 26.0033 6.06485 25.9975C5.8004 25.9917 5.68997 25.8725 5.68997 25.6052C5.68997 25.457 5.68997 25.3117 5.68997 25.1635C5.66963 25.1606 5.64929 25.1577 5.62895 25.1548C5.61151 25.2071 5.58536 25.2594 5.58245 25.3146C5.57664 25.3843 5.58536 25.4541 5.58826 25.5238C5.60279 25.8667 5.55048 25.9684 5.21048 25.9917C4.90245 26.0149 4.5886 25.9713 4.28056 25.9336C4.11492 25.9132 4.07133 25.7679 4.06552 25.6197C4.05099 25.0937 4.28637 24.6695 4.63509 24.3004C4.89373 24.0272 5.2192 23.8674 5.58826 23.8035C6.1869 23.7018 6.78554 23.6756 7.38708 23.7802C8.14554 23.9168 8.59597 24.405 8.65119 25.1751C8.66281 25.3466 8.65119 25.5238 8.62794 25.6953C8.6076 25.8667 8.49426 25.9626 8.3199 25.9684C8.0758 25.9772 7.8346 25.9917 7.5905 25.9888C7.3028 25.983 7.20109 25.8609 7.20981 25.5703C7.21272 25.4192 7.20981 25.2681 7.20981 25.117C7.17785 25.117 7.14588 25.117 7.11391 25.117L7.11682 25.1141Z" fill="white"/>
<path d="M18.5258 25.1083C18.52 25.2362 18.5055 25.364 18.5084 25.4919C18.5171 25.8813 18.4125 25.9946 18.026 25.9946C17.8342 25.9946 17.6424 25.983 17.4535 25.9772C17.3169 25.9743 17.2414 25.9045 17.2152 25.7709C17.1774 25.5616 17.1338 25.3524 17.0932 25.1432C17.0757 25.1373 17.0583 25.1315 17.0437 25.1257C17.0205 25.178 16.9856 25.2303 16.9798 25.2856C16.9653 25.4309 16.9682 25.5762 16.9595 25.7185C16.9508 25.8929 16.8578 25.983 16.6805 25.9801C16.448 25.9772 16.2155 25.9801 15.986 25.9714C15.6925 25.9597 15.5704 25.8348 15.5501 25.5384C15.4832 24.5155 16.0005 23.8529 17.0176 23.7599C17.5494 23.7134 18.0986 23.7367 18.6275 23.8093C19.3831 23.9139 20.0021 24.5852 20.1212 25.3379C20.1357 25.4338 20.1386 25.5355 20.1299 25.6314C20.1096 25.8522 20.0021 25.9539 19.7841 25.9656C19.54 25.9772 19.2959 25.9859 19.0547 25.983C18.7467 25.983 18.6391 25.8668 18.6391 25.5587C18.6391 25.4076 18.6246 25.2536 18.6188 25.1025H18.5258V25.1083Z" fill="white"/>
<path d="M12.1471 15.9252C12.1791 15.9456 12.2081 15.9659 12.2401 15.9862C12.2401 15.9456 12.2401 15.9049 12.2401 15.8642C12.2081 15.8845 12.1762 15.9049 12.1471 15.9252ZM12.2401 16.0327C12.2401 16.0327 12.2372 16.0269 12.2343 16.0269C12.1936 16.0008 12.1529 15.9746 12.1122 15.9485C12.0396 15.9979 11.9698 16.0502 11.903 16.1083C11.8623 16.1432 11.8245 16.178 11.7897 16.2187C11.7693 16.2449 11.749 16.2681 11.7374 16.3001C11.7374 16.3088 11.7316 16.3233 11.7432 16.3263C11.7693 16.335 11.7955 16.3321 11.8216 16.3292C11.8856 16.3204 11.9466 16.303 12.0047 16.2827C12.0861 16.2536 12.1675 16.2216 12.2459 16.1839C12.243 16.1345 12.2401 16.0851 12.2372 16.0327H12.2401ZM12.1616 15.6259C12.1122 15.6027 12.0599 15.5823 12.0076 15.5649C11.9582 15.5474 11.9059 15.5329 11.8536 15.5242C11.8216 15.5184 11.7926 15.5155 11.7606 15.5184C11.7519 15.5184 11.7432 15.5213 11.7403 15.53C11.7403 15.5445 11.7461 15.5562 11.7519 15.5678C11.7722 15.6056 11.8013 15.6375 11.8304 15.6695C11.842 15.6811 11.8536 15.6927 11.8652 15.7015C11.8827 15.6898 11.9059 15.6869 11.9263 15.7015C11.9524 15.716 11.964 15.7509 11.9495 15.7799C12.0018 15.8235 12.0599 15.8642 12.1151 15.9049C12.1558 15.8787 12.1965 15.8526 12.2372 15.8264C12.2372 15.8264 12.243 15.8235 12.243 15.8177C12.243 15.7683 12.2488 15.716 12.2517 15.6666C12.2227 15.6521 12.1936 15.6404 12.1646 15.6259H12.1616ZM12.2779 16.0502C12.2779 16.088 12.2808 16.1257 12.2837 16.1635C12.3186 16.1461 12.3505 16.1286 12.3854 16.1112C12.3505 16.0909 12.3128 16.0705 12.2779 16.0502ZM12.2837 15.6811C12.2837 15.7189 12.2779 15.7567 12.2779 15.7945C12.3128 15.7741 12.3505 15.7538 12.3854 15.7334C12.3534 15.716 12.3186 15.6986 12.2837 15.6811ZM12.522 15.3876C12.5162 15.3556 12.5104 15.3266 12.5016 15.2975C12.49 15.2568 12.4784 15.2162 12.4581 15.1784C12.4493 15.1609 12.4406 15.1464 12.4232 15.1348C12.4116 15.1348 12.4057 15.1464 12.3999 15.1522C12.3796 15.1784 12.368 15.2103 12.3563 15.2423C12.3389 15.2888 12.3273 15.3382 12.3186 15.3876C12.3011 15.4719 12.2924 15.5591 12.2837 15.6433C12.3302 15.6666 12.3767 15.6898 12.4203 15.7131C12.4639 15.6898 12.5075 15.6666 12.554 15.6462C12.5481 15.5591 12.5365 15.4748 12.522 15.3876ZM12.461 16.1141C12.4929 16.1315 12.5249 16.149 12.5569 16.1635C12.5569 16.1286 12.5627 16.0909 12.5627 16.056C12.5307 16.0763 12.4958 16.0967 12.461 16.1141ZM12.5569 15.6869C12.5249 15.7044 12.4929 15.7189 12.461 15.7363C12.4958 15.7567 12.5278 15.7741 12.5627 15.7945C12.5627 15.7596 12.5598 15.7218 12.5569 15.6869ZM12.5627 15.838C12.5162 15.809 12.4697 15.7828 12.4203 15.7567C12.3709 15.7828 12.3215 15.8119 12.2721 15.8409C12.2721 15.8962 12.2721 15.9514 12.2721 16.0066C12.3215 16.0357 12.3709 16.0647 12.4203 16.0909C12.4697 16.0647 12.5162 16.0386 12.5627 16.0095C12.5627 15.9514 12.5627 15.8933 12.5627 15.8351V15.838ZM12.4581 16.0153C12.4261 16.0298 12.3825 16.0269 12.3563 16.0037C12.3215 15.9775 12.3099 15.9252 12.3273 15.8874C12.3389 15.8584 12.368 15.838 12.397 15.8322C12.4203 15.8264 12.4435 15.8322 12.4639 15.8409C12.4929 15.8555 12.5104 15.8845 12.5133 15.9165C12.5191 15.9572 12.4958 16.0008 12.4581 16.0153ZM12.6005 15.8613C12.6005 15.9049 12.6005 15.9456 12.6005 15.9892C12.6324 15.9688 12.6673 15.9485 12.6993 15.9252C12.6673 15.902 12.6324 15.8816 12.6005 15.8613ZM13.1003 16.2856C13.0799 16.2449 13.048 16.21 13.016 16.1751C12.9899 16.149 12.9637 16.1228 12.9346 16.0996C12.8707 16.0444 12.8039 15.995 12.7341 15.9456C12.6905 15.9746 12.6469 16.0037 12.6005 16.0298C12.6005 16.0792 12.5975 16.1286 12.5917 16.178C12.6702 16.2158 12.7487 16.2478 12.83 16.2768C12.8998 16.3001 12.9724 16.3233 13.048 16.3263C13.0683 16.3263 13.0887 16.3263 13.1061 16.3146C13.109 16.303 13.1061 16.2914 13.1003 16.2798V16.2856ZM13.1061 15.5271C13.1061 15.5271 13.0828 15.5184 13.0712 15.5155C13.0305 15.5155 12.9928 15.5213 12.9521 15.53C12.9259 15.5358 12.8998 15.5445 12.8736 15.5503C12.8736 15.5678 12.8649 15.5823 12.8504 15.5939C12.8271 15.6143 12.7893 15.6085 12.769 15.5881C12.708 15.6114 12.6499 15.6375 12.5917 15.6637C12.5888 15.6637 12.5859 15.6695 12.5888 15.6724C12.5917 15.7189 12.5946 15.7683 12.5946 15.8148C12.6382 15.8439 12.6847 15.87 12.7283 15.8991C12.7981 15.8526 12.8649 15.8003 12.9288 15.7451C12.9695 15.7102 13.0073 15.6753 13.0422 15.6346C13.0625 15.6114 13.0828 15.5852 13.0945 15.5562C13.0974 15.5474 13.1032 15.5358 13.1003 15.5242L13.1061 15.5271ZM13.1003 16.2856C13.0799 16.2449 13.048 16.21 13.016 16.1751C12.9899 16.149 12.9637 16.1228 12.9346 16.0996C12.8707 16.0444 12.8039 15.995 12.7341 15.9456C12.6905 15.9746 12.6469 16.0037 12.6005 16.0298C12.6005 16.0792 12.5975 16.1286 12.5917 16.178C12.6702 16.2158 12.7487 16.2478 12.83 16.2768C12.8998 16.3001 12.9724 16.3233 13.048 16.3263C13.0683 16.3263 13.0887 16.3263 13.1061 16.3146C13.109 16.303 13.1061 16.2914 13.1003 16.2798V16.2856ZM12.6005 15.8613C12.6005 15.9049 12.6005 15.9456 12.6005 15.9892C12.6324 15.9688 12.6673 15.9485 12.6993 15.9252C12.6673 15.902 12.6324 15.8816 12.6005 15.8613ZM12.5627 15.838C12.5162 15.809 12.4697 15.7828 12.4203 15.7567C12.3709 15.7828 12.3215 15.8119 12.2721 15.8409C12.2721 15.8962 12.2721 15.9514 12.2721 16.0066C12.3215 16.0357 12.3709 16.0647 12.4203 16.0909C12.4697 16.0647 12.5162 16.0386 12.5627 16.0095C12.5627 15.9514 12.5627 15.8933 12.5627 15.8351V15.838ZM12.4581 16.0153C12.4261 16.0298 12.3825 16.0269 12.3563 16.0037C12.3215 15.9775 12.3099 15.9252 12.3273 15.8874C12.3389 15.8584 12.368 15.838 12.397 15.8322C12.4203 15.8264 12.4435 15.8322 12.4639 15.8409C12.4929 15.8555 12.5104 15.8845 12.5133 15.9165C12.5191 15.9572 12.4958 16.0008 12.4581 16.0153ZM12.554 15.6869C12.522 15.7044 12.49 15.7189 12.4581 15.7363C12.4929 15.7567 12.5249 15.7741 12.5598 15.7945C12.5598 15.7596 12.5569 15.7218 12.554 15.6869ZM12.4581 16.1141C12.49 16.1315 12.522 16.149 12.554 16.1635C12.554 16.1286 12.5598 16.0909 12.5598 16.056C12.5278 16.0763 12.4929 16.0967 12.4581 16.1141ZM12.5191 15.3876C12.5133 15.3556 12.5075 15.3266 12.4987 15.2975C12.4871 15.2568 12.4755 15.2162 12.4552 15.1784C12.4464 15.1609 12.4377 15.1464 12.4203 15.1348C12.4087 15.1348 12.4028 15.1464 12.397 15.1522C12.3767 15.1784 12.3651 15.2103 12.3534 15.2423C12.336 15.2888 12.3244 15.3382 12.3157 15.3876C12.2982 15.4719 12.2895 15.5591 12.2808 15.6433C12.3273 15.6666 12.3738 15.6898 12.4174 15.7131C12.461 15.6898 12.5046 15.6666 12.551 15.6462C12.5452 15.5591 12.5336 15.4748 12.5191 15.3876ZM12.4203 16.1345C12.3738 16.1577 12.3302 16.181 12.2837 16.2042C12.2895 16.271 12.2953 16.3379 12.3069 16.4047H12.3128C12.3389 16.4105 12.3593 16.4367 12.3593 16.4628C12.3593 16.4832 12.3447 16.5035 12.3273 16.5151C12.3389 16.5587 12.3505 16.6023 12.368 16.643C12.3767 16.6604 12.3854 16.6808 12.3999 16.6953C12.4057 16.7011 12.4087 16.7069 12.4174 16.7098C12.4232 16.7098 12.429 16.7011 12.4348 16.6982C12.4493 16.6808 12.4581 16.6604 12.4668 16.6401C12.4929 16.582 12.5075 16.518 12.5191 16.457C12.5365 16.3727 12.5452 16.2856 12.554 16.1984C12.5104 16.178 12.4639 16.1548 12.4203 16.1315V16.1345ZM12.2808 15.6811C12.2808 15.7189 12.275 15.7567 12.275 15.7945C12.3099 15.7741 12.3476 15.7538 12.3825 15.7334C12.3505 15.716 12.3157 15.6986 12.2808 15.6811ZM12.275 16.0502C12.275 16.088 12.2779 16.1257 12.2808 16.1635C12.3157 16.1461 12.3476 16.1286 12.3825 16.1112C12.3476 16.0909 12.3099 16.0705 12.275 16.0502ZM12.1587 15.6259C12.1093 15.6027 12.057 15.5823 12.0047 15.5649C11.9553 15.5474 11.903 15.5329 11.8507 15.5242C11.8187 15.5184 11.7897 15.5155 11.7577 15.5184C11.749 15.5184 11.7403 15.5213 11.7374 15.53C11.7374 15.5445 11.7432 15.5562 11.749 15.5678C11.7693 15.6056 11.7984 15.6375 11.8275 15.6695C11.8391 15.6811 11.8507 15.6927 11.8623 15.7015C11.8798 15.6898 11.903 15.6869 11.9234 15.7015C11.9495 15.716 11.9611 15.7509 11.9466 15.7799C11.9989 15.8235 12.057 15.8642 12.1122 15.9049C12.1529 15.8787 12.1936 15.8526 12.2343 15.8264C12.2343 15.8264 12.2401 15.8235 12.2401 15.8177C12.2401 15.7683 12.2459 15.716 12.2488 15.6666C12.2198 15.6521 12.1907 15.6404 12.1616 15.6259H12.1587ZM12.2372 16.0327C12.2372 16.0327 12.2343 16.0269 12.2314 16.0269C12.1907 16.0008 12.15 15.9746 12.1093 15.9485C12.0367 15.9979 11.9669 16.0502 11.9001 16.1083C11.8594 16.1432 11.8216 16.178 11.7868 16.2187C11.7664 16.2449 11.7461 16.2681 11.7345 16.3001C11.7345 16.3088 11.7287 16.3233 11.7403 16.3263C11.7664 16.335 11.7926 16.3321 11.8187 16.3292C11.8827 16.3204 11.9437 16.303 12.0018 16.2827C12.0832 16.2536 12.1646 16.2216 12.243 16.1839C12.2401 16.1345 12.2372 16.0851 12.2343 16.0327H12.2372ZM12.1442 15.9252C12.1762 15.9456 12.2052 15.9659 12.2372 15.9862C12.2372 15.9456 12.2372 15.9049 12.2372 15.8642C12.2052 15.8845 12.1733 15.9049 12.1442 15.9252ZM12.1442 15.9252C12.1762 15.9456 12.2052 15.9659 12.2372 15.9862C12.2372 15.9456 12.2372 15.9049 12.2372 15.8642C12.2052 15.8845 12.1733 15.9049 12.1442 15.9252ZM12.2372 16.0327C12.2372 16.0327 12.2343 16.0269 12.2314 16.0269C12.1907 16.0008 12.15 15.9746 12.1093 15.9485C12.0367 15.9979 11.9669 16.0502 11.9001 16.1083C11.8594 16.1432 11.8216 16.178 11.7868 16.2187C11.7664 16.2449 11.7461 16.2681 11.7345 16.3001C11.7345 16.3088 11.7287 16.3233 11.7403 16.3263C11.7664 16.335 11.7926 16.3321 11.8187 16.3292C11.8827 16.3204 11.9437 16.303 12.0018 16.2827C12.0832 16.2536 12.1646 16.2216 12.243 16.1839C12.2401 16.1345 12.2372 16.0851 12.2343 16.0327H12.2372ZM12.1587 15.6259C12.1093 15.6027 12.057 15.5823 12.0047 15.5649C11.9553 15.5474 11.903 15.5329 11.8507 15.5242C11.8187 15.5184 11.7897 15.5155 11.7577 15.5184C11.749 15.5184 11.7403 15.5213 11.7374 15.53C11.7374 15.5445 11.7432 15.5562 11.749 15.5678C11.7693 15.6056 11.7984 15.6375 11.8275 15.6695C11.8391 15.6811 11.8507 15.6927 11.8623 15.7015C11.8798 15.6898 11.903 15.6869 11.9234 15.7015C11.9495 15.716 11.9611 15.7509 11.9466 15.7799C11.9989 15.8235 12.057 15.8642 12.1122 15.9049C12.1529 15.8787 12.1936 15.8526 12.2343 15.8264C12.2343 15.8264 12.2401 15.8235 12.2401 15.8177C12.2401 15.7683 12.2459 15.716 12.2488 15.6666C12.2198 15.6521 12.1907 15.6404 12.1616 15.6259H12.1587ZM12.275 16.0502C12.275 16.088 12.2779 16.1257 12.2808 16.1635C12.3157 16.1461 12.3476 16.1286 12.3825 16.1112C12.3476 16.0909 12.3099 16.0705 12.275 16.0502ZM12.2808 15.6811C12.2808 15.7189 12.275 15.7567 12.275 15.7945C12.3099 15.7741 12.3476 15.7538 12.3825 15.7334C12.3505 15.716 12.3157 15.6986 12.2808 15.6811ZM12.5191 15.3876C12.5133 15.3556 12.5075 15.3266 12.4987 15.2975C12.4871 15.2568 12.4755 15.2162 12.4552 15.1784C12.4464 15.1609 12.4377 15.1464 12.4203 15.1348C12.4087 15.1348 12.4028 15.1464 12.397 15.1522C12.3767 15.1784 12.3651 15.2103 12.3534 15.2423C12.336 15.2888 12.3244 15.3382 12.3157 15.3876C12.2982 15.4719 12.2895 15.5591 12.2808 15.6433C12.3273 15.6666 12.3738 15.6898 12.4174 15.7131C12.461 15.6898 12.5046 15.6666 12.551 15.6462C12.5452 15.5591 12.5336 15.4748 12.5191 15.3876ZM12.4581 16.1141C12.49 16.1315 12.522 16.149 12.554 16.1635C12.554 16.1286 12.5598 16.0909 12.5598 16.056C12.5278 16.0763 12.4929 16.0967 12.4581 16.1141ZM12.554 15.6869C12.522 15.7044 12.49 15.7189 12.4581 15.7363C12.4929 15.7567 12.5249 15.7741 12.5598 15.7945C12.5598 15.7596 12.5569 15.7218 12.554 15.6869ZM12.5598 15.838C12.5133 15.809 12.4668 15.7828 12.4174 15.7567C12.368 15.7828 12.3186 15.8119 12.2692 15.8409C12.2692 15.8962 12.2692 15.9514 12.2692 16.0066C12.3186 16.0357 12.368 16.0647 12.4174 16.0909C12.4668 16.0647 12.5133 16.0386 12.5598 16.0095C12.5598 15.9514 12.5598 15.8933 12.5598 15.8351V15.838ZM12.4552 16.0153C12.4232 16.0298 12.3796 16.0269 12.3534 16.0037C12.3186 15.9775 12.3069 15.9252 12.3244 15.8874C12.336 15.8584 12.3651 15.838 12.3941 15.8322C12.4174 15.8264 12.4406 15.8322 12.461 15.8409C12.49 15.8555 12.5075 15.8845 12.5104 15.9165C12.5162 15.9572 12.4929 16.0008 12.4552 16.0153ZM12.5975 15.8613C12.5975 15.9049 12.5975 15.9456 12.5975 15.9892C12.6295 15.9688 12.6644 15.9485 12.6963 15.9252C12.6644 15.902 12.6295 15.8816 12.5975 15.8613ZM13.0974 16.2856C13.077 16.2449 13.0451 16.21 13.0131 16.1751C12.987 16.149 12.9608 16.1228 12.9317 16.0996C12.8678 16.0444 12.801 15.995 12.7312 15.9456C12.6876 15.9746 12.644 16.0037 12.5975 16.0298C12.5975 16.0792 12.5946 16.1286 12.5888 16.178C12.6673 16.2158 12.7458 16.2478 12.8271 16.2768C12.8969 16.3001 12.9695 16.3233 13.0451 16.3263C13.0654 16.3263 13.0858 16.3263 13.1032 16.3146C13.1061 16.303 13.1032 16.2914 13.0974 16.2798V16.2856ZM13.1032 15.5271C13.1032 15.5271 13.0799 15.5184 13.0683 15.5155C13.0276 15.5155 12.9899 15.5213 12.9492 15.53C12.923 15.5358 12.8969 15.5445 12.8707 15.5503C12.8707 15.5678 12.862 15.5823 12.8475 15.5939C12.8242 15.6143 12.7864 15.6085 12.7661 15.5881C12.7051 15.6114 12.6469 15.6375 12.5888 15.6637C12.5859 15.6637 12.583 15.6695 12.5859 15.6724C12.5888 15.7189 12.5917 15.7683 12.5917 15.8148C12.6353 15.8439 12.6818 15.87 12.7254 15.8991C12.7952 15.8526 12.862 15.8003 12.9259 15.7451C12.9666 15.7102 13.0044 15.6753 13.0393 15.6346C13.0596 15.6114 13.0799 15.5852 13.0916 15.5562C13.0945 15.5474 13.1003 15.5358 13.0974 15.5242L13.1032 15.5271ZM12.7283 15.902C12.7981 15.8555 12.8649 15.8032 12.9288 15.748C12.9695 15.7131 13.0073 15.6782 13.0422 15.6375C13.0625 15.6143 13.0828 15.5881 13.0945 15.5591C13.0974 15.5503 13.1032 15.5387 13.1003 15.5271C13.0916 15.5184 13.077 15.5184 13.0654 15.5155C13.0247 15.5155 12.987 15.5213 12.9463 15.53C12.9201 15.5358 12.894 15.5445 12.8678 15.5503C12.8678 15.5678 12.8591 15.5823 12.8446 15.5939C12.8213 15.6143 12.7835 15.6085 12.7632 15.5881C12.7022 15.6114 12.644 15.6375 12.5859 15.6637C12.583 15.6637 12.5801 15.6695 12.583 15.6724C12.5859 15.7189 12.5888 15.7683 12.5888 15.8148C12.6324 15.8439 12.6789 15.87 12.7225 15.8991L12.7283 15.902ZM13.0102 16.1751C12.984 16.149 12.9579 16.1228 12.9288 16.0996C12.8649 16.0444 12.7981 15.995 12.7283 15.9456C12.6847 15.9746 12.6411 16.0037 12.5946 16.0298C12.5946 16.0792 12.5917 16.1286 12.5859 16.178C12.6644 16.2158 12.7428 16.2478 12.8242 16.2768C12.894 16.3001 12.9666 16.3233 13.0422 16.3263C13.0625 16.3263 13.0828 16.3263 13.1003 16.3146C13.1032 16.303 13.1003 16.2914 13.0945 16.2798C13.0741 16.2391 13.0422 16.2042 13.0102 16.1693V16.1751ZM12.6934 15.9223C12.6615 15.8991 12.6266 15.8787 12.5946 15.8584C12.5946 15.902 12.5946 15.9427 12.5946 15.9862C12.6266 15.9659 12.6615 15.9456 12.6934 15.9223ZM12.4145 15.7538C12.3651 15.7799 12.3157 15.809 12.2663 15.838C12.2663 15.8933 12.2663 15.9485 12.2663 16.0037C12.3157 16.0327 12.3651 16.0618 12.4145 16.088C12.4639 16.0618 12.5104 16.0357 12.5569 16.0066C12.5569 15.9485 12.5569 15.8904 12.5569 15.8322C12.5104 15.8032 12.4639 15.777 12.4145 15.7509V15.7538ZM12.4522 16.0124C12.4203 16.0269 12.3767 16.024 12.3505 16.0008C12.3157 15.9746 12.304 15.9223 12.3215 15.8845C12.3331 15.8555 12.3622 15.8351 12.3912 15.8293C12.4145 15.8235 12.4377 15.8293 12.4581 15.838C12.4871 15.8526 12.5046 15.8816 12.5075 15.9136C12.5133 15.9543 12.49 15.9979 12.4522 16.0124ZM12.554 15.7915C12.554 15.7567 12.5511 15.7189 12.5481 15.684C12.5162 15.7015 12.4842 15.716 12.4522 15.7334C12.4871 15.7538 12.5191 15.7712 12.554 15.7915ZM12.5481 16.1606C12.5481 16.1257 12.554 16.088 12.554 16.0531C12.522 16.0734 12.4871 16.0938 12.4522 16.1112C12.4842 16.1286 12.5162 16.1461 12.5481 16.1606ZM12.5481 15.6433C12.5423 15.5562 12.5307 15.4719 12.5162 15.3847C12.5104 15.3527 12.5046 15.3237 12.4958 15.2946C12.4842 15.2539 12.4726 15.2133 12.4522 15.1755C12.4435 15.158 12.4348 15.1435 12.4174 15.1319C12.4057 15.1319 12.3999 15.1435 12.3941 15.1493C12.3738 15.1755 12.3622 15.2074 12.3505 15.2394C12.3331 15.2859 12.3215 15.3353 12.3128 15.3847C12.2953 15.469 12.2866 15.5562 12.2779 15.6404C12.3244 15.6637 12.3709 15.6869 12.4145 15.7102C12.4581 15.6869 12.5016 15.6637 12.5481 15.6433ZM12.2779 16.2042C12.2837 16.271 12.2895 16.3379 12.3011 16.4047H12.3069C12.3331 16.4105 12.3534 16.4367 12.3534 16.4628C12.3534 16.4832 12.3389 16.5035 12.3215 16.5151C12.3331 16.5587 12.3447 16.6023 12.3622 16.643C12.3709 16.6604 12.3796 16.6808 12.3941 16.6953C12.3999 16.7011 12.4028 16.7069 12.4116 16.7098C12.4174 16.7098 12.4232 16.7011 12.429 16.6982C12.4435 16.6808 12.4522 16.6604 12.461 16.6401C12.4871 16.582 12.5016 16.518 12.5133 16.457C12.5307 16.3727 12.5394 16.2856 12.5481 16.1984C12.5046 16.178 12.4581 16.1548 12.4145 16.1315C12.368 16.1548 12.3244 16.178 12.2779 16.2013V16.2042ZM12.2779 15.6811C12.2779 15.7189 12.2721 15.7567 12.2721 15.7945C12.3069 15.7741 12.3447 15.7538 12.3796 15.7334C12.3476 15.716 12.3128 15.6986 12.2779 15.6811ZM12.2721 16.0502C12.2721 16.088 12.275 16.1257 12.2779 16.1635C12.3128 16.1461 12.3447 16.1286 12.3796 16.1112C12.3447 16.0909 12.3069 16.0705 12.2721 16.0502ZM11.8216 15.6695C11.8216 15.6695 11.8449 15.6927 11.8565 15.7015C11.874 15.6898 11.8972 15.6869 11.9175 15.7015C11.9437 15.716 11.9553 15.7509 11.9408 15.7799C11.9931 15.8235 12.0512 15.8642 12.1064 15.9049C12.1471 15.8787 12.1878 15.8526 12.2285 15.8264C12.2285 15.8264 12.2343 15.8235 12.2343 15.8177C12.2343 15.7683 12.2401 15.716 12.243 15.6666C12.214 15.6521 12.1849 15.6404 12.1558 15.6259C12.1064 15.6027 12.0541 15.5823 12.0018 15.5649C11.9524 15.5474 11.9001 15.5329 11.8478 15.5242C11.8158 15.5184 11.7868 15.5155 11.7548 15.5184C11.7461 15.5184 11.7374 15.5213 11.7345 15.53C11.7345 15.5445 11.7403 15.5562 11.7461 15.5678C11.7664 15.6056 11.7955 15.6375 11.8245 15.6695H11.8216ZM12.2285 16.024C12.1878 15.9979 12.1471 15.9717 12.1064 15.9456C12.0338 15.995 11.964 16.0473 11.8972 16.1054C11.8565 16.1403 11.8187 16.1751 11.7839 16.2158C11.7635 16.242 11.7432 16.2652 11.7316 16.2972C11.7316 16.3059 11.7257 16.3204 11.7374 16.3233C11.7635 16.3321 11.7897 16.3292 11.8158 16.3263C11.8798 16.3175 11.9408 16.3001 11.9989 16.2798C12.0803 16.2507 12.1616 16.2187 12.2401 16.181C12.2372 16.1315 12.2343 16.0821 12.2314 16.0298C12.2314 16.0269 12.2285 16.024 12.2256 16.024H12.2285ZM12.2343 15.9833C12.2343 15.9427 12.2343 15.902 12.2343 15.8613C12.2023 15.8816 12.1704 15.902 12.1413 15.9223C12.1733 15.9427 12.2023 15.963 12.2343 15.9833ZM12.4116 14.8965C11.8129 14.8965 11.3334 15.3527 11.3334 15.9194C11.3334 16.4832 11.8129 16.9452 12.4087 16.9481C13.0131 16.951 13.5042 16.4919 13.5071 15.9223C13.5071 15.3527 13.0189 14.8936 12.4116 14.8965ZM12.9405 16.0589C12.9957 16.1054 13.048 16.1548 13.0916 16.21C13.1119 16.2362 13.1293 16.2623 13.1381 16.2914C13.1439 16.3088 13.1439 16.3321 13.1293 16.3437C13.1119 16.3611 13.0828 16.364 13.0596 16.364C13.0102 16.364 12.9608 16.3553 12.9143 16.3408C12.8736 16.3292 12.8358 16.3175 12.7981 16.303C12.7254 16.2768 12.6557 16.2478 12.5859 16.2129C12.5801 16.2914 12.5685 16.3669 12.5569 16.4425C12.5481 16.4919 12.5365 16.5384 12.522 16.5878C12.5104 16.6256 12.4958 16.6604 12.4755 16.6953C12.4639 16.7128 12.4493 16.7331 12.4261 16.7418C12.4087 16.7476 12.3883 16.7418 12.3767 16.7273C12.3563 16.7069 12.3418 16.6808 12.3302 16.6546C12.3099 16.611 12.2982 16.5616 12.2866 16.5151C12.2692 16.5122 12.2546 16.5006 12.2459 16.4861C12.2372 16.4716 12.2372 16.4512 12.243 16.4338C12.2488 16.4221 12.2546 16.4134 12.2663 16.4076C12.2546 16.3437 12.2488 16.2768 12.243 16.2129C12.1733 16.2449 12.1006 16.2768 12.028 16.303C11.9698 16.3233 11.9117 16.3408 11.8507 16.3524C11.8187 16.3582 11.7868 16.3611 11.7548 16.3582C11.7345 16.3582 11.7141 16.3495 11.7025 16.335C11.6909 16.3204 11.6909 16.3001 11.6967 16.2827C11.7083 16.2478 11.7287 16.2187 11.7519 16.1926C11.7926 16.1432 11.8391 16.0996 11.8856 16.0589C11.9437 16.0095 12.0076 15.9601 12.0716 15.9165C12.0716 15.9165 12.0687 15.9136 12.0657 15.9107C12.0134 15.8729 11.9611 15.8351 11.9117 15.7945C11.9001 15.8003 11.8885 15.8003 11.8798 15.8003C11.8623 15.8003 11.8478 15.7886 11.8391 15.7741C11.8304 15.7596 11.8275 15.7392 11.8304 15.7247C11.7897 15.6869 11.7519 15.6462 11.7199 15.5998C11.7083 15.5794 11.6938 15.5562 11.6909 15.5329C11.6909 15.5184 11.6938 15.5009 11.7083 15.4922C11.7257 15.4777 11.7519 15.4748 11.7722 15.4748C11.8158 15.4748 11.8594 15.4835 11.9001 15.4922C11.9437 15.5039 11.9844 15.5155 12.0251 15.53C12.0977 15.5562 12.1704 15.5852 12.2401 15.6201C12.2459 15.5445 12.2575 15.4661 12.2692 15.3905C12.2808 15.3324 12.2924 15.2772 12.3099 15.222C12.3244 15.1842 12.3389 15.1464 12.3651 15.1144C12.3767 15.0999 12.397 15.0883 12.4174 15.0912C12.4377 15.097 12.4552 15.1144 12.4668 15.1319C12.4871 15.1639 12.5016 15.2016 12.5133 15.2394C12.5307 15.2888 12.5423 15.3411 12.551 15.3934C12.5656 15.469 12.5743 15.5474 12.5801 15.623C12.6353 15.5968 12.6934 15.5736 12.7487 15.5503C12.7487 15.5358 12.7516 15.5213 12.7603 15.5097C12.769 15.498 12.7835 15.4893 12.7981 15.4893C12.8184 15.4893 12.8417 15.498 12.8533 15.5155C12.9085 15.498 12.9666 15.4835 13.0247 15.4777C13.0509 15.4777 13.0741 15.4777 13.1003 15.4864C13.1148 15.4922 13.1293 15.5039 13.1323 15.5213C13.1352 15.5387 13.1323 15.5533 13.1235 15.5707C13.109 15.6027 13.0887 15.6317 13.0654 15.6579C13.0247 15.7044 12.9782 15.748 12.9317 15.7886C12.894 15.8206 12.8533 15.8526 12.8126 15.8816C12.7922 15.8962 12.7719 15.9078 12.7545 15.9252C12.8155 15.9688 12.8736 16.0124 12.9317 16.0618L12.9405 16.0589ZM13.0451 15.6346C13.0654 15.6114 13.0858 15.5852 13.0974 15.5562C13.1003 15.5474 13.1061 15.5358 13.1032 15.5242C13.0945 15.5155 13.0799 15.5155 13.0683 15.5126C13.0276 15.5126 12.9899 15.5184 12.9492 15.5271C12.923 15.5329 12.8969 15.5416 12.8707 15.5474C12.8707 15.5649 12.862 15.5794 12.8475 15.591C12.8242 15.6114 12.7864 15.6056 12.7661 15.5852C12.7051 15.6085 12.6469 15.6346 12.5888 15.6608C12.5859 15.6608 12.583 15.6666 12.5859 15.6695C12.5888 15.716 12.5917 15.7654 12.5917 15.8119C12.6353 15.8409 12.6818 15.8671 12.7254 15.8962C12.7952 15.8497 12.862 15.7974 12.9259 15.7421C12.9666 15.7073 13.0044 15.6724 13.0393 15.6317L13.0451 15.6346ZM12.5975 16.0298C12.5975 16.0792 12.5946 16.1286 12.5888 16.178C12.6673 16.2158 12.7458 16.2478 12.8271 16.2768C12.8969 16.3001 12.9695 16.3233 13.0451 16.3263C13.0654 16.3263 13.0858 16.3263 13.1032 16.3146C13.1061 16.303 13.1032 16.2914 13.0974 16.2798C13.077 16.2391 13.0451 16.2042 13.0131 16.1693C12.987 16.1432 12.9608 16.117 12.9317 16.0938C12.8678 16.0386 12.801 15.9892 12.7312 15.9398C12.6876 15.9688 12.644 15.9979 12.5975 16.024V16.0298ZM12.5975 15.9862C12.6295 15.9659 12.6644 15.9456 12.6963 15.9223C12.6644 15.8991 12.6295 15.8787 12.5975 15.8584C12.5975 15.902 12.5975 15.9427 12.5975 15.9862ZM12.4174 15.7538C12.368 15.7799 12.3186 15.809 12.2692 15.838C12.2692 15.8933 12.2692 15.9485 12.2692 16.0037C12.3186 16.0327 12.368 16.0618 12.4174 16.088C12.4668 16.0618 12.5133 16.0357 12.5598 16.0066C12.5598 15.9485 12.5598 15.8904 12.5598 15.8322C12.5133 15.8032 12.4668 15.777 12.4174 15.7509V15.7538ZM12.4552 16.0124C12.4232 16.0269 12.3796 16.024 12.3534 16.0008C12.3186 15.9746 12.3069 15.9223 12.3244 15.8845C12.336 15.8555 12.3651 15.8351 12.3941 15.8293C12.4174 15.8235 12.4406 15.8293 12.461 15.838C12.49 15.8526 12.5075 15.8816 12.5104 15.9136C12.5162 15.9543 12.4929 15.9979 12.4552 16.0124ZM12.5569 15.7915C12.5569 15.7567 12.554 15.7189 12.551 15.684C12.5191 15.7015 12.4871 15.716 12.4552 15.7334C12.49 15.7538 12.522 15.7712 12.5569 15.7915ZM12.551 16.1606C12.551 16.1257 12.5569 16.088 12.5569 16.0531C12.5249 16.0734 12.49 16.0938 12.4552 16.1112C12.4871 16.1286 12.5191 16.1461 12.551 16.1606ZM12.551 15.6433C12.5452 15.5562 12.5336 15.4719 12.5191 15.3847C12.5133 15.3527 12.5075 15.3237 12.4987 15.2946C12.4871 15.2539 12.4755 15.2133 12.4552 15.1755C12.4464 15.158 12.4377 15.1435 12.4203 15.1319C12.4087 15.1319 12.4028 15.1435 12.397 15.1493C12.3767 15.1755 12.3651 15.2074 12.3534 15.2394C12.336 15.2859 12.3244 15.3353 12.3157 15.3847C12.2982 15.469 12.2895 15.5562 12.2808 15.6404C12.3273 15.6637 12.3738 15.6869 12.4174 15.7102C12.461 15.6869 12.5046 15.6637 12.551 15.6433ZM12.2808 16.2042C12.2866 16.271 12.2924 16.3379 12.304 16.4047H12.3099C12.336 16.4105 12.3563 16.4367 12.3563 16.4628C12.3563 16.4832 12.3418 16.5035 12.3244 16.5151C12.336 16.5587 12.3476 16.6023 12.3651 16.643C12.3738 16.6604 12.3825 16.6808 12.397 16.6953C12.4028 16.7011 12.4058 16.7069 12.4145 16.7098C12.4203 16.7098 12.4261 16.7011 12.4319 16.6982C12.4464 16.6808 12.4552 16.6604 12.4639 16.6401C12.49 16.582 12.5046 16.518 12.5162 16.457C12.5336 16.3727 12.5423 16.2856 12.551 16.1984C12.5075 16.178 12.461 16.1548 12.4174 16.1315C12.3709 16.1548 12.3273 16.178 12.2808 16.2013V16.2042ZM12.2808 15.6811C12.2808 15.7189 12.275 15.7567 12.275 15.7945C12.3099 15.7741 12.3476 15.7538 12.3825 15.7334C12.3505 15.716 12.3157 15.6986 12.2808 15.6811ZM12.275 16.0502C12.275 16.088 12.2779 16.1257 12.2808 16.1635C12.3157 16.1461 12.3476 16.1286 12.3825 16.1112C12.3476 16.0909 12.3099 16.0705 12.275 16.0502ZM12.2314 15.8235C12.2314 15.8235 12.2372 15.8206 12.2372 15.8148C12.2372 15.7654 12.243 15.7131 12.2459 15.6637C12.2169 15.6492 12.1878 15.6375 12.1587 15.623C12.1093 15.5998 12.057 15.5794 12.0047 15.562C11.9553 15.5445 11.903 15.53 11.8507 15.5213C11.8187 15.5155 11.7897 15.5126 11.7577 15.5155C11.749 15.5155 11.7403 15.5184 11.7374 15.5271C11.7374 15.5416 11.7432 15.5533 11.749 15.5649C11.7693 15.6027 11.7984 15.6346 11.8275 15.6666C11.8391 15.6782 11.8507 15.6898 11.8623 15.6986C11.8798 15.6869 11.903 15.684 11.9234 15.6986C11.9495 15.7131 11.9611 15.748 11.9466 15.777C11.9989 15.8206 12.057 15.8613 12.1122 15.902C12.1529 15.8758 12.1936 15.8497 12.2343 15.8235H12.2314ZM12.2314 16.024C12.1907 15.9979 12.15 15.9717 12.1093 15.9456C12.0367 15.995 11.9669 16.0473 11.9001 16.1054C11.8594 16.1403 11.8216 16.1751 11.7868 16.2158C11.7664 16.242 11.7461 16.2652 11.7345 16.2972C11.7345 16.3059 11.7287 16.3204 11.7403 16.3233C11.7664 16.3321 11.7926 16.3292 11.8187 16.3263C11.8827 16.3175 11.9437 16.3001 12.0018 16.2798C12.0832 16.2507 12.1646 16.2187 12.243 16.181C12.2401 16.1315 12.2372 16.0821 12.2343 16.0298C12.2343 16.0269 12.2314 16.024 12.2285 16.024H12.2314ZM12.2372 15.9833C12.2372 15.9427 12.2372 15.902 12.2372 15.8613C12.2052 15.8816 12.1733 15.902 12.1442 15.9223C12.1762 15.9427 12.2052 15.963 12.2372 15.9833ZM12.1442 15.9223C12.1762 15.9427 12.2052 15.963 12.2372 15.9833C12.2372 15.9427 12.2372 15.902 12.2372 15.8613C12.2052 15.8816 12.1733 15.902 12.1442 15.9223ZM12.2372 16.0298C12.2372 16.0298 12.2343 16.024 12.2314 16.024C12.1907 15.9979 12.15 15.9717 12.1093 15.9456C12.0367 15.995 11.9669 16.0473 11.9001 16.1054C11.8594 16.1403 11.8216 16.1751 11.7868 16.2158C11.7664 16.242 11.7461 16.2652 11.7345 16.2972C11.7345 16.3059 11.7287 16.3204 11.7403 16.3233C11.7664 16.3321 11.7926 16.3292 11.8187 16.3263C11.8827 16.3175 11.9437 16.3001 12.0018 16.2798C12.0832 16.2507 12.1646 16.2187 12.243 16.181C12.2401 16.1315 12.2372 16.0821 12.2343 16.0298H12.2372ZM12.1587 15.623C12.1093 15.5998 12.057 15.5794 12.0047 15.562C11.9553 15.5445 11.903 15.53 11.8507 15.5213C11.8187 15.5155 11.7897 15.5126 11.7577 15.5155C11.749 15.5155 11.7403 15.5184 11.7374 15.5271C11.7374 15.5416 11.7432 15.5533 11.749 15.5649C11.7693 15.6027 11.7984 15.6346 11.8275 15.6666C11.8391 15.6782 11.8507 15.6898 11.8623 15.6986C11.8798 15.6869 11.903 15.684 11.9234 15.6986C11.9495 15.7131 11.9611 15.748 11.9466 15.777C11.9989 15.8206 12.057 15.8613 12.1122 15.902C12.1529 15.8758 12.1936 15.8497 12.2343 15.8235C12.2343 15.8235 12.2401 15.8206 12.2401 15.8148C12.2401 15.7654 12.2459 15.7131 12.2488 15.6637C12.2198 15.6492 12.1907 15.6375 12.1616 15.623H12.1587ZM12.275 16.0473C12.275 16.0851 12.2779 16.1228 12.2808 16.1606C12.3157 16.1432 12.3476 16.1257 12.3825 16.1083C12.3476 16.088 12.3099 16.0676 12.275 16.0473ZM12.2808 15.6782C12.2808 15.716 12.275 15.7538 12.275 15.7915C12.3099 15.7712 12.3476 15.7509 12.3825 15.7305C12.3505 15.7131 12.3157 15.6956 12.2808 15.6782ZM12.4203 16.1315C12.3738 16.1548 12.3302 16.178 12.2837 16.2013C12.2895 16.2681 12.2953 16.335 12.3069 16.4018H12.3128C12.3389 16.4076 12.3593 16.4338 12.3593 16.4599C12.3593 16.4803 12.3447 16.5006 12.3273 16.5122C12.3389 16.5558 12.3505 16.5994 12.368 16.6401C12.3767 16.6575 12.3854 16.6779 12.3999 16.6924C12.4057 16.6982 12.4087 16.704 12.4174 16.7069C12.4232 16.7069 12.429 16.6982 12.4348 16.6953C12.4493 16.6779 12.4581 16.6575 12.4668 16.6372C12.4929 16.5791 12.5075 16.5151 12.5191 16.4541C12.5365 16.3698 12.5452 16.2827 12.554 16.1955C12.5104 16.1751 12.4639 16.1519 12.4203 16.1286V16.1315ZM12.5191 15.3847C12.5133 15.3527 12.5075 15.3237 12.4987 15.2946C12.4871 15.2539 12.4755 15.2133 12.4552 15.1755C12.4464 15.158 12.4377 15.1435 12.4203 15.1319C12.4087 15.1319 12.4028 15.1435 12.397 15.1493C12.3767 15.1755 12.3651 15.2074 12.3534 15.2394C12.336 15.2859 12.3244 15.3353 12.3157 15.3847C12.2982 15.469 12.2895 15.5562 12.2808 15.6404C12.3273 15.6637 12.3738 15.6869 12.4174 15.7102C12.461 15.6869 12.5046 15.6637 12.551 15.6433C12.5452 15.5562 12.5336 15.4719 12.5191 15.3847ZM12.4581 16.1112C12.49 16.1286 12.522 16.1461 12.554 16.1606C12.554 16.1257 12.5598 16.088 12.5598 16.0531C12.5278 16.0734 12.4929 16.0938 12.4581 16.1112ZM12.554 15.684C12.522 15.7015 12.49 15.716 12.4581 15.7334C12.4929 15.7538 12.5249 15.7712 12.5598 15.7915C12.5598 15.7567 12.5569 15.7189 12.554 15.684ZM12.5598 15.8351C12.5133 15.8061 12.4668 15.7799 12.4174 15.7538C12.368 15.7799 12.3186 15.809 12.2692 15.838C12.2692 15.8933 12.2692 15.9485 12.2692 16.0037C12.3186 16.0327 12.368 16.0618 12.4174 16.088C12.4668 16.0618 12.5133 16.0357 12.5598 16.0066C12.5598 15.9485 12.5598 15.8904 12.5598 15.8322V15.8351ZM12.4552 16.0124C12.4232 16.0269 12.3796 16.024 12.3534 16.0008C12.3186 15.9746 12.3069 15.9223 12.3244 15.8845C12.336 15.8555 12.3651 15.8351 12.3941 15.8293C12.4174 15.8235 12.4406 15.8293 12.461 15.838C12.49 15.8526 12.5075 15.8816 12.5104 15.9136C12.5162 15.9543 12.4929 15.9979 12.4552 16.0124ZM12.5975 15.8584C12.5975 15.902 12.5975 15.9427 12.5975 15.9862C12.6295 15.9659 12.6644 15.9456 12.6963 15.9223C12.6644 15.8991 12.6295 15.8787 12.5975 15.8584ZM13.0974 16.2827C13.077 16.242 13.0451 16.2071 13.0131 16.1722C12.987 16.1461 12.9608 16.1199 12.9317 16.0967C12.8678 16.0415 12.801 15.9921 12.7312 15.9427C12.6876 15.9717 12.644 16.0008 12.5975 16.0269C12.5975 16.0763 12.5946 16.1257 12.5888 16.1751C12.6673 16.2129 12.7458 16.2449 12.8271 16.2739C12.8969 16.2972 12.9695 16.3204 13.0451 16.3233C13.0654 16.3233 13.0858 16.3233 13.1032 16.3117C13.1061 16.3001 13.1032 16.2885 13.0974 16.2768V16.2827ZM13.1032 15.5242C13.1032 15.5242 13.0799 15.5155 13.0683 15.5126C13.0276 15.5126 12.9899 15.5184 12.9492 15.5271C12.923 15.5329 12.8969 15.5416 12.8707 15.5474C12.8707 15.5649 12.862 15.5794 12.8475 15.591C12.8242 15.6114 12.7864 15.6056 12.7661 15.5852C12.7051 15.6085 12.6469 15.6346 12.5888 15.6608C12.5859 15.6608 12.583 15.6666 12.5859 15.6695C12.5888 15.716 12.5917 15.7654 12.5917 15.8119C12.6353 15.8409 12.6818 15.8671 12.7254 15.8962C12.7952 15.8497 12.862 15.7974 12.9259 15.7421C12.9666 15.7073 13.0044 15.6724 13.0393 15.6317C13.0596 15.6085 13.0799 15.5823 13.0916 15.5533C13.0945 15.5445 13.1003 15.5329 13.0974 15.5213L13.1032 15.5242ZM13.0974 16.2827C13.077 16.242 13.0451 16.2071 13.0131 16.1722C12.987 16.1461 12.9608 16.1199 12.9317 16.0967C12.8678 16.0415 12.801 15.9921 12.7312 15.9427C12.6876 15.9717 12.644 16.0008 12.5975 16.0269C12.5975 16.0763 12.5946 16.1257 12.5888 16.1751C12.6673 16.2129 12.7458 16.2449 12.8271 16.2739C12.8969 16.2972 12.9695 16.3204 13.0451 16.3233C13.0654 16.3233 13.0858 16.3233 13.1032 16.3117C13.1061 16.3001 13.1032 16.2885 13.0974 16.2768V16.2827ZM12.5975 15.8584C12.5975 15.902 12.5975 15.9427 12.5975 15.9862C12.6295 15.9659 12.6644 15.9456 12.6963 15.9223C12.6644 15.8991 12.6295 15.8787 12.5975 15.8584ZM12.5598 15.8351C12.5133 15.8061 12.4668 15.7799 12.4174 15.7538C12.368 15.7799 12.3186 15.809 12.2692 15.838C12.2692 15.8933 12.2692 15.9485 12.2692 16.0037C12.3186 16.0327 12.368 16.0618 12.4174 16.088C12.4668 16.0618 12.5133 16.0357 12.5598 16.0066C12.5598 15.9485 12.5598 15.8904 12.5598 15.8322V15.8351ZM12.4552 16.0124C12.4232 16.0269 12.3796 16.024 12.3534 16.0008C12.3186 15.9746 12.3069 15.9223 12.3244 15.8845C12.336 15.8555 12.3651 15.8351 12.3941 15.8293C12.4174 15.8235 12.4406 15.8293 12.461 15.838C12.49 15.8526 12.5075 15.8816 12.5104 15.9136C12.5162 15.9543 12.4929 15.9979 12.4552 16.0124ZM12.551 15.684C12.5191 15.7015 12.4871 15.716 12.4552 15.7334C12.49 15.7538 12.522 15.7712 12.5569 15.7915C12.5569 15.7567 12.554 15.7189 12.551 15.684ZM12.4552 16.1112C12.4871 16.1286 12.5191 16.1461 12.551 16.1606C12.551 16.1257 12.5569 16.088 12.5569 16.0531C12.5249 16.0734 12.49 16.0938 12.4552 16.1112ZM12.5162 15.3847C12.5104 15.3527 12.5046 15.3237 12.4958 15.2946C12.4842 15.2539 12.4726 15.2133 12.4522 15.1755C12.4435 15.158 12.4348 15.1435 12.4174 15.1319C12.4057 15.1319 12.3999 15.1435 12.3941 15.1493C12.3738 15.1755 12.3622 15.2074 12.3505 15.2394C12.3331 15.2859 12.3215 15.3353 12.3128 15.3847C12.2953 15.469 12.2866 15.5562 12.2779 15.6404C12.3244 15.6637 12.3709 15.6869 12.4145 15.7102C12.4581 15.6869 12.5016 15.6637 12.5481 15.6433C12.5423 15.5562 12.5307 15.4719 12.5162 15.3847ZM12.2779 15.6782C12.2779 15.716 12.2721 15.7538 12.2721 15.7915C12.3069 15.7712 12.3447 15.7509 12.3796 15.7305C12.3476 15.7131 12.3128 15.6956 12.2779 15.6782ZM12.2721 16.0473C12.2721 16.0851 12.275 16.1228 12.2779 16.1606C12.3128 16.1432 12.3447 16.1257 12.3796 16.1083C12.3447 16.088 12.3069 16.0676 12.2721 16.0473ZM12.1558 15.623C12.1064 15.5998 12.0541 15.5794 12.0018 15.562C11.9524 15.5445 11.9001 15.53 11.8478 15.5213C11.8158 15.5155 11.7868 15.5126 11.7548 15.5155C11.7461 15.5155 11.7374 15.5184 11.7345 15.5271C11.7345 15.5416 11.7403 15.5533 11.7461 15.5649C11.7664 15.6027 11.7955 15.6346 11.8245 15.6666C11.8362 15.6782 11.8478 15.6898 11.8594 15.6986C11.8769 15.6869 11.9001 15.684 11.9204 15.6986C11.9466 15.7131 11.9582 15.748 11.9437 15.777C11.996 15.8206 12.0541 15.8613 12.1093 15.902C12.15 15.8758 12.1907 15.8497 12.2314 15.8235C12.2314 15.8235 12.2372 15.8206 12.2372 15.8148C12.2372 15.7654 12.243 15.7131 12.2459 15.6637C12.2169 15.6492 12.1878 15.6375 12.1587 15.623H12.1558ZM12.2343 16.0298C12.2343 16.0298 12.2314 16.024 12.2285 16.024C12.1878 15.9979 12.1471 15.9717 12.1064 15.9456C12.0338 15.995 11.964 16.0473 11.8972 16.1054C11.8565 16.1403 11.8187 16.1751 11.7839 16.2158C11.7635 16.242 11.7432 16.2652 11.7316 16.2972C11.7316 16.3059 11.7257 16.3204 11.7374 16.3233C11.7635 16.3321 11.7897 16.3292 11.8158 16.3263C11.8798 16.3175 11.9408 16.3001 11.9989 16.2798C12.0803 16.2507 12.1616 16.2187 12.2401 16.181C12.2372 16.1315 12.2343 16.0821 12.2314 16.0298H12.2343ZM12.1413 15.9223C12.1733 15.9427 12.2023 15.963 12.2343 15.9833C12.2343 15.9427 12.2343 15.902 12.2343 15.8613C12.2023 15.8816 12.1704 15.902 12.1413 15.9223Z" fill="white"/>
<path d="M12.4232 10.2466C12.4697 10.2466 12.5162 10.2466 12.5627 10.2466C12.8213 10.2524 12.8998 10.3919 12.7748 10.6215C12.6934 10.7697 12.5714 10.8627 12.397 10.851C12.2198 10.8365 12.0977 10.7348 12.0367 10.5691C11.964 10.3657 12.0367 10.2582 12.2488 10.2495C12.3069 10.2495 12.3651 10.2495 12.4232 10.2495V10.2466Z" fill="white"/>
</g>
<defs>
<clipPath id="clip0_895_6233">
<rect width="150" height="32" fill="white"/>
</clipPath>
</defs>
</svg>
