<svg width="164" height="32" viewBox="0 0 164 32" fill="none" xmlns="http://www.w3.org/2000/svg">
<path d="M40.5714 24.1478C40.0403 24.1478 39.4661 24.1325 38.8488 24.1019C38.2315 24.0866 37.6286 24.0484 37.04 23.9872C36.4514 23.9414 35.9203 23.8955 35.4465 23.8496V22.5651C35.949 22.611 36.4873 22.6569 37.0615 22.7027C37.6357 22.7486 38.1956 22.7868 38.7411 22.8174C39.2866 22.8327 39.7604 22.8404 40.1623 22.8404C40.9088 22.8404 41.5189 22.8098 41.9926 22.7486C42.4807 22.6875 42.9042 22.5498 43.2631 22.3357C43.5215 22.1828 43.7081 21.9764 43.823 21.7164C43.9378 21.4412 44.0096 21.1354 44.0383 20.799C44.067 20.4473 44.0814 20.0726 44.0814 19.675C44.0814 19.0787 44.067 18.597 44.0383 18.23C44.0096 17.863 43.9234 17.5877 43.7799 17.4043C43.6363 17.2055 43.4066 17.0602 43.0908 16.9684C42.775 16.8767 42.3372 16.8002 41.7773 16.7391L37.9875 16.3033C37.2984 16.2268 36.7529 16.0815 36.3509 15.8675C35.949 15.6534 35.6475 15.3781 35.4465 15.0417C35.2599 14.7053 35.1379 14.3077 35.0805 13.849C35.0374 13.3902 35.0159 12.8703 35.0159 12.2893C35.0159 11.3718 35.1235 10.6301 35.3389 10.0643C35.5686 9.49856 35.8987 9.0704 36.3294 8.77986C36.7744 8.47403 37.3199 8.2676 37.9659 8.16056C38.6263 8.05352 39.3871 8 40.2484 8C40.7939 8 41.3466 8.01529 41.9065 8.04587C42.4807 8.07646 43.0119 8.11469 43.5 8.16056C44.0024 8.20643 44.4115 8.2676 44.7274 8.34406V9.58267C44.3398 9.5215 43.8947 9.47563 43.3923 9.44504C42.9042 9.39917 42.4018 9.36859 41.885 9.35329C41.3825 9.32271 40.9088 9.30742 40.4638 9.30742C39.6168 9.30742 38.9277 9.35329 38.3966 9.44504C37.8798 9.5215 37.4707 9.67442 37.1692 9.90379C36.8247 10.1179 36.6093 10.4313 36.5232 10.8442C36.4371 11.2571 36.394 11.7388 36.394 12.2893C36.394 12.9468 36.4371 13.4591 36.5232 13.826C36.6093 14.1778 36.7888 14.4301 37.0615 14.583C37.3486 14.7359 37.7793 14.8429 38.3535 14.9041L42.0142 15.3399C42.574 15.3858 43.0693 15.4622 43.5 15.5693C43.9306 15.661 44.2895 15.8216 44.5766 16.051C44.8637 16.265 45.0791 16.6014 45.2226 17.0602C45.2944 17.259 45.3446 17.4807 45.3733 17.7254C45.4164 17.97 45.4451 18.2453 45.4595 18.5511C45.4738 18.8569 45.481 19.1934 45.481 19.5603C45.481 20.4167 45.4021 21.1277 45.2441 21.6935C45.1006 22.2593 44.8853 22.7104 44.5982 23.0468C44.311 23.3679 43.9593 23.6126 43.543 23.7808C43.1411 23.9337 42.6889 24.0331 42.1864 24.079C41.6983 24.1248 41.16 24.1478 40.5714 24.1478Z" fill="white"/>
<path d="M56.847 24.1478C55.7129 24.1478 54.7727 24.0866 54.0262 23.9643C53.294 23.842 52.7126 23.6202 52.282 23.2991C51.8513 22.978 51.5355 22.5192 51.3345 21.9229C51.1335 21.3112 51.0043 20.5314 50.9469 19.5833C50.8895 18.6352 50.8608 17.4654 50.8608 16.0739C50.8608 14.6824 50.8895 13.5126 50.9469 12.5645C51.0043 11.6164 51.1335 10.8442 51.3345 10.2478C51.5355 9.63619 51.8513 9.1698 52.282 8.84868C52.7126 8.52756 53.294 8.30583 54.0262 8.1835C54.7727 8.06117 55.7129 8 56.847 8C57.9811 8 58.9142 8.06117 59.6463 8.1835C60.3928 8.30583 60.9814 8.52756 61.4121 8.84868C61.8427 9.1698 62.1585 9.63619 62.3595 10.2478C62.5605 10.8442 62.6897 11.6164 62.7471 12.5645C62.8045 13.5126 62.8333 14.6824 62.8333 16.0739C62.8333 17.4654 62.8045 18.6352 62.7471 19.5833C62.6897 20.5314 62.5605 21.3112 62.3595 21.9229C62.1585 22.5192 61.8427 22.978 61.4121 23.2991C60.9814 23.6202 60.3928 23.842 59.6463 23.9643C58.9142 24.0866 57.9811 24.1478 56.847 24.1478ZM56.847 22.8404C57.7083 22.8404 58.4189 22.8174 58.9788 22.7716C59.5387 22.7257 59.9837 22.5957 60.3139 22.3816C60.644 22.1675 60.8953 21.8235 61.0675 21.3494C61.2398 20.8601 61.3475 20.1949 61.3905 19.3539C61.4336 18.4976 61.4551 17.4043 61.4551 16.0739C61.4551 14.7435 61.4336 13.6578 61.3905 12.8168C61.3475 11.9605 61.2398 11.2953 61.0675 10.8213C60.8953 10.3319 60.644 9.98024 60.3139 9.76616C59.9837 9.55208 59.5387 9.42211 58.9788 9.37623C58.4189 9.33036 57.7083 9.30742 56.847 9.30742C56 9.30742 55.2966 9.33036 54.7368 9.37623C54.1769 9.42211 53.7247 9.55208 53.3802 9.76616C53.05 9.98024 52.7988 10.3319 52.6265 10.8213C52.4686 11.2953 52.3609 11.9605 52.3035 12.8168C52.2604 13.6578 52.2389 14.7435 52.2389 16.0739C52.2389 17.4043 52.2604 18.4976 52.3035 19.3539C52.3609 20.1949 52.4686 20.8601 52.6265 21.3494C52.7988 21.8235 53.05 22.1675 53.3802 22.3816C53.7247 22.5957 54.1769 22.7257 54.7368 22.7716C55.2966 22.8174 56 22.8404 56.847 22.8404Z" fill="white"/>
<path d="M68.9423 23.9643V8.1835H70.3204V22.6339H77.5125V23.9643H68.9423Z" fill="white"/>
<path d="M82.5536 23.9643V8.1835H83.9318V23.9643H82.5536Z" fill="white"/>
<path d="M90.5714 23.9643V8.1835H95.158C96.3495 8.1835 97.3257 8.24466 98.0865 8.367C98.8473 8.47404 99.4503 8.68812 99.8953 9.00924C100.34 9.31507 100.67 9.76616 100.886 10.3625C101.101 10.9436 101.238 11.7005 101.295 12.6333C101.352 13.5508 101.381 14.6977 101.381 16.0739C101.381 17.4501 101.352 18.6046 101.295 19.5374C101.238 20.4549 101.101 21.2118 100.886 21.8082C100.67 22.3893 100.34 22.8404 99.8953 23.1615C99.4503 23.4673 98.8473 23.6814 98.0865 23.8037C97.3257 23.9108 96.3495 23.9643 95.158 23.9643H90.5714ZM91.9495 22.6569H94.7919C95.7824 22.6569 96.6007 22.6339 97.2467 22.5881C97.8927 22.5422 98.4023 22.4199 98.7756 22.2211C99.1488 22.0223 99.4215 21.6859 99.5938 21.2118C99.7661 20.7378 99.8737 20.0879 99.9168 19.2622C99.9742 18.4364 100.003 17.3737 100.003 16.0739C100.003 14.7741 99.9742 13.7114 99.9168 12.8856C99.8737 12.0599 99.7589 11.4176 99.5723 10.9589C99.4 10.4849 99.1201 10.1485 98.7325 9.94966C98.3593 9.73558 97.8496 9.6056 97.2036 9.55973C96.572 9.51385 95.7681 9.49092 94.7919 9.49092H91.9495V22.6569Z" fill="white"/>
<path d="M107.505 23.9643V8.1835H108.883V23.9643H107.505Z" fill="white"/>
<path d="M115.523 23.9643V8.1835H124.524V9.49092H116.901V15.684H123.727V16.9684H116.901V23.9643H115.523Z" fill="white"/>
<path d="M129.702 23.9643V8.1835H131.08V23.9643H129.702Z" fill="white"/>
<path d="M137.72 23.9643V8.1835H147.151V9.49092H139.098V15.3399H146.139V16.6473H139.098V22.6569H147.151V23.9643H137.72Z" fill="white"/>
<path d="M152.698 23.9643V8.1835H157.285C158.476 8.1835 159.452 8.24466 160.213 8.367C160.974 8.47404 161.577 8.68812 162.022 9.00924C162.467 9.31507 162.797 9.76616 163.013 10.3625C163.228 10.9436 163.364 11.7005 163.422 12.6333C163.479 13.5508 163.508 14.6977 163.508 16.0739C163.508 17.4501 163.479 18.6046 163.422 19.5374C163.364 20.4549 163.228 21.2118 163.013 21.8082C162.797 22.3893 162.467 22.8404 162.022 23.1615C161.577 23.4673 160.974 23.6814 160.213 23.8037C159.452 23.9108 158.476 23.9643 157.285 23.9643H152.698ZM154.076 22.6569H156.919C157.909 22.6569 158.727 22.6339 159.373 22.5881C160.019 22.5422 160.529 22.4199 160.902 22.2211C161.275 22.0223 161.548 21.6859 161.721 21.2118C161.893 20.7378 162 20.0879 162.044 19.2622C162.101 18.4364 162.13 17.3737 162.13 16.0739C162.13 14.7741 162.101 13.7114 162.044 12.8856C162 12.0599 161.886 11.4176 161.699 10.9589C161.527 10.4849 161.247 10.1485 160.859 9.94966C160.486 9.73558 159.976 9.6056 159.33 9.55973C158.699 9.51385 157.895 9.49092 156.919 9.49092H154.076V22.6569Z" fill="white"/>
<g clip-path="url(#clip0_895_8911)">
<path fill-rule="evenodd" clip-rule="evenodd" d="M18.7518 15.5002V18.6002C18.7518 22.0227 15.9561 24.8002 12.5035 24.8002C9.05078 24.8002 6.25513 22.0227 6.25513 18.6002V6.2002H18.7585V15.5002H18.7518Z" fill="white"/>
<path fill-rule="evenodd" clip-rule="evenodd" d="M25 12.4V18.6C25 25.4516 19.402 31 12.4966 31C6.10754 31 0.838026 26.2414 0.0871547 20.1072L3.12416 18.6V19.6333H3.13087C3.3387 24.3919 7.45508 28.1896 12.4966 28.1896C17.5382 28.1896 21.6613 24.3919 21.8624 19.6333H21.8691V15.5H0V0H25V7.75329L21.8758 9.30658V3.10658H3.12416V12.4066H25V12.4Z" fill="white"/>
</g>
<defs>
<clipPath id="clip0_895_8911">
<rect width="25" height="31" fill="white"/>
</clipPath>
</defs>
</svg>
