<svg width="54" height="32" viewBox="0 0 54 32" fill="none" xmlns="http://www.w3.org/2000/svg">
<g clip-path="url(#clip0_895_6310)">
<path d="M23.4306 23.1868C23.6147 23.2717 23.7562 23.3284 23.8978 23.3992C24.7331 23.838 25.1861 24.5318 25.1861 25.4661C25.2003 27.6605 24.3225 29.3594 22.298 30.3646C21.6893 30.6619 21.0239 30.8035 20.3443 30.846C20.231 30.846 20.1178 30.8318 20.0187 30.7752C18.4897 29.9399 16.9607 29.1046 15.4175 28.2693C15.276 28.1985 15.2618 28.1277 15.3043 27.9862C16.5643 24.0646 17.8101 20.1571 19.0701 16.2355C19.1126 16.1081 19.1551 16.0515 19.3108 16.0515C20.8398 16.0656 22.3547 16.0232 23.8837 16.0798C24.3225 16.0939 24.7614 16.193 25.1861 16.3488C26.4462 16.816 27.0832 17.8495 26.97 19.2652C26.8001 21.3322 25.6958 22.5922 23.5439 23.1585C23.5014 23.1585 23.4873 23.1726 23.4306 23.1868ZM19.1126 28.6091C19.3816 28.5949 19.6506 28.6091 19.9337 28.5949C20.5425 28.5666 21.0522 28.3543 21.4344 27.8587C21.8733 27.2641 22.1848 26.5987 22.3122 25.8626C22.4538 25.0839 22.114 24.5601 21.3353 24.376C20.7549 24.2344 20.1744 24.2769 19.594 24.2628C19.4949 24.2628 19.4807 24.3194 19.4524 24.3902C19.0135 25.7351 18.5746 27.0942 18.1358 28.4534C18.0933 28.5666 18.1216 28.6232 18.249 28.6091H19.1126ZM21.0239 22.1392H21.392C23.0625 22.0825 24.0535 21.1057 24.0252 19.4917C24.0111 18.8971 23.7421 18.5573 23.1758 18.4158C22.6095 18.2742 22.0432 18.3167 21.4769 18.3167C21.3778 18.3167 21.3636 18.3874 21.3353 18.4582C20.9531 19.6474 20.5708 20.8225 20.1886 21.9976C20.1461 22.1392 20.1886 22.1392 20.3018 22.1392H21.0239Z" fill="white"/>
<path d="M15.5307 7.96775C15.7856 8.05269 16.0121 8.10932 16.2244 8.19426C17.0597 8.51989 17.442 9.07203 17.4278 9.9781C17.4137 10.7992 17.1588 11.5637 16.9182 12.3424C16.6492 13.206 16.366 14.0554 16.3802 14.9615C16.3802 15.0606 16.3377 15.0748 16.2528 15.0748H13.2797C13.1098 15.0748 13.1381 14.9898 13.1523 14.8907C13.2231 13.9846 13.4779 13.121 13.7327 12.2716C13.9168 11.6345 14.1291 11.0116 14.2282 10.3603C14.3698 9.48259 14.115 9.15697 13.2372 9.07202C12.7983 9.02955 12.3453 9.05787 11.9064 9.07202C11.779 9.07202 11.7224 9.12865 11.6941 9.25607C11.5383 9.76574 11.3684 10.2612 11.2269 10.7568C11.1844 10.8983 11.1278 10.955 10.972 10.9125C10.1368 10.686 9.30147 10.4595 8.46618 10.2329C8.31045 10.1905 8.29629 10.1338 8.33876 9.99226C9.32978 6.80684 10.335 3.63558 11.326 0.45016C11.3684 0.308586 11.4392 0.266113 11.5808 0.266113C12.8691 0.266113 14.1575 0.266113 15.4458 0.280271C16.2386 0.294428 17.0031 0.421845 17.7251 0.761623C18.7869 1.25713 19.3249 2.09242 19.3815 3.25333C19.424 4.03199 19.3249 4.79649 19.0135 5.53267C18.3339 7.00504 17.1588 7.76954 15.5307 7.96775ZM12.4586 6.75021C12.9966 6.75021 13.5204 6.73605 14.03 6.75021C14.5539 6.76437 14.9786 6.56616 15.3325 6.19807C15.9555 5.53267 16.2528 4.7257 16.3235 3.83378C16.366 3.15423 16.0404 2.77198 15.375 2.64456C14.8653 2.55961 14.3557 2.61624 13.846 2.60209C13.7044 2.60209 13.7186 2.70119 13.6903 2.77198C13.5062 3.35243 13.3363 3.91873 13.1664 4.48502C12.9258 5.23537 12.6992 5.98571 12.4586 6.75021Z" fill="white"/>
<path d="M23.3455 9.5957H26.2053C26.3894 9.5957 26.3752 9.4966 26.3752 9.36918C26.3752 8.66131 26.3894 7.95344 26.4318 7.24557C26.4885 6.02803 26.6017 4.82465 26.7291 3.62127C26.7433 3.49385 26.7716 3.46554 26.899 3.50801C27.706 3.74869 28.4988 4.00352 29.3058 4.23004C29.4332 4.27251 29.4474 4.3433 29.4474 4.45656C29.4332 5.23522 29.419 6.02803 29.3907 6.80669C29.3199 9.51075 29.2633 12.2148 29.2067 14.9189C29.2067 15.1029 29.1359 15.1171 28.9943 15.1171H26.2761C26.1062 15.1171 26.0637 15.0746 26.0637 14.9047C26.1062 13.9987 26.1345 13.0926 26.177 12.1865C26.1912 12.0025 26.1487 11.9317 25.9505 11.9458C24.7613 11.96 23.572 11.96 22.3828 11.9458C22.2271 11.9458 22.1563 11.9883 22.0855 12.1299C21.59 13.0643 21.0945 14.0128 20.599 14.9472C20.5423 15.0463 20.4999 15.1171 20.3725 15.1171H17.3003C17.2437 15.0321 17.3286 14.9755 17.3569 14.9189C19.6221 10.9123 21.8731 6.89163 24.1242 2.88508C24.2091 2.74351 24.2657 2.70104 24.4215 2.75767C25.0161 2.94171 25.5965 3.12576 26.1912 3.29565C26.361 3.33812 26.3752 3.39475 26.3044 3.56464C25.4267 5.51836 24.4781 7.42961 23.4729 9.32671C23.4446 9.39749 23.4021 9.48244 23.3455 9.5957Z" fill="white"/>
<path d="M27.6069 24.3904C27.6211 24.3904 27.5786 24.3904 27.5362 24.3904C27.3804 24.4187 27.3521 24.3763 27.4087 24.2205C27.6919 23.3994 27.9467 22.5641 28.2157 21.7288C29.9996 16.4198 31.5569 11.0541 33.1567 5.68848C33.2274 5.47611 33.2841 5.4478 33.4964 5.50443C34.3742 5.78758 35.2661 6.04241 36.1439 6.29724C36.3421 6.35387 36.2713 6.45298 36.243 6.56624C35.0254 10.3887 33.8221 14.2112 32.6045 18.0479C31.9816 20.0016 31.3587 21.9553 30.7499 23.9091C30.7074 24.0648 30.6366 24.1497 30.4526 24.1639C29.5182 24.2488 28.5838 24.3196 27.6069 24.3904Z" fill="white"/>
<path d="M3.61014 2.75782H0C0.0991019 2.4322 0.198204 2.12074 0.297306 1.80927C0.424722 1.38455 0.580454 0.945672 0.693713 0.506792C0.736185 0.336903 0.82113 0.294431 0.991019 0.294431H6.25758C7.645 0.294431 9.03243 0.294431 10.4199 0.280273C10.6039 0.280273 10.6605 0.294431 10.6039 0.506792C10.3774 1.18635 10.165 1.8659 9.96682 2.54546C9.92435 2.70119 9.85356 2.74366 9.69783 2.74366C8.79175 2.72951 7.89984 2.74366 6.99376 2.74366C6.82387 2.74366 6.73893 2.78614 6.69646 2.95602C6.07353 4.96638 5.4506 6.97673 4.82768 8.98708C4.78521 9.15697 4.72858 9.22776 4.53037 9.17113C3.70924 8.94461 2.90227 8.71809 2.06698 8.50573C1.86878 8.4491 1.85462 8.39247 1.89709 8.20842C2.46339 6.46706 3.00137 4.71154 3.55351 2.95602C3.56767 2.91355 3.58183 2.84277 3.61014 2.75782Z" fill="white"/>
<path d="M45.9409 23.9796C46.2241 23.9513 46.493 23.923 46.762 23.9088C47.654 23.8522 48.5317 23.8097 49.4236 23.7389C49.5935 23.7248 49.7068 23.7814 49.8342 23.9088C50.6836 24.7583 50.9243 25.7918 50.6978 26.9244C50.4854 28.0145 50.0182 28.9913 49.367 29.8691C48.7441 30.7044 47.8663 31.1857 46.8328 31.3698C45.587 31.5963 44.3411 31.6388 43.1094 31.299C42.0476 31.0159 41.269 30.4212 41 29.3028C40.8584 28.7082 40.915 28.0994 41.0566 27.519C41.1274 27.2217 41.2406 26.9385 41.3256 26.6412C41.3539 26.5421 41.4105 26.4855 41.5238 26.4855H44.596C44.4685 26.7828 44.3411 27.0518 44.2845 27.3349C44.2137 27.6464 44.1571 27.9437 44.1996 28.2552C44.2987 28.9064 44.78 29.2886 45.4454 29.2037C46.578 29.0763 47.6823 27.9154 47.7106 26.7969C47.7247 26.1174 47.4558 25.5086 47.031 24.9848C46.762 24.6592 46.4506 24.376 46.1108 24.1353C46.0542 24.107 45.9692 24.0787 45.9409 23.9796Z" fill="white"/>
<path d="M44.6807 16.0942C44.5533 16.4765 44.44 16.8729 44.3126 17.2551C44.1994 17.6232 44.0719 17.9772 43.9728 18.3453C43.9304 18.5152 43.8454 18.5435 43.6897 18.5435C42.7836 18.5435 41.8917 18.5435 40.9856 18.5293C40.8016 18.5293 40.7308 18.5859 40.6742 18.7558C40.1786 20.3415 39.669 21.9271 39.1876 23.5127C39.131 23.7109 39.0461 23.7817 38.8337 23.7959C37.9418 23.8383 37.0499 23.9091 36.1721 23.9799C35.9597 23.9941 35.9456 23.9374 36.0022 23.7534C36.526 22.1111 37.0215 20.4547 37.5454 18.8125C37.6162 18.6143 37.602 18.5293 37.3472 18.5435C36.3137 18.5576 35.266 18.5435 34.2325 18.5576C34.0202 18.5576 34.006 18.5152 34.0626 18.3169C34.2892 17.6374 34.5015 16.9578 34.7139 16.2783C34.7422 16.165 34.7988 16.1084 34.9262 16.1084H44.5533C44.6099 16.0659 44.6241 16.0801 44.6807 16.0942Z" fill="white"/>
<path d="M49.1403 23.0172C48.4749 23.0597 47.8661 23.1022 47.2574 23.1446C46.6344 23.1871 46.0257 23.2154 45.4027 23.272C45.2612 23.2862 45.1479 23.2579 45.0346 23.1729C44.4259 22.7482 44.0436 22.1394 44.0153 21.4174C43.9445 19.9734 44.3126 18.6426 45.2895 17.5241C45.969 16.7313 46.8468 16.2641 47.8661 16.0518C49.0554 15.8111 50.2446 15.8536 51.3913 16.2641C52.2974 16.5897 52.9628 17.156 53.2035 18.1329C53.2884 18.501 53.3026 18.8832 53.2318 19.2655C53.1468 19.7044 53.0194 20.1433 52.8637 20.568C52.8212 20.6812 52.7646 20.7237 52.6372 20.7237H49.9614C49.7915 20.7237 49.7915 20.6812 49.834 20.5397C49.9331 20.2424 50.0605 19.9451 50.1313 19.6194C50.1738 19.3929 50.1879 19.1522 50.1596 18.9257C50.103 18.6001 49.9331 18.3736 49.6075 18.2603C48.8571 18.0196 48.1493 18.2462 47.7387 18.9257C47.2432 19.761 47.1299 20.6104 47.7812 21.4599C48.1634 22.0262 48.6023 22.5217 49.1403 23.0172Z" fill="white"/>
<path d="M39.0745 15.1031H35.6059C35.3935 15.1031 35.3935 15.0465 35.436 14.8766C36.2571 12.2858 37.0783 9.68083 37.8994 7.09002C37.956 6.92013 38.0127 6.87766 38.1826 6.93429C39.0037 7.20328 39.8248 7.44396 40.6601 7.68463C40.8441 7.74126 40.8866 7.79789 40.83 7.98194C40.3486 9.46847 39.8814 10.955 39.4001 12.4557C39.3293 12.668 39.3718 12.7105 39.5983 12.6964C40.83 12.6822 42.0617 12.6964 43.2934 12.6822C43.5199 12.6822 43.5482 12.7388 43.4774 12.9512C43.2509 13.6024 43.0385 14.2678 42.8262 14.9191C42.7837 15.0606 42.7129 15.1031 42.5713 15.1031C41.4104 15.1031 40.2495 15.1031 39.0745 15.1031Z" fill="white"/>
<path d="M38.5931 24.5601C38.8479 24.5034 38.8904 24.5742 38.8338 24.7583C38.4374 26.0183 38.041 27.2783 37.6445 28.5524C37.6162 28.6657 37.5454 28.7082 37.4463 28.7506C36.427 29.048 35.3935 29.3594 34.3742 29.6567C34.3034 29.6709 34.2468 29.7275 34.1901 29.6709C34.1194 29.6142 34.1901 29.5435 34.2043 29.4868C34.6857 27.972 35.167 26.4571 35.6342 24.9423C35.6625 24.829 35.705 24.7441 35.8607 24.7299C36.7951 24.6875 37.7295 24.6167 38.5931 24.5601Z" fill="white"/>
<path d="M42.3732 3.18261C42.2883 3.43744 42.2175 3.69227 42.1467 3.93295C41.8494 4.89565 41.538 5.85836 41.2548 6.83522C41.2123 6.97679 41.1557 7.03342 41 6.97679C40.1505 6.7078 39.3011 6.45297 38.4516 6.19814C38.3101 6.15566 38.2817 6.09903 38.3384 5.95746C38.7206 4.75408 39.0887 3.5507 39.4568 2.34732C39.5418 2.07833 39.6267 1.80934 39.6975 1.54035C39.7258 1.41293 39.7824 1.38462 39.8957 1.4554C40.6885 1.97923 41.4813 2.48889 42.2741 3.01272C42.3166 3.06935 42.3874 3.09766 42.3732 3.18261Z" fill="white"/>
<path d="M8.23962 15.2307H6.8805C6.69646 15.2307 6.65399 15.1882 6.71062 15.0041C7.1495 13.6875 7.57422 12.385 7.99894 11.0684C8.04141 10.941 8.09804 10.9268 8.2113 10.9551C9.0749 11.1816 9.92435 11.4223 10.788 11.6488C10.9154 11.6772 10.9154 11.7338 10.8871 11.8329C10.5473 12.9088 10.1933 13.999 9.86772 15.0749C9.82525 15.2165 9.75446 15.2307 9.6412 15.2307C9.15985 15.2448 8.70681 15.2448 8.23962 15.2307C8.23962 15.2401 8.23962 15.2401 8.23962 15.2307Z" fill="white"/>
<path d="M29.6031 1.03062C29.6031 2.43221 29.5606 3.29581 29.5606 3.29581C29.5606 3.49401 29.504 3.50817 29.3341 3.4657C27.8051 2.9985 26.262 2.53131 24.733 2.07827C24.5348 2.02164 24.5065 1.95086 24.6197 1.78097C24.733 1.61108 24.8179 1.42703 24.917 1.24298C25.0586 0.973994 25.2285 0.846577 25.5258 0.789947C26.8283 0.549271 28.1166 0.28028 29.4191 0.0112896C29.6031 -0.0170252 29.6314 -0.0028678 29.6314 0.181179V0.917364C29.6031 0.761633 29.6031 0.988151 29.6031 1.03062Z" fill="white"/>
<path d="M3.12873 14.3954C2.47749 13.7159 1.88288 13.0363 1.21748 12.4134C0.835229 12.0453 0.792757 11.7339 0.962646 11.2667C1.20332 10.6579 1.35905 10.0208 1.5431 9.38373C1.57141 9.27047 1.62804 9.24215 1.75546 9.27047C2.61906 9.51114 3.46851 9.73766 4.33211 9.96418C4.44537 9.99249 4.51616 10.0067 4.45953 10.1482C4.02065 11.5357 3.59592 12.9089 3.1712 14.2963C3.1712 14.3247 3.15704 14.353 3.12873 14.3954Z" fill="white"/>
<path d="M12.3736 20.7519C12.1895 20.7377 12.0055 20.7236 11.8356 20.6953C11.1277 20.5537 10.8304 20.1431 11.0003 19.4494C11.1985 18.6424 11.425 17.8213 11.7931 17.071C12.2178 16.1649 13.4495 15.8393 14.3131 16.3631C14.6529 16.5755 14.7945 16.8869 14.7237 17.2692C14.5538 18.1894 14.2565 19.0813 13.8742 19.9449C13.6194 20.5254 13.1664 20.7519 12.3736 20.7519ZM12.3452 20.0582C12.7133 20.044 12.9115 19.8883 13.0248 19.6193C13.3221 18.869 13.5628 18.1045 13.761 17.3258C13.8318 17.0285 13.6336 16.8161 13.3221 16.8161C13.0106 16.8161 12.7841 17.0002 12.6567 17.2975C12.3877 17.977 12.1612 18.6708 11.963 19.3786C11.9488 19.4494 11.9347 19.5202 11.9347 19.6051C11.9488 19.9025 12.1187 20.0582 12.3452 20.0582Z" fill="white"/>
<path d="M19.2257 31.2568C18.263 31.3983 17.3286 31.5399 16.3942 31.6673C15.6438 31.7806 14.8935 31.8655 14.1431 31.9929C13.9166 32.0213 13.9449 31.9646 14.0016 31.8089C14.313 30.9028 14.6103 29.9826 14.9076 29.0624C14.9501 28.9491 14.9784 28.8783 15.12 28.9633C16.465 29.7136 17.8241 30.4498 19.169 31.2001C19.1973 31.2001 19.1973 31.2284 19.2257 31.2568Z" fill="white"/>
<path d="M14.2566 20.6813C14.5397 19.7469 14.8229 18.8408 15.106 17.9347C15.2759 17.4109 15.4317 16.8871 15.5874 16.3491C15.6299 16.2217 15.6723 16.1509 15.8281 16.1509C16.4793 16.165 17.1305 16.165 17.7818 16.1509C17.9375 16.1509 17.98 16.165 17.9234 16.3349C17.8101 16.703 17.5553 16.8871 17.1589 16.8871H16.5359C16.4368 16.8871 16.366 16.9012 16.3377 17.0145C16.2669 17.2693 16.182 17.51 16.0971 17.7648C16.0829 17.8215 16.0687 17.8922 16.0404 17.9772H17.1305C17.2863 17.9772 17.3146 18.0197 17.2721 18.1612C17.1683 18.5388 16.9229 18.7275 16.5359 18.7275C16.2953 18.7275 15.998 18.6284 15.8422 18.77C15.7006 18.8974 15.6865 19.1947 15.6157 19.4071C15.5024 19.7752 15.3892 20.1291 15.2759 20.4972C15.2335 20.6246 15.191 20.6813 15.0494 20.6813C14.8087 20.6813 14.5397 20.6813 14.2566 20.6813Z" fill="white"/>
</g>
<defs>
<clipPath id="clip0_895_6310">
<rect width="53.2772" height="32" fill="white"/>
</clipPath>
</defs>
</svg>
