<svg width="292" height="101" viewBox="0 0 292 101" fill="none" xmlns="http://www.w3.org/2000/svg">
<rect y="0.115234" width="292" height="100" rx="8" fill="#202020"/>
<g clip-path="url(#clip0_504_3994)">
<path d="M78.7247 25.6289C65.2024 25.6289 54.2413 36.59 54.2413 50.1122C54.2413 63.6345 65.2024 74.5956 78.7247 74.5956C92.2469 74.5956 103.208 63.6345 103.208 50.1122C103.208 36.59 92.2413 25.6289 78.7247 25.6289ZM87.2802 62.3511H70.1636C68.1302 62.3511 66.4802 60.7011 66.4802 58.6678V41.5511C66.4802 39.5178 68.1302 37.8678 70.1636 37.8678H87.2802C89.3136 37.8678 90.9636 39.5178 90.9636 41.5511V58.6678C90.9636 60.7011 89.3136 62.3511 87.2802 62.3511Z" fill="#FF7044"/>
<path d="M115.453 37.8512H119.619L120.181 40.8012C122.331 38.3234 125.375 37.2456 128.508 37.2456C134.919 37.2456 138.803 41.6456 138.803 48.5234V62.2789H133.469V49.0345C133.469 44.7789 131.225 42.1067 127.525 42.1067C123.547 42.1067 120.786 45.1456 120.786 49.8734V62.2734H115.453V37.8512Z" fill="white"/>
<path d="M143.813 50.0639C143.813 42.575 149.285 37.2417 157.058 37.2417C164.83 37.2417 170.252 42.575 170.252 50.0639C170.252 57.5528 164.78 62.8861 157.058 62.8861C149.335 62.8861 143.813 57.5973 143.813 50.0639ZM157.052 58.0195C161.685 58.0195 164.958 54.7417 164.958 50.0639C164.958 45.3861 161.68 42.1084 157.052 42.1084C152.424 42.1084 149.096 45.3861 149.096 50.0639C149.096 54.7417 152.374 58.0195 157.052 58.0195Z" fill="white"/>
<path d="M175.769 27.6504H181.102V62.2782H175.769V27.6504Z" fill="white"/>
<path d="M187.933 51.6066V37.8511H193.267V51.0955C193.267 55.3511 195.467 58.0233 199.117 58.0233C203.05 58.0233 205.761 54.9844 205.761 50.2566V37.8566H211.095V62.2844H206.928L206.322 59.3344C204.261 61.8122 201.222 62.89 198.133 62.89C191.722 62.89 187.933 58.49 187.933 51.6122V51.6066Z" fill="white"/>
<path d="M216.664 54.5084H221.903C221.998 56.9861 224.103 58.4861 227.614 58.4861C230.703 58.4861 232.525 57.4084 232.525 55.5861C232.525 53.7639 230.609 52.5473 226.303 51.7973C220.031 50.7695 217.131 48.3806 217.131 44.4028C217.131 39.8639 220.736 37.2417 226.909 37.2417C233.081 37.2417 237.014 40.0973 237.342 45.0584H232.103C231.914 42.8139 230.042 41.5473 226.909 41.5473C224.053 41.5473 222.37 42.625 222.37 44.4473C222.37 46.2695 223.82 47.0195 228.498 47.9584C234.625 49.1306 237.764 51.7473 237.764 55.6806C237.764 60.0806 233.786 62.8861 227.564 62.8861C221.014 62.8861 216.664 59.5639 216.664 54.5084Z" fill="white"/>
</g>
<defs>
<clipPath id="clip0_504_3994">
<rect width="183.528" height="48.9611" fill="white" transform="translate(54.2363 25.6348)"/>
</clipPath>
</defs>
</svg>
