<svg width="292" height="101" viewBox="0 0 292 101" fill="none" xmlns="http://www.w3.org/2000/svg">
<rect y="0.115234" width="292" height="100" rx="8" fill="#202020"/>
<g clip-path="url(#clip0_504_4024)">
<path d="M91.3834 38.6215L72.1409 67.1571C71.5591 68.0177 70.7231 68.7322 69.717 69.2287C68.7109 69.7256 67.5699 69.9872 66.4085 69.9872C65.247 69.9872 64.106 69.7256 63.0999 69.2287C62.0937 68.7322 61.2579 68.0177 60.676 67.1571L57.3027 62.1585C57.2919 62.1461 57.2872 62.1305 57.2898 62.1152C57.2924 62.0999 57.3019 62.086 57.3164 62.0767C57.3309 62.0674 57.3491 62.0634 57.367 62.0656C57.385 62.0678 57.4012 62.076 57.412 62.0884C58.0137 62.597 58.7434 62.981 59.5451 63.211C60.3468 63.4411 61.1994 63.5112 62.0375 63.4158C62.8757 63.3205 63.6773 63.0623 64.3811 62.6609C65.0848 62.2596 65.672 61.7258 66.0978 61.1004L82.206 37.1892C82.6307 36.5579 82.88 35.8514 82.9345 35.1244C82.9891 34.3974 82.8475 33.6694 82.5207 32.9967C82.1939 32.3241 81.6907 31.7249 81.05 31.2455C80.4092 30.7661 79.6483 30.4193 78.8259 30.2322C78.8078 30.2322 78.7904 30.226 78.7776 30.215C78.7648 30.2041 78.7576 30.1892 78.7576 30.1737C78.7576 30.1582 78.7648 30.1433 78.7776 30.1324C78.7904 30.1214 78.8078 30.1152 78.8259 30.1152H85.6544C86.8166 30.1163 87.9576 30.3791 88.9634 30.8773C89.9697 31.3754 90.8048 32.0914 91.3852 32.9533C91.9656 33.8152 92.2711 34.7927 92.2707 35.7876C92.2707 36.7825 91.9643 37.7599 91.3834 38.6215ZM68.6038 30.1152H61.9324C61.9188 30.1191 61.9069 30.1265 61.8984 30.1365C61.89 30.1465 61.8855 30.1585 61.8855 30.1708C61.8855 30.1831 61.89 30.1951 61.8984 30.2051C61.9069 30.215 61.9188 30.2225 61.9324 30.2263C62.3817 30.3749 62.7883 30.6048 63.1243 30.9003C63.4603 31.1958 63.7178 31.5499 63.8793 31.9385C64.0407 32.327 64.1022 32.7409 64.0597 33.1517C64.0172 33.5625 63.8715 33.9605 63.6327 34.3187L53.909 48.718C53.6578 49.0831 53.3153 49.3961 52.906 49.6345C52.4968 49.8729 52.0309 50.0307 51.542 50.0966C51.053 50.1625 50.5531 50.135 50.0781 50.0159C49.6031 49.8969 49.1647 49.6892 48.7945 49.4079C48.7837 49.3955 48.7675 49.3873 48.7496 49.3851C48.7316 49.3829 48.7134 49.3869 48.6989 49.3962C48.6845 49.4055 48.6749 49.4193 48.6723 49.4347C48.6698 49.45 48.6744 49.4656 48.6853 49.478L52.0995 54.5525C52.4828 55.122 53.0346 55.595 53.6993 55.9239C54.364 56.2527 55.1182 56.4258 55.8859 56.4258C56.6536 56.4258 57.4077 56.2527 58.0724 55.9239C58.7371 55.595 59.2889 55.122 59.6722 54.5525L72.3936 35.7276C72.7773 35.1585 72.9793 34.5129 72.979 33.8558C72.9788 33.1986 72.7764 32.5531 72.3923 31.9842C72.0081 31.4152 71.4557 30.943 70.7907 30.6149C70.1256 30.2868 69.3714 30.1145 68.6038 30.1152ZM45.4486 30.1152C44.3101 30.1152 43.1972 30.4043 42.2506 30.9458C41.3039 31.4874 40.5661 32.2571 40.1304 33.1576C39.6948 34.0582 39.5808 35.0491 39.8029 36.0051C40.025 36.9611 40.5732 37.8393 41.3783 38.5285C42.1833 39.2178 43.209 39.6872 44.3256 39.8773C45.4422 40.0675 46.5996 39.9699 47.6515 39.5969C48.7033 39.2239 49.6023 38.5922 50.2349 37.7817C50.8674 36.9712 51.205 36.0184 51.205 35.0436C51.2059 34.3962 51.0576 33.755 50.7686 33.1567C50.4797 32.5584 50.0557 32.0148 49.521 31.557C48.9863 31.0992 48.3514 30.7362 47.6525 30.4888C46.9538 30.2414 46.2048 30.1145 45.4486 30.1152Z" fill="url(#paint0_linear_504_4024)"/>
<path d="M137.587 39.0571H131.838L123.98 55.072L116.16 39.0571H110.411L121.489 61.0447H126.51L137.587 39.0571Z" fill="white"/>
<path d="M165.895 57.0082H151.598V52.02H164.707V48.0491H151.598V43.0937H165.818V39.0571H146.385V61.0447H165.895V57.0082Z" fill="white"/>
<path d="M200.231 39.0571H195.018V53.5624L180.797 39.0571H176.428V61.0447H181.641V46.9333L195.861 61.0447H200.231V39.0571Z" fill="white"/>
<path d="M233.454 39.0571H228.241V51.1996C228.241 53.0373 227.704 54.5141 226.631 55.6299C225.558 56.7457 224.14 57.2707 222.415 57.2707C220.575 57.2707 219.08 56.7457 217.969 55.6299C216.857 54.5141 216.32 53.0373 216.32 51.1996V39.0571H211.107V51.1996C211.107 54.2844 212.142 56.7785 214.212 58.6819C216.282 60.5853 219.003 61.537 222.415 61.537C225.711 61.537 228.394 60.5853 230.426 58.6819C232.419 56.7785 233.454 54.2844 233.454 51.1996V39.0571Z" fill="white"/>
<path d="M253.767 38.5649C250.777 38.5649 248.4 39.1885 246.637 40.4356C244.874 41.6826 243.993 43.2906 243.993 45.2597C243.993 48.6727 246.216 50.773 250.739 51.5606L256.182 52.4467C257.255 52.6436 258.022 52.9389 258.482 53.2999C258.942 53.6937 259.172 54.186 259.172 54.8423C259.172 55.6628 258.75 56.3191 257.983 56.8442C257.178 57.3692 256.067 57.6318 254.61 57.6318C251.429 57.6318 249.512 56.4504 248.86 54.0547L243.379 55.0064C243.686 57.1068 244.836 58.7476 246.829 59.8634C248.822 60.9792 251.276 61.5371 254.112 61.5371C257.178 61.5371 259.631 60.9135 261.509 59.6665C263.349 58.4194 264.308 56.7457 264.308 54.6126C264.308 52.9389 263.695 51.5606 262.506 50.5104C261.318 49.4603 259.67 48.7055 257.562 48.3117L252.042 47.36C250.317 47.0974 249.474 46.3427 249.474 45.1284C249.474 44.3736 249.857 43.7173 250.624 43.1922C251.391 42.6671 252.387 42.4046 253.652 42.4046C254.955 42.4046 256.067 42.7327 257.025 43.3563C257.945 43.9798 258.52 44.8002 258.712 45.8176L263.925 44.8987C263.426 42.9625 262.276 41.4201 260.436 40.2714C258.597 39.1557 256.373 38.5649 253.767 38.5649Z" fill="white"/>
</g>
<defs>
<linearGradient id="paint0_linear_504_4024" x1="91.5982" y1="61.6676" x2="37.6767" y2="18.8984" gradientUnits="userSpaceOnUse">
<stop stop-color="#5433FF"/>
<stop offset="0.5" stop-color="#20BDFF"/>
<stop offset="1" stop-color="#5CFFA2"/>
</linearGradient>
<clipPath id="clip0_504_4024">
<rect width="224.615" height="40" fill="white" transform="translate(39.6923 30.1152)"/>
</clipPath>
</defs>
</svg>
