<svg width="292" height="101" viewBox="0 0 292 101" fill="none" xmlns="http://www.w3.org/2000/svg">
<rect y="0.115234" width="292" height="100" rx="8" fill="#202020"/>
<g clip-path="url(#clip0_504_4059)">
<path d="M113.869 48.3441V35.3232H116.682V48.4482H113.869V48.3441Z" fill="white"/>
<path d="M129.29 35.3232H132.103V48.4482H128.04L122.311 39.0732H121.999V48.4482H119.186V35.3232H123.04H123.249L128.978 44.6982H129.29V35.3232Z" fill="white"/>
<path d="M133.769 35.3232H146.478V37.9274H141.582V48.4482H138.769V37.9274H133.769V35.3232Z" fill="white"/>
<path d="M158.973 35.3232V37.9274H151.057V40.6357H158.973V43.2399H151.057V45.9482H158.973V48.5524H148.244V35.3232H158.973Z" fill="white"/>
<path d="M170.644 43.3441L173.144 48.3441H170.019L167.936 43.9691C167.624 43.9691 167.415 43.9691 167.207 43.9691H164.186V48.3441H161.374V35.3232H164.186H167.728C169.29 35.3232 172.832 35.3232 172.832 39.6982C172.832 41.9899 171.894 42.8232 170.644 43.3441ZM170.228 39.6982C170.228 37.8232 168.561 37.8232 167.624 37.8232H164.29V41.4691H167.624C168.353 41.4691 170.228 41.4691 170.228 39.6982Z" fill="white"/>
<path d="M125.328 58.9733C125.328 63.8691 120.953 63.6608 119.703 63.6608H116.682V67.3066H113.869V54.1816H116.682H119.703C121.265 54.2858 125.328 54.2858 125.328 58.9733ZM122.619 58.9733C122.619 56.6816 120.744 56.6816 119.807 56.6816H116.578V61.1608H119.703C120.536 61.1608 122.619 61.265 122.619 58.9733Z" fill="white"/>
<path d="M136.479 62.3066L138.979 67.3066H135.854L133.771 62.9316C133.458 62.9316 133.25 62.9316 133.042 62.9316H130.021V67.3066H127.208V54.1816H130.021H133.563C135.125 54.1816 138.667 54.1816 138.667 58.5566C138.667 60.8483 137.625 61.6816 136.479 62.3066ZM135.958 58.5566C135.958 56.6816 134.292 56.6816 133.354 56.6816H130.021V60.3275H133.354C134.188 60.4316 135.958 60.4316 135.958 58.5566Z" fill="white"/>
<path d="M153.874 60.6388C153.874 64.9097 150.957 67.3055 147.207 67.3055C143.457 67.3055 140.54 65.0138 140.54 60.6388C140.54 56.368 143.457 53.9722 147.207 53.9722C150.957 53.9722 153.874 56.368 153.874 60.6388ZM151.165 60.6388C151.165 58.1388 149.499 56.8888 147.207 56.8888C144.915 56.8888 143.249 58.0347 143.249 60.6388C143.249 63.243 144.915 64.3888 147.207 64.3888C149.499 64.3888 151.165 63.1388 151.165 60.6388Z" fill="white"/>
<path d="M155.232 54.2832H167.94V56.8874H163.045V67.4082H160.232V56.7832H155.336L155.232 54.2832Z" fill="white"/>
<path d="M182.624 60.6388C182.624 64.9097 179.707 67.3055 175.957 67.3055C172.207 67.3055 169.186 65.0138 169.186 60.6388C169.186 56.368 172.103 53.9722 175.853 53.9722C179.603 53.9722 182.624 56.368 182.624 60.6388ZM179.915 60.6388C179.915 58.1388 178.249 56.8888 175.957 56.8888C173.665 56.8888 171.999 58.0347 171.999 60.6388C171.999 63.243 173.665 64.3888 175.957 64.3888C178.144 64.3888 179.915 63.1388 179.915 60.6388Z" fill="white"/>
<path d="M194.503 62.3055H197.524C197.315 65.2222 194.711 67.3055 191.065 67.3055C187.315 67.3055 184.399 65.0138 184.399 60.6388C184.399 56.368 187.211 53.9722 191.065 53.9722C194.711 53.9722 197.315 56.1597 197.524 58.9722H194.607C194.19 57.618 193.253 56.8888 191.065 56.8888C188.878 56.8888 187.315 58.0347 187.315 60.6388C187.315 63.243 188.878 64.3888 191.065 64.3888C193.253 64.3888 194.086 63.6597 194.503 62.3055Z" fill="white"/>
<path d="M212.518 60.6388C212.518 64.9097 209.601 67.3055 205.851 67.3055C202.101 67.3055 199.185 65.0138 199.185 60.6388C199.185 56.368 202.101 53.9722 205.851 53.9722C209.601 53.9722 212.518 56.368 212.518 60.6388ZM209.706 60.6388C209.706 58.1388 208.039 56.8888 205.747 56.8888C203.456 56.8888 201.789 58.0347 201.789 60.6388C201.789 63.243 203.456 64.3888 205.747 64.3888C208.039 64.3888 209.706 63.1388 209.706 60.6388Z" fill="white"/>
<path d="M217.42 64.6999H225.336V67.304H214.607V54.2832H217.42V64.6999Z" fill="white"/>
<path d="M223.765 54.3843H225.953V54.8009H225.119V56.6759H224.598V54.8009H223.765V54.3843Z" fill="white"/>
<path d="M229.082 54.3843V56.6759H228.561V55.0093L228.144 56.6759H227.415L226.999 55.0093V56.6759H226.478V54.3843H227.311L227.728 56.1551L228.144 54.3843H229.082Z" fill="white"/>
<path d="M100.229 50.5344C100.021 49.7011 99.0834 49.1802 98.2501 49.3886C98.0417 49.4927 97.7292 49.5969 97.6251 49.7011C97.2084 50.1178 97.0001 50.7428 97.2084 51.3678C97.4167 52.2011 97.6251 53.1386 97.5209 54.0761V61.1594C97.5209 66.2636 93.7709 70.7428 88.6667 71.2636C83.2501 71.7844 78.4584 67.8261 77.9376 62.4094C77.9376 62.0969 77.9376 61.7844 77.9376 61.4719V54.2844C77.9376 49.3886 81.2709 45.2219 86.0626 44.3886C87.9376 44.0761 89.7084 44.2844 91.4792 45.0136C92.0001 45.2219 92.6251 45.1177 93.1459 44.7011C93.7709 44.0761 93.8751 43.1386 93.3542 42.5136C93.1459 42.3053 93.0417 42.2011 92.7292 42.0969C90.6459 41.2636 88.2501 40.9511 86.0626 41.2636C79.3959 42.0969 74.6042 47.8261 74.6042 54.3886V61.1594C74.6042 68.4511 80.5417 74.7011 87.8334 74.5969C94.9167 74.4928 100.646 68.6594 100.646 61.5761V54.0761C100.75 52.9303 100.542 51.6803 100.229 50.5344ZM77.7292 43.0344C78.2501 42.6178 78.3542 41.9928 78.2501 41.3678C77.8334 40.0136 77.7292 38.5553 78.0417 37.0969C78.8751 31.6802 83.9792 28.1386 89.3959 28.9719C94.8126 29.8052 98.3542 34.9094 97.5209 40.3261C96.7917 44.7011 93.2501 48.0344 88.8751 48.5553C87.2084 48.7636 85.5417 48.5553 84.0834 47.9303C83.5626 47.7219 82.9376 47.8261 82.4167 48.2428C81.7917 48.8678 81.6876 49.8052 82.2084 50.4303C82.4167 50.6386 82.5209 50.7428 82.8334 50.8469C85.1251 51.7844 87.6251 52.0969 90.0209 51.6803C97.1042 50.4303 101.896 43.6594 100.646 36.5761C99.3959 29.4927 92.5209 24.5969 85.4376 25.8469C78.3542 27.0969 73.5626 33.8677 74.9167 40.9511C75.0209 41.3678 75.1251 41.8886 75.2292 42.3053C75.4376 43.1386 76.3751 43.6594 77.2084 43.3469C77.4167 43.3469 77.6251 43.1386 77.7292 43.0344Z" fill="white"/>
</g>
<defs>
<clipPath id="clip0_504_4059">
<rect width="155.208" height="50" fill="white" transform="translate(74.3959 25.1152)"/>
</clipPath>
</defs>
</svg>
