<svg width="292" height="101" viewBox="0 0 292 101" fill="none" xmlns="http://www.w3.org/2000/svg">
<rect y="0.115234" width="292" height="100" rx="8" fill="#202020"/>
<g clip-path="url(#clip0_504_3983)">
<path d="M86.2631 30.5171H46.8063C44.8235 30.5171 43.2161 31.8933 43.2161 33.5909V67.3724C43.2161 69.07 44.8235 70.4462 46.8063 70.4462H86.2631C88.2459 70.4462 89.8534 69.07 89.8534 67.3724V33.5909C89.8534 31.8933 88.2459 30.5171 86.2631 30.5171Z" fill="#D642DB"/>
<path d="M82.6789 39.0923V42.1636H79.0947C77.1124 42.1636 75.5044 43.5403 75.5044 45.2374V60.5912H71.9172V42.1636H68.3299V63.6625H64.7427V42.1636H61.1554V60.5912H57.5682V45.2374C57.5682 43.5403 55.9602 42.1636 53.9779 42.1636H50.3937V39.0923H82.6789Z" fill="white"/>
<path d="M110.016 40.5033H100.473V35.7451H125.509V40.5033H115.966V65.2222H110.016V40.5033Z" fill="white"/>
<path d="M128.705 35.7407H134.657V47.8694H149.857V35.7407H155.807V65.2178H149.857V52.6276H134.657V65.2178H128.705V35.7407Z" fill="white"/>
<path d="M161.073 35.7407H181.878V40.4989H167.023V47.8668H179.812V52.5841H167.023V60.4596H182.369V65.2178H161.073V35.7407Z" fill="white"/>
<path d="M186.304 35.7407H196.338L207.453 60.2493H207.845V35.7407H213.747V65.2178H203.614L192.697 40.7527H192.254V65.2178H186.301V35.7407H186.304Z" fill="white"/>
<path d="M239.932 58.9053H225.03L222.521 65.2222H216.373L228.422 35.7451H236.784L248.734 65.2222H242.438L239.931 58.9053H239.932ZM238.065 54.2317L232.704 40.7571H232.214L226.854 54.2317H238.067H238.065Z" fill="white"/>
</g>
<defs>
<clipPath id="clip0_504_3983">
<rect width="205.675" height="40" fill="white" transform="translate(43.2161 30.4707)"/>
</clipPath>
</defs>
</svg>
