<svg width="292" height="101" viewBox="0 0 292 101" fill="none" xmlns="http://www.w3.org/2000/svg">
<rect y="0.115234" width="292" height="100" rx="8" fill="#202020"/>
<g clip-path="url(#clip0_504_4033)">
<path d="M89.9237 52.7616L104.841 50.3036L89.9237 47.8455L98.7342 35.5616L86.4503 44.3722L83.9923 29.4551L81.5363 44.3722L69.2503 35.5616L78.0609 47.8455L63.1438 50.3036L78.0609 52.7616L69.2503 65.0455L81.5363 56.235L83.9923 71.152L86.4503 56.235L98.7342 65.0455L89.9237 52.7616Z" fill="url(#paint0_linear_504_4033)"/>
<path d="M166.333 43.037C164.955 42.3469 163.377 42.0029 161.603 42.0029H154.331V49.3791H157.421V44.6173H161.461C162.681 44.6173 163.754 44.8508 164.682 45.3178C165.61 45.7848 166.323 46.4499 166.821 47.3151C167.319 48.1782 167.57 49.1811 167.57 50.3215C167.57 51.4619 167.319 52.4647 166.821 53.3278C166.323 54.191 165.61 54.856 164.682 55.3251C163.754 55.7921 162.681 56.0256 161.461 56.0256H157.421V51.2492H154.331V58.64H161.603C163.377 58.64 164.953 58.296 166.333 57.6059C167.711 56.9159 168.781 55.9422 169.542 54.683C170.303 53.4237 170.682 51.9706 170.682 50.3215C170.682 48.6744 170.303 47.2192 169.542 45.96C168.781 44.7007 167.711 43.725 166.333 43.037ZM139.041 42.0029L131.554 58.64H134.739L136.38 54.7893H144.699L146.362 58.64H149.594L142.084 42.0029H139.041ZM137.425 52.3646L140.537 45.0927L143.675 52.3646H137.425ZM126.194 51.1533C126.802 50.2506 127.109 49.1727 127.109 47.9218C127.109 46.7022 126.823 45.6493 126.254 44.7612C125.683 43.873 124.864 43.1934 123.794 42.718C122.724 42.2427 121.469 42.005 120.027 42.005H113.182V49.3812H116.272V44.6194H119.885C121.232 44.6194 122.253 44.905 122.952 45.4742C123.648 46.0455 123.998 46.8606 123.998 47.9218C123.998 48.983 123.65 49.8044 122.952 50.3819C122.253 50.9615 121.232 51.2492 119.885 51.2492H113.182V58.64H116.272V53.7907H120.027C120.312 53.7907 120.525 53.7823 120.669 53.7677L124.067 58.64H127.395L123.569 53.1735C124.707 52.7295 125.583 52.0561 126.194 51.1533ZM176.52 58.64H179.61V42.0029H176.52V58.64ZM191.841 42.0029L184.355 58.64H187.54L189.181 54.7893H197.5L199.163 58.64H202.395L194.885 42.0029H191.841ZM190.226 52.3646L193.338 45.0927L196.476 52.3646H190.226ZM226.746 42.0029V44.6173H232.26V58.64H235.35V44.6173H240.864V42.0029H226.746ZM218.848 53.2694L209.675 42.0029H207.132V58.64H210.198V47.3735L219.372 58.64H221.915V42.0029H218.848V53.2694Z" fill="white"/>
</g>
<defs>
<linearGradient id="paint0_linear_504_4033" x1="83.9927" y1="29.7919" x2="83.9927" y2="70.8466" gradientUnits="userSpaceOnUse">
<stop offset="0.1028" stop-color="#00FFAA"/>
<stop offset="0.999" stop-color="#5F00FA"/>
</linearGradient>
<clipPath id="clip0_504_4033">
<rect width="179.818" height="43" fill="white" transform="translate(62.0908 28.6152)"/>
</clipPath>
</defs>
</svg>
