<svg width="292" height="101" viewBox="0 0 292 101" fill="none" xmlns="http://www.w3.org/2000/svg">
<rect y="0.115234" width="292" height="100" rx="8" fill="#202020"/>
<g clip-path="url(#clip0_491_8534)">
<mask id="mask0_491_8534" style="mask-type:luminance" maskUnits="userSpaceOnUse" x="93" y="30" width="118" height="41">
<path d="M93.472 30.1152H210.528V70.1152H93.472V30.1152Z" fill="white"/>
</mask>
<g mask="url(#mask0_491_8534)">
<path d="M153.217 49.4826C153.296 49.5707 153.403 49.6274 153.52 49.6463C154.999 50.1016 156.107 51.3374 156.4 52.8588C156.76 54.4283 156.526 55.895 155.46 57.1623C154.976 57.7226 154.375 58.1675 153.696 58.4633C152.66 58.9438 151.531 59.1956 150.387 59.2019C147.409 59.225 144.431 59.2019 141.453 59.2019C141.369 59.2019 141.287 59.1915 141.209 59.1852C141.109 58.82 141.084 41.5783 141.18 40.9803C141.337 40.9278 141.503 40.9131 141.666 40.9383H149.748C151.179 40.9026 152.593 41.2467 153.847 41.937C156.474 43.4458 156.377 46.4988 155.167 48.0599C154.769 48.5824 154.249 48.9978 153.652 49.2706L153.217 49.4826ZM145.763 55.4291C145.815 55.4523 145.872 55.467 145.928 55.4753H149.602C151.962 55.4019 152.004 51.8327 149.646 51.7235H146.159C146.029 51.7235 145.888 51.6879 145.769 51.8012L145.763 55.4291ZM145.763 48.1711C145.842 48.1879 145.922 48.1985 146.002 48.2048H149.265C149.482 48.2005 149.698 48.169 149.908 48.1145C150.752 47.9466 151.332 47.1639 151.248 46.3058C151.206 45.4455 150.672 44.8768 149.769 44.7362C149.604 44.711 149.436 44.7005 149.269 44.7026H146.108C145.997 44.7026 145.872 44.667 145.763 44.7907V48.1711ZM200.221 45.3237C201.161 47.9928 202.095 50.6514 203.027 53.2973C203.08 53.4441 203.242 53.5218 203.388 53.4715H203.392C203.472 53.4441 203.537 53.3792 203.564 53.2994C204.029 52.0761 204.389 50.8318 204.783 49.5979C205.236 48.1796 205.677 46.759 206.128 45.3259C206.161 45.2041 206.272 45.1182 206.4 45.116H210.248C210.402 45.116 210.528 45.2419 210.528 45.3971V45.4014C210.528 45.4392 210.522 45.4748 210.507 45.5084C208.652 50.4708 206.796 55.4334 204.938 60.3917C204.68 61.103 204.329 61.7745 203.89 62.3914C203.076 63.5475 201.796 64.2862 200.389 64.4121C198.806 64.5883 197.321 64.3051 196.001 63.3524L195.719 63.1425L195.522 62.9936L197.235 60.0244C197.315 59.8881 197.488 59.8419 197.624 59.9216L197.664 59.9489C197.713 59.9888 197.756 60.0329 197.804 60.0665C198.156 60.3266 198.574 60.4861 199.009 60.5281C199.691 60.612 200.355 60.2699 200.684 59.6657C200.71 59.6237 200.728 59.5775 200.751 59.5355C200.992 59.0907 201.015 58.5619 200.816 58.0983C199.17 54.103 197.536 50.1016 195.916 46.0918C195.81 45.8316 195.706 45.5713 195.599 45.3111C195.576 45.2503 195.557 45.1664 195.611 45.1307C195.637 45.1182 195.664 45.1119 195.691 45.1139H199.941C200.073 45.1119 200.188 45.2 200.221 45.3259V45.3237ZM182.955 54.6885L184.783 56.5895C184.934 56.7427 184.934 56.9903 184.783 57.1435C183.613 58.3668 182.044 59.1305 180.36 59.2985C179.158 59.4642 177.935 59.3866 176.764 59.0719C174.171 58.3878 172.28 56.1552 172.029 53.4799C171.876 52.1306 171.915 50.794 172.357 49.4931C173.254 46.9017 175.116 45.4329 177.826 45.0132C178.871 44.8579 179.937 44.902 180.967 45.1433C182.737 45.5147 184.231 46.7002 184.997 48.3411C185.732 49.8099 185.904 51.3795 185.866 53.0371C185.862 53.249 185.69 53.419 185.479 53.4211C185.077 53.4316 184.685 53.4211 184.293 53.4211H178.119C177.761 53.4211 177.405 53.4085 177.026 53.4211C176.808 53.4253 176.634 53.6078 176.638 53.8261C176.638 53.8743 176.649 53.9205 176.666 53.9645C176.831 54.3968 177.097 54.7829 177.445 55.0872C178.421 55.9412 179.539 55.9936 180.71 55.6537C181.288 55.4796 181.822 55.1816 182.274 54.7787L182.413 54.6612C182.572 54.5249 182.811 54.5374 182.955 54.6885ZM181.07 50.8506C181.29 50.8506 181.468 50.6724 181.468 50.452V50.4142C181.386 49.3819 180.639 48.5236 179.627 48.3033C177.951 47.9361 176.831 49.1426 176.523 50.366C176.473 50.5758 176.601 50.7877 176.812 50.8402C176.844 50.8465 176.877 50.8465 176.909 50.8402L181.07 50.8506ZM168.397 54.6779L170.227 56.5917C170.368 56.7406 170.368 56.9756 170.227 57.1246C169.618 57.7834 168.883 58.3123 168.064 58.6773C166.801 59.2251 165.425 59.46 164.053 59.3614C163.234 59.3362 162.424 59.1809 161.653 58.8998C159.368 58.0395 158.019 56.3629 157.558 53.9897C157.23 52.4538 157.33 50.8569 157.847 49.3735C158.802 46.7653 160.702 45.3573 163.425 45.0132C164.474 44.8768 165.54 44.9376 166.566 45.1957C168.391 45.6469 169.689 46.7464 170.504 48.4314C171.239 49.9547 171.386 51.5788 171.31 53.2427C171.296 53.3057 171.273 53.3686 171.241 53.4253H162.461C162.25 53.4253 162.078 53.5952 162.076 53.8072C162.076 53.866 162.089 53.9226 162.114 53.975C162.145 54.0401 162.179 54.103 162.208 54.166C162.744 55.2886 163.921 55.9579 165.157 55.8446C166.166 55.7775 167.124 55.36 167.861 54.6654C168.014 54.5227 168.252 54.529 168.397 54.6779ZM161.841 50.8213C162.52 50.9409 166.627 50.9053 166.958 50.7835C166.92 49.9232 166.648 49.1658 165.911 48.6684C165.172 48.1397 164.2 48.0746 163.398 48.5006C162.451 48.9706 162.043 49.8267 161.841 50.8213Z" fill="white"/>
<path d="M196.223 40.4368C196.054 41.4587 195.892 42.4427 195.727 43.4415C195.701 43.5906 195.561 43.6934 195.412 43.6703H195.388C195.128 43.6032 194.893 43.5423 194.658 43.4751C194.612 43.4625 194.566 43.45 194.52 43.4415C193.645 43.3073 192.826 43.9074 192.69 44.7845C192.675 44.8726 192.669 44.9628 192.671 45.0531V45.4916C192.673 45.6406 192.794 45.7602 192.943 45.7623H195.31C195.448 45.7623 195.563 45.8651 195.582 46.0015C195.658 46.8723 195.668 47.7473 195.615 48.6181C195.605 48.7587 195.49 48.8678 195.349 48.872C194.564 48.8909 193.768 48.872 192.935 48.872C192.786 48.8761 192.669 48.9979 192.667 49.1469V58.9061C192.667 59.0572 192.543 59.1789 192.392 59.1789H188.484C188.333 59.1789 188.212 59.0572 188.212 58.9061V49.1574C188.212 49.0147 188.101 48.8972 187.958 48.8846C187.514 48.8447 187.087 48.8846 186.658 48.8636C186.511 48.8531 186.4 48.7272 186.404 48.5803V46.0498C186.404 45.9008 186.524 45.7791 186.673 45.7749C187.114 45.7435 187.544 45.7749 187.965 45.7623C188.097 45.7539 188.206 45.6511 188.218 45.5189C188.212 45.414 188.212 45.3112 188.218 45.2063C188.206 44.6859 188.224 44.1676 188.275 43.6493C188.576 41.6559 189.814 40.3214 191.768 39.843C193.209 39.4926 194.608 39.652 196.041 40.1305C196.168 40.1745 196.244 40.3046 196.223 40.4368ZM113.436 32.2492C115.844 32.2492 118.18 32.7213 120.377 33.653C121.432 34.0999 122.452 34.6539 123.405 35.3001C124.35 35.9401 125.238 36.6745 126.046 37.4824C126.855 38.2923 127.588 39.182 128.224 40.1284C128.867 41.0831 129.422 42.105 129.868 43.1625C130.798 45.3637 131.27 47.7033 131.27 50.1163C131.27 52.5293 130.798 54.8689 129.868 57.0701C129.422 58.1276 128.869 59.1494 128.224 60.1042C127.586 61.0506 126.853 61.9402 126.046 62.7502C125.238 63.5601 124.35 64.2945 123.405 64.9324C122.452 65.5787 121.432 66.1327 120.377 66.5796C118.18 67.5113 115.844 67.9834 113.436 67.9834C111.027 67.9834 108.692 67.5113 106.495 66.5796C105.439 66.1327 104.419 65.5787 103.467 64.9324C102.522 64.2924 101.634 63.5581 100.825 62.7502C100.017 61.9402 99.284 61.0506 98.6473 60.1042C98.0043 59.1494 97.4493 58.1276 97.0032 57.0701C96.0733 54.8689 95.602 52.5293 95.602 50.1163C95.602 47.7033 96.0733 45.3637 97.0032 43.1625C97.4493 42.105 98.0022 41.0831 98.6473 40.1284C99.2861 39.182 100.019 38.2923 100.825 37.4824C101.634 36.6724 102.522 35.938 103.467 35.3001C104.419 34.6539 105.439 34.0999 106.495 33.653C108.692 32.7213 111.027 32.2492 113.436 32.2492ZM113.436 30.1152C102.409 30.1152 93.472 39.0687 93.472 50.1163C93.472 61.1639 102.409 70.1174 113.436 70.1174C124.463 70.1174 133.4 61.1639 133.4 50.1163C133.4 39.0687 124.461 30.1152 113.436 30.1152Z" fill="white"/>
<path d="M107.377 42.4513V40.9762C107.377 39.7844 108.156 38.8129 109.329 38.6072C110.214 38.4499 111.035 38.6156 111.687 39.2955C112.114 39.7403 112.336 40.2796 112.345 40.8965C112.353 41.4085 112.345 41.9226 112.345 42.4429H115.038C115.038 42.4114 115.042 42.3779 115.042 42.3422V40.9426C115.046 39.6186 116.091 38.5716 117.413 38.559C117.869 38.5548 118.311 38.5988 118.718 38.8192C119.551 39.2724 119.987 39.9774 120.01 40.9259C120.023 41.4274 120.012 41.9289 120.012 42.4472H123.512C124.165 42.4472 124.599 42.8836 124.658 43.5361C124.708 44.0943 124.565 44.6042 124.381 45.1141C124.19 45.6428 123.918 46.138 123.571 46.5787C123.296 46.927 122.988 47.2522 122.672 47.5649C122.261 47.9678 121.83 48.3497 121.401 48.7358C121.166 48.9455 120.957 49.1743 120.823 49.4618C120.785 49.5436 120.751 49.6402 120.751 49.7283C120.747 51.8769 120.756 54.0255 120.745 56.1743C120.733 58.7572 118.827 61.0592 116.297 61.5501C115.905 61.6235 115.509 61.6634 115.111 61.6655C113.999 61.6802 112.887 61.6718 111.775 61.6697C109.06 61.6697 106.786 59.8148 106.254 57.152C106.185 56.7828 106.149 56.4093 106.151 56.0337C106.141 53.9396 106.147 51.8454 106.145 49.7535C106.145 49.6884 106.13 49.6233 106.103 49.5646C105.934 49.1701 105.634 48.8806 105.322 48.5972C104.901 48.2154 104.484 47.8293 104.072 47.439C103.59 46.9837 103.161 46.4842 102.846 45.8967C102.495 45.2378 102.195 44.5539 102.195 43.7837C102.195 43.6096 102.214 43.4375 102.252 43.2676C102.369 42.7786 102.802 42.4492 103.307 42.4472H107.372L107.377 42.4513ZM111.245 44.8224H106.964C106.69 44.8224 106.453 45.0071 106.417 45.2777C106.394 45.4331 106.396 45.5924 106.424 45.7478C106.518 46.2283 106.727 46.6626 107.06 47.0194C107.393 47.376 107.758 47.6929 108.095 48.0391C108.351 48.2994 108.514 48.6098 108.514 48.9939C108.512 51.3398 108.512 53.6856 108.514 56.0315C108.514 56.1973 108.522 56.3631 108.545 56.5268C108.782 58.1382 110.131 59.3007 111.756 59.3007H115.105C115.27 59.3007 115.436 59.2923 115.601 59.2713C117.195 59.051 118.383 57.6892 118.385 56.0777C118.385 55.6875 118.381 55.2951 118.387 54.9047C118.387 54.8146 118.362 54.7768 118.274 54.7495C117.451 54.4977 116.663 54.1388 115.932 53.6835C114.253 52.6386 112.964 51.2369 112.131 49.4303C111.731 48.5637 111.457 47.6594 111.36 46.7088C111.297 46.0855 111.285 45.4582 111.247 44.8182L111.245 44.8224ZM118.219 51.1132C118.226 50.5256 117.756 50.0451 117.172 50.0367C116.586 50.0304 116.106 50.5005 116.098 51.088C116.091 51.6755 116.561 52.156 117.145 52.1644H117.147C117.731 52.1728 118.211 51.7048 118.217 51.1195V51.1132H118.219Z" fill="white"/>
<path d="M111.664 51.1022C111.661 51.6898 111.184 52.164 110.6 52.1619C110.013 52.1598 109.54 51.6814 109.542 51.0939C109.544 50.5064 110.022 50.0322 110.608 50.0342H110.612C111.197 50.0342 111.668 50.5127 111.666 51.0959V51.1002L111.664 51.1022Z" fill="white"/>
</g>
</g>
<defs>
<clipPath id="clip0_491_8534">
<rect width="117.056" height="40" fill="white" transform="translate(93.472 30.1152)"/>
</clipPath>
</defs>
</svg>
