<svg width="292" height="101" viewBox="0 0 292 101" fill="none" xmlns="http://www.w3.org/2000/svg">
<rect y="0.115234" width="292" height="100" rx="8" fill="#202020"/>
<g clip-path="url(#clip0_504_4077)">
<path d="M91.9949 33.2893C98.8521 32.9468 103.429 36.092 107.723 43.3121C113.006 52.1961 110.256 61.1733 104.598 66.4772C108.176 58.9738 107.426 55.9519 99.5341 49.5016C91.6418 43.0511 91.1133 37.6416 91.9943 33.2893H91.9949Z" fill="url(#paint0_linear_504_4077)"/>
<path fill-rule="evenodd" clip-rule="evenodd" d="M115.173 50.2302C115.173 57.4805 110.825 63.7169 104.591 66.4802C108.586 62.7856 113.42 53.1677 107.914 44.0928C103.046 36.0683 95.8514 34.0491 91.9917 33.2897C93.7344 32.7384 95.5516 32.4587 97.3794 32.4605C107.206 32.4605 115.173 40.4164 115.173 50.2302Z" fill="url(#paint1_linear_504_4077)"/>
<path d="M103.086 66.9179C98.3996 67.7356 92.7603 64.7851 87.3578 56.8954C81.5176 48.366 84.8244 39.0338 90.4822 33.73C86.9047 41.2334 87.6544 44.2553 95.5462 50.7059C103.439 57.1564 103.967 62.5659 103.086 66.9179Z" fill="url(#paint2_linear_504_4077)"/>
<path fill-rule="evenodd" clip-rule="evenodd" d="M79.9076 49.978C79.9076 42.7277 84.2557 36.4913 90.4897 33.728C86.495 37.4223 81.661 47.0405 87.1664 56.1152C92.0348 64.1399 99.2292 66.1588 103.089 66.9183C101.346 67.4696 99.5288 67.7493 97.7009 67.7475C87.8738 67.7475 79.9076 59.7921 79.9076 49.978Z" fill="url(#paint3_linear_504_4077)"/>
<path d="M135.287 59.0509C135.287 58.7293 135.177 58.4536 134.959 58.2241C134.752 57.9828 134.384 57.7648 133.855 57.5694C133.326 57.3625 132.584 57.156 131.629 56.9491C130.72 56.7537 129.864 56.4954 129.058 56.1737C128.265 55.8521 127.569 55.4617 126.971 55.002C126.373 54.5424 125.901 53.9969 125.556 53.3651C125.223 52.7334 125.056 52.0098 125.056 51.1942C125.056 50.4017 125.223 49.6552 125.556 48.9543C125.901 48.2422 126.401 47.6164 127.057 47.0764C127.724 46.525 128.535 46.0942 129.49 45.7841C130.444 45.4625 131.531 45.3015 132.75 45.3015C134.43 45.3015 135.879 45.5602 137.098 46.0771C138.317 46.5824 139.255 47.2945 139.91 48.2134C140.577 49.1209 140.911 50.1719 140.911 51.3666H135.097C135.097 50.8958 135.016 50.4935 134.855 50.1605C134.706 49.8274 134.458 49.5749 134.113 49.4025C133.768 49.2186 133.308 49.1268 132.733 49.1268C132.331 49.1268 131.962 49.2015 131.629 49.3507C131.307 49.4999 131.048 49.7067 130.853 49.971C130.657 50.2352 130.559 50.5453 130.559 50.9014C130.559 51.1541 130.617 51.3839 130.732 51.5905C130.858 51.7859 131.048 51.9695 131.301 52.1419C131.554 52.3026 131.876 52.4521 132.267 52.5898C132.659 52.7163 133.13 52.8311 133.682 52.9344C134.936 53.1642 136.109 53.4917 137.202 53.9166C138.294 54.3415 139.18 54.9447 139.858 55.7256C140.549 56.5068 140.894 57.5579 140.894 58.8788C140.894 59.7056 140.704 60.4698 140.324 61.1701C139.945 61.8595 139.398 62.4683 138.685 62.9965C137.972 63.5135 137.115 63.9155 136.115 64.2027C135.114 64.4898 133.987 64.6334 132.733 64.6334C130.951 64.6334 129.444 64.3174 128.213 63.686C126.982 63.0424 126.051 62.2385 125.418 61.2737C124.797 60.2974 124.486 59.3096 124.486 58.31H129.904C129.927 58.8844 130.065 59.3552 130.318 59.723C130.582 60.0905 130.933 60.3606 131.37 60.5328C131.807 60.7052 132.314 60.7911 132.888 60.7911C133.418 60.7911 133.855 60.7164 134.2 60.5675C134.556 60.418 134.827 60.2167 135.011 59.9643C135.195 59.7 135.287 59.3955 135.287 59.0509ZM149.313 37.8237V64.2889H143.499V37.824H149.313V37.8237ZM148.623 54.33L147.26 54.3644C147.26 53.055 147.421 51.8489 147.743 50.7463C148.065 49.6435 148.525 48.6845 149.123 47.8688C149.721 47.0535 150.44 46.4217 151.279 45.9739C152.119 45.5257 153.051 45.3018 154.074 45.3018C154.995 45.3018 155.834 45.4339 156.593 45.6979C157.364 45.9621 158.025 46.3873 158.577 46.9728C159.141 47.5587 159.572 48.3226 159.871 49.2645C160.182 50.2064 160.337 51.3551 160.337 52.7104V64.2889H154.488V52.676C154.488 51.918 154.379 51.3322 154.161 50.9187C153.954 50.4935 153.655 50.2008 153.264 50.0398C152.872 49.8677 152.395 49.7815 151.832 49.7815C151.153 49.7815 150.601 49.8962 150.175 50.1257C149.75 50.3558 149.422 50.6775 149.192 51.0909C148.973 51.4928 148.824 51.9695 148.744 52.5209C148.663 53.0724 148.623 53.6753 148.623 54.33ZM173.259 59.6023V51.918C173.259 51.3895 173.184 50.9358 173.035 50.5568C172.886 50.1778 172.65 49.8847 172.328 49.6782C172.006 49.4598 171.574 49.3507 171.034 49.3507C170.597 49.3507 170.223 49.4254 169.912 49.5746C169.61 49.7162 169.362 49.952 169.205 50.2467C169.044 50.5453 168.964 50.9243 168.964 51.3837H163.149C163.149 50.5224 163.339 49.7241 163.719 48.9888C164.11 48.2422 164.662 47.5931 165.375 47.042C166.099 46.4906 166.962 46.0657 167.963 45.767C168.975 45.4569 170.102 45.3018 171.344 45.3018C172.828 45.3018 174.151 45.5487 175.312 46.0424C176.485 46.5365 177.411 47.2774 178.09 48.2652C178.769 49.2415 179.108 50.4706 179.108 51.9521V59.585C179.108 60.8029 179.177 61.7271 179.315 62.3592C179.453 62.9795 179.648 63.525 179.901 63.9961V64.2889H174.07C173.794 63.7145 173.587 63.0139 173.449 62.1867C173.321 61.3312 173.258 60.4673 173.259 59.6023ZM173.967 52.8999L174.001 56.0013H171.431C170.89 56.0013 170.43 56.0761 170.05 56.2255C169.682 56.3747 169.383 56.5816 169.153 56.8455C168.935 57.097 168.771 57.3902 168.67 57.7071C168.577 58.0379 168.53 58.3801 168.532 58.7237C168.532 59.0683 168.612 59.3784 168.774 59.6541C168.946 59.9177 169.183 60.1316 169.464 60.2744C169.751 60.4236 170.073 60.4983 170.43 60.4983C171.074 60.4983 171.62 60.3777 172.069 60.1364C172.529 59.8837 172.88 59.5794 173.121 59.2234C173.363 58.8673 173.483 58.5342 173.483 58.2241L174.76 60.6016C174.519 61.0799 174.255 61.5457 173.967 61.9972C173.679 62.4683 173.317 62.9047 172.88 63.3067C172.454 63.6971 171.931 64.019 171.31 64.2718C170.689 64.5128 169.935 64.6334 169.05 64.6334C167.9 64.6334 166.841 64.398 165.875 63.9269C164.921 63.4561 164.155 62.8014 163.581 61.9628C163.006 61.1127 162.718 60.1364 162.718 59.0339C162.718 58.069 162.89 57.2074 163.236 56.4495C163.592 55.6912 164.127 55.0479 164.84 54.5195C165.553 53.9913 166.462 53.5891 167.566 53.3136C168.67 53.0379 169.97 52.8999 171.465 52.8999H173.967ZM193.065 60.0158V37.824H198.914V64.2889H193.669L193.065 60.0158ZM181.61 55.1915V54.8296C181.61 53.4169 181.765 52.1305 182.075 50.9702C182.386 49.7985 182.846 48.7937 183.455 47.9551C184.065 47.105 184.824 46.4503 185.733 45.9909C186.641 45.5313 187.688 45.3018 188.873 45.3018C189.931 45.3018 190.857 45.5487 191.65 46.0424C192.444 46.525 193.123 47.2027 193.686 48.0757C194.25 48.9487 194.71 49.9707 195.066 51.1427C195.423 52.3026 195.693 53.5546 195.877 54.8988V55.3293C195.693 56.5928 195.423 57.7874 195.066 58.9132C194.71 60.0275 194.25 61.0153 193.686 61.8766C193.123 62.7382 192.438 63.4158 191.633 63.9099C190.84 64.3921 189.908 64.6334 188.838 64.6334C187.653 64.6334 186.607 64.398 185.698 63.9269C184.801 63.4561 184.048 62.7956 183.438 61.9455C182.84 61.0957 182.386 60.0964 182.075 58.9476C181.765 57.7989 181.61 56.5469 181.61 55.1915ZM187.424 54.8296V55.1915C187.424 55.8922 187.469 56.5413 187.562 57.1383C187.653 57.7359 187.809 58.2644 188.027 58.7237C188.257 59.1716 188.556 59.522 188.925 59.7748C189.304 60.0275 189.77 60.1538 190.322 60.1538C191.07 60.1538 191.685 59.9758 192.168 59.6194C192.662 59.2634 193.025 58.7581 193.255 58.1034C193.496 57.4487 193.6 56.679 193.565 55.7945V54.4336C193.588 53.6753 193.537 53.0094 193.41 52.4347C193.284 51.8492 193.082 51.3607 192.806 50.9702C192.542 50.5798 192.202 50.287 191.788 50.0916C191.386 49.8847 190.909 49.7815 190.356 49.7815C189.816 49.7815 189.356 49.908 188.976 50.1605C188.608 50.4132 188.309 50.7693 188.079 51.2286C187.849 51.6767 187.682 52.2108 187.579 52.8311C187.475 53.4399 187.424 54.1061 187.424 54.8296ZM211.249 64.6334C209.731 64.6334 208.374 64.398 207.178 63.9269C205.981 63.4447 204.969 62.7844 204.141 61.9455C203.329 61.1143 202.69 60.1305 202.261 59.0509C201.835 57.9598 201.622 56.8052 201.622 55.5876V54.9332C201.622 53.5661 201.812 52.3026 202.192 51.1427C202.571 49.971 203.135 48.9487 203.882 48.0757C204.63 47.2027 205.567 46.525 206.695 46.0424C207.822 45.5487 209.133 45.3018 210.628 45.3018C211.951 45.3018 213.135 45.5142 214.182 45.9391C215.229 46.364 216.114 46.9728 216.839 47.7656C217.575 48.5583 218.133 49.5172 218.513 50.643C218.904 51.7685 219.099 53.0323 219.099 54.4336V56.794H203.848V53.158H213.423V52.7107C213.434 52.0904 213.325 51.562 213.095 51.1256C212.886 50.6992 212.548 50.3495 212.129 50.1263C211.704 49.8968 211.186 49.7818 210.576 49.7818C209.944 49.7818 209.42 49.9195 209.007 50.1952C208.604 50.4709 208.288 50.8499 208.057 51.3325C207.839 51.8033 207.684 52.3488 207.592 52.9694C207.498 53.6198 207.451 54.2763 207.454 54.9335V55.5882C207.454 56.2773 207.546 56.9035 207.73 57.4661C207.925 58.029 208.201 58.5113 208.558 58.9132C208.927 59.3049 209.374 59.6159 209.869 59.8266C210.387 60.0449 210.973 60.1541 211.629 60.1541C212.422 60.1541 213.205 60.0046 213.975 59.7062C214.746 59.4073 215.407 58.9132 215.959 58.2244L218.599 61.3602C218.219 61.9001 217.679 62.4224 216.977 62.928C216.287 63.4332 215.459 63.8469 214.493 64.1685C213.527 64.4787 212.445 64.6334 211.249 64.6334Z" fill="white"/>
</g>
<defs>
<linearGradient id="paint0_linear_504_4077" x1="92.0063" y1="33.2893" x2="104.787" y2="66.4828" gradientUnits="userSpaceOnUse">
<stop stop-color="#3A447C"/>
<stop offset="0.524" stop-color="#252945"/>
<stop offset="1" stop-color="#121114"/>
</linearGradient>
<linearGradient id="paint1_linear_504_4077" x1="91.9943" y1="33.3726" x2="104.93" y2="66.4952" gradientUnits="userSpaceOnUse">
<stop stop-color="#7387F6"/>
<stop offset="0.474" stop-color="#4B548D"/>
<stop offset="1" stop-color="#1F1D23"/>
</linearGradient>
<linearGradient id="paint2_linear_504_4077" x1="103.074" y1="66.9179" x2="90.2927" y2="33.7244" gradientUnits="userSpaceOnUse">
<stop stop-color="#53347A"/>
<stop offset="0.524" stop-color="#37244D"/>
<stop offset="1" stop-color="#16141B"/>
</linearGradient>
<linearGradient id="paint3_linear_504_4077" x1="103.086" y1="66.8353" x2="90.1504" y2="33.713" gradientUnits="userSpaceOnUse">
<stop stop-color="#A868F5"/>
<stop offset="0.474" stop-color="#684692"/>
<stop offset="1" stop-color="#25222A"/>
</linearGradient>
<clipPath id="clip0_504_4077">
<rect width="144.182" height="35.31" fill="white" transform="translate(79.9087 32.4604)"/>
</clipPath>
</defs>
</svg>
