<svg width="292" height="101" viewBox="0 0 292 101" fill="none" xmlns="http://www.w3.org/2000/svg">
<rect y="0.115234" width="292" height="100" rx="8" fill="#202020"/>
<g clip-path="url(#clip0_491_8569)">
<path d="M53.6724 63.098V53.3276L56.3329 50.2084L66.6078 63.098H73.2132L59.8649 46.9516L72.2958 32.5024H65.6446L53.6724 47.0892V32.5024H48.3055V63.098H53.6724Z" fill="white"/>
<path d="M90.8099 63.6485C99.6629 63.6485 104.021 58.6027 104.021 50.9882V32.5024H98.6079V50.8506C98.6079 55.7129 95.9015 58.8779 90.8099 58.8779C85.6724 58.8779 82.9661 55.7129 82.9661 50.8506V32.5024H77.5533V51.0341C77.5533 58.5568 81.911 63.6485 90.8099 63.6485Z" fill="white"/>
<path d="M108.45 75.1161C114.368 75.1161 118.771 71.8593 118.771 64.887V32.5024H113.404V64.7952C113.404 68.1438 111.34 70.3456 108.037 70.3456C105.698 70.3456 104.047 69.1529 102.808 67.8227L100.331 71.9051C102.487 74.1987 105.285 75.1161 108.45 75.1161Z" fill="white"/>
<path d="M133.518 63.098V32.5024H128.151V63.098H133.518Z" fill="white"/>
<path d="M156.341 32.5024C162.396 32.5024 166.34 36.4473 166.34 42.0894C166.34 47.5479 162.763 50.4837 159.093 51.08L166.57 63.098H160.377L153.588 51.6763H148.267V63.098H142.901V32.5024H156.341ZM155.607 37.2271H148.267V46.9516H155.607C158.634 46.9516 160.836 45.0251 160.836 42.0894C160.836 39.1537 158.634 37.2271 155.607 37.2271Z" fill="white"/>
<path d="M190.076 32.5024L202.094 63.098H195.994L193.746 57.2266H179.709L177.462 63.098H171.361L183.379 32.5024H190.076ZM186.728 37.9152L181.223 52.502H192.232L186.728 37.9152Z" fill="white"/>
<path d="M232.966 25.1152C245.518 25.1152 255.694 35.2906 255.694 47.8425C255.694 60.3944 245.518 70.5698 232.966 70.5698C220.414 70.5698 210.239 60.3944 210.239 47.8425C210.239 35.2906 220.414 25.1152 232.966 25.1152ZM232.966 27.388C221.67 27.388 212.512 36.5458 212.512 47.8425C212.512 59.1392 221.67 68.2971 232.966 68.2971C244.263 68.2971 253.421 59.1392 253.421 47.8425C253.421 36.5458 244.263 27.388 232.966 27.388Z" fill="#E53935"/>
<path d="M232.388 41.6401H219.888V43.9129H232.388V41.6401Z" fill="#E53935"/>
<path d="M246.02 41.6401H234.656V43.9129H246.02V41.6401Z" fill="#E53935"/>
<path d="M246.02 37.6621H234.656V39.9348H246.02V37.6621Z" fill="#E53935"/>
<path d="M229.542 37.6621H222.156V39.9348H229.542V37.6621Z" fill="#E53935"/>
<path d="M241.987 37.7018L238.371 34.0859L236.764 35.693L240.38 39.3089L241.987 37.7018Z" fill="#E53935"/>
<path d="M226.937 43.6541L229.544 39.9307L227.683 38.6271L225.075 42.3505L226.937 43.6541Z" fill="#E53935"/>
<path d="M218.924 44.6084L225.767 34.8345L223.906 33.5309L217.062 43.3049L218.924 44.6084Z" fill="#E53935"/>
<path d="M235.581 58.5969L237.743 53.9624L235.683 53.0019L233.522 57.6364L235.581 58.5969Z" fill="#E53935"/>
<path d="M245.737 60.6567L242.615 53.9624L244.675 53.0019L247.797 59.6962L245.737 60.6567Z" fill="#E53935"/>
<path d="M246.02 49.0239H234.656V51.2967H246.02V49.0239Z" fill="#E53935"/>
<path d="M241.479 59.252H236.365V61.5247H241.479V59.252Z" fill="#E53935"/>
<path d="M231.818 51.3003H220.455V53.573H231.818V51.3003Z" fill="#E53935"/>
<path d="M231.249 46.752H221.022V48.4565H231.249V46.752Z" fill="#E53935"/>
<path d="M222.16 43.3452H219.888V53.5725H222.16V43.3452Z" fill="#E53935"/>
<path d="M227.272 43.3452H225V53.5725H227.272V43.3452Z" fill="#E53935"/>
<path d="M236.929 43.3452H234.656V49.5952H236.929V43.3452Z" fill="#E53935"/>
<path d="M241.478 50.1621H239.205V61.5257H241.478V50.1621Z" fill="#E53935"/>
<path d="M222.16 55.2739H219.888V60.3876H222.16V55.2739Z" fill="#E53935"/>
<path d="M225.567 55.2739H223.294V60.3876H225.567V55.2739Z" fill="#E53935"/>
<path d="M228.978 55.2739H226.705V60.3876H228.978V55.2739Z" fill="#E53935"/>
<path d="M232.388 55.2739H230.115V57.5467H232.388V55.2739Z" fill="#E53935"/>
<path d="M246.022 43.3452H243.75V49.5952H246.022V43.3452Z" fill="#E53935"/>
<path d="M232.388 43.3452H230.115V53.5725H232.388V43.3452Z" fill="#E53935"/>
</g>
<defs>
<clipPath id="clip0_491_8569">
<rect width="207.386" height="50" fill="white" transform="translate(48.3069 25.1152)"/>
</clipPath>
</defs>
</svg>
