<svg width="292" height="101" viewBox="0 0 292 101" fill="none" xmlns="http://www.w3.org/2000/svg">
<rect y="0.115234" width="292" height="100" rx="8" fill="#202020"/>
<g clip-path="url(#clip0_504_4088)">
<mask id="mask0_504_4088" style="mask-type:alpha" maskUnits="userSpaceOnUse" x="67" y="30" width="41" height="40">
<path d="M98.598 30.1152H76.5111C71.6284 30.1152 67.6702 34.0734 67.6702 38.9561V61.0431C67.6702 65.9258 71.6284 69.8841 76.5111 69.8841H98.598C103.481 69.8841 107.439 65.9258 107.439 61.0431V38.9561C107.439 34.0734 103.481 30.1152 98.598 30.1152Z" fill="white"/>
</mask>
<g mask="url(#mask0_504_4088)">
<path d="M67.6292 34.4281C67.6292 32.0235 69.5785 30.0742 71.9831 30.0742H103.099C105.503 30.0742 107.453 32.0235 107.453 34.4281V65.5439C107.453 67.9485 105.503 69.8978 103.099 69.8978H71.9831C69.5785 69.8978 67.6292 67.9485 67.6292 65.5439V34.4281Z" fill="white"/>
<path d="M67.6702 30.1152H107.503V69.9479H67.6702V30.1152Z" fill="url(#paint0_radial_504_4088)"/>
</g>
<mask id="mask1_504_4088" style="mask-type:luminance" maskUnits="userSpaceOnUse" x="67" y="30" width="41" height="40">
<path d="M107.439 30.1152H67.6702V69.8841H107.439V30.1152Z" fill="white"/>
</mask>
<g mask="url(#mask1_504_4088)">
<path d="M86.5377 49.4984L67.6702 40.1938V61.0432C67.6702 65.9259 71.6284 69.8841 76.5111 69.8841H97.3604L86.6849 49.6415C86.6522 49.5794 86.6007 49.5295 86.5377 49.4984Z" fill="black"/>
<path d="M98.598 30.1152H77.7487L88.5693 50.4302C88.602 50.4919 88.6536 50.5414 88.7161 50.5725L107.439 59.8055V38.9561C107.439 34.0735 103.481 30.1152 98.598 30.1152Z" fill="black"/>
</g>
<path d="M141.201 55.9798V43.1392H145.606V54.6245C145.606 57.4696 146.996 59.0292 149.535 59.0292C153.058 59.0292 155.024 55.9798 155.024 51.6423V43.1392H159.428V62.5521H155.024V59.5699C153.396 61.705 151.025 62.9582 148.247 62.9582C143.944 62.9582 141.199 59.9436 141.199 55.9798H141.201Z" fill="white"/>
<path d="M162.475 57.2004C162.475 53.6776 165.118 51.5076 170.572 50.6605L175.383 49.9156V49.5419C175.383 47.6435 173.993 46.6295 171.589 46.6295C168.98 46.6295 167.286 47.8477 166.743 50.1523L163.15 47.5762C164.675 44.3573 167.587 42.7305 171.756 42.7305C176.803 42.7305 179.616 45.1023 179.616 49.37V58.3489C179.616 60.0082 179.785 61.4333 180.057 62.5494H175.687C175.518 61.8718 175.45 61.1268 175.383 59.9409C173.724 62.0063 171.691 62.9555 169.082 62.9555C165.153 62.9555 162.475 60.7208 162.475 57.1955V57.2004ZM175.383 53.8794V53.5057L171.927 54.0488C168.302 54.6243 166.947 55.439 166.947 56.9961C166.947 58.4187 168.098 59.2658 169.962 59.2658C172.672 59.2658 175.383 57.5044 175.383 53.8794Z" fill="white"/>
<path d="M182.259 57.4021L186.188 55.5734C186.46 57.7086 188.662 59.2657 191.169 59.2657C193.134 59.2657 194.557 58.3513 194.557 57.1305C194.557 55.5734 192.185 55.1324 189.612 54.4199C186.562 53.6077 183.241 52.4218 183.241 48.6275C183.241 45.0697 186.223 42.835 190.762 42.835C194.761 42.835 197.843 44.8007 198.757 47.6807L194.659 49.5094C194.525 47.7804 192.965 46.5272 190.66 46.5272C189.001 46.5272 187.646 47.2049 187.646 48.3235C187.646 49.8482 190.219 50.2219 192.898 50.9668C195.88 51.779 198.996 53.0322 198.996 56.7942C198.996 60.5562 195.845 62.9604 191.171 62.9604C186.497 62.9604 183.413 60.9623 182.262 57.4046L182.259 57.4021Z" fill="white"/>
<path d="M201.027 57.2004C201.027 53.6776 203.67 51.5076 209.124 50.6605L213.935 49.9156V49.5419C213.935 47.6435 212.545 46.6295 210.14 46.6295C207.532 46.6295 205.838 47.8477 205.294 50.1523L201.702 47.5762C203.227 44.3573 206.139 42.7305 210.307 42.7305C215.355 42.7305 218.167 45.1023 218.167 49.37V58.3489C218.167 60.0082 218.337 61.4333 218.609 62.5494H214.239C214.069 61.8718 214.002 61.1268 213.935 59.9409C212.276 62.0063 210.243 62.9555 207.634 62.9555C203.705 62.9555 201.027 60.7208 201.027 57.1955V57.2004ZM213.935 53.8794V53.5057L210.479 54.0488C206.854 54.6243 205.499 55.439 205.499 56.9961C205.499 58.4187 206.65 59.2658 208.513 59.2658C211.224 59.2658 213.935 57.5044 213.935 53.8794Z" fill="white"/>
<path d="M226.91 62.5519H222.505V43.139H226.91V46.1212C228.198 44.021 230.129 42.7329 232.331 42.7329C234.093 42.7329 235.652 43.5451 236.33 44.5616L234.364 48.2887C233.856 47.5089 232.84 46.9334 231.586 46.9334C229.112 46.9334 226.91 49.1009 226.91 54.7937V62.5519Z" fill="white"/>
<path d="M132.843 62.5019L140.85 62.5517L135.329 58.2665C137.121 56.1115 138.147 53.2588 138.147 49.9826C138.144 42.6953 132.885 37.5083 125.765 37.4186V37.4136C125.732 37.4136 125.702 37.4136 125.67 37.4136C125.638 37.4136 125.608 37.4136 125.575 37.4136V37.4186C118.455 37.5083 113.196 42.6953 113.196 49.9826C113.196 57.2699 118.258 62.4595 125.575 62.5467V62.5517C125.608 62.5517 125.638 62.5517 125.67 62.5517C125.702 62.5517 125.732 62.5517 125.765 62.5517V62.5467C128.01 62.5193 130.045 62.0136 131.784 61.1142L132.843 62.5019ZM125.673 58.2142C121.283 58.1669 118.111 54.8608 118.111 49.9826C118.111 45.1045 121.285 41.7984 125.673 41.7511C130.062 41.7984 133.234 45.1045 133.234 49.9826C133.234 51.6095 132.419 54.2629 131.784 55.4762L123.525 50.2692L129.001 57.4568C128.012 57.9351 126.888 58.1967 125.67 58.2117L125.673 58.2142Z" fill="white"/>
</g>
<defs>
<radialGradient id="paint0_radial_504_4088" cx="0" cy="0" r="1" gradientUnits="userSpaceOnUse" gradientTransform="translate(87.5865 50.0316) rotate(-135) scale(33.7991 25.49)">
<stop offset="0.140625" stop-color="#FFFBD8"/>
<stop offset="0.307292" stop-color="#5FECDB" stop-opacity="0.64"/>
<stop offset="0.520833" stop-color="#4FBAF7"/>
<stop offset="0.791667" stop-color="#A745F4"/>
</radialGradient>
<clipPath id="clip0_504_4088">
<rect width="168.66" height="40" fill="white" transform="translate(67.6702 30.1152)"/>
</clipPath>
</defs>
</svg>
