<svg width="292" height="101" viewBox="0 0 292 101" fill="none" xmlns="http://www.w3.org/2000/svg">
<rect y="0.115234" width="292" height="100" rx="8" fill="#202020"/>
<path d="M63.6588 44.8758L64.4729 37.146C64.5774 36.1537 65.0453 35.2352 65.7865 34.567L65.7865 34.567C66.1575 34.2325 66.7508 34.477 66.7781 34.9756L67.3204 44.8758H63.6588Z" fill="white"/>
<g opacity="0.35">
<path d="M66.7543 34.5405C66.7199 33.9136 65.7865 33.9391 65.7865 34.567V34.567C65.7327 34.6155 65.6808 34.6658 65.6298 34.7169L65.9375 40.3339C66.0011 41.4955 65.0759 42.4723 63.912 42.4723H63.912L63.6588 44.8759H67.3204L66.7543 34.5405Z" fill="#1F1E1C"/>
</g>
<path d="M67.3203 45.3819H63.6587C63.5153 45.3819 63.3784 45.321 63.2825 45.2144C63.1864 45.1078 63.1402 44.9654 63.1553 44.8228L63.9695 37.093C64.0872 35.9749 64.612 34.9444 65.4475 34.1912C65.7653 33.9048 66.2087 33.8281 66.6041 33.9911C66.9998 34.1542 67.2601 34.5208 67.2836 34.948L67.8258 44.8482C67.8334 44.9869 67.7835 45.1228 67.6879 45.2237C67.5923 45.3247 67.4593 45.3819 67.3203 45.3819ZM64.2211 44.3698H66.7856L66.2725 35.0032C66.2718 34.9895 66.2694 34.9479 66.2181 34.9267C66.1669 34.9056 66.1358 34.9335 66.1256 34.9427C65.476 35.5283 65.0679 36.3295 64.9764 37.1989L64.2211 44.3698Z" fill="#1F1E1C"/>
<path d="M68.0391 57.2098C67.3586 57.3132 66.688 57.3515 66.0622 57.3502C64.0331 57.3461 62.3617 55.7668 62.1974 53.7455C61.9667 50.9085 62.0504 48.503 62.1973 46.78C62.3532 44.9511 63.7634 43.4786 65.5844 43.2403C66.1141 43.1709 66.6034 43.1264 67.0136 43.0977C67.6872 43.0507 68.2709 43.5582 68.3202 44.2313L69.1661 55.7972C69.2167 56.4897 68.7258 57.1055 68.0391 57.2098Z" fill="white"/>
<g opacity="0.35">
<path d="M69.1661 55.7972L68.916 52.3784C68.9039 53.0193 68.4316 53.5696 67.7859 53.6677C67.1054 53.7711 66.4348 53.8094 65.809 53.8081C64.0129 53.8045 62.4979 52.5661 62.0596 50.8799C62.0731 51.7726 62.1149 52.7308 62.1974 53.7455C62.3617 55.7668 64.0331 57.3461 66.0621 57.3502C66.6879 57.3515 67.3586 57.3132 68.039 57.2098C68.7258 57.1055 69.2167 56.4897 69.1661 55.7972Z" fill="#1F1E1C"/>
</g>
<path d="M66.092 57.8562H66.0611C63.7968 57.8516 61.878 56.0639 61.6928 53.7864C61.4982 51.393 61.4982 49.0213 61.6928 46.737C61.8675 44.6873 63.4765 43.0057 65.5187 42.7385C65.9937 42.6763 66.4849 42.6274 66.9785 42.5929C67.9278 42.5285 68.7557 43.245 68.8251 44.1944L69.6711 55.7603C69.7405 56.7106 69.0571 57.567 68.115 57.71C67.4766 57.807 66.796 57.8562 66.092 57.8562ZM67.0991 43.6007C67.0825 43.6007 67.0658 43.6013 67.049 43.6025C66.5756 43.6355 66.105 43.6824 65.6502 43.742C64.0764 43.9479 62.8363 45.2436 62.7018 46.8229C62.5119 49.0515 62.512 51.3668 62.7021 53.7044C62.8449 55.4615 64.3213 56.8406 66.0632 56.8441C66.0727 56.8442 66.0825 56.8442 66.0921 56.8442C66.7453 56.8442 67.3746 56.7989 67.963 56.7095C68.3857 56.6453 68.6924 56.2608 68.6611 55.8341L67.8152 44.2681C67.7875 43.8905 67.4715 43.6007 67.0991 43.6007Z" fill="#1F1E1C"/>
<path d="M106.561 45.4779L105.747 37.748C105.643 36.7558 105.175 35.8372 104.434 35.169L104.434 35.169C104.063 34.8346 103.469 35.0791 103.442 35.5777L102.9 45.4779H106.561Z" fill="white"/>
<g opacity="0.35">
<path d="M103.466 35.1426C103.5 34.5157 104.434 34.5412 104.434 35.169V35.1691C104.488 35.2176 104.539 35.2678 104.59 35.3189L104.283 40.936C104.219 42.0976 105.144 43.0743 106.308 43.0743H106.308L106.561 45.4779H102.9L103.466 35.1426Z" fill="#1F1E1C"/>
</g>
<path d="M102.9 45.9839H106.561C106.705 45.9839 106.842 45.923 106.938 45.8164C107.034 45.7098 107.08 45.5675 107.065 45.4249L106.251 37.695C106.133 36.577 105.608 35.5464 104.773 34.7933C104.455 34.5068 104.012 34.4301 103.616 34.5931C103.22 34.7562 102.96 35.1228 102.937 35.55L102.394 45.4502C102.387 45.589 102.437 45.7248 102.532 45.8258C102.628 45.9267 102.761 45.9839 102.9 45.9839ZM105.999 44.9718H103.435L103.948 35.6053C103.948 35.5916 103.951 35.5499 104.002 35.5288C104.053 35.5076 104.084 35.5356 104.095 35.5447C104.744 36.1304 105.152 36.9316 105.244 37.801L105.999 44.9718Z" fill="#1F1E1C"/>
<path d="M102.181 57.8114C102.862 57.9147 103.532 57.9531 104.158 57.9518C106.187 57.9477 107.859 56.3683 108.023 54.347C108.254 51.5101 108.17 49.1046 108.023 47.3816C107.867 45.5526 106.457 44.0802 104.636 43.8418C104.106 43.7725 103.617 43.7279 103.207 43.6993C102.533 43.6523 101.949 44.1598 101.9 44.8329L101.054 56.3988C101.004 57.0912 101.495 57.7071 102.181 57.8114Z" fill="white"/>
<g opacity="0.35">
<path d="M101.054 56.3988L101.304 52.98C101.316 53.6209 101.789 54.1712 102.434 54.2693C103.115 54.3726 103.786 54.411 104.411 54.4097C106.207 54.406 107.722 53.1677 108.161 51.4814C108.147 52.3742 108.105 53.3324 108.023 54.347C107.859 56.3683 106.187 57.9477 104.158 57.9518C103.532 57.9531 102.862 57.9147 102.181 57.8114C101.495 57.7071 101.004 57.0912 101.054 56.3988Z" fill="#1F1E1C"/>
</g>
<path d="M104.128 58.4583H104.159C106.424 58.4536 108.342 56.666 108.528 54.3884C108.722 51.9951 108.722 49.6233 108.528 47.339C108.353 45.2894 106.744 43.6078 104.702 43.3405C104.227 43.2784 103.735 43.2294 103.242 43.1949C102.293 43.1306 101.465 43.8471 101.395 44.7964L100.549 56.3624C100.48 57.3126 101.163 58.1691 102.105 58.3121C102.744 58.4091 103.424 58.4583 104.128 58.4583ZM103.121 44.2028C103.138 44.2028 103.155 44.2034 103.171 44.2045C103.645 44.2375 104.115 44.2845 104.57 44.344C106.144 44.55 107.384 45.8457 107.519 47.4249C107.708 49.6535 107.708 51.9688 107.518 54.3065C107.375 56.0635 105.899 57.4427 104.157 57.4462C104.148 57.4463 104.138 57.4463 104.128 57.4463C103.475 57.4463 102.846 57.401 102.257 57.3115C101.835 57.2474 101.528 56.8628 101.559 56.4361L102.405 44.8702C102.433 44.4926 102.749 44.2028 103.121 44.2028Z" fill="#1F1E1C"/>
<path fill-rule="evenodd" clip-rule="evenodd" d="M83.3188 38.6712C83.2129 38.6803 82.7219 38.7174 82.2276 38.7537C81.1664 38.8316 79.3657 39.0022 78.6118 39.0961C75.04 39.5413 71.617 40.6482 69.249 42.124C68.2672 42.7359 67.9273 42.9848 67.5503 43.3678C66.9489 43.9789 66.7159 44.5132 66.4225 45.9548C65.5876 50.0568 65.5721 53.3169 66.3728 56.452C66.4648 56.8124 66.6298 57.3344 66.7395 57.6122C66.8492 57.8899 66.9943 58.2784 67.062 58.4755C67.2273 58.9571 67.5342 59.522 68.0635 60.3188C68.9481 61.6505 69.8221 62.6324 71.0164 63.6359C73.4997 65.7227 76.9912 67.1542 81.3718 67.8814C84.1299 68.3393 86.1896 68.3405 88.9046 67.8858C91.3512 67.476 93.538 66.7854 95.664 65.7512C97.3509 64.9306 98.551 64.1411 99.7257 63.0792C100.341 62.5232 100.858 61.9105 101.974 60.4172C102.21 60.1014 102.772 59.0578 102.899 58.7004C102.963 58.5207 103.101 58.1719 103.207 57.9253C103.887 56.3362 104.184 54.6849 104.231 52.2389C104.274 49.9957 104.054 47.7856 103.575 45.6342C103.218 44.0292 103.032 43.7272 101.854 42.8435C100.205 41.6059 98.1592 40.6331 95.8168 39.9723C92.9922 39.1755 89.0705 38.692 85.223 38.6662C84.2816 38.6599 83.4247 38.6621 83.3188 38.6712Z" fill="#1F1E1C"/>
<path d="M88.254 40.3181C87.1893 40.2414 86.1471 40.1783 85.938 40.178C84.3971 40.1758 85.0473 40.177 84.0714 40.1777C83.2281 40.1786 79.8643 40.4665 78.4186 40.6617C75.2235 41.0933 72.0476 42.1261 70.0478 43.3842C68.165 44.5686 68.1687 44.5637 67.7906 46.415C67.3271 48.6836 67.1147 51.0945 67.2262 52.8203C67.3304 54.4344 67.7155 56.3736 68.1068 57.2536C68.2492 57.5739 68.4062 57.9965 68.4555 58.1926C68.5049 58.3887 68.8967 59.0689 69.3263 59.7042C71.6277 63.1078 75.1622 65.2076 80.3727 66.2665C83.3292 66.8675 85.2681 66.9633 87.7976 66.6335C92.9991 65.9553 97.8475 63.6121 99.9543 60.7581C100.36 60.2091 100.727 59.7291 100.772 59.6913C100.904 59.5795 101.612 58.3745 101.612 58.2422C101.612 58.1753 101.72 57.7772 101.871 57.4567C102.964 55.131 103.132 50.7555 102.292 46.5196C102.138 45.7432 101.951 44.994 101.876 44.8548C101.654 44.4422 100.093 43.3493 98.8315 42.7235C96.1659 41.4009 92.8639 40.6499 88.254 40.3181Z" fill="white"/>
<path d="M69.9762 52.9824C69.7493 51.6718 69.8382 46.6254 69.8382 46.6254C69.8382 46.6254 69.7808 44.4318 70.1654 43.1414C70.1847 43.1292 70.2556 43.0908 70.2752 43.0783C72.2716 41.8086 75.4099 40.8996 78.5997 40.4641C80.043 40.267 83.4012 39.9764 84.2431 39.9756C84.5593 39.9754 84.7045 39.9751 84.809 39.9749C85.0265 39.9744 85.0675 39.9744 86.1066 39.9759C86.3153 39.9762 87.3559 40.0398 88.4188 40.1172C93.0209 40.4522 96.3174 41.2101 98.9787 42.5449C99.287 42.6996 99.6134 42.9859 99.9337 43.1801C100.344 44.8638 100.603 46.719 100.603 49.6986C100.603 52.078 100.402 52.9424 100.135 54.0302C98.8588 59.2361 95.5888 62.3003 89.5194 63.9784C87.3825 64.5692 84.4788 64.6661 82.1559 64.2242C78.1906 63.4698 74.9194 61.847 73.021 59.6926C71.4037 57.8573 70.4598 55.7773 69.9762 52.9824Z" fill="#1F1E1C"/>
<rect x="94.7987" y="55.3413" width="6.83645" height="8.77672" rx="3.41823" transform="rotate(180 94.7987 55.3413)" fill="white"/>
<rect x="82.1245" y="55.3413" width="6.83645" height="8.77672" rx="3.41823" transform="rotate(180 82.1245 55.3413)" fill="white"/>
<path d="M71.2472 43.7772C75.3763 41.1012 88.6726 38.0185 98.9748 43.7772C90.7505 41.4288 83.6805 40.7996 71.2472 43.7772Z" fill="#767676" fill-opacity="0.76"/>
<path d="M98.8574 57.1645C91.103 69.3766 73.832 63.9753 71.2472 57.1643C77.2271 60.7519 81.5397 62.2225 85.816 61.7491C89.8179 61.76 93.5994 60.2591 98.8574 57.1645Z" fill="#262626"/>
<path d="M102.823 52.2599C102.81 53.1903 102.733 54.5697 102.415 56.2354C102.379 56.4241 102.312 56.7755 102.234 57.0914C101.601 59.673 99.8523 61.5962 99.2028 62.2558C98.8015 62.6634 97.5333 63.895 94.9172 65.1281C93.0737 65.997 89.7723 67.2383 85.1868 67.3251C80.9648 67.3252 77.8477 66.2381 76.0835 65.461C74.6092 64.8115 72.9282 64.0517 71.2468 62.3699C70.6827 61.8056 68.7554 59.7741 67.845 56.5588C67.0917 53.8985 67.2386 51.4805 67.2474 51.48C67.253 51.4797 67.3316 52.4577 67.5267 53.7673C67.571 54.0648 67.9362 56.4257 68.8902 58.3468C70.2758 61.1367 72.7107 62.6117 74.2116 63.5207C78.5088 66.1237 82.8941 66.3596 85.2153 66.2979C89.6367 66.1703 92.856 65.0344 94.7177 64.2055C97.2192 63.0918 98.4406 62.0111 98.9177 61.5615C99.6365 60.8843 101.159 59.4184 101.978 57.0914C102.746 54.9067 102.796 52.2446 102.822 52.2478C102.823 52.248 102.823 52.2545 102.823 52.2599Z" fill="#B1B0B0"/>
<path d="M139.137 50.9762C139.137 52.1785 138.979 53.3382 138.664 54.4554C138.361 55.5605 137.924 56.5988 137.354 57.5703C136.784 58.5296 136.104 59.41 135.316 60.2115C134.527 61.0009 133.647 61.6809 132.677 62.2517C131.706 62.8224 130.663 63.2657 129.547 63.5814C128.443 63.885 127.29 64.0368 126.089 64.0368H118.228V37.9156H126.089C127.29 37.9156 128.443 38.0735 129.547 38.3893C130.663 38.6928 131.706 39.13 132.677 39.7008C133.647 40.2715 134.527 40.9577 135.316 41.7591C136.104 42.5485 136.784 43.4289 137.354 44.4004C137.924 45.3598 138.361 46.398 138.664 47.5153C138.979 48.6203 139.137 49.774 139.137 50.9762ZM133.914 50.9762C133.914 49.8954 133.708 48.8814 133.296 47.9342C132.895 46.987 132.337 46.1612 131.621 45.4569C130.918 44.7404 130.087 44.1757 129.128 43.7629C128.182 43.35 127.169 43.1435 126.089 43.1435H123.487V58.8089H126.089C127.169 58.8089 128.182 58.6086 129.128 58.2078C130.087 57.7949 130.918 57.2363 131.621 56.532C132.337 55.8155 132.895 54.9837 133.296 54.0364C133.708 53.0771 133.914 52.057 133.914 50.9762Z" fill="white"/>
<path d="M149.837 59.2643C150.032 59.325 150.226 59.3675 150.42 59.3918C150.614 59.404 150.808 59.41 151.002 59.41C151.487 59.41 151.954 59.3433 152.403 59.2097C152.852 59.0761 153.271 58.8879 153.659 58.645C154.059 58.39 154.411 58.0864 154.714 57.7342C155.03 57.3699 155.285 56.9692 155.479 56.532L159.118 60.1933C158.657 60.8491 158.124 61.4381 157.517 61.9602C156.922 62.4824 156.273 62.9257 155.57 63.29C154.878 63.6543 154.144 63.9275 153.368 64.1097C152.604 64.304 151.815 64.4011 151.002 64.4011C149.631 64.4011 148.339 64.1461 147.126 63.6361C145.925 63.126 144.869 62.4156 143.96 61.5048C143.062 60.5941 142.352 59.5133 141.83 58.2625C141.309 56.9995 141.048 55.6151 141.048 54.1093C141.048 52.5671 141.309 51.1584 141.83 49.8833C142.352 48.6082 143.062 47.5213 143.96 46.6227C144.869 45.7241 145.925 45.0258 147.126 44.5279C148.339 44.03 149.631 43.7811 151.002 43.7811C151.815 43.7811 152.61 43.8782 153.386 44.0725C154.162 44.2668 154.896 44.5461 155.588 44.9104C156.292 45.2747 156.947 45.7241 157.553 46.2584C158.16 46.7806 158.694 47.3695 159.155 48.0253L149.837 59.2643ZM152.385 49.0089C152.155 48.9239 151.924 48.8693 151.694 48.845C151.475 48.8207 151.245 48.8086 151.002 48.8086C150.323 48.8086 149.68 48.9361 149.073 49.1911C148.479 49.434 147.957 49.7861 147.508 50.2476C147.071 50.7091 146.726 51.2677 146.471 51.9234C146.216 52.5671 146.089 53.2957 146.089 54.1093C146.089 54.2915 146.095 54.4979 146.107 54.7286C146.131 54.9594 146.161 55.1962 146.198 55.439C146.246 55.6698 146.301 55.8944 146.362 56.113C146.422 56.3316 146.501 56.5259 146.598 56.6959L152.385 49.0089Z" fill="white"/>
<path d="M179.427 64.0368H173.349L169.473 58.0621L165.56 64.0368H159.482L166.598 54.0364L159.482 44.4186H165.56L169.473 50.0108L173.349 44.4186H179.427L172.294 54.0364L179.427 64.0368Z" fill="white"/>
<path d="M190.983 64.0368C189.782 64.0368 188.653 63.8121 187.598 63.3628C186.542 62.9014 185.614 62.276 184.814 61.4866C184.025 60.6851 183.4 59.7561 182.939 58.6996C182.49 57.6431 182.266 56.5138 182.266 55.3115V49.519H179.846V44.5643H182.266V36.7681H187.216V44.5643H194.75V49.519H187.216V55.3115C187.216 55.8337 187.313 56.3255 187.507 56.787C187.701 57.2363 187.968 57.631 188.308 57.971C188.647 58.311 189.048 58.5843 189.509 58.7907C189.97 58.985 190.461 59.0822 190.983 59.0822H194.75V64.0368H190.983Z" fill="white"/>
<path d="M205.304 59.2643C205.499 59.325 205.693 59.3675 205.887 59.3918C206.081 59.404 206.275 59.41 206.469 59.41C206.954 59.41 207.421 59.3433 207.87 59.2097C208.319 59.0761 208.738 58.8879 209.126 58.645C209.526 58.39 209.878 58.0864 210.181 57.7342C210.497 57.3699 210.752 56.9692 210.946 56.532L214.585 60.1933C214.124 60.8491 213.591 61.4381 212.984 61.9602C212.389 62.4824 211.74 62.9257 211.037 63.29C210.345 63.6543 209.611 63.9275 208.835 64.1097C208.071 64.304 207.282 64.4011 206.469 64.4011C205.098 64.4011 203.806 64.1461 202.593 63.6361C201.392 63.126 200.336 62.4156 199.427 61.5048C198.529 60.5941 197.819 59.5133 197.297 58.2625C196.776 56.9995 196.515 55.6151 196.515 54.1093C196.515 52.5671 196.776 51.1584 197.297 49.8833C197.819 48.6082 198.529 47.5213 199.427 46.6227C200.336 45.7241 201.392 45.0258 202.593 44.5279C203.806 44.03 205.098 43.7811 206.469 43.7811C207.282 43.7811 208.077 43.8782 208.853 44.0725C209.629 44.2668 210.363 44.5461 211.055 44.9104C211.759 45.2747 212.414 45.7241 213.02 46.2584C213.627 46.7806 214.161 47.3695 214.622 48.0253L205.304 59.2643ZM207.852 49.0089C207.622 48.9239 207.391 48.8693 207.161 48.845C206.942 48.8207 206.712 48.8086 206.469 48.8086C205.79 48.8086 205.147 48.9361 204.54 49.1911C203.946 49.434 203.424 49.7861 202.975 50.2476C202.538 50.7091 202.193 51.2677 201.938 51.9234C201.683 52.5671 201.556 53.2957 201.556 54.1093C201.556 54.2915 201.562 54.4979 201.574 54.7286C201.598 54.9594 201.628 55.1962 201.665 55.439C201.713 55.6698 201.768 55.8944 201.829 56.113C201.889 56.3316 201.968 56.5259 202.065 56.6959L207.852 49.0089Z" fill="white"/>
<path d="M222.101 64.0368H217.133V44.5279H218.334L219.972 46.8413C220.773 46.1127 221.683 45.5541 222.702 45.1655C223.721 44.7647 224.776 44.5643 225.868 44.5643H230.254V49.519H225.868C225.346 49.519 224.855 49.6161 224.394 49.8104C223.933 50.0047 223.533 50.2719 223.193 50.6119C222.853 50.9519 222.586 51.3527 222.392 51.8141C222.198 52.2756 222.101 52.7674 222.101 53.2896V64.0368Z" fill="white"/>
</svg>
