<svg width="292" height="101" viewBox="0 0 292 101" fill="none" xmlns="http://www.w3.org/2000/svg">
<rect y="0.115234" width="292" height="100" rx="8" fill="#202020"/>
<path d="M99.8557 52.5394C99.8557 47.1968 104.169 43.3516 110.096 43.3516C116.022 43.3516 120.336 47.1968 120.336 52.5394C120.336 57.8819 116.022 61.7272 110.096 61.7272C104.207 61.7272 99.8557 57.8819 99.8557 52.5394ZM116.06 52.5394C116.06 49.2046 113.697 46.6864 110.096 46.6864C106.495 46.6864 104.169 49.2046 104.169 52.5394C104.169 55.8402 106.495 58.3924 110.096 58.3924C113.697 58.3584 116.06 55.8402 116.06 52.5394Z" fill="white"/>
<path d="M121.947 58.9016L124.197 56.0092C125.585 57.3023 127.723 58.3912 130.424 58.3912C132.712 58.3912 133.837 57.4384 133.837 56.4176C133.837 53.2869 122.547 55.4308 122.547 48.727C122.547 45.7665 125.36 43.3164 129.974 43.3164C133.087 43.3164 135.675 44.1671 137.626 45.8005L135.3 48.5568C133.725 47.2297 131.587 46.6172 129.599 46.6172C127.798 46.6172 126.823 47.3318 126.823 48.3867C126.823 51.2111 138.076 49.3055 138.076 55.9411C138.076 59.2079 135.525 61.658 130.236 61.658C126.485 61.726 123.785 60.5691 121.947 58.9016Z" fill="white"/>
<path d="M157.956 61.4203V48.9656L152.442 61.4203H150.604L145.09 48.9656V61.4203H140.927V43.623H146.778L151.542 54.3762L156.306 43.623H162.195V61.3862H157.956V61.4203Z" fill="white"/>
<path d="M165.083 52.5374C165.083 47.1949 169.396 43.3496 175.323 43.3496C181.249 43.3496 185.563 47.1949 185.563 52.5374C185.563 57.88 181.249 61.7253 175.323 61.7253C169.396 61.7253 165.083 57.88 165.083 52.5374ZM181.287 52.5374C181.287 49.2025 178.924 46.6844 175.323 46.6844C171.722 46.6844 169.396 49.2025 169.396 52.5374C169.396 55.8383 171.722 58.3904 175.323 58.3904C178.924 58.3564 181.287 55.8383 181.287 52.5374Z" fill="white"/>
<path d="M187.176 58.9016L189.426 56.0092C190.814 57.3023 192.952 58.3912 195.653 58.3912C197.941 58.3912 199.066 57.4384 199.066 56.4176C199.066 53.2869 187.776 55.4308 187.776 48.727C187.776 45.7665 190.589 43.3164 195.203 43.3164C198.316 43.3164 200.904 44.1671 202.855 45.8005L200.53 48.5568C198.954 47.2297 196.816 46.6172 194.828 46.6172C193.027 46.6172 192.052 47.3318 192.052 48.3867C192.052 51.2111 203.305 49.3055 203.305 55.9411C203.305 59.2079 200.754 61.658 195.465 61.658C191.714 61.726 189.014 60.5691 187.176 58.9016Z" fill="white"/>
<path d="M206.119 61.4203V43.623H210.321V61.3862H206.119V61.4203Z" fill="white"/>
<path d="M212.871 58.9016L215.121 56.0092C216.509 57.3023 218.647 58.3912 221.348 58.3912C223.635 58.3912 224.761 57.4384 224.761 56.4176C224.761 53.2869 213.47 55.4308 213.47 48.727C213.47 45.7665 216.283 43.3164 220.898 43.3164C224.01 43.3164 226.599 44.1671 228.55 45.8005L226.223 48.5568C224.649 47.2297 222.511 46.6172 220.523 46.6172C218.722 46.6172 217.746 47.3318 217.746 48.3867C217.746 51.2111 229 49.3055 229 55.9411C229 59.2079 226.449 61.658 221.16 61.658C217.371 61.726 214.671 60.5691 212.871 58.9016Z" fill="white"/>
<path d="M92.4616 37.1162C92.0173 35.5637 90.5888 34.0112 88.0177 32.2829C85.9544 30.9061 83.7641 30.1152 82.0183 30.1152C81.6691 30.1152 81.3517 30.1445 81.0342 30.2031C80.2408 30.3496 79.5424 30.8768 79.098 31.6677C78.5583 32.6051 78.4314 33.8647 78.7806 34.6263C78.9075 34.8607 79.0663 35.1536 79.2567 35.4172C77.5744 36.3546 76.622 36.6182 76.4951 36.6476C80.8756 37.995 84.526 40.8071 86.8115 44.4688L86.8432 44.1172C86.9384 43.1506 87.2558 42.0374 87.7002 40.895C88.1446 41.0121 88.589 41.0708 89.0334 41.0708C90.2079 41.0708 91.2237 40.6313 91.8586 39.8404C92.4934 39.0495 92.7474 37.995 92.4616 37.1162Z" fill="#5E12A0"/>
<path d="M87.8892 40.0459C90.7778 40.7783 91.9522 38.7278 91.5713 37.351C91.1587 35.9743 89.8255 34.5682 87.4765 32.9864C85.1276 31.4045 82.7469 30.7601 81.2232 31.053C79.6996 31.346 79.2552 33.4843 79.6362 34.3045C79.7948 34.6268 80.144 35.0954 80.6201 35.6227C80.017 36.0035 79.4457 36.2964 78.9695 36.5601C81.8898 37.7611 84.4292 39.6359 86.3338 41.9793C86.556 41.1884 86.8735 40.4853 87.1591 39.8702C87.3813 39.8995 87.6352 39.9581 87.8892 40.0459Z" fill="url(#paint0_radial_504_3931)"/>
<path d="M71.3528 68.7533C81.1526 68.7533 89.097 61.4221 89.097 52.3786C89.097 43.3351 81.1526 36.0039 71.3528 36.0039C61.553 36.0039 53.6086 43.3351 53.6086 52.3786C53.6086 61.4221 61.553 68.7533 71.3528 68.7533Z" fill="url(#paint1_radial_504_3931)"/>
<path opacity="0.6" d="M90.1139 36.0046C87.7015 33.6612 85.67 33.046 83.2258 32.5481C81.3212 32.1379 81.8292 31.142 84.1463 31.347C83.0354 30.9955 81.9878 30.9077 81.226 31.0541C79.7023 31.347 79.258 33.4854 79.6389 34.3056C79.7976 34.6278 80.1467 35.0965 80.6229 35.6238C79.7659 36.1511 79.0358 36.5319 78.4326 36.8249C78.7184 36.942 79.0675 37.0884 79.4802 37.2935C80.5595 37.8208 81.7339 38.6995 81.7339 38.6995C79.9563 37.2935 80.3372 36.6491 82.7814 35.0672C83.5432 34.5693 84.9399 34.6278 86.2414 35.243C87.5428 35.8581 89.0665 37.4107 89.0665 37.4107L87.6063 39.9884C87.7015 40.0177 87.7968 40.047 87.892 40.0764C88.8125 40.3107 89.5426 40.2521 90.1139 40.047C90.7806 39.6662 92.5264 38.3774 90.1139 36.0046Z" fill="#A98698"/>
<path d="M83.1926 33.9523C83.8274 34.1866 84.6527 34.5968 85.6685 35.2119C86.8748 35.9442 87.9222 36.7645 88.5888 37.4089C87.4778 38.7563 86.7477 40.6018 86.3033 41.8906C86.5256 42.1836 86.7796 42.4766 87.0017 42.7695C87.2239 42.0371 87.6049 40.9533 88.1127 39.8695C88.2397 39.8988 88.3984 39.8988 88.5571 39.8988C88.938 39.8988 89.3824 39.8402 89.7316 39.5765C89.9856 39.4007 90.2712 39.0786 90.2394 38.4927C90.2394 37.9362 89.7633 37.2331 88.7794 36.3837C88.081 35.7684 87.1286 35.0947 86.1764 34.4796C83.4465 32.8099 81.5419 32.3412 80.6849 33.1321C80.1136 33.6594 80.177 34.3038 80.3674 34.7725C79.3517 35.3876 78.4947 35.8271 77.9233 36.12C78.3042 36.2372 78.6534 36.3837 79.0343 36.53C80.0501 36.0321 81.5102 35.1826 83.1926 33.9523ZM89.192 38.1412C89.2872 38.2877 89.3189 38.4341 89.3189 38.522C89.3189 38.7856 89.2237 38.8735 89.1602 38.9321C89.0332 39.0199 88.7792 39.0786 88.5571 39.0786C88.7475 38.7271 88.9698 38.4341 89.192 38.1412ZM81.3515 33.7766C81.4467 33.6887 81.7007 33.6301 82.1134 33.6887C81.7959 33.923 81.4785 34.1281 81.161 34.3331C81.1293 34.1281 81.161 33.923 81.3515 33.7766Z" fill="#5E12A0"/>
<path d="M71.3523 35.0371C60.9724 35.0371 52.5605 42.7998 52.5605 52.3785C52.5605 61.9573 60.9724 69.7199 71.3523 69.7199C81.732 69.7199 90.1438 61.9573 90.1438 52.3785C90.1438 42.7998 81.7003 35.0371 71.3523 35.0371ZM71.3523 68.7532C61.5437 68.7532 53.6081 61.43 53.6081 52.3785C53.6081 43.3271 61.5437 36.0038 71.3523 36.0038C81.1607 36.0038 89.0964 43.3271 89.0964 52.3785C89.0964 61.43 81.129 68.7532 71.3523 68.7532Z" fill="#5E12A0"/>
<path opacity="0.6" d="M71.3528 68.7533C81.1526 68.7533 89.097 61.4221 89.097 52.3786C89.097 43.3351 81.1526 36.0039 71.3528 36.0039C61.553 36.0039 53.6086 43.3351 53.6086 52.3786C53.6086 61.4221 61.553 68.7533 71.3528 68.7533Z" fill="url(#paint2_linear_504_3931)"/>
<path opacity="0.6" d="M71.2243 66.7598C61.5427 65.3244 54.972 56.9174 56.5591 47.983C57.2575 44.0286 59.4159 40.6599 62.4633 38.2285C58.0192 40.6013 54.718 44.7315 53.8292 49.77C52.2738 58.7042 58.8445 67.1114 68.4944 68.5467C73.8906 69.3668 79.0964 67.8143 82.9373 64.7678C79.5408 66.5841 75.4143 67.3749 71.2243 66.7598Z" fill="#A98698"/>
<path opacity="0.6" d="M74.1759 36.2373C69.7002 35.5635 65.3515 36.5009 61.7964 38.5807C61.7328 38.6393 61.6694 38.6979 61.6694 38.6979C63.0343 37.9363 65.0341 37.2625 65.0341 37.2625C59.8918 40.0161 58.3047 43.1504 58.3047 43.1504C60.3045 39.5767 66.1768 37.0575 70.7794 36.8817C75.3822 36.706 78.3978 37.9656 82.0799 40.6898C85.762 43.4434 87.984 49.0676 87.7618 53.5201C87.5713 57.9726 85.032 61.5757 85.032 61.5757C86.7778 59.4959 87.8254 57.9726 88.492 56.4201C88.619 55.9514 88.7459 55.4828 88.8095 54.9847C90.3965 46.0797 83.8574 37.6726 74.1759 36.2373Z" fill="url(#paint3_linear_504_3931)"/>
<path d="M88.209 52.2324C88.209 60.8152 80.6542 67.787 71.3537 67.787C62.0531 67.787 54.4666 60.8152 54.4666 52.2324H88.209Z" fill="url(#paint4_linear_504_3931)"/>
<g opacity="0.6">
<path opacity="0.6" d="M86.8758 52.2324C86.8758 60.6102 79.702 67.4647 70.687 67.787C70.9093 67.787 71.1314 67.787 71.3536 67.787C80.6542 67.787 88.209 60.8152 88.209 52.2324H86.8758Z" fill="url(#paint5_linear_504_3931)"/>
</g>
<g opacity="0.7">
<path opacity="0.7" d="M56.8473 52.2324H54.4666C54.4666 60.8152 62.0214 67.787 71.3219 67.787C71.7346 67.787 72.1155 67.787 72.4963 67.7577C63.7672 67.1719 56.8473 60.4344 56.8473 52.2324Z" fill="url(#paint6_linear_504_3931)"/>
</g>
<path d="M88.1773 52.378C88.1773 50.5911 84.8125 49.5659 80.3368 49.2144C77.0991 48.98 73.8296 49.273 70.084 50.3275C66.8461 51.2063 63.9258 51.0598 61.7991 50.8255C57.0694 50.3275 54.4666 50.2689 54.4666 52.378C54.4666 55.4245 61.196 59.2326 71.2902 57.9144C76.4007 57.2406 79.0354 55.8639 82.0509 54.9265C85.3205 53.9305 88.1773 53.9598 88.1773 52.378Z" fill="url(#paint7_linear_504_3931)"/>
<path d="M76.8756 44.9973C78.4534 44.9973 79.7324 43.817 79.7324 42.361C79.7324 40.905 78.4534 39.7246 76.8756 39.7246C75.2978 39.7246 74.0188 40.905 74.0188 42.361C74.0188 43.817 75.2978 44.9973 76.8756 44.9973Z" fill="white"/>
<path d="M81.5412 46.9587C82.2074 46.9587 82.7474 46.4603 82.7474 45.8455C82.7474 45.2308 82.2074 44.7324 81.5412 44.7324C80.875 44.7324 80.335 45.2308 80.335 45.8455C80.335 46.4603 80.875 46.9587 81.5412 46.9587Z" fill="white"/>
<g opacity="0.6">
<path opacity="0.6" d="M85.8589 40.2521C85.8272 40.2521 85.7954 40.2521 85.7954 40.2521C85.605 40.2227 85.478 40.0471 85.5097 39.8419C85.7954 38.4945 87.0016 37.2056 87.0651 37.147C87.1921 37.0006 87.446 37.0006 87.5731 37.1177C87.7317 37.2349 87.7317 37.4692 87.6048 37.5865C87.5731 37.6157 86.462 38.8167 86.2081 39.9884C86.1763 40.1642 86.0177 40.2521 85.8589 40.2521Z" fill="url(#paint8_linear_504_3931)"/>
</g>
<path opacity="0.2" d="M70.1781 64.5935C70.6689 64.5935 71.0668 64.2263 71.0668 63.7734C71.0668 63.3203 70.6689 62.9531 70.1781 62.9531C69.6872 62.9531 69.2893 63.3203 69.2893 63.7734C69.2893 64.2263 69.6872 64.5935 70.1781 64.5935Z" fill="white"/>
<g opacity="0.4">
<path opacity="0.6" d="M69.6698 64.3006C69.3207 63.9783 69.3207 63.4511 69.6698 63.1289C69.7333 63.0703 69.7969 63.0411 69.8603 62.9824C69.7333 63.0117 69.6381 63.0703 69.5429 63.1582C69.1937 63.4804 69.1937 64.0077 69.5429 64.3299C69.8286 64.5936 70.273 64.6521 70.6222 64.4764C70.3047 64.5936 69.9238 64.5349 69.6698 64.3006Z" fill="url(#paint9_linear_504_3931)"/>
</g>
<path opacity="0.3" d="M70.4946 63.539C70.5998 63.539 70.6852 63.4604 70.6852 63.3633C70.6852 63.2662 70.5998 63.1875 70.4946 63.1875C70.3895 63.1875 70.3042 63.2662 70.3042 63.3633C70.3042 63.4604 70.3895 63.539 70.4946 63.539Z" fill="white"/>
<path opacity="0.2" d="M74.8133 64.1833C75.3042 64.1833 75.7021 63.8161 75.7021 63.3632C75.7021 62.9102 75.3042 62.543 74.8133 62.543C74.3225 62.543 73.9246 62.9102 73.9246 63.3632C73.9246 63.8161 74.3225 64.1833 74.8133 64.1833Z" fill="white"/>
<g opacity="0.4">
<path opacity="0.6" d="M74.3053 63.8905C73.9561 63.5682 73.9561 63.0409 74.3053 62.7187C74.3688 62.6601 74.4323 62.6309 74.4958 62.5723C74.3688 62.6016 74.2736 62.6601 74.1784 62.7481C73.8292 63.0702 73.8292 63.5975 74.1784 63.9198C74.4641 64.1834 74.9085 64.2419 75.2576 64.0662C74.9402 64.1834 74.5593 64.1248 74.3053 63.8905Z" fill="url(#paint10_linear_504_3931)"/>
</g>
<path opacity="0.3" d="M75.1282 63.1289C75.2334 63.1289 75.3186 63.0502 75.3186 62.9531C75.3186 62.8561 75.2334 62.7773 75.1282 62.7773C75.023 62.7773 74.9377 62.8561 74.9377 62.9531C74.9377 63.0502 75.023 63.1289 75.1282 63.1289Z" fill="white"/>
<path opacity="0.2" d="M72.5246 66.0858C72.8927 66.0858 73.1911 65.8104 73.1911 65.4707C73.1911 65.1309 72.8927 64.8555 72.5246 64.8555C72.1563 64.8555 71.8579 65.1309 71.8579 65.4707C71.8579 65.8104 72.1563 66.0858 72.5246 66.0858Z" fill="white"/>
<g opacity="0.4">
<path opacity="0.6" d="M72.1443 65.8534C71.8904 65.6191 71.8904 65.209 72.1443 64.9747C72.176 64.9453 72.2396 64.916 72.2713 64.8867C72.176 64.916 72.1125 64.9747 72.0491 65.0332C71.7952 65.2675 71.7952 65.6776 72.0491 65.912C72.2713 66.1171 72.5886 66.1464 72.8744 65.9999C72.6205 66.0877 72.3348 66.0292 72.1443 65.8534Z" fill="url(#paint11_linear_504_3931)"/>
</g>
<path opacity="0.3" d="M72.7489 65.2656C72.8189 65.2656 72.8758 65.2131 72.8758 65.1484C72.8758 65.0837 72.8189 65.0312 72.7489 65.0312C72.6787 65.0312 72.6218 65.0837 72.6218 65.1484C72.6218 65.2131 72.6787 65.2656 72.7489 65.2656Z" fill="white"/>
<path opacity="0.2" d="M76.6192 65.6463C76.9873 65.6463 77.2858 65.3709 77.2858 65.0311C77.2858 64.6914 76.9873 64.416 76.6192 64.416C76.2511 64.416 75.9526 64.6914 75.9526 65.0311C75.9526 65.3709 76.2511 65.6463 76.6192 65.6463Z" fill="white"/>
<g opacity="0.4">
<path opacity="0.6" d="M76.2376 65.414C75.9836 65.1795 75.9836 64.7694 76.2376 64.5351C76.2693 64.5058 76.3328 64.4766 76.3645 64.4473C76.2693 64.4766 76.2058 64.5351 76.1424 64.5937C75.8884 64.8281 75.8884 65.2382 76.1424 65.4725C76.3645 65.6776 76.6819 65.7068 76.9677 65.5603C76.7137 65.6483 76.428 65.5897 76.2376 65.414Z" fill="url(#paint12_linear_504_3931)"/>
</g>
<path opacity="0.3" d="M76.8435 64.8262C76.9136 64.8262 76.9705 64.7737 76.9705 64.709C76.9705 64.6443 76.9136 64.5918 76.8435 64.5918C76.7734 64.5918 76.7166 64.6443 76.7166 64.709C76.7166 64.7737 76.7734 64.8262 76.8435 64.8262Z" fill="white"/>
<path opacity="0.2" d="M66.4004 64.3005C67.2068 64.3005 67.8605 63.6971 67.8605 62.953C67.8605 62.2087 67.2068 61.6055 66.4004 61.6055C65.5939 61.6055 64.9402 62.2087 64.9402 62.953C64.9402 63.6971 65.5939 64.3005 66.4004 64.3005Z" fill="white"/>
<g opacity="0.4">
<path opacity="0.6" d="M65.574 63.8025C65.0027 63.2752 65.0027 62.4256 65.574 61.8984C65.6693 61.8105 65.7645 61.7519 65.8915 61.6934C65.7011 61.7519 65.5423 61.8692 65.3836 61.9863C64.8122 62.5136 64.8122 63.363 65.3836 63.8903C65.8598 64.3297 66.5899 64.4176 67.1612 64.0953C66.6216 64.3004 65.9867 64.2126 65.574 63.8025Z" fill="url(#paint13_linear_504_3931)"/>
</g>
<path opacity="0.3" d="M66.9092 62.5428C67.0845 62.5428 67.2267 62.4117 67.2267 62.25C67.2267 62.0882 67.0845 61.957 66.9092 61.957C66.7339 61.957 66.5918 62.0882 66.5918 62.25C66.5918 62.4117 66.7339 62.5428 66.9092 62.5428Z" fill="white"/>
<path opacity="0.2" d="M79.448 60.9898C80.2543 60.9898 80.9081 60.3866 80.9081 59.6423C80.9081 58.8982 80.2543 58.2949 79.448 58.2949C78.6415 58.2949 77.9878 58.8982 77.9878 59.6423C77.9878 60.3866 78.6415 60.9898 79.448 60.9898Z" fill="white"/>
<g opacity="0.4">
<path opacity="0.6" d="M78.5906 60.4919C78.0193 59.9646 78.0193 59.1152 78.5906 58.5879C78.6859 58.5 78.7811 58.4414 78.9081 58.3828C78.7177 58.4414 78.5589 58.5586 78.4002 58.6758C77.8288 59.203 77.8288 60.0526 78.4002 60.5799C78.8763 61.0192 79.6064 61.1071 80.1778 60.7849C79.6382 60.9899 79.035 60.902 78.5906 60.4919Z" fill="url(#paint14_linear_504_3931)"/>
</g>
<path opacity="0.3" d="M79.9549 59.2324C80.1303 59.2324 80.2723 59.1013 80.2723 58.9394C80.2723 58.7776 80.1303 58.6465 79.9549 58.6465C79.7796 58.6465 79.6375 58.7776 79.6375 58.9394C79.6375 59.1013 79.7796 59.2324 79.9549 59.2324Z" fill="white"/>
<defs>
<radialGradient id="paint0_radial_504_3931" cx="0" cy="0" r="1" gradientUnits="userSpaceOnUse" gradientTransform="translate(90.9924 35.5055) scale(14.1872 13.0923)">
<stop stop-color="#FFEAFF" stop-opacity="0.6"/>
<stop offset="0.6807" stop-color="#A087C9"/>
<stop offset="1" stop-color="#10002F"/>
</radialGradient>
<radialGradient id="paint1_radial_504_3931" cx="0" cy="0" r="1" gradientUnits="userSpaceOnUse" gradientTransform="translate(83.1009 41.0895) scale(34.7109 32.032)">
<stop stop-color="#FFEAFF" stop-opacity="0.6"/>
<stop offset="0.6807" stop-color="#A087C9"/>
<stop offset="1" stop-color="#10002F"/>
</radialGradient>
<linearGradient id="paint2_linear_504_3931" x1="68.5064" y1="68.521" x2="73.3582" y2="36.0858" gradientUnits="userSpaceOnUse">
<stop stop-color="#81FFFF"/>
<stop offset="0.6202" stop-color="white" stop-opacity="0"/>
</linearGradient>
<linearGradient id="paint3_linear_504_3931" x1="83.8559" y1="41.2571" x2="70.2656" y2="54.7695" gradientUnits="userSpaceOnUse">
<stop offset="0.2888" stop-color="white"/>
<stop offset="0.7796" stop-color="white" stop-opacity="0"/>
</linearGradient>
<linearGradient id="paint4_linear_504_3931" x1="54.4808" y1="60.0006" x2="88.2008" y2="60.0006" gradientUnits="userSpaceOnUse">
<stop stop-color="#0002E9"/>
<stop offset="0.9952" stop-color="#FF00C7"/>
</linearGradient>
<linearGradient id="paint5_linear_504_3931" x1="89.797" y1="53.5974" x2="72.8376" y2="70.9654" gradientUnits="userSpaceOnUse">
<stop offset="0.2888" stop-color="white"/>
<stop offset="0.7796" stop-color="white" stop-opacity="0"/>
</linearGradient>
<linearGradient id="paint6_linear_504_3931" x1="54.4808" y1="60.0006" x2="72.5209" y2="60.0006" gradientUnits="userSpaceOnUse">
<stop stop-color="#000292"/>
<stop offset="0.9952" stop-color="#7D00C7"/>
</linearGradient>
<linearGradient id="paint7_linear_504_3931" x1="54.5035" y1="53.6702" x2="88.1781" y2="53.6702" gradientUnits="userSpaceOnUse">
<stop stop-color="#000292"/>
<stop offset="0.9952" stop-color="#BE00C7"/>
</linearGradient>
<linearGradient id="paint8_linear_504_3931" x1="87.6246" y1="37.0043" x2="85.4759" y2="40.7879" gradientUnits="userSpaceOnUse">
<stop offset="0.2888" stop-color="white"/>
<stop offset="0.7796" stop-color="white" stop-opacity="0"/>
</linearGradient>
<linearGradient id="paint9_linear_504_3931" x1="69.2801" y1="63.7985" x2="70.6231" y2="63.7985" gradientUnits="userSpaceOnUse">
<stop offset="0.2888" stop-color="white"/>
<stop offset="0.7796" stop-color="white" stop-opacity="0"/>
</linearGradient>
<linearGradient id="paint10_linear_504_3931" x1="73.9123" y1="63.3827" x2="75.2553" y2="63.3827" gradientUnits="userSpaceOnUse">
<stop offset="0.2888" stop-color="white"/>
<stop offset="0.7796" stop-color="white" stop-opacity="0"/>
</linearGradient>
<linearGradient id="paint11_linear_504_3931" x1="71.8545" y1="65.4796" x2="72.8627" y2="65.4796" gradientUnits="userSpaceOnUse">
<stop offset="0.2888" stop-color="white"/>
<stop offset="0.7796" stop-color="white" stop-opacity="0"/>
</linearGradient>
<linearGradient id="paint12_linear_504_3931" x1="75.934" y1="65.039" x2="76.9422" y2="65.039" gradientUnits="userSpaceOnUse">
<stop offset="0.2888" stop-color="white"/>
<stop offset="0.7796" stop-color="white" stop-opacity="0"/>
</linearGradient>
<linearGradient id="paint13_linear_504_3931" x1="64.9406" y1="62.9873" x2="67.1337" y2="62.9873" gradientUnits="userSpaceOnUse">
<stop offset="0.2888" stop-color="white"/>
<stop offset="0.7796" stop-color="white" stop-opacity="0"/>
</linearGradient>
<linearGradient id="paint14_linear_504_3931" x1="77.9693" y1="59.6758" x2="80.1625" y2="59.6758" gradientUnits="userSpaceOnUse">
<stop offset="0.2888" stop-color="white"/>
<stop offset="0.7796" stop-color="white" stop-opacity="0"/>
</linearGradient>
</defs>
</svg>
