<svg width="292" height="101" viewBox="0 0 292 101" fill="none" xmlns="http://www.w3.org/2000/svg">
<rect y="0.115234" width="292" height="100" rx="8" fill="#202020"/>
<g clip-path="url(#clip0_504_4038)">
<path d="M131.722 57.2538L137.761 41.1748H140.93L146.854 57.2538H144.279L140.491 46.5236C140.265 45.905 140.082 45.2719 139.942 44.6287C139.827 44.0199 139.765 43.4021 139.757 42.7827H138.794C138.786 43.4192 138.72 44.0534 138.597 44.6779C138.457 45.3066 138.269 45.9237 138.035 46.5236L134.202 57.2538H131.722ZM134.96 53.0045L135.694 50.888H142.811L143.545 53.0045H134.96Z" fill="white"/>
<path d="M153.052 57.5743C152.279 57.5805 151.509 57.4558 150.777 57.2051C150.111 56.9808 149.506 56.6044 149.01 56.1058C148.528 55.6122 148.197 54.99 148.059 54.3133L150.109 53.6447C150.208 54.0429 150.383 54.4175 150.625 54.7481C150.877 55.0823 151.208 55.3475 151.589 55.5194C152.064 55.7234 152.577 55.8212 153.093 55.8064C153.722 55.8458 154.348 55.7035 154.897 55.3962C155.097 55.2739 155.26 55.1009 155.371 54.8948C155.482 54.6887 155.536 54.4569 155.529 54.2231C155.533 54.0245 155.495 53.8275 155.415 53.6455C155.336 53.4632 155.218 53.3006 155.069 53.1689C154.598 52.8259 154.043 52.6149 153.462 52.5579L152.085 52.3077C151.441 52.184 150.814 51.9872 150.215 51.721C149.723 51.4941 149.299 51.142 148.986 50.6998C148.657 50.196 148.494 49.6026 148.518 49.0016C148.51 48.3615 148.712 47.7362 149.092 47.2213C149.491 46.6794 150.03 46.2558 150.65 45.995C151.497 45.6491 152.412 45.5042 153.324 45.5719C154.236 45.6395 155.119 45.9177 155.906 46.3846C156.631 46.8796 157.171 47.6008 157.443 48.4356L155.537 49.1699C155.429 48.8466 155.267 48.5443 155.057 48.2754C154.815 47.9786 154.513 47.7356 154.172 47.5619C153.739 47.3517 153.262 47.2503 152.782 47.2664C152.202 47.2265 151.626 47.3792 151.142 47.7014C150.968 47.8228 150.827 47.984 150.729 48.172C150.631 48.3597 150.58 48.5684 150.58 48.7799C150.572 48.9565 150.604 49.1325 150.675 49.294C150.747 49.4558 150.854 49.5984 150.99 49.7112C151.45 50.0065 151.972 50.1919 152.515 50.2525L153.872 50.5027C154.821 50.6982 155.724 51.0726 156.533 51.6061C156.924 51.8745 157.238 52.2405 157.444 52.668C157.65 53.0956 157.74 53.5695 157.706 54.0426C157.721 54.7087 157.527 55.3628 157.152 55.9132C156.752 56.4696 156.197 56.8973 155.557 57.1436C154.759 57.4503 153.907 57.5968 153.052 57.5743Z" fill="white"/>
<path d="M164.347 57.254C163.802 57.2687 163.26 57.1622 162.76 56.9421C162.344 56.7484 162.005 56.4207 161.797 56.0111C161.568 55.5229 161.458 54.9873 161.477 54.4483V47.6352H158.882V45.859H161.477V42.3027H163.634V45.0428C163.634 45.2604 163.72 45.4691 163.874 45.6228C164.028 45.7768 164.236 45.8631 164.454 45.8631H166.708V47.6352H163.634V54.2678C163.609 54.421 163.621 54.5779 163.669 54.7254C163.716 54.8732 163.798 55.0072 163.908 55.1171C164.018 55.2268 164.152 55.309 164.3 55.3567C164.447 55.4044 164.604 55.4163 164.757 55.3917H167.147V57.254H164.347Z" fill="white"/>
<path d="M169.578 57.254V45.8591H171.669C171.65 46.4058 171.524 46.9435 171.3 47.4424C171.066 48.0252 170.782 48.5865 170.452 49.12H171.681C171.892 48.1818 172.338 47.3122 172.977 46.5933C173.303 46.2835 173.69 46.0439 174.114 45.8902C174.537 45.7364 174.987 45.6714 175.437 45.6991C175.8 45.6895 176.162 45.7281 176.515 45.814V48.0166C176.107 47.9614 175.696 47.9313 175.285 47.9264C174.577 47.8979 173.876 48.0638 173.256 48.4063C172.718 48.74 172.306 49.2419 172.083 49.8338C171.811 50.5838 171.684 51.3784 171.706 52.1759V57.254H169.578Z" fill="white"/>
<path d="M182.849 57.5742C181.875 57.5828 180.919 57.3124 180.094 56.7949C179.26 56.2637 178.586 55.5167 178.142 54.6335C177.662 53.6874 177.418 52.6387 177.433 51.5776C177.415 50.5029 177.654 49.4397 178.13 48.4766C178.567 47.5922 179.239 46.8456 180.073 46.319C180.91 45.808 181.871 45.5376 182.851 45.5376C183.831 45.5376 184.792 45.808 185.628 46.319C186.458 46.845 187.126 47.5922 187.555 48.4766C188.025 49.4418 188.261 50.504 188.244 51.5776C188.264 52.6416 188.025 53.6947 187.547 54.6456C187.102 55.5227 186.431 56.2647 185.604 56.7949C184.781 57.3168 183.823 57.5875 182.849 57.5742ZM182.849 55.7122C183.428 55.7231 183.999 55.5632 184.489 55.2528C184.99 54.9186 185.375 54.4369 185.591 53.8746C185.873 53.151 186.005 52.3782 185.981 51.6022C186.005 50.8102 185.872 50.0212 185.591 49.2805C185.376 48.7089 184.991 48.2168 184.489 47.8694C184.002 47.5515 183.43 47.3872 182.849 47.3978C182.255 47.383 181.671 47.5474 181.172 47.8694C180.673 48.217 180.29 48.7076 180.073 49.2764C179.785 50.0158 179.646 50.8047 179.663 51.598C179.646 52.3753 179.785 53.1484 180.073 53.8704C180.289 54.4317 180.673 54.9129 181.172 55.2487C181.673 55.5645 182.257 55.7257 182.849 55.7122Z" fill="white"/>
<path d="M190.007 61.7336V45.8597H191.958C191.938 46.2875 191.829 46.7064 191.638 47.0901C191.448 47.526 191.209 47.939 190.925 48.3206H192.155C192.343 47.8625 192.577 47.4241 192.852 47.0121C193.153 46.5861 193.545 46.233 194 45.9784C194.566 45.6702 195.204 45.5185 195.849 45.5395C196.7 45.5276 197.532 45.7861 198.227 46.2779C198.958 46.8114 199.526 47.5387 199.866 48.3781C200.285 49.3931 200.488 50.4838 200.465 51.5816C200.487 52.6725 200.284 53.7565 199.866 54.7645C199.528 55.6019 198.96 56.3257 198.227 56.8523C197.529 57.3368 196.698 57.5907 195.849 57.5785C194.98 57.6298 194.123 57.3514 193.451 56.7991C192.859 56.2498 192.414 55.562 192.155 54.7974H190.892C191.272 55.4064 191.587 56.054 191.831 56.7294C192.088 57.5614 192.204 58.4307 192.176 59.3013V61.7375L190.007 61.7336ZM195.172 55.7367C195.735 55.746 196.29 55.6045 196.779 55.3266C197.275 55.0154 197.651 54.5454 197.845 53.9934C198.126 53.2172 198.255 52.3943 198.227 51.5694C198.255 50.7449 198.122 49.9231 197.837 49.1492C197.631 48.5962 197.256 48.1212 196.767 47.7914C196.285 47.5055 195.732 47.3631 195.172 47.3813C194.598 47.3714 194.034 47.5345 193.553 47.849C193.06 48.2091 192.682 48.7051 192.466 49.2765C192.179 50.0099 192.039 50.7937 192.057 51.5816C192.04 52.3668 192.179 53.1475 192.466 53.8786C192.665 54.4391 193.036 54.9216 193.527 55.2566C194.018 55.5913 194.603 55.7611 195.197 55.7408L195.172 55.7367Z" fill="white"/>
<path d="M207.635 57.5742C206.661 57.5841 205.705 57.3134 204.88 56.7949C204.045 56.2663 203.37 55.5186 202.929 54.6334C202.448 53.6874 202.203 52.639 202.216 51.5776C202.199 50.5027 202.439 49.4394 202.917 48.4766C203.351 47.592 204.022 46.845 204.856 46.319C205.692 45.808 206.653 45.5376 207.633 45.5376C208.613 45.5376 209.574 45.808 210.411 46.319C211.243 46.8437 211.912 47.5912 212.342 48.4766C212.812 49.4418 213.048 50.504 213.031 51.5776C213.047 52.6431 212.802 53.6965 212.317 54.6456C211.874 55.5224 211.204 56.2644 210.378 56.7949C209.558 57.3134 208.605 57.5838 207.635 57.5742ZM207.635 55.7122C208.215 55.7223 208.785 55.5626 209.275 55.2528C209.775 54.9173 210.16 54.4362 210.378 53.8746C210.657 53.1505 210.79 52.3779 210.768 51.6022C210.789 50.8104 210.657 50.0217 210.378 49.2805C210.161 48.7096 209.776 48.2178 209.275 47.8694C208.788 47.552 208.217 47.3879 207.635 47.3978C207.054 47.3903 206.484 47.5544 205.995 47.8694C205.487 48.2137 205.096 48.7045 204.872 49.2764C204.593 50.0176 204.461 50.8063 204.483 51.598C204.461 52.3737 204.593 53.1463 204.872 53.8704C205.094 54.4364 205.487 54.9194 205.995 55.2528C206.487 55.5603 207.056 55.7197 207.635 55.7122Z" fill="white"/>
<path d="M214.818 57.254V45.8591H216.909C216.889 46.4058 216.764 46.9435 216.54 47.4424C216.306 48.0252 216.022 48.5865 215.691 49.12H216.921C217.132 48.1818 217.578 47.3122 218.217 46.5933C218.543 46.2835 218.93 46.0439 219.353 45.8902C219.777 45.7364 220.227 45.6714 220.676 45.6991C221.039 45.6895 221.402 45.7281 221.755 45.814V48.0166C221.347 47.9614 220.936 47.9313 220.525 47.9264C219.817 47.8979 219.115 48.0638 218.495 48.4063C217.958 48.74 217.546 49.2419 217.323 49.8338C217.051 50.5838 216.923 51.3784 216.946 52.1759V57.254H214.818Z" fill="white"/>
<path d="M228.363 57.254C227.819 57.2698 227.278 57.1632 226.781 56.9421C226.365 56.7484 226.025 56.4207 225.817 56.0111C225.585 55.5239 225.474 54.9878 225.493 54.4483V47.6352H222.899V45.859H225.493V42.3027H227.654V45.0428C227.654 45.2604 227.74 45.4691 227.894 45.6228C228.048 45.7768 228.257 45.8631 228.474 45.8631H230.729V47.6352H227.654V54.2678C227.629 54.421 227.641 54.5779 227.689 54.7254C227.737 54.8732 227.819 55.0072 227.928 55.1171C228.038 55.2268 228.172 55.309 228.32 55.3567C228.467 55.4044 228.624 55.4163 228.778 55.3917H231.167V57.254H228.363Z" fill="white"/>
<path d="M129.094 32.6802H125.814H124.174V34.321V37.6025H125.814V34.321H129.094V32.6802Z" fill="white"/>
<path d="M125.814 65.9748V62.6934H124.174V65.9748V67.6154H125.814H129.094V65.9748H125.814Z" fill="white"/>
<path d="M237.342 32.6802H234.062V34.321H237.342V37.6025H238.981V34.321V32.6802H237.342Z" fill="white"/>
<path d="M237.342 62.6934V65.9748H234.062V67.6154H237.342H238.981V65.9748V62.6934H237.342Z" fill="white"/>
<mask id="mask0_504_4038" style="mask-type:luminance" maskUnits="userSpaceOnUse" x="65" y="32" width="45" height="36">
<path d="M109.494 32.6152H65.0186V67.6113H109.494V32.6152Z" fill="white"/>
</mask>
<g mask="url(#mask0_504_4038)">
<path d="M91.7894 55.678V55.6682C89.2189 55.6168 87.1505 53.5656 87.1505 51.0386C87.1505 53.5604 85.0897 55.6083 82.5264 55.6671V55.678C85.0897 55.7366 87.1505 57.7848 87.1505 60.3066C87.1495 57.7804 89.2189 55.7294 91.7894 55.678Z" fill="white"/>
<path d="M90.8374 32.6152H83.6756C82.7521 32.6152 81.9064 33.1306 81.4833 33.952L65.1748 65.5922C64.7001 66.5142 65.3683 67.6124 66.405 67.6124H74.6401C75.5722 67.6124 76.4241 67.0874 76.8431 66.2554L81.2235 57.5573C81.8188 56.3745 81.8092 54.9779 81.1968 53.8035L78.0445 47.7588C77.1874 46.1151 78.3802 44.1473 80.2337 44.1494L94.2951 44.1645C96.1488 44.1665 97.3372 46.1364 96.4768 47.778L92.9291 54.5501C92.5594 55.2548 92.5529 56.0953 92.9109 56.8067L97.6699 66.2565C98.0888 67.0884 98.9408 67.6137 99.8728 67.6137H108.108C109.144 67.6137 109.813 66.5152 109.338 65.5933L93.0297 33.952C92.6063 33.1306 91.7598 32.6152 90.8374 32.6152Z" fill="white"/>
</g>
</g>
<defs>
<clipPath id="clip0_504_4038">
<rect width="173.963" height="35" fill="white" transform="translate(65.0186 32.6152)"/>
</clipPath>
</defs>
</svg>
