<svg width="292" height="101" viewBox="0 0 292 101" fill="none" xmlns="http://www.w3.org/2000/svg">
<rect y="0.115234" width="292" height="100" rx="8" fill="#202020"/>
<g clip-path="url(#clip0_504_4038)">
<path d="M133.75 56.5399L139.185 42.0688H142.037L147.368 56.5399H145.051L141.642 46.8827C141.439 46.326 141.273 45.7562 141.147 45.1773C141.044 44.6294 140.989 44.0734 140.981 43.516H140.114C140.108 44.0888 140.048 44.6595 139.937 45.2216C139.811 45.7875 139.642 46.3428 139.432 46.8827L135.982 56.5399H133.75ZM136.664 52.7156L137.325 50.8107H143.73L144.391 52.7156H136.664Z" fill="white"/>
<path d="M152.947 56.8285C152.251 56.8341 151.558 56.7218 150.899 56.4962C150.3 56.2944 149.755 55.9556 149.309 55.5069C148.875 55.0626 148.577 54.5026 148.453 53.8936L150.298 53.2918C150.387 53.6502 150.544 53.9874 150.763 54.2849C150.989 54.5857 151.287 54.8244 151.63 54.9791C152.057 55.1627 152.519 55.2507 152.984 55.2374C153.549 55.2728 154.113 55.1447 154.608 54.8682C154.787 54.7581 154.934 54.6025 155.034 54.417C155.134 54.2315 155.183 54.0229 155.176 53.8124C155.18 53.6337 155.145 53.4563 155.074 53.2925C155.002 53.1285 154.896 52.9822 154.762 52.8637C154.338 52.555 153.838 52.365 153.316 52.3137L152.076 52.0885C151.497 51.9772 150.933 51.8001 150.394 51.5605C149.951 51.3563 149.569 51.0395 149.287 50.6414C148.991 50.188 148.844 49.6539 148.866 49.1131C148.859 48.537 149.04 47.9742 149.383 47.5108C149.742 47.0231 150.227 46.6418 150.785 46.4071C151.547 46.0958 152.371 45.9654 153.191 46.0263C154.012 46.0872 154.807 46.3376 155.515 46.7578C156.168 47.2032 156.654 47.8524 156.899 48.6037L155.183 49.2645C155.086 48.9735 154.94 48.7015 154.751 48.4595C154.533 48.1923 154.262 47.9737 153.954 47.8174C153.565 47.6281 153.136 47.5369 152.704 47.5514C152.182 47.5154 151.663 47.6529 151.228 47.9429C151.072 48.0521 150.944 48.1972 150.856 48.3664C150.768 48.5353 150.722 48.7232 150.722 48.9136C150.714 49.0725 150.744 49.2309 150.808 49.3763C150.872 49.5219 150.969 49.6502 151.091 49.7517C151.505 50.0175 151.975 50.1843 152.464 50.2389L153.685 50.4641C154.539 50.64 155.352 50.9769 156.08 51.4571C156.432 51.6986 156.715 52.0281 156.9 52.4129C157.085 52.7976 157.166 53.2242 157.135 53.65C157.149 54.2494 156.975 54.8381 156.637 55.3335C156.276 55.8342 155.777 56.2192 155.202 56.4409C154.483 56.7169 153.717 56.8488 152.947 56.8285Z" fill="white"/>
<path d="M163.112 56.5401C162.621 56.5534 162.134 56.4575 161.684 56.2594C161.31 56.0851 161.004 55.7902 160.817 55.4215C160.611 54.9821 160.512 54.5001 160.53 54.015V47.8832H158.194V46.2846H160.53V43.084H162.47V45.5501C162.47 45.7459 162.548 45.9337 162.686 46.0721C162.825 46.2107 163.012 46.2884 163.208 46.2884H165.237V47.8832H162.47V53.8526C162.448 53.9905 162.459 54.1316 162.502 54.2644C162.545 54.3974 162.619 54.518 162.717 54.617C162.816 54.7157 162.937 54.7896 163.07 54.8326C163.202 54.8755 163.344 54.8862 163.481 54.864H165.632V56.5401H163.112Z" fill="white"/>
<path d="M167.82 56.5403V46.2848H169.702C169.685 46.7769 169.572 47.2609 169.37 47.7098C169.159 48.2343 168.904 48.7395 168.606 49.2197H169.713C169.903 48.3753 170.304 47.5927 170.879 46.9456C171.173 46.6668 171.521 46.4512 171.902 46.3128C172.283 46.1745 172.689 46.1159 173.093 46.1409C173.42 46.1322 173.746 46.167 174.063 46.2442V48.2266C173.696 48.1769 173.327 48.1499 172.956 48.1454C172.32 48.1198 171.688 48.2691 171.13 48.5773C170.646 48.8776 170.275 49.3294 170.075 49.8621C169.83 50.5371 169.715 51.2523 169.735 51.97V56.5403H167.82Z" fill="white"/>
<path d="M179.764 56.8286C178.887 56.8363 178.027 56.5929 177.284 56.1272C176.534 55.6491 175.927 54.9768 175.528 54.1819C175.095 53.3304 174.876 52.3866 174.89 51.4316C174.873 50.4644 175.088 49.5075 175.517 48.6407C175.91 47.8448 176.515 47.1728 177.266 46.6989C178.019 46.239 178.884 45.9956 179.766 45.9956C180.648 45.9956 181.513 46.239 182.265 46.6989C183.013 47.1723 183.613 47.8448 184 48.6407C184.422 49.5094 184.635 50.4653 184.62 51.4316C184.637 52.3892 184.422 53.337 183.992 54.1928C183.592 54.9822 182.988 55.65 182.243 56.1272C181.502 56.5969 180.641 56.8405 179.764 56.8286ZM179.764 55.1528C180.286 55.1626 180.799 55.0186 181.24 54.7393C181.691 54.4385 182.038 54.005 182.232 53.4989C182.485 52.8477 182.604 52.1521 182.583 51.4537C182.604 50.7409 182.485 50.0309 182.232 49.3642C182.038 48.8497 181.692 48.4069 181.24 48.0942C180.802 47.8081 180.287 47.6602 179.764 47.6698C179.23 47.6565 178.704 47.8044 178.255 48.0942C177.805 48.4071 177.461 48.8486 177.266 49.3605C177.007 50.026 176.882 50.736 176.897 51.45C176.881 52.1495 177.007 52.8453 177.266 53.4952C177.46 54.0003 177.806 54.4334 178.255 54.7356C178.706 55.0198 179.231 55.1649 179.764 55.1528Z" fill="white"/>
<path d="M186.206 60.572V46.2855H187.962C187.944 46.6705 187.846 47.0476 187.675 47.3929C187.503 47.7851 187.288 48.1568 187.033 48.5003H188.14C188.309 48.088 188.519 47.6934 188.767 47.3227C189.037 46.9393 189.39 46.6215 189.8 46.3924C190.31 46.1149 190.884 45.9784 191.464 45.9973C192.23 45.9866 192.979 46.2192 193.604 46.6619C194.262 47.1421 194.774 47.7966 195.08 48.5521C195.456 49.4656 195.64 50.4472 195.619 51.4352C195.639 52.417 195.455 53.3926 195.08 54.2998C194.776 55.0535 194.264 55.7049 193.604 56.1788C192.976 56.6149 192.228 56.8434 191.464 56.8324C190.682 56.8786 189.911 56.628 189.306 56.131C188.773 55.6366 188.373 55.0175 188.14 54.3294H187.003C187.345 54.8775 187.628 55.4604 187.848 56.0682C188.079 56.817 188.184 57.5994 188.158 58.3829V60.5755L186.206 60.572ZM190.855 55.1748C191.361 55.1832 191.861 55.0558 192.302 54.8057C192.747 54.5257 193.086 54.1026 193.261 53.6059C193.513 52.9073 193.63 52.1667 193.604 51.4242C193.629 50.6822 193.51 49.9425 193.253 49.246C193.068 48.7483 192.731 48.3209 192.29 48.0241C191.857 47.7667 191.359 47.6386 190.855 47.6549C190.338 47.6461 189.831 47.7928 189.398 48.0759C188.954 48.4 188.614 48.8463 188.42 49.3606C188.161 50.0207 188.035 50.7261 188.051 51.4352C188.036 52.1419 188.162 52.8445 188.42 53.5025C188.598 54.007 188.933 54.4412 189.375 54.7427C189.817 55.0439 190.343 55.1967 190.877 55.1785L190.855 55.1748Z" fill="white"/>
<path d="M202.072 56.8286C201.195 56.8374 200.335 56.5938 199.592 56.1272C198.84 55.6514 198.233 54.9785 197.836 54.1819C197.403 53.3304 197.183 52.3868 197.194 51.4316C197.179 50.4642 197.395 49.5073 197.825 48.6407C198.216 47.8445 198.82 47.1723 199.57 46.6989C200.323 46.239 201.188 45.9956 202.07 45.9956C202.952 45.9956 203.817 46.239 204.57 46.6989C205.319 47.1711 205.921 47.8438 206.308 48.6407C206.73 49.5094 206.943 50.4653 206.928 51.4316C206.942 52.3906 206.722 53.3386 206.285 54.1928C205.887 54.982 205.284 55.6498 204.54 56.1272C203.802 56.5938 202.945 56.8372 202.072 56.8286ZM202.072 55.1528C202.594 55.1619 203.107 55.0181 203.548 54.7393C203.998 54.4374 204.344 54.0043 204.54 53.4989C204.791 52.8472 204.911 52.1519 204.891 51.4537C204.91 50.7411 204.791 50.0313 204.54 49.3642C204.345 48.8504 203.999 48.4078 203.548 48.0942C203.109 47.8086 202.595 47.6609 202.072 47.6698C201.549 47.663 201.035 47.8107 200.596 48.0942C200.139 48.4041 199.786 48.8458 199.585 49.3605C199.334 50.0276 199.215 50.7374 199.234 51.45C199.215 52.1481 199.334 52.8435 199.585 53.4952C199.785 54.0045 200.138 54.4392 200.596 54.7393C201.038 55.016 201.55 55.1595 202.072 55.1528Z" fill="white"/>
<path d="M208.536 56.5403V46.2848H210.418C210.4 46.7769 210.288 47.2609 210.086 47.7098C209.875 48.2343 209.62 48.7395 209.322 49.2197H210.429C210.619 48.3753 211.02 47.5927 211.595 46.9456C211.889 46.6668 212.237 46.4512 212.618 46.3128C212.999 46.1745 213.404 46.1159 213.809 46.1409C214.135 46.1322 214.462 46.167 214.779 46.2442V48.2266C214.412 48.1769 214.043 48.1499 213.672 48.1454C213.036 48.1198 212.404 48.2691 211.846 48.5773C211.362 48.8776 210.991 49.3294 210.791 49.8621C210.546 50.5371 210.431 51.2523 210.451 51.97V56.5403H208.536Z" fill="white"/>
<path d="M220.727 56.5401C220.237 56.5543 219.751 56.4584 219.303 56.2594C218.928 56.0851 218.623 55.7902 218.436 55.4215C218.227 54.9831 218.126 54.5005 218.144 54.015V47.8832H215.809V46.2846H218.144V43.084H220.089V45.5501C220.089 45.7459 220.166 45.9337 220.305 46.0721C220.443 46.2107 220.631 46.2884 220.827 46.2884H222.856V47.8832H220.089V53.8526C220.066 53.9905 220.077 54.1316 220.12 54.2644C220.163 54.3974 220.237 54.518 220.336 54.617C220.434 54.7157 220.555 54.7896 220.688 54.8326C220.821 54.8755 220.962 54.8862 221.1 54.864H223.251V56.5401H220.727Z" fill="white"/>
<path d="M131.385 34.4238H128.433H126.957V35.9006V38.8539H128.433V35.9006H131.385V34.4238Z" fill="white"/>
<path d="M128.433 64.3888V61.4355H126.957V64.3888V65.8654H128.433H131.385V64.3888H128.433Z" fill="white"/>
<path d="M228.807 34.4238H225.856V35.9006H228.807V38.8539H230.283V35.9006V34.4238H228.807Z" fill="white"/>
<path d="M228.807 61.4355V64.3888H225.856V65.8654H228.807H230.283V64.3888V61.4355H228.807Z" fill="white"/>
<mask id="mask0_504_4038" style="mask-type:luminance" maskUnits="userSpaceOnUse" x="73" y="34" width="41" height="32">
<path d="M113.745 34.3652H73.7167V65.8617H113.745V34.3652Z" fill="white"/>
</mask>
<g mask="url(#mask0_504_4038)">
<path d="M97.8105 55.1218V55.1129C95.497 55.0667 93.6355 53.2206 93.6355 50.9463C93.6355 53.2159 91.7807 55.059 89.4738 55.112V55.1218C91.7807 55.1745 93.6355 57.0179 93.6355 59.2875C93.6346 57.0139 95.497 55.168 97.8105 55.1218Z" fill="white"/>
<path d="M96.9537 34.3652H90.5081C89.6769 34.3652 88.9158 34.8291 88.535 35.5683L73.8574 64.0445C73.4302 64.8743 74.0315 65.8627 74.9646 65.8627H82.3762C83.215 65.8627 83.9817 65.3902 84.3588 64.6414L88.3012 56.8131C88.8369 55.7486 88.8283 54.4916 88.2772 53.4346L85.4401 47.9945C84.6687 46.5151 85.7422 44.7441 87.4103 44.746L100.066 44.7595C101.734 44.7614 102.804 46.5343 102.029 48.0117L98.8362 54.1066C98.5035 54.7408 98.4976 55.4973 98.8199 56.1376L103.103 64.6423C103.48 65.3911 104.247 65.8638 105.086 65.8638H112.497C113.43 65.8638 114.031 64.8752 113.604 64.0455L98.9267 35.5683C98.5457 34.8291 97.7839 34.3652 96.9537 34.3652Z" fill="white"/>
</g>
</g>
<defs>
<clipPath id="clip0_504_4038">
<rect width="156.567" height="31.5" fill="white" transform="translate(73.7167 34.3652)"/>
</clipPath>
</defs>
</svg>
