<svg width="292" height="101" viewBox="0 0 292 101" fill="none" xmlns="http://www.w3.org/2000/svg">
<rect y="0.115234" width="292" height="100" rx="8" fill="#202020"/>
<path d="M63.6588 44.8758L64.4729 37.146C64.5774 36.1537 65.0453 35.2352 65.7865 34.567L65.7865 34.567C66.1575 34.2325 66.7508 34.477 66.7781 34.9756L67.3204 44.8758H63.6588Z" fill="white"/>
<g opacity="0.35">
<path d="M66.7543 34.5405C66.7199 33.9136 65.7865 33.9391 65.7865 34.567V34.567C65.7327 34.6155 65.6808 34.6658 65.6298 34.7169L65.9375 40.3339C66.0011 41.4955 65.0759 42.4723 63.912 42.4723H63.912L63.6588 44.8759H67.3204L66.7543 34.5405Z" fill="#1F1E1C"/>
</g>
<path d="M67.3203 45.3819H63.6587C63.5153 45.3819 63.3784 45.321 63.2825 45.2144C63.1864 45.1078 63.1402 44.9654 63.1553 44.8228L63.9695 37.093C64.0872 35.9749 64.612 34.9444 65.4475 34.1912C65.7653 33.9048 66.2087 33.8281 66.6041 33.9911C66.9998 34.1542 67.2601 34.5208 67.2836 34.948L67.8258 44.8482C67.8334 44.9869 67.7835 45.1228 67.6879 45.2237C67.5923 45.3247 67.4593 45.3819 67.3203 45.3819ZM64.2211 44.3698H66.7856L66.2725 35.0032C66.2718 34.9895 66.2694 34.9479 66.2181 34.9267C66.1669 34.9056 66.1358 34.9335 66.1256 34.9427C65.476 35.5283 65.0679 36.3295 64.9764 37.1989L64.2211 44.3698Z" fill="#1F1E1C"/>
<path d="M68.0391 57.2096C67.3586 57.3129 66.688 57.3513 66.0622 57.35C64.0331 57.3458 62.3617 55.7665 62.1974 53.7452C61.9667 50.9083 62.0504 48.5028 62.1973 46.7798C62.3532 44.9508 63.7634 43.4784 65.5844 43.24C66.1141 43.1707 66.6034 43.1261 67.0136 43.0975C67.6872 43.0505 68.2709 43.558 68.3202 44.2311L69.1661 55.797C69.2167 56.4894 68.7258 57.1053 68.0391 57.2096Z" fill="white"/>
<g opacity="0.35">
<path d="M69.1661 55.7967L68.916 52.3779C68.9039 53.0189 68.4316 53.5692 67.7859 53.6672C67.1054 53.7706 66.4348 53.8089 65.809 53.8076C64.0129 53.804 62.4979 52.5656 62.0596 50.8794C62.0731 51.7722 62.1149 52.7304 62.1974 53.745C62.3617 55.7663 64.0331 57.3456 66.0621 57.3498C66.6879 57.351 67.3586 57.3127 68.039 57.2094C68.7258 57.105 69.2167 56.4892 69.1661 55.7967Z" fill="#1F1E1C"/>
</g>
<path d="M66.092 57.856H66.0611C63.7968 57.8513 61.878 56.0637 61.6928 53.7861C61.4982 51.3928 61.4982 49.021 61.6928 46.7367C61.8675 44.6871 63.4765 43.0055 65.5187 42.7382C65.9937 42.6761 66.4849 42.6271 66.9785 42.5926C67.9278 42.5283 68.7557 43.2448 68.8251 44.1941L69.6711 55.7601C69.7405 56.7103 69.0571 57.5668 68.115 57.7098C67.4766 57.8068 66.796 57.856 66.092 57.856ZM67.0991 43.6005C67.0825 43.6005 67.0658 43.6011 67.049 43.6022C66.5756 43.6353 66.105 43.6822 65.6502 43.7417C64.0764 43.9477 62.8363 45.2434 62.7018 46.8226C62.5119 49.0513 62.512 51.3665 62.7021 53.7042C62.8449 55.4612 64.3213 56.8404 66.0632 56.8439C66.0727 56.844 66.0825 56.844 66.0921 56.844C66.7453 56.844 67.3746 56.7987 67.963 56.7092C68.3857 56.6451 68.6924 56.2605 68.6611 55.8339L67.8152 44.2679C67.7875 43.8903 67.4715 43.6005 67.0991 43.6005Z" fill="#1F1E1C"/>
<path d="M106.562 45.4779L105.747 37.748C105.643 36.7558 105.175 35.8372 104.434 35.169L104.434 35.169C104.063 34.8346 103.47 35.0791 103.442 35.5777L102.9 45.4779H106.562Z" fill="white"/>
<g opacity="0.35">
<path d="M103.466 35.1426C103.5 34.5157 104.434 34.5412 104.434 35.169V35.1691C104.488 35.2176 104.54 35.2678 104.59 35.3189L104.283 40.936C104.219 42.0976 105.144 43.0743 106.308 43.0743H106.308L106.562 45.4779H102.9L103.466 35.1426Z" fill="#1F1E1C"/>
</g>
<path d="M102.9 45.9837H106.562C106.705 45.9837 106.842 45.9228 106.938 45.8162C107.034 45.7096 107.08 45.5673 107.065 45.4246L106.251 37.6948C106.133 36.5767 105.608 35.5462 104.773 34.793C104.455 34.5066 104.012 34.4299 103.616 34.5929C103.221 34.756 102.96 35.1226 102.937 35.5498L102.395 45.45C102.387 45.5887 102.437 45.7246 102.532 45.8255C102.628 45.9265 102.761 45.9837 102.9 45.9837ZM105.999 44.9716H103.435L103.948 35.605C103.949 35.5913 103.951 35.5497 104.002 35.5285C104.053 35.5074 104.084 35.5353 104.095 35.5445C104.744 36.1301 105.152 36.9313 105.244 37.8007L105.999 44.9716Z" fill="#1F1E1C"/>
<path d="M102.181 57.8114C102.862 57.9147 103.532 57.9531 104.158 57.9518C106.187 57.9477 107.859 56.3683 108.023 54.347C108.254 51.5101 108.17 49.1046 108.023 47.3816C107.867 45.5526 106.457 44.0802 104.636 43.8418C104.106 43.7725 103.617 43.7279 103.207 43.6993C102.533 43.6523 101.949 44.1598 101.9 44.8329L101.054 56.3988C101.004 57.0912 101.495 57.7071 102.181 57.8114Z" fill="white"/>
<g opacity="0.35">
<path d="M101.054 56.399L101.304 52.9802C101.316 53.6212 101.789 54.1715 102.434 54.2695C103.115 54.3729 103.786 54.4112 104.411 54.4099C106.207 54.4063 107.722 53.1679 108.161 51.4817C108.147 52.3744 108.105 53.3326 108.023 54.3473C107.859 56.3686 106.187 57.9479 104.158 57.952C103.532 57.9533 102.862 57.915 102.181 57.8116C101.495 57.7073 101.004 57.0915 101.054 56.399Z" fill="#1F1E1C"/>
</g>
<path d="M104.128 58.458H104.159C106.424 58.4534 108.342 56.6657 108.528 54.3882C108.722 51.9948 108.722 49.6231 108.528 47.3388C108.353 45.2891 106.744 43.6076 104.702 43.3403C104.227 43.2781 103.735 43.2292 103.242 43.1947C102.293 43.1303 101.465 43.8468 101.395 44.7962L100.549 56.3621C100.48 57.3124 101.163 58.1688 102.105 58.3119C102.744 58.4089 103.424 58.458 104.128 58.458ZM103.121 44.2025C103.138 44.2025 103.155 44.2031 103.171 44.2043C103.645 44.2373 104.115 44.2842 104.57 44.3438C106.144 44.5497 107.384 45.8455 107.519 47.4247C107.708 49.6533 107.708 51.9686 107.518 54.3062C107.375 56.0633 105.899 57.4424 104.157 57.446C104.148 57.446 104.138 57.446 104.128 57.446C103.475 57.446 102.846 57.4007 102.257 57.3113C101.835 57.2471 101.528 56.8626 101.559 56.4359L102.405 44.87C102.433 44.4923 102.749 44.2025 103.121 44.2025Z" fill="#1F1E1C"/>
<path fill-rule="evenodd" clip-rule="evenodd" d="M83.3188 38.6712C83.2129 38.6803 82.7219 38.7174 82.2276 38.7537C81.1664 38.8316 79.3657 39.0022 78.6118 39.0961C75.04 39.5413 71.617 40.6482 69.249 42.124C68.2672 42.7359 67.9273 42.9848 67.5503 43.3678C66.9489 43.9789 66.7159 44.5132 66.4225 45.9548C65.5876 50.0568 65.5721 53.3169 66.3728 56.452C66.4648 56.8124 66.6298 57.3344 66.7395 57.6122C66.8492 57.8899 66.9943 58.2784 67.062 58.4755C67.2273 58.9571 67.5342 59.522 68.0635 60.3188C68.9481 61.6505 69.8221 62.6324 71.0164 63.6359C73.4997 65.7227 76.9912 67.1542 81.3718 67.8814C84.1299 68.3393 86.1896 68.3405 88.9046 67.8858C91.3512 67.476 93.538 66.7854 95.664 65.7512C97.3509 64.9306 98.551 64.1411 99.7257 63.0792C100.341 62.5232 100.858 61.9105 101.974 60.4172C102.21 60.1014 102.772 59.0578 102.899 58.7004C102.963 58.5207 103.101 58.1719 103.207 57.9253C103.887 56.3362 104.184 54.6849 104.231 52.2389C104.274 49.9957 104.054 47.7856 103.575 45.6342C103.218 44.0292 103.032 43.7272 101.854 42.8435C100.205 41.6059 98.1592 40.6331 95.8168 39.9723C92.9922 39.1755 89.0705 38.692 85.223 38.6662C84.2816 38.6599 83.4247 38.6621 83.3188 38.6712Z" fill="#1F1E1C"/>
<path d="M88.2539 40.3178C87.1892 40.2411 86.147 40.1781 85.9379 40.1778C84.397 40.1756 85.0472 40.1768 84.0713 40.1775C83.228 40.1783 79.8642 40.4662 78.4185 40.6615C75.2233 41.093 72.0475 42.1259 70.0477 43.384C68.1649 44.5684 68.1686 44.5635 67.7905 46.4148C67.327 48.6833 67.1146 51.0943 67.226 52.82C67.3303 54.4342 67.7154 56.3733 68.1067 57.2534C68.2491 57.5737 68.406 57.9963 68.4554 58.1924C68.5048 58.3885 68.8966 59.0687 69.3262 59.704C71.6275 63.1075 75.1621 65.2073 80.3726 66.2663C83.329 66.8672 85.268 66.963 87.7975 66.6332C92.999 65.955 97.8474 63.6119 99.9542 60.7579C100.359 60.2089 100.727 59.7289 100.772 59.6911C100.904 59.5792 101.612 58.3743 101.612 58.2419C101.612 58.175 101.72 57.7769 101.871 57.4565C102.964 55.1308 103.132 50.7553 102.292 46.5194C102.138 45.7429 101.951 44.9937 101.876 44.8545C101.654 44.442 100.093 43.3491 98.8314 42.7232C96.1657 41.4007 92.8638 40.6497 88.2539 40.3178Z" fill="white"/>
<path d="M69.9761 52.9824C69.7492 51.6718 69.8381 46.6254 69.8381 46.6254C69.8381 46.6254 69.7807 44.4318 70.1653 43.1414C70.1845 43.1292 70.2555 43.0908 70.2751 43.0783C72.2715 41.8086 75.4098 40.8996 78.5996 40.4641C80.0429 40.267 83.4011 39.9764 84.243 39.9756C84.5592 39.9754 84.7044 39.9751 84.8089 39.9749C85.0264 39.9744 85.0674 39.9744 86.1065 39.9759C86.3152 39.9762 87.3557 40.0398 88.4186 40.1172C93.0208 40.4522 96.3173 41.2101 98.9785 42.5449C99.2869 42.6996 99.6133 42.9859 99.9336 43.1801C100.344 44.8638 100.603 46.719 100.603 49.6986C100.603 52.078 100.402 52.9424 100.135 54.0302C98.8587 59.2361 95.5887 62.3003 89.5193 63.9784C87.3824 64.5692 84.4787 64.6661 82.1558 64.2242C78.1904 63.4698 74.9193 61.847 73.0209 59.6926C71.4036 57.8573 70.4597 55.7773 69.9761 52.9824Z" fill="#1F1E1C"/>
<rect x="94.7987" y="55.3413" width="6.83645" height="8.77672" rx="3.41823" transform="rotate(180 94.7987 55.3413)" fill="white"/>
<rect x="82.1245" y="55.3413" width="6.83645" height="8.77672" rx="3.41823" transform="rotate(180 82.1245 55.3413)" fill="white"/>
<path d="M71.2472 43.7772C75.3763 41.1012 88.6726 38.0185 98.9748 43.7772C90.7505 41.4288 83.6805 40.7996 71.2472 43.7772Z" fill="#767676" fill-opacity="0.76"/>
<path d="M98.8574 57.1645C91.103 69.3766 73.832 63.9753 71.2472 57.1643C77.2271 60.7519 81.5397 62.2225 85.816 61.7491C89.8179 61.76 93.5994 60.2591 98.8574 57.1645Z" fill="#262626"/>
<path d="M102.823 52.2599C102.81 53.1903 102.733 54.5697 102.415 56.2354C102.379 56.4241 102.312 56.7755 102.234 57.0914C101.601 59.673 99.8523 61.5962 99.2028 62.2558C98.8015 62.6634 97.5333 63.895 94.9172 65.1281C93.0737 65.997 89.7723 67.2383 85.1868 67.3251C80.9648 67.3252 77.8477 66.2381 76.0835 65.461C74.6092 64.8115 72.9282 64.0517 71.2468 62.3699C70.6827 61.8056 68.7554 59.7741 67.845 56.5588C67.0917 53.8985 67.2386 51.4805 67.2474 51.48C67.253 51.4797 67.3316 52.4577 67.5267 53.7673C67.571 54.0648 67.9362 56.4257 68.8902 58.3468C70.2758 61.1367 72.7107 62.6117 74.2116 63.5207C78.5088 66.1237 82.8941 66.3596 85.2153 66.2979C89.6367 66.1703 92.856 65.0344 94.7177 64.2055C97.2192 63.0918 98.4406 62.0111 98.9177 61.5615C99.6365 60.8843 101.159 59.4184 101.978 57.0914C102.746 54.9067 102.796 52.2446 102.822 52.2478C102.823 52.248 102.823 52.2545 102.823 52.2599Z" fill="#B1B0B0"/>
<path d="M139.137 50.9757C139.137 52.178 138.979 53.3377 138.664 54.4549C138.361 55.56 137.924 56.5983 137.354 57.5698C136.784 58.5291 136.104 59.4096 135.316 60.211C134.527 61.0004 133.647 61.6804 132.677 62.2512C131.706 62.8219 130.663 63.2652 129.547 63.5809C128.443 63.8845 127.29 64.0363 126.089 64.0363H118.228V37.9152H126.089C127.29 37.9152 128.443 38.073 129.547 38.3888C130.663 38.6924 131.706 39.1295 132.677 39.7003C133.647 40.271 134.527 40.9572 135.316 41.7587C136.104 42.548 136.784 43.4284 137.354 44.3999C137.924 45.3593 138.361 46.3976 138.664 47.5148C138.979 48.6199 139.137 49.7735 139.137 50.9757ZM133.914 50.9757C133.914 49.8949 133.708 48.8809 133.296 47.9337C132.895 46.9865 132.337 46.1608 131.621 45.4564C130.918 44.7399 130.087 44.1753 129.128 43.7624C128.182 43.3495 127.169 43.143 126.089 43.143H123.487V58.8084H126.089C127.169 58.8084 128.182 58.6081 129.128 58.2073C130.087 57.7944 130.918 57.2358 131.621 56.5315C132.337 55.815 132.895 54.9832 133.296 54.036C133.708 53.0766 133.914 52.0565 133.914 50.9757Z" fill="white"/>
<path d="M149.837 59.2638C150.032 59.3246 150.226 59.3671 150.42 59.3913C150.614 59.4035 150.808 59.4096 151.002 59.4096C151.487 59.4096 151.954 59.3428 152.403 59.2092C152.852 59.0756 153.271 58.8874 153.659 58.6445C154.059 58.3895 154.411 58.0859 154.714 57.7337C155.03 57.3694 155.285 56.9687 155.479 56.5315L159.118 60.1928C158.657 60.8486 158.124 61.4376 157.517 61.9597C156.922 62.4819 156.273 62.9252 155.57 63.2895C154.878 63.6538 154.144 63.927 153.368 64.1092C152.604 64.3035 151.815 64.4006 151.002 64.4006C149.631 64.4006 148.339 64.1456 147.126 63.6356C145.925 63.1255 144.869 62.4151 143.96 61.5044C143.062 60.5936 142.352 59.5128 141.83 58.262C141.309 56.999 141.048 55.6146 141.048 54.1088C141.048 52.5666 141.309 51.1579 141.83 49.8828C142.352 48.6077 143.062 47.5208 143.96 46.6222C144.869 45.7236 145.925 45.0253 147.126 44.5274C148.339 44.0295 149.631 43.7806 151.002 43.7806C151.815 43.7806 152.61 43.8777 153.386 44.072C154.162 44.2663 154.896 44.5456 155.588 44.9099C156.292 45.2743 156.947 45.7236 157.553 46.2579C158.16 46.7801 158.694 47.3691 159.155 48.0248L149.837 59.2638ZM152.385 49.0085C152.155 48.9235 151.924 48.8688 151.694 48.8445C151.475 48.8202 151.245 48.8081 151.002 48.8081C150.323 48.8081 149.68 48.9356 149.073 49.1906C148.479 49.4335 147.957 49.7857 147.508 50.2471C147.071 50.7086 146.726 51.2672 146.471 51.923C146.216 52.5666 146.089 53.2952 146.089 54.1088C146.089 54.291 146.095 54.4974 146.107 54.7282C146.131 54.9589 146.161 55.1957 146.198 55.4386C146.246 55.6693 146.301 55.894 146.362 56.1125C146.422 56.3311 146.501 56.5254 146.598 56.6954L152.385 49.0085Z" fill="white"/>
<path d="M179.427 64.0363H173.349L169.473 58.0616L165.56 64.0363H159.482L166.598 54.036L159.482 44.4181H165.56L169.473 50.0103L173.349 44.4181H179.427L172.294 54.036L179.427 64.0363Z" fill="white"/>
<path d="M190.983 64.0363C189.782 64.0363 188.653 63.8117 187.598 63.3623C186.542 62.9009 185.614 62.2755 184.814 61.4861C184.025 60.6847 183.4 59.7557 182.939 58.6992C182.49 57.6426 182.266 56.5133 182.266 55.3111V49.5185H179.846V44.5639H182.266V36.7676H187.216V44.5639H194.75V49.5185H187.216V55.3111C187.216 55.8332 187.313 56.3251 187.507 56.7865C187.701 57.2358 187.968 57.6305 188.308 57.9705C188.647 58.3106 189.048 58.5838 189.509 58.7902C189.97 58.9845 190.461 59.0817 190.983 59.0817H194.75V64.0363H190.983Z" fill="white"/>
<path d="M205.304 59.2638C205.499 59.3246 205.693 59.3671 205.887 59.3913C206.081 59.4035 206.275 59.4096 206.469 59.4096C206.954 59.4096 207.421 59.3428 207.87 59.2092C208.319 59.0756 208.738 58.8874 209.126 58.6445C209.526 58.3895 209.878 58.0859 210.181 57.7337C210.497 57.3694 210.752 56.9687 210.946 56.5315L214.585 60.1928C214.124 60.8486 213.591 61.4376 212.984 61.9597C212.389 62.4819 211.74 62.9252 211.037 63.2895C210.345 63.6538 209.611 63.927 208.835 64.1092C208.071 64.3035 207.282 64.4006 206.469 64.4006C205.098 64.4006 203.806 64.1456 202.593 63.6356C201.392 63.1255 200.336 62.4151 199.427 61.5044C198.529 60.5936 197.819 59.5128 197.297 58.262C196.776 56.999 196.515 55.6146 196.515 54.1088C196.515 52.5666 196.776 51.1579 197.297 49.8828C197.819 48.6077 198.529 47.5208 199.427 46.6222C200.336 45.7236 201.392 45.0253 202.593 44.5274C203.806 44.0295 205.098 43.7806 206.469 43.7806C207.282 43.7806 208.077 43.8777 208.853 44.072C209.629 44.2663 210.363 44.5456 211.055 44.9099C211.759 45.2743 212.414 45.7236 213.02 46.2579C213.627 46.7801 214.161 47.3691 214.622 48.0248L205.304 59.2638ZM207.852 49.0085C207.622 48.9235 207.391 48.8688 207.161 48.8445C206.942 48.8202 206.712 48.8081 206.469 48.8081C205.79 48.8081 205.147 48.9356 204.54 49.1906C203.946 49.4335 203.424 49.7857 202.975 50.2471C202.538 50.7086 202.193 51.2672 201.938 51.923C201.683 52.5666 201.556 53.2952 201.556 54.1088C201.556 54.291 201.562 54.4974 201.574 54.7282C201.598 54.9589 201.628 55.1957 201.665 55.4386C201.713 55.6693 201.768 55.894 201.829 56.1125C201.889 56.3311 201.968 56.5254 202.065 56.6954L207.852 49.0085Z" fill="white"/>
<path d="M222.101 64.0363H217.133V44.5274H218.334L219.972 46.8408C220.773 46.1122 221.683 45.5536 222.702 45.165C223.721 44.7642 224.776 44.5639 225.868 44.5639H230.254V49.5185H225.868C225.346 49.5185 224.855 49.6156 224.394 49.8099C223.933 50.0042 223.533 50.2714 223.193 50.6114C222.853 50.9515 222.586 51.3522 222.392 51.8137C222.198 52.2751 222.101 52.7669 222.101 53.2891V64.0363Z" fill="white"/>
</svg>
