<svg width="292" height="101" viewBox="0 0 292 101" fill="none" xmlns="http://www.w3.org/2000/svg">
<rect y="0.115234" width="292" height="100" rx="8" fill="#202020"/>
<g clip-path="url(#clip0_504_4059)">
<path d="M117.682 48.5215V36.8027H120.213V48.6152H117.682V48.5215Z" fill="white"/>
<path d="M131.561 36.8027H134.093V48.6152H130.436L125.28 40.1777H124.999V48.6152H122.468V36.8027H125.936H126.124L131.28 45.2402H131.561V36.8027Z" fill="white"/>
<path d="M135.592 36.8027H147.03V39.1465H142.624V48.6152H140.092V39.1465H135.592V36.8027Z" fill="white"/>
<path d="M158.276 36.8027V39.1465H151.151V41.584H158.276V43.9277H151.151V46.3652H158.276V48.709H148.62V36.8027H158.276Z" fill="white"/>
<path d="M168.78 44.0215L171.03 48.5215H168.218L166.343 44.584C166.061 44.584 165.874 44.584 165.686 44.584H162.968V48.5215H160.436V36.8027H162.968H166.155C167.561 36.8027 170.749 36.8027 170.749 40.7402C170.749 42.8027 169.905 43.5527 168.78 44.0215ZM168.405 40.7402C168.405 39.0527 166.905 39.0527 166.061 39.0527H163.061V42.334H166.061C166.718 42.334 168.405 42.334 168.405 40.7402Z" fill="white"/>
<path d="M127.995 58.0874C127.995 62.4937 124.057 62.3062 122.932 62.3062H120.213V65.5874H117.682V53.7749H120.213H122.932C124.339 53.8687 127.995 53.8687 127.995 58.0874ZM125.557 58.0874C125.557 56.0249 123.87 56.0249 123.026 56.0249H120.12V60.0562H122.932C123.682 60.0562 125.557 60.1499 125.557 58.0874Z" fill="white"/>
<path d="M138.031 61.0874L140.281 65.5874H137.469L135.594 61.6499C135.312 61.6499 135.125 61.6499 134.937 61.6499H132.219V65.5874H129.688V53.7749H132.219H135.406C136.812 53.7749 140 53.7749 140 57.7124C140 59.7749 139.062 60.5249 138.031 61.0874ZM137.562 57.7124C137.562 56.0249 136.062 56.0249 135.219 56.0249H132.219V59.3062H135.219C135.969 59.3999 137.562 59.3999 137.562 57.7124Z" fill="white"/>
<path d="M153.686 59.5864C153.686 63.4302 151.061 65.5864 147.686 65.5864C144.311 65.5864 141.686 63.5239 141.686 59.5864C141.686 55.7427 144.311 53.5864 147.686 53.5864C151.061 53.5864 153.686 55.7427 153.686 59.5864ZM151.249 59.5864C151.249 57.3364 149.749 56.2114 147.686 56.2114C145.624 56.2114 144.124 57.2427 144.124 59.5864C144.124 61.9302 145.624 62.9614 147.686 62.9614C149.749 62.9614 151.249 61.8364 151.249 59.5864Z" fill="white"/>
<path d="M154.909 53.8667H166.346V56.2104H161.94V65.6792H159.409V56.1167H155.003L154.909 53.8667Z" fill="white"/>
<path d="M179.561 59.5864C179.561 63.4302 176.936 65.5864 173.561 65.5864C170.186 65.5864 167.467 63.5239 167.467 59.5864C167.467 55.7427 170.092 53.5864 173.467 53.5864C176.842 53.5864 179.561 55.7427 179.561 59.5864ZM177.124 59.5864C177.124 57.3364 175.624 56.2114 173.561 56.2114C171.499 56.2114 169.999 57.2427 169.999 59.5864C169.999 61.9302 171.499 62.9614 173.561 62.9614C175.53 62.9614 177.124 61.8364 177.124 59.5864Z" fill="white"/>
<path d="M190.253 61.0864H192.971C192.784 63.7114 190.44 65.5864 187.159 65.5864C183.784 65.5864 181.159 63.5239 181.159 59.5864C181.159 55.7427 183.69 53.5864 187.159 53.5864C190.44 53.5864 192.784 55.5552 192.971 58.0864H190.346C189.971 56.8677 189.128 56.2114 187.159 56.2114C185.19 56.2114 183.784 57.2427 183.784 59.5864C183.784 61.9302 185.19 62.9614 187.159 62.9614C189.128 62.9614 189.878 62.3052 190.253 61.0864Z" fill="white"/>
<path d="M206.466 59.5864C206.466 63.4302 203.841 65.5864 200.466 65.5864C197.091 65.5864 194.466 63.5239 194.466 59.5864C194.466 55.7427 197.091 53.5864 200.466 53.5864C203.841 53.5864 206.466 55.7427 206.466 59.5864ZM203.935 59.5864C203.935 57.3364 202.435 56.2114 200.372 56.2114C198.31 56.2114 196.81 57.2427 196.81 59.5864C196.81 61.9302 198.31 62.9614 200.372 62.9614C202.435 62.9614 203.935 61.8364 203.935 59.5864Z" fill="white"/>
<path d="M210.878 63.2417H218.003V65.5855H208.346V53.8667H210.878V63.2417Z" fill="white"/>
<path d="M216.589 53.9575H218.557V54.3325H217.807V56.02H217.339V54.3325H216.589V53.9575Z" fill="white"/>
<path d="M221.374 53.9575V56.02H220.905V54.52L220.53 56.02H219.874L219.499 54.52V56.02H219.03V53.9575H219.78L220.155 55.5513L220.53 53.9575H221.374Z" fill="white"/>
<path d="M105.406 50.4924C105.219 49.7424 104.375 49.2737 103.625 49.4612C103.437 49.5549 103.156 49.6487 103.062 49.7424C102.687 50.1174 102.5 50.68 102.687 51.2425C102.875 51.9925 103.062 52.8362 102.969 53.6799V60.055C102.969 64.6487 99.5938 68.68 95 69.1487C90.125 69.6175 85.8125 66.055 85.3438 61.18C85.3438 60.8987 85.3438 60.6175 85.3438 60.3362V53.8674C85.3438 49.4612 88.3438 45.7112 92.6562 44.9612C94.3438 44.6799 95.9375 44.8674 97.5312 45.5237C98 45.7112 98.5625 45.6174 99.0312 45.2424C99.5938 44.6799 99.6875 43.8362 99.2188 43.2737C99.0312 43.0862 98.9375 42.9924 98.6562 42.8987C96.7812 42.1487 94.625 41.8674 92.6562 42.1487C86.6562 42.8987 82.3438 48.0549 82.3438 53.9612V60.055C82.3438 66.6175 87.6875 72.2425 94.25 72.1487C100.625 72.055 105.781 66.805 105.781 60.43V53.6799C105.875 52.6487 105.687 51.5237 105.406 50.4924ZM85.1562 43.7424C85.625 43.3674 85.7188 42.8049 85.625 42.2424C85.25 41.0237 85.1562 39.7112 85.4375 38.3987C86.1875 33.5237 90.7812 30.3362 95.6562 31.0862C100.531 31.8362 103.719 36.4299 102.969 41.3049C102.312 45.2425 99.125 48.2424 95.1875 48.7112C93.6875 48.8987 92.1875 48.7112 90.875 48.1487C90.4062 47.9612 89.8438 48.055 89.375 48.43C88.8125 48.9925 88.7188 49.8362 89.1875 50.3987C89.375 50.5862 89.4688 50.68 89.75 50.7737C91.8125 51.6175 94.0625 51.8987 96.2188 51.5237C102.594 50.3987 106.906 44.305 105.781 37.9299C104.656 31.5549 98.4688 27.1487 92.0938 28.2737C85.7188 29.3987 81.4063 35.4924 82.625 41.8674C82.7188 42.2424 82.8125 42.7112 82.9062 43.0862C83.0938 43.8362 83.9375 44.3049 84.6875 44.0237C84.875 44.0237 85.0625 43.8362 85.1562 43.7424Z" fill="white"/>
</g>
<defs>
<clipPath id="clip0_504_4059">
<rect width="139.688" height="45" fill="white" transform="translate(82.1562 27.6152)"/>
</clipPath>
</defs>
</svg>
