<svg width="292" height="101" viewBox="0 0 292 101" fill="none" xmlns="http://www.w3.org/2000/svg">
<rect y="0.115234" width="292" height="100" rx="8" fill="#202020"/>
<g clip-path="url(#clip0_491_8569)">
<path d="M80.3193 59.5796V52.4569L82.2588 50.1831L89.7492 59.5796H94.5645L84.8336 47.8088L93.8957 37.2754H89.047L80.3193 47.9092V37.2754H76.4069V59.5796H80.3193Z" fill="white"/>
<path d="M107.393 59.9808C113.846 59.9808 117.023 56.3025 117.023 50.7515V37.2754H113.077V50.6512C113.077 54.1958 111.104 56.5031 107.393 56.5031C103.647 56.5031 101.674 54.1958 101.674 50.6512V37.2754H97.7285V50.785C97.7285 56.2691 100.905 59.9808 107.393 59.9808Z" fill="white"/>
<path d="M120.252 68.3407C124.566 68.3407 127.776 65.9665 127.776 60.8837V37.2754H123.864V60.8168C123.864 63.2579 122.359 64.863 119.951 64.863C118.246 64.863 117.042 63.9936 116.139 63.0238L114.334 66C115.905 67.6719 117.945 68.3407 120.252 68.3407Z" fill="white"/>
<path d="M138.527 59.5796V37.2754H134.615V59.5796H138.527Z" fill="white"/>
<path d="M155.164 37.2754C159.579 37.2754 162.454 40.1512 162.454 44.2643C162.454 48.2436 159.846 50.3837 157.171 50.8184L162.622 59.5796H158.107L153.158 51.2531H149.279V59.5796H145.367V37.2754H155.164ZM154.629 40.7197H149.279V47.8088H154.629C156.836 47.8088 158.442 46.4044 158.442 44.2643C158.442 42.1241 156.836 40.7197 154.629 40.7197Z" fill="white"/>
<path d="M179.758 37.2754L188.519 59.5796H184.071L182.433 55.2993H172.2L170.562 59.5796H166.114L174.876 37.2754H179.758ZM177.317 41.2213L173.304 51.855H181.329L177.317 41.2213Z" fill="white"/>
<path d="M211.025 31.8901C220.175 31.8901 227.593 39.308 227.593 48.4583C227.593 57.6087 220.175 65.0265 211.025 65.0265C201.874 65.0265 194.456 57.6087 194.456 48.4583C194.456 39.308 201.874 31.8901 211.025 31.8901ZM211.025 33.547C202.789 33.547 196.113 40.223 196.113 48.4583C196.113 56.6936 202.789 63.3697 211.025 63.3697C219.26 63.3697 225.936 56.6936 225.936 48.4583C225.936 40.223 219.26 33.547 211.025 33.547Z" fill="white"/>
<path d="M210.603 43.937H201.49V45.5938H210.603V43.937Z" fill="white"/>
<path d="M220.541 43.937H212.257V45.5938H220.541V43.937Z" fill="white"/>
<path d="M220.541 41.0376H212.257V42.6944H220.541V41.0376Z" fill="white"/>
<path d="M208.529 41.0376H203.144V42.6944H208.529V41.0376Z" fill="white"/>
<path d="M217.601 41.0657L214.965 38.4297L213.794 39.6012L216.43 42.2372L217.601 41.0657Z" fill="white"/>
<path d="M206.629 45.4048L208.53 42.6904L207.173 41.7401L205.272 44.4545L206.629 45.4048Z" fill="white"/>
<path d="M200.788 46.1008L205.777 38.9756L204.42 38.0253L199.431 45.1505L200.788 46.1008Z" fill="white"/>
<path d="M212.931 56.2985L214.507 52.9199L213.005 52.2197L211.43 55.5983L212.931 56.2985Z" fill="white"/>
<path d="M220.334 57.8001L218.059 52.9199L219.56 52.2197L221.836 57.0999L220.334 57.8001Z" fill="white"/>
<path d="M220.541 49.3198H212.257V50.9766H220.541V49.3198Z" fill="white"/>
<path d="M217.23 56.7754H213.503V58.4322H217.23V56.7754Z" fill="white"/>
<path d="M210.188 50.9785H201.904V52.6353H210.188V50.9785Z" fill="white"/>
<path d="M209.773 47.6631H202.317V48.9057H209.773V47.6631Z" fill="white"/>
<path d="M203.147 45.1797H201.49V52.6354H203.147V45.1797Z" fill="white"/>
<path d="M206.874 45.1797H205.217V52.6354H206.874V45.1797Z" fill="white"/>
<path d="M213.914 45.1797H212.257V49.7359H213.914V45.1797Z" fill="white"/>
<path d="M217.229 50.1499H215.573V58.434H217.229V50.1499Z" fill="white"/>
<path d="M203.147 53.876H201.49V57.6038H203.147V53.876Z" fill="white"/>
<path d="M205.631 53.876H203.974V57.6038H205.631V53.876Z" fill="white"/>
<path d="M208.117 53.876H206.46V57.6038H208.117V53.876Z" fill="white"/>
<path d="M210.603 53.876H208.946V55.5328H210.603V53.876Z" fill="white"/>
<path d="M220.543 45.1797H218.886V49.7359H220.543V45.1797Z" fill="white"/>
<path d="M210.603 45.1797H208.946V52.6354H210.603V45.1797Z" fill="white"/>
</g>
<defs>
<clipPath id="clip0_491_8569">
<rect width="151.185" height="36.45" fill="white" transform="translate(76.4077 31.8901)"/>
</clipPath>
</defs>
</svg>
