<svg width="292" height="101" viewBox="0 0 292 101" fill="none" xmlns="http://www.w3.org/2000/svg">
<rect y="0.115234" width="292" height="100" rx="8" fill="#202020"/>
<g clip-path="url(#clip0_504_3994)">
<path d="M121.257 46.2625H124.632L125.086 48.652C126.828 46.645 129.294 45.772 131.832 45.772C137.025 45.772 140.17 49.336 140.17 54.907V66.049H135.85V55.321C135.85 51.874 134.032 49.7095 131.035 49.7095C127.813 49.7095 125.577 52.171 125.577 56.0005V66.0445H121.257V46.2625Z" fill="white"/>
<path d="M144.228 56.155C144.228 50.089 148.661 45.769 154.956 45.769C161.252 45.769 165.644 50.089 165.644 56.155C165.644 62.221 161.211 66.541 154.956 66.541C148.701 66.541 144.228 62.257 144.228 56.155ZM154.952 62.599C158.705 62.599 161.355 59.944 161.355 56.155C161.355 52.366 158.7 49.711 154.952 49.711C151.203 49.711 148.508 52.366 148.508 56.155C148.508 59.944 151.163 62.599 154.952 62.599Z" fill="white"/>
<path d="M170.113 38H174.433V66.0485H170.113V38Z" fill="white"/>
<path d="M179.966 57.4047V46.2627H184.286V56.9907C184.286 60.4377 186.068 62.6022 189.024 62.6022C192.21 62.6022 194.406 60.1407 194.406 56.3112V46.2672H198.726V66.0537H195.351L194.861 63.6642C193.191 65.6712 190.73 66.5442 188.228 66.5442C183.035 66.5442 179.966 62.9802 179.966 57.4092V57.4047Z" fill="white"/>
<path d="M203.238 59.755H207.481C207.558 61.762 209.263 62.977 212.107 62.977C214.609 62.977 216.085 62.104 216.085 60.628C216.085 59.152 214.533 58.1665 211.045 57.559C205.965 56.7265 203.616 54.7915 203.616 51.5695C203.616 47.893 206.536 45.769 211.536 45.769C216.535 45.769 219.721 48.082 219.987 52.1005H215.743C215.59 50.2825 214.074 49.2565 211.536 49.2565C209.223 49.2565 207.859 50.1295 207.859 51.6055C207.859 53.0815 209.034 53.689 212.823 54.4495C217.786 55.399 220.329 57.5185 220.329 60.7045C220.329 64.2685 217.107 66.541 212.067 66.541C206.761 66.541 203.238 63.85 203.238 59.755Z" fill="white"/>
<path d="M83.1123 46.5354C83.1123 45.015 84.3448 43.7825 85.8652 43.7825H97.7947C99.3151 43.7825 100.548 45.015 100.548 46.5354V58.4648C100.548 59.9852 99.3151 61.2178 97.7947 61.2178H85.8652C84.3448 61.2178 83.1123 59.9852 83.1123 58.4648V46.5354Z" fill="white"/>
<path fill-rule="evenodd" clip-rule="evenodd" d="M91.83 69.7059C101.333 69.7059 109.036 62.0025 109.036 52.5C109.036 42.9975 101.333 35.2941 91.83 35.2941C82.3274 35.2941 74.6241 42.9975 74.6241 52.5C74.6241 62.0025 82.3274 69.7059 91.83 69.7059ZM91.83 72C102.6 72 111.33 63.2696 111.33 52.5C111.33 41.7304 102.6 33 91.83 33C81.0604 33 72.33 41.7304 72.33 52.5C72.33 63.2696 81.0604 72 91.83 72Z" fill="white"/>
</g>
<defs>
<clipPath id="clip0_504_3994">
<rect width="148.658" height="39.6585" fill="white" transform="translate(71.6713 32.4568)"/>
</clipPath>
</defs>
</svg>
