<svg width="292" height="101" viewBox="0 0 292 101" fill="none" xmlns="http://www.w3.org/2000/svg">
<rect y="0.115234" width="292" height="100" rx="8" fill="#202020"/>
<path d="M99.1628 52.984C99.1628 47.1325 103.444 42.9209 109.327 42.9209C115.209 42.9209 119.491 47.1325 119.491 52.984C119.491 58.8355 115.209 63.0471 109.327 63.0471C103.482 63.0471 99.1628 58.8355 99.1628 52.984ZM115.246 52.984C115.246 49.3315 112.901 46.5735 109.327 46.5735C105.753 46.5735 103.444 49.3315 103.444 52.984C103.444 56.5993 105.753 59.3946 109.327 59.3946C112.901 59.3573 115.246 56.5993 115.246 52.984Z" fill="white"/>
<path d="M121.091 59.9515L123.325 56.7836C124.703 58.1999 126.825 59.3925 129.505 59.3925C131.776 59.3925 132.893 58.3489 132.893 57.2308C132.893 53.8019 121.687 56.15 121.687 48.8076C121.687 45.5651 124.479 42.8816 129.058 42.8816C132.149 42.8816 134.717 43.8133 136.653 45.6023L134.345 48.6213C132.781 47.1677 130.659 46.4969 128.686 46.4969C126.899 46.4969 125.931 47.2796 125.931 48.4349C125.931 51.5284 137.1 49.4413 137.1 56.709C137.1 60.287 134.569 62.9705 129.319 62.9705C125.596 63.045 122.915 61.7778 121.091 59.9515Z" fill="white"/>
<path d="M156.833 62.709V49.0678L151.359 62.709H149.535L144.063 49.0678V62.709H139.93V43.2163H145.738L150.466 54.9939L155.194 43.2163H161.039V62.6717H156.833V62.709Z" fill="white"/>
<path d="M163.907 52.9821C163.907 47.1305 168.188 42.9189 174.071 42.9189C179.953 42.9189 184.234 47.1305 184.234 52.9821C184.234 58.8336 179.953 63.0452 174.071 63.0452C168.188 63.0452 163.907 58.8336 163.907 52.9821ZM179.99 52.9821C179.99 49.3295 177.645 46.5714 174.071 46.5714C170.496 46.5714 168.188 49.3295 168.188 52.9821C168.188 56.5973 170.496 59.3926 174.071 59.3926C177.645 59.3554 179.99 56.5973 179.99 52.9821Z" fill="white"/>
<path d="M185.835 59.9515L188.069 56.7836C189.447 58.1999 191.569 59.3925 194.249 59.3925C196.52 59.3925 197.638 58.3489 197.638 57.2308C197.638 53.8019 186.431 56.15 186.431 48.8076C186.431 45.5651 189.224 42.8816 193.803 42.8816C196.892 42.8816 199.462 43.8133 201.398 45.6023L199.09 48.6213C197.526 47.1677 195.404 46.4969 193.431 46.4969C191.643 46.4969 190.675 47.2796 190.675 48.4349C190.675 51.5284 201.844 49.4413 201.844 56.709C201.844 60.287 199.313 62.9705 194.063 62.9705C190.34 63.045 187.66 61.7778 185.835 59.9515Z" fill="white"/>
<path d="M204.637 62.709V43.2163H208.807V62.6717H204.637V62.709Z" fill="white"/>
<path d="M211.339 59.9515L213.572 56.7836C214.95 58.1999 217.072 59.3925 219.752 59.3925C222.023 59.3925 223.141 58.3489 223.141 57.2308C223.141 53.8019 211.934 56.15 211.934 48.8076C211.934 45.5651 214.726 42.8816 219.306 42.8816C222.395 42.8816 224.965 43.8133 226.901 45.6023L224.592 48.6213C223.029 47.1677 220.907 46.4969 218.934 46.4969C217.147 46.4969 216.178 47.2796 216.178 48.4349C216.178 51.5284 227.348 49.4413 227.348 56.709C227.348 60.287 224.816 62.9705 219.566 62.9705C215.806 63.045 213.126 61.7778 211.339 59.9515Z" fill="white"/>
<path fill-rule="evenodd" clip-rule="evenodd" d="M87.4143 30.7963C89.9663 32.6892 91.3842 34.3896 91.8251 36.09C92.1088 37.0525 91.8567 38.2075 91.2266 39.0738C90.5965 39.9401 89.5883 40.4213 88.4225 40.4213C87.9814 40.4213 87.5403 40.3571 87.0992 40.2288C86.8379 40.9703 86.6207 41.7005 86.4675 42.3928C88.3993 45.3828 89.525 48.9606 89.525 52.8055C89.525 63.2969 81.1758 71.799 70.8733 71.799C60.5706 71.799 52.2214 63.2969 52.2214 52.8055C52.2214 42.3143 60.5706 33.8121 70.8733 33.8121C73.1513 33.8121 75.3362 34.2304 77.3575 34.9957C77.5834 34.8813 77.836 34.7463 78.1146 34.5874C78.3016 34.4782 78.5033 34.3585 78.7176 34.2277C78.529 33.9394 78.3717 33.6192 78.246 33.363C77.8994 32.5288 78.0254 31.1492 78.561 30.1225C79.0021 29.2563 79.6953 28.6788 80.4829 28.5184C80.798 28.4542 81.113 28.4221 81.4596 28.4221C83.1924 28.4221 85.3664 29.2884 87.4143 30.7963ZM78.4699 35.4593L78.492 35.4458L78.4979 35.4483C79.5061 34.9029 80.9554 33.9725 82.6252 32.625C83.2554 32.8817 84.0745 33.3309 85.0827 34.0047C86.28 34.8067 87.3197 35.7051 87.9813 36.4109C86.8806 37.884 86.1565 39.9008 85.7152 41.3121C83.8291 38.7928 81.3397 36.7673 78.4699 35.4593ZM77.8144 36.3147C75.6851 35.3854 73.3387 34.8709 70.8733 34.8709C61.1377 34.8709 53.2612 42.8918 53.2612 52.8055C53.2612 62.7194 61.1377 70.7402 70.8733 70.7402C80.5773 70.7402 88.4853 62.7194 88.4853 52.8055C88.4853 49.6073 87.6657 46.6062 86.2282 44.0077L86.2171 44.143C84.2763 40.7119 81.3439 37.9617 77.8144 36.3147ZM79.8211 33.5234C79.7185 33.5919 79.6175 33.6585 79.5184 33.7231C79.3274 33.4475 79.1834 33.2045 79.0966 33.0101C78.7184 32.1118 79.1595 29.7697 80.6719 29.4489C82.1842 29.128 84.5472 29.8339 86.8786 31.5664C89.2101 33.2989 90.5334 34.8389 90.9429 36.3468C91.3155 37.8324 90.1895 40.0344 87.4142 39.332C87.4453 39.2567 87.4767 39.1813 87.5087 39.1059C87.6348 39.138 87.7923 39.138 87.9498 39.138C88.3279 39.138 88.769 39.0738 89.1156 38.785C89.3677 38.5925 89.6512 38.2396 89.6196 37.5979C89.6196 36.9884 89.1471 36.2184 88.1704 35.288C87.4773 34.6142 86.532 33.8762 85.5869 33.2025C82.8773 31.3738 80.9869 30.8604 80.1363 31.7267C79.5692 32.3042 79.6321 33.01 79.8211 33.5234ZM88.58 37.2129C88.6745 37.3734 88.706 37.5338 88.706 37.63C88.706 37.9186 88.6117 38.0149 88.5487 38.0791C88.4226 38.1753 88.1703 38.2396 87.9498 38.2396C88.1387 37.8552 88.3589 37.5347 88.5791 37.2143L88.58 37.2129ZM80.7979 32.4325C80.8924 32.3363 81.1445 32.2721 81.5541 32.3363C81.239 32.5929 80.924 32.8175 80.6088 33.0421C80.5774 32.8175 80.6088 32.5929 80.7979 32.4325Z" fill="white"/>
<path d="M76.3553 44.7208C77.9214 44.7208 79.1909 43.4281 79.1909 41.8333C79.1909 40.2386 77.9214 38.9458 76.3553 38.9458C74.7893 38.9458 73.5198 40.2386 73.5198 41.8333C73.5198 43.4281 74.7893 44.7208 76.3553 44.7208Z" fill="white"/>
<path d="M80.987 46.8702C81.6483 46.8702 82.1842 46.3244 82.1842 45.651C82.1842 44.9777 81.6483 44.4319 80.987 44.4319C80.3258 44.4319 79.7898 44.9777 79.7898 45.651C79.7898 46.3244 80.3258 46.8702 80.987 46.8702Z" fill="white"/>
<path fill-rule="evenodd" clip-rule="evenodd" d="M54.4343 55.9792C54.4676 56.0163 54.5013 56.0531 54.5354 56.0895C55.4388 57.0565 56.7172 57.9208 58.2777 58.604C61.4041 59.9728 65.7823 60.668 70.962 59.9217L70.9635 59.9215C74.826 59.3596 77.3884 58.3368 79.6092 57.4505C80.3781 57.1437 81.1061 56.853 81.8329 56.6036C82.5997 56.346 83.3492 56.1523 84.064 55.9766C84.185 55.9469 84.306 55.9174 84.4269 55.888C85.0025 55.7479 85.5697 55.6101 86.0627 55.4575C86.5382 55.3102 87.036 55.124 87.4643 54.8494C86.4009 63.2107 79.3714 69.6815 70.8735 69.6815C62.7624 69.6815 55.9648 63.7865 54.4343 55.9792ZM70.5918 65.2863C70.5918 65.7823 70.1969 66.1845 69.7097 66.1845C69.2225 66.1845 68.8275 65.7823 68.8275 65.2863C68.8275 64.7901 69.2225 64.3879 69.7097 64.3879C70.1969 64.3879 70.5918 64.7901 70.5918 65.2863ZM74.3097 65.7353C74.7969 65.7353 75.1919 65.3331 75.1919 64.837C75.1919 64.3408 74.7969 63.9386 74.3097 63.9386C73.8226 63.9386 73.4276 64.3408 73.4276 64.837C73.4276 65.3331 73.8226 65.7353 74.3097 65.7353ZM72.7007 67.147C72.7007 67.5191 72.4045 67.8207 72.0391 67.8207C71.6736 67.8207 71.3774 67.5191 71.3774 67.147C71.3774 66.7749 71.6736 66.4732 72.0391 66.4732C72.4045 66.4732 72.7007 66.7749 72.7007 67.147ZM76.1036 67.3394C76.469 67.3394 76.7652 67.0378 76.7652 66.6657C76.7652 66.2936 76.469 65.992 76.1036 65.992C75.7382 65.992 75.442 66.2936 75.442 66.6657C75.442 67.0378 75.7382 67.3394 76.1036 67.3394ZM67.4077 64.3879C67.4077 65.2029 66.7588 65.8638 65.9584 65.8638C65.1579 65.8638 64.5091 65.2029 64.5091 64.3879C64.5091 63.5728 65.1579 62.912 65.9584 62.912C66.7588 62.912 67.4077 63.5728 67.4077 64.3879ZM78.9084 62.2382C79.7087 62.2382 80.3577 61.5775 80.3577 60.7623C80.3577 59.9473 79.7087 59.2866 78.9084 59.2866C78.1079 59.2866 77.4591 59.9473 77.4591 60.7623C77.4591 61.5775 78.1079 62.2382 78.9084 62.2382Z" fill="white"/>
<path d="M87.5719 52.8055C87.5719 50.8484 84.2322 49.7255 79.7898 49.3405C76.5762 49.0838 73.331 49.4046 69.6132 50.5597C66.3995 51.5221 63.5009 51.3617 61.39 51.1051C56.6956 50.5597 54.1121 50.4954 54.1121 52.8055C54.1121 56.1422 60.7914 60.3131 70.8105 58.8693C75.883 58.1314 78.4981 56.6235 81.4912 55.5968C84.7363 54.5059 87.5719 54.538 87.5719 52.8055Z" fill="white"/>
</svg>
