<svg width="292" height="101" viewBox="0 0 292 101" fill="none" xmlns="http://www.w3.org/2000/svg">
<rect y="0.115234" width="292" height="100" rx="8" fill="#202020"/>
<g clip-path="url(#clip0_504_4088)">
<path d="M142.281 55.1332V43.5767H146.245V53.9134C146.245 56.4741 147.496 57.8777 149.781 57.8777C152.952 57.8777 154.721 55.1332 154.721 51.2294V43.5767H158.685V61.0483H154.721V58.3643C153.257 60.2859 151.122 61.4137 148.622 61.4137C144.75 61.4137 142.279 58.7006 142.279 55.1332H142.281Z" fill="white"/>
<path d="M161.428 56.232C161.428 53.0614 163.807 51.1084 168.715 50.346L173.045 49.6756V49.3393C173.045 47.6307 171.794 46.7181 169.63 46.7181C167.282 46.7181 165.758 47.8145 165.269 49.8886L162.036 47.5701C163.408 44.6731 166.029 43.209 169.78 43.209C174.323 43.209 176.855 45.3436 176.855 49.1846V57.2656C176.855 58.759 177.007 60.0415 177.251 61.0461H173.318C173.166 60.4362 173.105 59.7658 173.045 58.6984C171.551 60.5572 169.722 61.4116 167.374 61.4116C163.838 61.4116 161.428 59.4003 161.428 56.2275V56.232ZM173.045 53.243V52.9067L169.935 53.3955C166.672 53.9135 165.453 54.6467 165.453 56.0481C165.453 57.3284 166.488 58.0908 168.166 58.0908C170.605 58.0908 173.045 56.5055 173.045 53.243Z" fill="white"/>
<path d="M179.234 56.4137L182.77 54.7678C183.014 56.6895 184.996 58.0909 187.252 58.0909C189.021 58.0909 190.301 57.268 190.301 56.1693C190.301 54.7678 188.167 54.371 185.85 53.7297C183.106 52.9987 180.117 51.9314 180.117 48.5165C180.117 45.3145 182.801 43.3032 186.886 43.3032C190.485 43.3032 193.259 45.0724 194.081 47.6644L190.393 49.3102C190.272 47.7541 188.869 46.6262 186.794 46.6262C185.301 46.6262 184.081 47.2361 184.081 48.2429C184.081 49.6152 186.398 49.9515 188.808 50.6219C191.492 51.3529 194.297 52.4808 194.297 55.8666C194.297 59.2523 191.461 61.4161 187.254 61.4161C183.048 61.4161 180.272 59.6178 179.236 56.4159L179.234 56.4137Z" fill="white"/>
<path d="M196.125 56.232C196.125 53.0614 198.503 51.1084 203.412 50.346L207.741 49.6756V49.3393C207.741 47.6307 206.49 46.7181 204.327 46.7181C201.979 46.7181 200.454 47.8145 199.965 49.8886L196.732 47.5701C198.104 44.6731 200.725 43.209 204.477 43.209C209.02 43.209 211.551 45.3436 211.551 49.1846V57.2656C211.551 58.759 211.704 60.0415 211.948 61.0461H208.015C207.862 60.4362 207.802 59.7658 207.741 58.6984C206.248 60.5572 204.419 61.4116 202.071 61.4116C198.535 61.4116 196.125 59.4003 196.125 56.2275V56.232ZM207.741 53.243V52.9067L204.632 53.3955C201.369 53.9135 200.149 54.6467 200.149 56.0481C200.149 57.3284 201.185 58.0908 202.862 58.0908C205.302 58.0908 207.741 56.5055 207.741 53.243Z" fill="white"/>
<path d="M219.419 61.048H215.455V43.5764H219.419V46.2604C220.579 44.3702 222.316 43.2109 224.298 43.2109C225.884 43.2109 227.287 43.9419 227.897 44.8568L226.128 48.2112C225.671 47.5093 224.756 46.9914 223.628 46.9914C221.401 46.9914 219.419 48.9421 219.419 54.0657V61.048Z" fill="white"/>
<path d="M134.759 61.0033L141.965 61.0481L136.996 57.1914C138.608 55.2519 139.532 52.6845 139.532 49.736C139.53 43.1774 134.796 38.509 128.388 38.4283V38.4238C128.359 38.4238 128.332 38.4238 128.303 38.4238C128.274 38.4238 128.247 38.4238 128.218 38.4238V38.4283C121.809 38.509 117.076 43.1774 117.076 49.736C117.076 56.2946 121.632 60.9652 128.218 61.0436V61.0481C128.247 61.0481 128.274 61.0481 128.303 61.0481C128.332 61.0481 128.359 61.0481 128.388 61.0481V61.0436C130.409 61.019 132.24 60.5638 133.806 59.7543L134.759 61.0033ZM128.305 57.1444C124.355 57.1018 121.5 54.1263 121.5 49.736C121.5 45.3457 124.357 42.3702 128.305 42.3276C132.256 42.3702 135.11 45.3457 135.11 49.736C135.11 51.2002 134.377 53.5881 133.806 54.6801L126.372 49.9938L131.301 56.4627C130.411 56.8932 129.399 57.1287 128.303 57.1421L128.305 57.1444Z" fill="white"/>
<mask id="mask0_504_4088" style="mask-type:luminance" maskUnits="userSpaceOnUse" x="76" y="32" width="36" height="36">
<path d="M111.895 32.1152H76.1031V67.9072H111.895V32.1152Z" fill="white"/>
</mask>
<g mask="url(#mask0_504_4088)">
<path d="M93.0839 49.5602L76.1031 41.186V59.9505C76.1031 64.3449 79.6656 67.9073 84.06 67.9073H102.824L93.2164 49.689C93.187 49.633 93.1406 49.5881 93.0839 49.5602Z" fill="white"/>
<path d="M103.938 32.1152H85.1738L94.9124 50.3987C94.9419 50.4543 94.9882 50.4988 95.0445 50.5267L111.895 58.8365V40.0721C111.895 35.6776 108.333 32.1152 103.938 32.1152Z" fill="white"/>
</g>
</g>
<defs>
<clipPath id="clip0_504_4088">
<rect width="151.794" height="36" fill="white" transform="translate(76.1031 32.1152)"/>
</clipPath>
</defs>
</svg>
