<svg width="292" height="101" viewBox="0 0 292 101" fill="none" xmlns="http://www.w3.org/2000/svg">
<rect y="0.115234" width="292" height="100" rx="8" fill="#202020"/>
<path d="M89.8984 52.5754L104.827 50.1151L89.8984 47.6548L98.7179 35.3742L86.4373 44.1937L83.977 29.2651L81.5167 44.1937L69.236 35.3742L78.0347 47.6548L63.127 50.1151L78.0347 52.5754L69.236 64.8561L81.5167 56.0574L83.977 70.9651L86.4373 56.0574L98.7179 64.8561L89.8984 52.5754Z" fill="white"/>
<path d="M166.314 42.8594C164.938 42.1713 163.353 41.8169 161.581 41.8169H154.304V49.1978H157.411V44.444H161.456C162.665 44.444 163.749 44.6733 164.687 45.1529C165.626 45.6324 166.334 46.2788 166.835 47.1545C167.335 48.0093 167.585 49.0101 167.585 50.1569C167.585 51.3036 167.335 52.3044 166.835 53.1593C166.334 54.0141 165.626 54.6813 164.687 55.1609C163.749 55.6196 162.686 55.8698 161.456 55.8698H157.411V51.0951H154.325V58.4552H161.581C163.353 58.4552 164.938 58.1216 166.314 57.4127C167.69 56.7246 168.753 55.7447 169.525 54.4937C170.296 53.2427 170.671 51.7832 170.671 50.136C170.671 48.4889 170.296 47.0294 169.525 45.7784C168.774 44.5065 167.69 43.5474 166.314 42.8594ZM139.021 41.8169L131.536 58.4552H134.726L136.373 54.5979H144.692L146.36 58.4552H149.592L142.086 41.8169H139.021ZM137.416 52.1793L140.522 44.9027L143.65 52.1793H137.416ZM126.177 50.97C126.782 50.0735 127.095 48.9893 127.095 47.7383C127.095 46.5081 126.803 45.4656 126.24 44.5691C125.677 43.6725 124.843 43.0053 123.78 42.5258C122.716 42.0462 121.465 41.8169 120.006 41.8169H113.167V49.1978H116.253V44.444H119.86C121.215 44.444 122.237 44.7359 122.925 45.2988C123.613 45.8618 123.967 46.6749 123.967 47.7383C123.967 48.8016 123.613 49.6148 122.925 50.1986C122.216 50.7824 121.215 51.0743 119.86 51.0743H113.167V58.4552H116.253V53.5971H120.006C120.298 53.5971 120.506 53.5971 120.652 53.5763L124.051 58.4552H127.387L123.55 52.9925C124.697 52.5338 125.573 51.8666 126.177 50.97ZM176.509 58.4552H179.595V41.8169H176.509V58.4552ZM191.834 41.8169L184.349 58.4552H187.539L189.186 54.5979H197.505L199.173 58.4552H202.405L194.899 41.8169H191.834ZM190.208 52.1793L193.314 44.9027L196.442 52.1793H190.208ZM226.737 41.8169V44.4231H232.262V58.4552H235.348V44.4231H240.873V41.8169H226.737ZM218.835 53.0759L209.661 41.8169H207.117V58.4552H210.182V47.1962L219.356 58.4552H221.9V41.8169H218.835V53.0759Z" fill="white"/>
</svg>
