<svg width="292" height="101" viewBox="0 0 292 101" fill="none" xmlns="http://www.w3.org/2000/svg">
<rect y="0.115234" width="292" height="100" rx="8" fill="#202020"/>
<g clip-path="url(#clip0_504_4010)">
<path d="M128.473 32.1727C136.562 32.1727 143.424 37.5659 145.651 44.9367C146.52 45.476 147.369 46.0353 148.168 46.6146C146.51 37.2563 138.31 30.1152 128.473 30.1152C119.214 30.1152 111.404 36.4473 109.137 45.0066C109.686 45.476 110.285 45.9454 110.924 46.4149C112.632 38.295 119.853 32.1727 128.473 32.1727Z" fill="white"/>
<path d="M146.021 53.8152C144.313 61.9351 137.092 68.0474 128.473 68.0474C120.383 68.0474 113.521 62.6542 111.294 55.2834C110.425 54.744 109.576 54.1847 108.777 53.6055C110.435 62.9738 118.635 70.1148 128.473 70.1148C137.731 70.1148 145.541 63.7827 147.809 55.2234C147.259 54.754 146.66 54.2846 146.021 53.8152Z" fill="white"/>
<path d="M147.778 64.1026C151.283 64.1026 153.68 62.8741 154.539 60.6369C155.708 57.6007 153.7 54.4047 151.803 52.2574C149.386 49.5208 145.62 46.7743 141.475 44.7368C134.484 41.3011 127.783 40.3523 124.397 42.3198C123.997 42.5495 123.698 42.949 123.568 43.4284C123.428 43.9078 123.468 44.4272 123.678 44.8766C123.887 45.3261 124.227 45.6656 124.657 45.8155C125.086 45.9753 125.535 45.9253 125.935 45.6956C128.002 44.4971 133.545 44.9765 140.137 48.2125C140.647 48.4621 141.156 48.7318 141.655 49.0015C144.891 50.6594 147.788 52.6569 149.815 54.6145C153.181 57.8704 153.261 60.1775 152.741 61.5458C152.142 63.1038 150.105 63.8929 146.689 63.8929C146.04 63.8929 145.341 63.8629 144.602 63.803C145.72 64.0027 146.779 64.1026 147.778 64.1026Z" fill="white"/>
<path d="M109.167 36.1274C105.661 36.1274 103.264 37.3559 102.405 39.5931C101.237 42.6293 103.244 45.8253 105.142 47.9726C107.559 50.7092 111.324 53.4558 115.469 55.4932C122.46 58.9289 129.162 59.8778 132.547 57.9102C132.947 57.6805 133.247 57.281 133.376 56.8016C133.516 56.3222 133.476 55.8028 133.267 55.3534C133.057 54.904 132.717 54.5644 132.288 54.4146C131.858 54.2548 131.409 54.3047 131.009 54.5344C128.942 55.7329 123.399 55.2535 116.807 52.0176C116.298 51.7679 115.788 51.4982 115.289 51.2286C112.053 49.5706 109.157 47.5731 107.129 45.6156C103.763 42.3597 103.684 40.0525 104.203 38.6842C104.802 37.1262 106.84 36.3372 110.255 36.3372C110.905 36.3372 111.604 36.3671 112.343 36.4271C111.224 36.2173 110.165 36.1274 109.167 36.1274Z" fill="white"/>
<path d="M170.34 54.3345C170.82 54.3345 171.289 54.1647 171.738 53.8251C172.188 53.4855 172.478 53.076 172.627 52.5966C172.777 52.1172 172.727 51.6978 172.498 51.3582C172.258 51.0186 171.898 50.8488 171.419 50.8488H169.451C168.572 50.8488 167.923 50.5392 167.494 49.91C167.054 49.2908 166.974 48.5417 167.244 47.6528C167.514 46.7739 168.053 46.0249 168.872 45.4056C169.681 44.7764 170.53 44.4668 171.409 44.4668H173.376C174.255 44.4668 174.915 44.7764 175.344 45.4056C175.783 46.0249 175.863 46.7739 175.594 47.6528C175.534 47.8526 175.414 48.0224 175.224 48.1622C175.034 48.302 174.845 48.3719 174.645 48.3719C174.445 48.3719 174.295 48.302 174.205 48.1622C174.106 48.0224 174.086 47.8526 174.145 47.6528C174.295 47.1734 174.245 46.7639 174.006 46.4244C173.766 46.0848 173.406 45.915 172.927 45.915H170.959C170.48 45.915 170.021 46.0848 169.571 46.4244C169.122 46.7639 168.832 47.1734 168.682 47.6528C168.532 48.1322 168.582 48.5517 168.812 48.8913C169.052 49.2308 169.411 49.4006 169.891 49.4006H171.858C172.737 49.4006 173.396 49.7102 173.826 50.3395C174.265 50.9587 174.345 51.7077 174.076 52.5966C173.806 53.4755 173.267 54.2246 172.448 54.8438C171.629 55.473 170.78 55.7827 169.901 55.7827H167.933C167.054 55.7827 166.405 55.473 165.976 54.8438C165.536 54.2246 165.456 53.4755 165.726 52.5966C165.786 52.3969 165.906 52.2271 166.096 52.0873C166.275 51.9474 166.465 51.8775 166.665 51.8775C166.865 51.8775 167.014 51.9474 167.114 52.0873C167.214 52.2271 167.234 52.3969 167.174 52.5966C167.024 53.076 167.074 53.4855 167.314 53.8251C167.554 54.1647 167.913 54.3345 168.393 54.3345H170.34Z" fill="white"/>
<path d="M179.199 45.1757C179.259 44.986 179.378 44.8162 179.568 44.6664C179.748 44.5265 179.938 44.4566 180.137 44.4566C180.337 44.4566 180.487 44.5265 180.587 44.6664C180.687 44.8062 180.707 44.976 180.647 45.1757L179.318 49.5203L186.19 44.6464C186.38 44.5066 186.569 44.4466 186.769 44.4566C186.959 44.4666 187.099 44.5465 187.199 44.6963C187.289 44.8461 187.289 45.0159 187.219 45.2157C187.149 45.4154 187.019 45.5852 186.829 45.7151L181.176 49.73L184.172 54.574C184.262 54.7238 184.272 54.8936 184.202 55.0833C184.132 55.2831 184.013 55.4529 183.823 55.5927C183.643 55.7226 183.463 55.7825 183.274 55.7825C183.064 55.7825 182.914 55.7026 182.814 55.5528L179.818 50.6888L178.729 51.4579L177.631 55.0534C177.571 55.2531 177.451 55.4229 177.261 55.5627C177.071 55.7026 176.882 55.7725 176.682 55.7725C176.482 55.7725 176.332 55.7026 176.242 55.5627C176.142 55.4229 176.122 55.2531 176.182 55.0534L179.199 45.1757Z" fill="white"/>
<path d="M187.588 55.7726C187.388 55.7726 187.238 55.7027 187.149 55.5629C187.049 55.4231 187.029 55.2533 187.089 55.0535L190.115 45.1659C190.175 44.9761 190.295 44.8063 190.484 44.6565C190.664 44.5167 190.854 44.4468 191.054 44.4468C191.253 44.4468 191.403 44.5167 191.503 44.6565C191.603 44.7963 191.623 44.9661 191.563 45.1659L188.537 55.0535C188.477 55.2533 188.357 55.4231 188.167 55.5629C187.978 55.7027 187.788 55.7726 187.588 55.7726Z" fill="white"/>
<path d="M194.92 45.8952C194.72 45.8952 194.57 45.8253 194.48 45.6855C194.38 45.5457 194.36 45.3759 194.42 45.1761C194.48 44.9864 194.6 44.8166 194.79 44.6668C194.97 44.5269 195.159 44.457 195.359 44.457H199.184C200.203 44.457 200.962 44.8166 201.462 45.5357C201.961 46.2648 202.061 47.1337 201.751 48.1424C201.442 49.1612 200.812 50.0301 199.864 50.7492C198.925 51.4683 197.946 51.8278 196.927 51.8278H193.831L192.842 55.0438C192.782 55.2435 192.663 55.4133 192.473 55.5532C192.283 55.693 192.093 55.7629 191.894 55.7629C191.694 55.7629 191.544 55.693 191.454 55.5532C191.354 55.4133 191.334 55.2435 191.394 55.0438L192.603 51.1087C192.663 50.909 192.782 50.7392 192.972 50.5994C193.152 50.4595 193.342 50.3896 193.541 50.3896H197.367C197.986 50.3896 198.585 50.1699 199.154 49.7304C199.734 49.291 200.113 48.7616 200.303 48.1324C200.493 47.5132 200.433 46.9839 200.123 46.5344C199.824 46.095 199.354 45.8753 198.735 45.8753H194.92V45.8952Z" fill="white"/>
</g>
<defs>
<clipPath id="clip0_504_4010">
<rect width="99.8752" height="40" fill="white" transform="translate(102.062 30.1152)"/>
</clipPath>
</defs>
</svg>
