<svg width="292" height="101" viewBox="0 0 292 101" fill="none" xmlns="http://www.w3.org/2000/svg">
<rect y="0.115234" width="292" height="100" rx="8" fill="#202020"/>
<path d="M135.841 41.0737H131.184L124.819 54.0458L118.485 41.0737H113.828L122.801 58.8837H126.868L135.841 41.0737Z" fill="white"/>
<path d="M158.77 55.6141H147.19V51.5736H157.808V48.3572H147.19V44.3433H158.708V41.0737H142.967V58.8837H158.77V55.6141Z" fill="white"/>
<path d="M186.583 41.0737H182.36V52.823L170.841 41.0737H167.302V58.8837H171.524V47.4534L183.043 58.8837H186.583V41.0737Z" fill="white"/>
<path d="M213.493 41.0737H209.271V50.9091C209.271 52.3977 208.836 53.5939 207.967 54.4976C207.097 55.4014 205.949 55.8268 204.551 55.8268C203.061 55.8268 201.85 55.4014 200.95 54.4976C200.049 53.5939 199.615 52.3977 199.615 50.9091V41.0737H195.392V50.9091C195.392 53.4078 196.23 55.428 197.907 56.9698C199.584 58.5115 201.788 59.2824 204.551 59.2824C207.221 59.2824 209.395 58.5115 211.04 56.9698C212.655 55.428 213.493 53.4078 213.493 50.9091V41.0737Z" fill="white"/>
<path d="M229.947 40.6743C227.525 40.6743 225.6 41.1794 224.171 42.1895C222.743 43.1996 222.029 44.5021 222.029 46.097C222.029 48.8616 223.83 50.5628 227.494 51.2008L231.902 51.9185C232.772 52.078 233.393 52.3173 233.765 52.6096C234.138 52.9286 234.324 53.3274 234.324 53.859C234.324 54.5235 233.983 55.0552 233.362 55.4805C232.71 55.9058 231.809 56.1185 230.63 56.1185C228.053 56.1185 226.5 55.1615 225.972 53.221L221.533 53.9919C221.781 55.6932 222.712 57.0223 224.327 57.926C225.941 58.8298 227.928 59.2817 230.226 59.2817C232.71 59.2817 234.697 58.7767 236.218 57.7666C237.708 56.7564 238.485 55.4008 238.485 53.6729C238.485 52.3173 237.988 51.2008 237.025 50.3502C236.063 49.4995 234.728 48.8882 233.02 48.5692L228.549 47.7983C227.152 47.5856 226.469 46.9743 226.469 45.9907C226.469 45.3794 226.78 44.8477 227.4 44.4224C228.022 43.9971 228.829 43.7844 229.853 43.7844C230.909 43.7844 231.809 44.0502 232.585 44.5553C233.331 45.0604 233.796 45.7249 233.952 46.549L238.174 45.8047C237.771 44.2363 236.839 42.987 235.349 42.0566C233.859 41.1528 232.058 40.6743 229.947 40.6743Z" fill="white"/>
<path d="M100.797 40.9625L87.6556 63.8443C87.2449 64.5324 86.6974 65.1174 86.013 65.4959C85.3285 65.9088 84.5414 66.1152 83.7543 66.1152C82.9672 66.1152 82.1801 65.9088 81.4957 65.4959C80.8113 65.083 80.2295 64.5324 79.8531 63.8443L77.5602 59.8529V59.8185C77.5602 59.8185 77.5602 59.7841 77.5944 59.7841H77.6286C77.6286 59.7841 77.6629 59.7841 77.6629 59.8185C78.0735 60.2314 78.5868 60.541 79.1344 60.7131C79.6819 60.8851 80.2637 60.954 80.8455 60.8851C81.4272 60.8163 81.9748 60.6099 82.4539 60.2658C82.933 59.9561 83.3437 59.5088 83.6174 59.0271L94.6026 39.8615C94.8764 39.3453 95.0475 38.7948 95.1159 38.2099C95.1501 37.6249 95.0475 37.04 94.8422 36.4894C94.6026 35.9389 94.2604 35.4572 93.8497 35.0787C93.4048 34.7002 92.8915 34.4249 92.344 34.2529H92.3097V34.2185V34.1841H92.344H96.9981C97.7852 34.1841 98.5723 34.3905 99.2567 34.8034C99.9412 35.2163 100.523 35.7668 100.899 36.455C101.31 37.1432 101.515 37.9346 101.515 38.726C101.378 39.483 101.173 40.24 100.797 40.9625ZM85.2259 34.1152H80.6744H80.6402V34.1496V34.1841C80.6402 34.1841 80.6402 34.1841 80.6744 34.1841C80.9824 34.2873 81.2561 34.4937 81.4957 34.7346C81.7352 34.9755 81.9064 35.2507 82.009 35.5604C82.1117 35.8701 82.1459 36.2142 82.1459 36.5238C82.1117 36.8679 82.009 37.1776 81.8379 37.4529L75.1989 48.9798C75.0278 49.2894 74.7882 49.5303 74.5145 49.7023C74.2407 49.9088 73.9327 50.012 73.5905 50.0808C73.2483 50.1496 72.906 50.1152 72.5981 50.012C72.2901 49.9088 71.9821 49.7367 71.7083 49.5303C71.7083 49.5303 71.6741 49.5303 71.6741 49.4959H71.6398C71.6398 49.4959 71.6398 49.5303 71.6056 49.5303V49.5647L73.9327 53.6249C74.2065 54.0722 74.5829 54.4507 75.0278 54.726C75.4727 55.0013 75.986 55.1389 76.5335 55.1389C77.0469 55.1389 77.5602 55.0013 78.0393 54.726C78.5184 54.4507 78.8606 54.0722 79.1344 53.6249L87.8267 38.6228C88.1005 38.1755 88.2374 37.6593 88.2374 37.1088C88.2374 36.5927 88.1005 36.0765 87.8267 35.5948C87.5529 35.1475 87.1765 34.769 86.7316 34.4937C86.2867 34.2529 85.7734 34.1152 85.2259 34.1152ZM69.4497 34.1152C68.6626 34.1152 67.9097 34.3561 67.2595 34.769C66.6093 35.2163 66.0959 35.8357 65.8222 36.5582C65.5142 37.2808 65.4457 38.0722 65.5826 38.8292C65.7195 39.5862 66.0959 40.3088 66.6435 40.8593C67.191 41.4099 67.9097 41.7884 68.6626 41.926C69.4154 42.0636 70.2025 41.9948 70.9212 41.6851C71.6398 41.3754 72.2558 40.8937 72.7007 40.24C73.1456 39.5862 73.3509 38.8292 73.3509 38.0378C73.3509 37.5217 73.2483 37.0056 73.0429 36.5238C72.8376 36.0421 72.5638 35.5948 72.1874 35.2507C71.811 34.8722 71.4003 34.597 70.9212 34.3905C70.4763 34.2185 69.963 34.1152 69.4497 34.1152Z" fill="white"/>
</svg>
