<svg width="40" height="41" viewBox="0 0 40 41" fill="none" xmlns="http://www.w3.org/2000/svg">
<circle cx="19.5" cy="20" r="19.5" fill="#262626"/>
<g clip-path="url(#clip0_18_8900)">
<path d="M29.2122 13.6387H10.7883C10.1129 13.6387 9.56543 14.1861 9.56543 14.8615V15.4729C9.56543 15.8106 9.83918 16.0843 10.1768 16.0843H29.8236C30.1612 16.0843 30.435 15.8106 30.435 15.4729V14.8615C30.435 14.1861 29.8875 13.6387 29.2122 13.6387Z" fill="#C73238"/>
<path d="M29.2122 27.1307V26.5193C29.2122 25.5063 28.391 24.6851 27.3779 24.6851H12.6225C11.6095 24.6851 10.7883 25.5063 10.7883 26.5193V27.1307C10.1129 27.1307 9.56543 27.6782 9.56543 28.3535V28.965C9.56543 29.3026 9.83918 29.5764 10.1768 29.5764H29.7828C30.1205 29.5764 30.435 29.3026 30.435 28.965V28.3535C30.435 27.6782 29.8875 27.1307 29.2122 27.1307Z" fill="#C73238"/>
<path d="M20.3031 8.78765C20.1156 8.68016 19.884 8.68016 19.6965 8.78765L13.377 12.4163H26.6226L20.3031 8.78765Z" fill="#C73238"/>
<path d="M21.8345 17.3071H18.166V23.462H21.8345V17.3071Z" fill="#C73238"/>
<path d="M27.9895 17.3071H24.2803V23.462H27.9895V17.3071Z" fill="#C73238"/>
<path d="M15.6802 17.3071H12.0117V23.462H15.6802V17.3071Z" fill="#C73238"/>
</g>
<defs>
<clipPath id="clip0_18_8900">
<rect width="20.8696" height="20.8696" fill="white" transform="translate(9.56543 8.70654)"/>
</clipPath>
</defs>
</svg>
