<svg width="44" height="44" viewBox="0 0 44 44" fill="none" xmlns="http://www.w3.org/2000/svg">
<path d="M22 43.9841C34.1503 43.9841 44 34.138 44 21.9921C44 9.84618 34.1503 0 22 0C9.84974 0 0 9.84618 0 21.9921C0 34.138 9.84974 43.9841 22 43.9841Z" fill="black"/>
<path d="M29.5113 9.89648H14.8446V13.1148H29.5113V9.89648Z" fill="#E50913"/>
<path d="M22.2421 34.57C20.8561 34.57 19.6143 34.3421 18.5163 33.8862C17.4184 33.4302 16.5365 32.7555 15.8705 31.862C15.2226 30.9684 14.8806 29.8924 14.8446 28.6341H19.7583C19.8302 29.3453 20.0732 29.8924 20.4872 30.2754C20.9012 30.6401 21.4411 30.8225 22.1071 30.8225C22.791 30.8225 23.3309 30.6674 23.7269 30.3574C24.1229 30.0292 24.3209 29.5824 24.3209 29.0171C24.3209 28.5429 24.1589 28.1509 23.8349 27.8409C23.529 27.5309 23.142 27.2755 22.674 27.075C22.2241 26.8743 21.5761 26.6464 20.7301 26.3911C19.5063 26.0081 18.5073 25.6251 17.7334 25.2422C16.9594 24.8592 16.2935 24.2939 15.7355 23.5462C15.1776 22.7986 14.8986 21.8229 14.8986 20.6193C14.8986 18.8322 15.5375 17.4371 16.8154 16.4342C18.0934 15.4129 19.7583 14.9023 21.8101 14.9023C23.898 14.9023 25.5808 15.4129 26.8587 16.4342C28.1366 17.4371 28.8206 18.8413 28.9105 20.6467H23.9159C23.88 20.0266 23.655 19.5434 23.241 19.1969C22.827 18.8322 22.296 18.6498 21.6481 18.6498C21.0901 18.6498 20.6402 18.8048 20.2982 19.1149C19.9562 19.4066 19.7852 19.8352 19.7852 20.4005C19.7852 21.0205 20.0732 21.5038 20.6492 21.8503C21.2251 22.1968 22.1251 22.5706 23.349 22.9718C24.5729 23.3912 25.5629 23.7925 26.3187 24.1754C27.0927 24.5584 27.7586 25.1146 28.3166 25.844C28.8746 26.5735 29.1535 27.5126 29.1535 28.6615C29.1535 29.7557 28.8746 30.7495 28.3166 31.6431C27.7767 32.5366 26.9847 33.2479 25.9408 33.7768C24.8968 34.3056 23.664 34.57 22.2421 34.57Z" fill="white"/>
</svg>
