<svg width="46" height="47" viewBox="0 0 46 47" fill="none" xmlns="http://www.w3.org/2000/svg">
<g clip-path="url(#clip0_635_590)">
<rect y="0.460938" width="46" height="46" rx="23" fill="white"/>
<path d="M46.5 24.0427V24.0428C46.4987 29.0855 44.9552 34.0019 42.0851 38.1002C39.2148 42.1986 35.1617 45.273 30.4948 46.8884L30.4638 46.8991L30.4317 46.9057C29.7372 47.0481 29.1661 46.9091 28.7703 46.5438C28.3924 46.1951 28.25 45.7089 28.25 45.2958C28.25 45.0279 28.2532 44.5645 28.2575 43.9498C28.2596 43.6464 28.262 43.3061 28.2644 42.9344C28.2716 41.8074 28.2788 40.3863 28.2788 38.8108C28.2788 36.7056 27.5962 35.4424 26.8951 34.8228L26.0546 34.0798L27.169 33.9514C29.6977 33.6601 32.1979 33.0265 34.0662 31.4198C35.9122 29.8323 37.22 27.2241 37.22 22.8047C37.22 20.3364 36.3759 18.3608 34.9887 16.7991L34.7855 16.5704L34.8967 16.2853C35.0939 15.7798 35.8262 13.6154 34.7663 10.6655C34.7569 10.6649 34.7471 10.6643 34.737 10.6638C34.5339 10.6533 34.1996 10.6639 33.7243 10.7657C32.7729 10.9697 31.2524 11.5405 29.0934 13.0452L28.8979 13.1815L28.669 13.1154C26.8762 12.5985 24.968 12.3391 23.0575 12.3391C21.147 12.3391 19.2388 12.5985 17.446 13.1154L17.2184 13.1811L17.0235 13.0465C14.864 11.556 13.3423 10.9842 12.389 10.7764C11.9128 10.6727 11.5775 10.6595 11.3734 10.6682C11.3645 10.6685 11.3557 10.669 11.3473 10.6694C10.2894 13.6173 11.0212 15.7801 11.2183 16.2853L11.3295 16.5704L11.1263 16.7991C9.73969 18.3602 8.895 20.365 8.895 22.8047C8.895 27.2097 10.1959 29.8184 12.0355 31.4097C13.8969 33.0197 16.3899 33.6603 18.9172 33.9514L20.0253 34.0791L19.1927 34.8214C18.635 35.3186 18.0778 36.2334 17.8895 37.6673L17.8538 37.9389L17.6057 38.0551C16.9061 38.3825 15.6544 38.8267 14.2778 38.6969C12.8676 38.564 11.3812 37.8321 10.2654 35.9126C10.0655 35.5855 9.66705 35.023 9.11825 34.5508C8.56557 34.0752 7.90432 33.7275 7.16689 33.7395L7.1664 33.7395C6.95034 33.7428 6.79483 33.7607 6.68684 33.7842C6.73577 33.8437 6.80565 33.9161 6.89934 33.997C7.06186 34.1373 7.25544 34.2687 7.42822 34.3636L7.43611 34.368L7.43607 34.368C7.75153 34.5488 8.04814 34.8329 8.31027 35.1365C8.57702 35.4453 8.83097 35.8013 9.05665 36.1532C9.50474 36.8518 9.86747 37.5755 10.0121 37.9545L10.0149 37.9617L10.0174 37.969C10.2242 38.5652 10.6536 39.4088 11.6666 39.9912C12.6835 40.5758 14.3697 40.9439 17.186 40.4123L17.7788 40.3005V40.9037C17.7788 41.8889 17.7859 42.8451 17.7931 43.6257C17.7953 43.8615 17.7975 44.0819 17.7994 44.2824C17.804 44.7429 17.8075 45.0985 17.8075 45.2958C17.8075 45.7111 17.6636 46.191 17.2843 46.5355C16.891 46.8926 16.3261 47.0315 15.6379 46.908L15.6006 46.9013L15.5648 46.8891C10.8823 45.2911 6.81169 42.2226 3.929 38.1215C1.04648 34.0207 -0.502531 29.0948 -0.499997 24.0427H46.5ZM46.5 24.0427C46.5 10.7495 35.9953 -0.0390625 23 -0.0390625M46.5 24.0427L23 -0.0390625M23 -0.0390625C10.0047 -0.0390625 -0.499862 10.7493 -0.499997 24.0424L23 -0.0390625ZM6.60152 33.6519C6.60154 33.6518 6.6017 33.6523 6.60195 33.6533L6.60152 33.6519Z" fill="black" stroke="black"/>
</g>
<defs>
<clipPath id="clip0_635_590">
<rect y="0.460938" width="46" height="46" rx="23" fill="white"/>
</clipPath>
</defs>
</svg>
