<svg width="208" height="71" viewBox="0 0 208 71" fill="none" xmlns="http://www.w3.org/2000/svg">
<rect x="0.5" y="0.230469" width="207.316" height="70.1153" rx="32.028" fill="#202020"/>
<g clip-path="url(#clip0_641_1415)">
<path d="M88.3446 44.9806H84.5651L83.5021 41.7916H76.4627L75.3997 44.9806H71.6438L77.8328 27.2876H82.1556L88.3446 44.9806ZM79.9824 31.327L77.5493 38.5554H82.3918L79.9824 31.327ZM93.6123 44.9806H90.3525V26.5317H93.6123V44.9806ZM100.274 44.9806H97.0139V26.5317H100.274V44.9806ZM110.715 31.9884C112.108 31.9884 113.242 32.4373 114.116 33.3821C115.014 34.327 115.486 35.579 115.486 37.2325V44.9806H112.226V37.6341C112.226 35.9333 111.234 35.0357 109.723 35.0357C108.022 35.0357 106.935 36.0751 106.935 38.1774V44.9806H103.699V32.3428H106.959V33.7601C107.738 32.579 109.014 31.9884 110.715 31.9884ZM129.471 43.4215C128.171 44.7207 126.589 45.3349 124.723 45.3349C122.856 45.3349 121.274 44.6971 119.975 43.4215C118.675 42.1223 118.061 40.5396 118.061 38.6735C118.061 36.8073 118.699 35.2483 119.975 33.9491C121.274 32.6498 122.856 32.0121 124.723 32.0121C126.589 32.0121 128.171 32.6735 129.471 33.9491C130.77 35.2483 131.408 36.8073 131.408 38.6735C131.408 40.5396 130.77 42.1223 129.471 43.4215ZM122.266 41.1774C122.927 41.8388 123.73 42.1695 124.723 42.1695C125.715 42.1695 126.518 41.8388 127.179 41.1774C127.841 40.516 128.171 39.6892 128.171 38.6735C128.171 37.6577 127.841 36.831 127.179 36.1695C126.518 35.5081 125.715 35.1774 124.723 35.1774C123.73 35.1774 122.927 35.5081 122.266 36.1695C121.628 36.831 121.297 37.6577 121.297 38.6735C121.297 39.6892 121.652 40.516 122.266 41.1774ZM143.715 33.8546V27.3113H146.975V44.9806H143.715V43.4924C142.746 44.7207 141.4 45.3349 139.628 45.3349C137.927 45.3349 136.463 44.6971 135.258 43.4215C134.077 42.1223 133.463 40.5396 133.463 38.6735C133.463 36.8073 134.077 35.2483 135.258 33.9491C136.463 32.6498 137.927 32.0121 139.628 32.0121C141.4 31.9884 142.77 32.6026 143.715 33.8546ZM137.715 41.2483C138.4 41.9097 139.226 42.2404 140.242 42.2404C141.258 42.2404 142.085 41.9097 142.746 41.2483C143.408 40.5632 143.738 39.7128 143.738 38.6735C143.738 37.6341 143.408 36.7837 142.746 36.1223C142.085 35.4373 141.258 35.1065 140.242 35.1065C139.226 35.1065 138.4 35.4373 137.715 36.1223C137.053 36.7837 136.723 37.6341 136.723 38.6735C136.723 39.7128 137.053 40.5632 137.715 41.2483ZM162.683 40.0199H153.164C153.589 41.6026 154.77 42.4058 156.73 42.4058C157.959 42.4058 158.927 41.9806 159.565 41.1538L162.187 42.6656C160.959 44.4609 159.116 45.3585 156.683 45.3585C154.581 45.3585 152.927 44.7207 151.652 43.4688C150.4 42.2168 149.762 40.6105 149.762 38.6971C149.762 36.8073 150.4 35.201 151.628 33.9491C152.856 32.6498 154.486 32.0357 156.423 32.0357C158.266 32.0357 159.801 32.6735 160.982 33.9491C162.187 35.2483 162.801 36.8073 162.801 38.6971C162.801 39.0987 162.754 39.5239 162.683 40.0199ZM153.116 37.4924H159.565C159.187 35.768 157.935 34.9412 156.423 34.9412C154.675 34.9412 153.494 35.8624 153.116 37.4924ZM168.518 35.9333C168.518 36.6184 169.534 36.9963 170.809 37.327C172.652 37.705 175.061 38.579 175.038 41.2955C175.038 42.5947 174.565 43.5869 173.573 44.2955C172.604 44.9806 171.4 45.3349 169.959 45.3349C167.36 45.3349 165.589 44.3191 164.667 42.3349L167.502 40.7522C167.88 41.8388 168.683 42.4058 169.982 42.4058C171.14 42.4058 171.73 42.0514 171.73 41.3191C171.73 40.6341 170.715 40.2562 169.439 39.9254C167.573 39.453 165.211 38.6735 165.211 36.0278C165.211 34.7995 165.66 33.8073 166.581 33.0987C167.526 32.3664 168.66 32.0121 170.006 32.0121C172.061 32.0121 173.809 32.9806 174.801 34.6813L172.014 36.1932C171.612 35.3428 170.927 34.8939 169.982 34.8939C169.156 34.8939 168.518 35.3191 168.518 35.9333Z" fill="white"/>
<path fill-rule="evenodd" clip-rule="evenodd" d="M45.2344 21.335C53.4548 21.335 60.1399 27.9964 60.1399 36.2405C60.1399 39.4058 59.1478 42.335 57.4706 44.7444C57.447 44.768 57.447 44.7917 57.4233 44.7917C57.3052 44.957 57.0926 44.9806 56.9273 44.8861C56.88 44.8625 56.8328 44.8153 56.8092 44.768C55.0375 41.3901 52.3918 36.3113 48.8722 29.5318C48.4233 28.6814 47.5493 28.1381 46.5808 28.1381H42.4233C42.3289 28.1381 42.2107 28.1617 42.1163 28.209C41.8092 28.3743 41.6674 28.7759 41.8328 29.083C46.4155 37.8704 49.8643 44.4846 52.1556 48.8783C52.2737 49.1145 52.1792 49.4216 51.943 49.5397C49.9352 50.5554 47.6438 51.1224 45.2344 51.1224C42.8722 51.1224 40.6281 50.5791 38.6202 49.5869C38.3604 49.4688 38.2659 49.1617 38.384 48.9019C39.7304 46.3035 41.7856 42.3822 44.4785 37.1854L44.5021 37.1381C44.6438 36.831 44.5021 36.4767 44.195 36.3113C44.1005 36.2641 44.006 36.2405 43.8879 36.2405H39.7304H39.6359C38.7147 36.2641 37.8643 36.8074 37.4391 37.6342C35.7619 40.8468 34.51 43.2326 33.6832 44.8389C33.5887 45.0279 33.3761 45.0987 33.1871 45.0043C33.1399 44.9806 33.0926 44.9334 33.069 44.8861L33.0454 44.8625C31.321 42.4295 30.3052 39.4531 30.3052 36.2405C30.3289 27.9964 37.0139 21.335 45.2344 21.335Z" fill="white"/>
</g>
<defs>
<clipPath id="clip0_641_1415">
<rect width="145.039" height="30" fill="white" transform="translate(30.2344 21.2305)"/>
</clipPath>
</defs>
</svg>
