<svg width="209" height="71" viewBox="0 0 209 71" fill="none" xmlns="http://www.w3.org/2000/svg">
<rect x="0.867432" y="0.115234" width="207.316" height="70.1153" rx="32.028" fill="#202020"/>
<path fill-rule="evenodd" clip-rule="evenodd" d="M85.4503 30.729C87.0713 30.729 87.9914 31.6335 88.3549 33.0138H91.767C91.1858 29.7336 88.7421 27.9238 85.4266 27.9238C83.5879 27.9238 82.0382 28.5117 80.78 29.6881C80.0301 30.3896 79.57 31.1813 79.3768 32.1085C79.1836 33.0138 79.0862 34.3485 79.0862 36.1129C79.0862 37.8771 79.1836 39.212 79.3768 40.1172C79.57 41.0217 80.0301 41.8353 80.78 42.5368C82.0382 43.7132 83.5879 44.3011 85.4266 44.3011C88.7175 44.3011 91.1858 42.4921 91.767 39.212H88.3549C87.9914 40.5914 87.0713 41.4967 85.4503 41.4967C84.531 41.4967 83.8049 41.2255 83.2965 40.6596C82.5957 39.9581 82.45 39.2347 82.45 36.1129C82.45 32.991 82.5957 32.2668 83.2965 31.5661C83.8049 31.0002 84.531 30.729 85.4503 30.729Z" fill="white"/>
<path fill-rule="evenodd" clip-rule="evenodd" d="M104.734 34.641H104.735V34.5039H104.734V34.641ZM104.735 28.0617H104.734V31.2831V34.5013H101.369V37.7219H104.734V37.4241H104.735V37.725H104.734V40.9457V44.167H108.098V44.1647V40.9457V37.725V34.5037V31.2831V28.0617V28.0586H104.735V28.0617Z" fill="white"/>
<path fill-rule="evenodd" clip-rule="evenodd" d="M95.5413 44.1647H98.9051V39.1077V37.4233V34.6408V32.893V28.0586H95.5413V44.1647Z" fill="white"/>
<path fill-rule="evenodd" clip-rule="evenodd" d="M120.532 40.637C120.048 41.1575 119.297 41.4968 118.378 41.4968C117.459 41.4968 116.684 41.1575 116.2 40.637C115.546 39.9582 115.377 39.212 115.377 36.1129C115.377 33.0131 115.546 32.2669 116.2 31.5889C116.684 31.0685 117.459 30.7291 118.378 30.7291C119.297 30.7291 120.048 31.0685 120.532 31.5889C121.185 32.2669 121.379 33.0131 121.379 36.1129C121.379 39.212 121.185 39.9582 120.532 40.637ZM118.378 27.9238C116.418 27.9238 114.918 28.5571 113.708 29.6881C111.965 31.3168 112.014 33.3304 112.014 36.1129C112.014 38.8953 111.965 40.9081 113.708 42.5368C114.918 43.6678 116.418 44.3011 118.378 44.3011C120.339 44.3011 121.814 43.6678 123.025 42.5368C124.767 40.9081 124.743 38.8953 124.743 36.1129C124.743 33.3304 124.767 31.3168 123.025 29.6881C121.814 28.5571 120.339 27.9238 118.378 27.9238Z" fill="white"/>
<path fill-rule="evenodd" clip-rule="evenodd" d="M134.885 35.116H131.715V30.8631H134.885C136.361 30.8631 137.329 31.7457 137.329 32.9903C137.329 34.2342 136.361 35.116 134.885 35.116ZM140.694 32.9902C140.694 30.2979 138.612 28.0586 135.103 28.0586H128.352V44.1647H131.715V37.7399H134.135L137.499 44.1647H141.394L137.547 37.2203C139.217 36.6544 140.694 35.2514 140.694 32.9902Z" fill="white"/>
<path fill-rule="evenodd" clip-rule="evenodd" d="M153.658 38.5323C153.658 40.3868 152.472 41.4959 150.657 41.4959C148.842 41.4959 147.68 40.3868 147.68 38.5323V28.0586H144.317V38.646C144.317 42.061 147.125 44.3002 150.657 44.3002C154.19 44.3002 156.997 42.061 156.997 38.646V28.0586H153.658V38.5323Z" fill="white"/>
<path fill-rule="evenodd" clip-rule="evenodd" d="M170.838 36C170.112 35.3667 169.12 34.9591 167.546 34.7561L165.514 34.4841C164.812 34.394 164.255 34.1448 163.917 33.8508C163.555 33.5342 163.409 33.1047 163.409 32.6971C163.409 31.5888 164.279 30.6608 166.071 30.6608C167.208 30.6608 168.515 30.7972 169.604 31.7699L171.734 29.8018C170.257 28.467 168.539 27.9238 166.168 27.9238C162.441 27.9238 160.166 29.9374 160.166 32.81C160.166 34.1675 160.577 35.2084 161.4 35.9773C162.174 36.6787 163.263 37.1083 164.74 37.312L166.821 37.5832C167.619 37.6969 168.007 37.8552 168.345 38.1491C168.708 38.4658 168.878 38.94 168.878 39.5066C168.878 40.7952 167.813 41.4967 165.829 41.4967C164.232 41.4967 162.756 41.1573 161.666 40.1392L159.489 42.1754C161.182 43.7815 163.167 44.3019 165.78 44.3019C169.387 44.3019 172.169 42.5376 172.169 39.4157C172.169 37.9908 171.758 36.8143 170.838 36Z" fill="white"/>
<path fill-rule="evenodd" clip-rule="evenodd" d="M37.2444 47.778L40.7253 51.1107L44.2061 47.778L40.7253 44.4453L37.2444 47.778Z" fill="white"/>
<path fill-rule="evenodd" clip-rule="evenodd" d="M68.5714 24.4479L65.0905 21.1152L61.6096 24.4479L65.0905 27.7806L68.5714 24.4479Z" fill="white"/>
<path fill-rule="evenodd" clip-rule="evenodd" d="M56.389 39.4447L52.9081 42.7774L49.4273 39.4447L45.9464 36.112L49.4273 32.7794L52.9081 29.4467L56.389 32.7794L59.8699 36.112L56.389 39.4447ZM66.8316 36.1119L63.3507 32.7793L59.8699 29.4466L56.389 26.1139L52.9081 22.7812L49.4272 26.1139L45.9464 29.4466L42.4655 32.7793L38.9846 36.1119L42.4655 39.4446L45.9464 42.7773L49.4272 46.11L52.9081 49.4426L56.389 46.11L59.8699 42.7773L63.3507 39.4446L66.8316 36.1119Z" fill="white"/>
<path fill-rule="evenodd" clip-rule="evenodd" d="M61.6018 47.7819L65.0827 51.1146L68.5636 47.7819L65.0827 44.4492L61.6018 47.7819Z" fill="white"/>
<path fill-rule="evenodd" clip-rule="evenodd" d="M44.1964 24.4499L40.7155 21.1172L37.2346 24.4499L40.7155 27.7825L44.1964 24.4499Z" fill="white"/>
</svg>
