<svg width="209" height="71" viewBox="0 0 209 71" fill="none" xmlns="http://www.w3.org/2000/svg">
<rect x="0.816284" y="0.115234" width="207.316" height="70.1153" rx="32.028" fill="#202020"/>
<g clip-path="url(#clip0_641_1390)">
<path d="M135.936 49.2262V51.1148H148.899V42.5968H147.01V49.2262H135.936ZM135.936 21.1152V23.0039H147.01V29.6336H148.899V21.1152H135.936ZM129.251 35.7264V31.3377H132.214C133.659 31.3377 134.178 31.819 134.178 33.1341V33.9117C134.178 35.2634 133.677 35.7264 132.214 35.7264H129.251ZM133.955 36.504C135.307 36.1522 136.251 34.8928 136.251 33.3931C136.251 32.4488 135.881 31.5967 135.177 30.9115C134.288 30.0594 133.103 29.6336 131.566 29.6336H127.399V42.5964H129.251V37.43H132.029C133.455 37.43 134.029 38.0225 134.029 39.5043V42.5968H135.918V39.8005C135.918 37.7635 135.437 36.9859 133.955 36.7636V36.504ZM118.363 36.9298H124.067V35.2262H118.363V31.3372H124.622V29.6336H116.474V42.5964H124.9V40.8928H118.363V36.9298ZM112.159 37.6151V38.5039C112.159 40.3742 111.474 40.9855 109.752 40.9855H109.344C107.622 40.9855 106.789 40.4298 106.789 37.8558V34.3742C106.789 31.7819 107.659 31.2445 109.381 31.2445H109.751C111.437 31.2445 111.974 31.8742 111.992 33.615H114.029C113.844 31.0594 112.14 29.4486 109.585 29.4486C108.344 29.4486 107.307 29.8376 106.529 30.578C105.363 31.6707 104.714 33.5226 104.714 36.115C104.714 38.6151 105.27 40.467 106.418 41.6148C107.196 42.3741 108.27 42.7815 109.326 42.7815C110.437 42.7815 111.455 42.3369 111.974 41.3741H112.233V42.5964H113.936V35.9115H108.918V37.6151H112.159ZM95.8263 31.3372H97.845C99.7525 31.3372 100.79 31.8186 100.79 34.4114V37.8186C100.79 40.411 99.7525 40.8928 97.845 40.8928H95.8263V31.3372ZM98.0114 42.5968C101.549 42.5968 102.863 39.9117 102.863 36.1155C102.863 32.2637 101.456 29.6341 97.9741 29.6341H93.974V42.5968H98.0114ZM85.0303 36.9298H90.734V35.2262H85.0303V31.3372H91.2893V29.6336H83.141V42.5964H91.5672V40.8928H85.0303V36.9298ZM74.1045 29.6336H72.2158V42.5964H80.7342V40.8928H74.1045V29.6336ZM59.2343 42.5968V51.1152H72.197V49.2262H61.1229V42.5968H59.2343ZM59.2343 21.1152V29.6336H61.1229V23.0039H72.197V21.1152H59.2343Z" fill="white"/>
</g>
<defs>
<clipPath id="clip0_641_1390">
<rect width="89.7656" height="30" fill="white" transform="translate(59.2343 21.1152)"/>
</clipPath>
</defs>
</svg>
