<svg width="208" height="71" viewBox="0 0 208 71" fill="none" xmlns="http://www.w3.org/2000/svg">
<rect x="0.55127" width="207.316" height="70.1153" rx="32.028" fill="#202020"/>
<g clip-path="url(#clip0_641_1324)">
<path fill-rule="evenodd" clip-rule="evenodd" d="M32.389 20.9048C32.0958 20.9048 31.8477 21.1529 31.8477 21.4461V37.98C31.8477 38.2732 32.0958 38.5213 32.389 38.5213H75.3589C75.6522 38.5213 75.9003 38.2732 75.9003 37.98V21.4461C75.9003 21.1529 75.6522 20.9048 75.3589 20.9048H32.389ZM70.1259 33.0401C70.2837 33.0401 70.3965 32.9273 70.3965 32.7694V26.7018C70.3965 26.5439 70.2837 26.4311 70.1259 26.4311H37.6221C37.4642 26.4311 37.3514 26.5439 37.3514 26.7018V32.7694C37.3514 32.9273 37.4642 33.0401 37.6221 33.0401H70.1259Z" fill="white"/>
<path d="M37.3289 45.7171C37.3289 45.4239 37.0807 45.1758 36.7875 45.1758H32.389C32.0958 45.1758 31.8477 45.4239 31.8477 45.7171V50.1156C31.8477 50.4089 32.0958 50.657 32.389 50.657H36.7875C37.0807 50.657 37.3289 50.4089 37.3289 50.1156V45.7171Z" fill="white"/>
<path d="M138.72 45.7171C138.72 45.4239 138.472 45.1758 138.178 45.1758H133.78C133.487 45.1758 133.239 45.4239 133.239 45.7171V50.1156C133.239 50.4089 133.487 50.657 133.78 50.657H138.178C138.472 50.657 138.72 50.4089 138.72 50.1156V45.7171Z" fill="white"/>
<path d="M82.5093 45.7171C82.5093 45.4239 82.7574 45.1758 83.0507 45.1758H126.021C126.314 45.1758 126.562 45.4239 126.562 45.7171V50.1156C126.562 50.4089 126.314 50.657 126.021 50.657H83.0732C82.78 50.657 82.5319 50.4089 82.5319 50.1156V45.7171H82.5093Z" fill="white"/>
<path fill-rule="evenodd" clip-rule="evenodd" d="M133.194 21.4686C133.194 21.1754 133.442 20.9272 133.735 20.9272H176.705C176.998 20.9272 177.246 21.1754 177.246 21.4686V38.0024C177.246 38.2957 176.998 38.5438 176.705 38.5438H133.757C133.464 38.5438 133.216 38.2957 133.216 38.0024V21.4686H133.194ZM171.494 26.431C171.652 26.431 171.765 26.5438 171.765 26.7017V32.7694C171.765 32.9272 171.652 33.04 171.494 33.04H138.991C138.833 33.04 138.72 32.9272 138.72 32.7694V26.7017C138.72 26.5438 138.833 26.431 138.991 26.431H171.494Z" fill="white"/>
<path d="M83.0732 20.905C82.78 20.905 82.5319 21.1531 82.5319 21.4463V25.8448C82.5319 26.1381 82.78 26.3862 83.0732 26.3862H120.81C120.968 26.3862 121.081 26.499 121.081 26.6569V32.7245C121.081 32.8824 120.968 32.9952 120.81 32.9952H83.0732C82.78 32.9952 82.5319 33.2433 82.5319 33.5366V37.9351C82.5319 38.2283 82.78 38.4764 83.0732 38.4764H126.043C126.336 38.4764 126.584 38.2283 126.584 37.9351V21.4012C126.584 21.108 126.336 20.8599 126.043 20.8599H83.0732V20.905Z" fill="white"/>
</g>
<defs>
<clipPath id="clip0_641_1324">
<rect width="145.714" height="30" fill="white" transform="translate(31.7349 20.7695)"/>
</clipPath>
</defs>
</svg>
