<svg width="209" height="71" viewBox="0 0 209 71" fill="none" xmlns="http://www.w3.org/2000/svg">
<rect x="0.816284" y="0.230469" width="207.316" height="70.1153" rx="32.028" fill="#202020"/>
<g clip-path="url(#clip0_641_1421)">
<path d="M60.1349 38.4039C60.8431 38.016 61.3696 37.4846 61.7117 36.8074C62.0538 36.1317 62.2255 35.3538 62.2255 34.4747C62.2255 33.5969 62.0538 32.8233 61.7117 32.1546C61.3696 31.4865 60.8417 30.9642 60.1279 30.5898C59.4148 30.2146 58.499 30.0273 57.3791 30.0273H53.269V38.9832H57.403C58.5152 38.9832 59.4254 38.7903 60.1349 38.4039Z" fill="white"/>
<path d="M55.8702 20.2305C47.2346 20.2305 40.2343 27.2309 40.2343 35.8664C40.2343 41.0514 42.7599 45.6452 46.6462 48.4897C46.832 48.5622 47.0291 48.61 47.2403 48.61C47.6814 48.6098 48.1043 48.4345 48.4162 48.1226C48.7281 47.8107 48.9034 47.3878 48.9036 46.9467L48.9064 45.358V26.2799H58.0671C59.9691 26.2799 61.567 26.6346 62.8601 27.3435C64.1538 28.053 65.133 29.0258 65.7975 30.2619C66.462 31.4987 66.7949 32.903 66.7949 34.4734C66.7949 36.0614 66.4599 37.4714 65.7911 38.7046C65.1224 39.9364 64.1341 40.9057 62.8298 41.6103C61.5254 42.315 59.917 42.6676 58.0073 42.6676H53.3573L53.3474 49.0633C53.3477 49.6067 53.523 50.1354 53.8475 50.5712C54.172 51.007 54.6283 51.3267 55.1487 51.4827C55.388 51.494 55.6288 51.501 55.8702 51.501C64.5065 51.501 71.5062 44.5013 71.5062 35.865C71.5062 27.2309 64.5065 20.2305 55.8702 20.2305Z" fill="white"/>
<path d="M74.8059 41.1577V28.8713H78.9573C79.9212 28.8713 80.7091 29.0453 81.321 29.3932C81.937 29.7372 82.3929 30.2031 82.6889 30.791C82.9848 31.379 83.1328 32.0349 83.1328 32.7588C83.1328 33.4827 82.9848 34.1406 82.6889 34.7325C82.3969 35.3245 81.945 35.7964 81.333 36.1484C80.7211 36.4963 79.9372 36.6703 78.9813 36.6703H76.0057V35.3505H78.9333C79.5933 35.3505 80.1232 35.2365 80.5231 35.0085C80.9231 34.7805 81.2131 34.4726 81.393 34.0846C81.577 33.6927 81.669 33.2507 81.669 32.7588C81.669 32.2668 81.577 31.8269 81.393 31.4389C81.2131 31.051 80.9211 30.747 80.5171 30.5271C80.1132 30.3031 79.5773 30.1911 78.9093 30.1911H76.2937V41.1577H74.8059ZM95.8962 35.0145C95.8962 36.3103 95.6622 37.4302 95.1943 38.3741C94.7263 39.3179 94.0844 40.0459 93.2685 40.5578C92.4526 41.0697 91.5207 41.3257 90.4729 41.3257C89.425 41.3257 88.4931 41.0697 87.6772 40.5578C86.8613 40.0459 86.2194 39.3179 85.7515 38.3741C85.2835 37.4302 85.0496 36.3103 85.0496 35.0145C85.0496 33.7187 85.2835 32.5988 85.7515 31.6549C86.2194 30.711 86.8613 29.9831 87.6772 29.4712C88.4931 28.9593 89.425 28.7033 90.4729 28.7033C91.5207 28.7033 92.4526 28.9593 93.2685 29.4712C94.0844 29.9831 94.7263 30.711 95.1943 31.6549C95.6622 32.5988 95.8962 33.7187 95.8962 35.0145ZM94.4564 35.0145C94.4564 33.9506 94.2784 33.0527 93.9224 32.3208C93.5705 31.5889 93.0925 31.035 92.4886 30.659C91.8887 30.2831 91.2168 30.0951 90.4729 30.0951C89.729 30.0951 89.0551 30.2831 88.4511 30.659C87.8512 31.035 87.3733 31.5889 87.0173 32.3208C86.6654 33.0527 86.4894 33.9506 86.4894 35.0145C86.4894 36.0784 86.6654 36.9762 87.0173 37.7082C87.3733 38.4401 87.8512 38.994 88.4511 39.3699C89.0551 39.7459 89.729 39.9339 90.4729 39.9339C91.2168 39.9339 91.8887 39.7459 92.4886 39.3699C93.0925 38.994 93.5705 38.4401 93.9224 37.7082C94.2784 36.9762 94.4564 36.0784 94.4564 35.0145ZM98.3979 41.1577V28.8713H99.8857V39.8379H105.597V41.1577H98.3979ZM107.901 41.1577V28.8713H109.388V34.9665H109.532L115.052 28.8713H116.996L111.836 34.4146L116.996 41.1577H115.196L110.924 35.4464L109.388 37.1742V41.1577H107.901ZM119.425 41.1577H117.865L122.377 28.8713H123.913L128.424 41.1577H126.864L123.193 30.815H123.097L119.425 41.1577ZM120.001 36.3583H126.288V37.6782H120.001V36.3583ZM139.647 32.7108H138.159C138.071 32.2828 137.917 31.9069 137.697 31.5829C137.481 31.259 137.217 30.987 136.905 30.767C136.598 30.5431 136.256 30.3751 135.88 30.2631C135.504 30.1511 135.112 30.0951 134.704 30.0951C133.96 30.0951 133.286 30.2831 132.682 30.659C132.082 31.035 131.604 31.5889 131.248 32.3208C130.896 33.0527 130.72 33.9506 130.72 35.0145C130.72 36.0784 130.896 36.9762 131.248 37.7082C131.604 38.4401 132.082 38.994 132.682 39.3699C133.286 39.7459 133.96 39.9339 134.704 39.9339C135.112 39.9339 135.504 39.8779 135.88 39.7659C136.256 39.6539 136.598 39.4879 136.905 39.268C137.217 39.044 137.481 38.77 137.697 38.4461C137.917 38.1181 138.071 37.7421 138.159 37.3182H139.647C139.535 37.9461 139.331 38.5081 139.035 39.004C138.739 39.4999 138.371 39.9219 137.931 40.2698C137.491 40.6138 136.997 40.8758 136.45 41.0557C135.906 41.2357 135.324 41.3257 134.704 41.3257C133.656 41.3257 132.724 41.0697 131.908 40.5578C131.092 40.0459 130.45 39.3179 129.982 38.3741C129.514 37.4302 129.28 36.3103 129.28 35.0145C129.28 33.7187 129.514 32.5988 129.982 31.6549C130.45 30.711 131.092 29.9831 131.908 29.4712C132.724 28.9593 133.656 28.7033 134.704 28.7033C135.324 28.7033 135.906 28.7933 136.45 28.9733C136.997 29.1532 137.491 29.4172 137.931 29.7652C138.371 30.1091 138.739 30.5291 139.035 31.025C139.331 31.5169 139.535 32.0789 139.647 32.7108ZM142.051 41.1577V28.8713H143.539V34.3426H150.09V28.8713H151.578V41.1577H150.09V35.6624H143.539V41.1577H142.051ZM162.62 28.8713H164.108V37.0062C164.108 37.8461 163.91 38.596 163.514 39.256C163.122 39.9119 162.568 40.4298 161.852 40.8098C161.136 41.1857 160.296 41.3737 159.332 41.3737C158.368 41.3737 157.528 41.1857 156.812 40.8098C156.097 40.4298 155.541 39.9119 155.145 39.256C154.753 38.596 154.557 37.8461 154.557 37.0062V28.8713H156.045V36.8863C156.045 37.4862 156.177 38.0201 156.441 38.4881C156.704 38.952 157.08 39.3179 157.568 39.5859C158.06 39.8499 158.648 39.9819 159.332 39.9819C160.016 39.9819 160.604 39.8499 161.096 39.5859C161.588 39.3179 161.964 38.952 162.224 38.4881C162.488 38.0201 162.62 37.4862 162.62 36.8863V28.8713Z" fill="white"/>
</g>
<defs>
<clipPath id="clip0_641_1421">
<rect width="126" height="31.676" fill="white" transform="translate(40.2343 20.2305)"/>
</clipPath>
</defs>
</svg>
