<svg width="208" height="71" viewBox="0 0 208 71" fill="none" xmlns="http://www.w3.org/2000/svg">
<rect x="0.132568" width="207.316" height="70.1153" rx="32.028" fill="#202020"/>
<path fill-rule="evenodd" clip-rule="evenodd" d="M78.0114 24.5195C74.6393 24.5195 71.6156 26.0067 69.554 28.3607C71.8393 28.7637 73.9841 29.7743 75.7548 31.2967C76.9886 32.3106 78.0817 33.4843 79.0023 34.786L79.5265 35.5697C79.6064 35.6912 79.6064 35.8511 79.5265 35.9758L79.0055 36.7562C78.0849 38.0611 76.9918 39.2349 75.758 40.2455C73.9873 41.7711 71.8425 42.7786 69.554 43.1816C71.6156 45.5323 74.6361 47.0195 78.0082 47.0195C84.2187 47.0195 89.2497 41.9822 89.2497 35.7711C89.2497 29.56 84.2219 24.5195 78.0114 24.5195Z" fill="white"/>
<path d="M68.0527 40.9895C64.3481 41.1782 60.7107 39.2304 58.0706 35.9362C57.9907 35.8402 57.9907 35.6995 58.0706 35.6036C60.7139 32.3093 64.3513 30.3616 68.0559 30.5439C68.4682 29.7571 68.9733 29.0246 69.555 28.3594C69.1618 28.289 68.7623 28.2347 68.3628 28.2027C64.8915 28.046 61.4906 29.2358 58.8729 31.5257C58.0802 32.1846 57.3514 32.9138 56.6898 33.7038C56.6882 33.7053 56.6858 33.7069 56.6834 33.7086C56.681 33.7102 56.6786 33.7118 56.677 33.7134C56.6322 33.7421 56.5747 33.7325 56.5459 33.6878C55.7948 32.3701 55.2067 30.9628 54.7944 29.5012V29.4788C54.6697 29.1718 54.4268 28.9319 54.1231 28.8136C53.8674 28.7081 53.5766 28.7144 53.3272 28.836C52.8478 29.095 52.5953 29.6419 52.704 30.176V30.192C53.2409 32.1046 54.0432 33.9309 55.0916 35.6163C55.1459 35.7059 55.1459 35.8178 55.0916 35.9074C54.04 37.5993 53.2377 39.4287 52.7008 41.3445V41.3893C52.6944 41.8722 52.9756 42.3104 53.4135 42.5118C53.5446 42.5695 53.6852 42.6014 53.8291 42.6046C54.2094 42.595 54.561 42.3999 54.7688 42.0833L54.7816 42.0609L54.7912 42.0385C55.2067 40.5737 55.7948 39.1632 56.5491 37.8392C56.5491 37.836 56.5555 37.8296 56.5587 37.8264C56.5939 37.788 56.6546 37.788 56.6929 37.8264C57.3546 38.6195 58.0866 39.352 58.8824 40.014C61.3021 42.1121 64.3769 43.2986 67.5764 43.3658C67.8386 43.3658 68.1038 43.3594 68.3659 43.337C68.7655 43.3051 69.165 43.2507 69.5582 43.1803C68.9733 42.5151 68.4682 41.7795 68.0527 40.9895Z" fill="white"/>
<path d="M140.344 30.8987C140.136 31.0874 139.864 31.1802 139.538 31.1802V31.1833C139.202 31.1833 138.928 31.0874 138.726 30.9019C138.522 30.7131 138.419 30.4636 138.419 30.1597C138.419 29.8558 138.522 29.6096 138.726 29.424C138.928 29.2417 139.212 29.1489 139.538 29.1489C139.864 29.1489 140.133 29.2385 140.341 29.4208C140.551 29.6063 140.657 29.8527 140.657 30.1566C140.657 30.4604 140.551 30.7099 140.344 30.8987Z" fill="white"/>
<path d="M135.683 32.3701H139.624C140.343 32.3701 140.493 32.7763 140.493 33.1153V38.5012C140.493 38.7954 140.401 39.0289 140.218 39.1889C140.039 39.3487 139.812 39.4287 139.541 39.4287C139.269 39.4287 139.039 39.3487 138.856 39.192C138.671 39.0321 138.575 38.7987 138.575 38.5044V33.8605H135.686V38.5044C135.686 38.7987 135.593 39.0289 135.411 39.1856C135.232 39.3392 135.005 39.4159 134.733 39.4159C134.461 39.4159 134.231 39.3392 134.049 39.1856C133.861 39.0289 133.765 38.8019 133.765 38.5044V33.8605H133.164C132.445 33.8605 132.294 33.4543 132.294 33.1153C132.294 32.7763 132.445 32.3701 133.164 32.3701H133.765C133.768 31.5001 134.008 30.7965 134.475 30.2816C134.948 29.7603 135.619 29.4596 136.472 29.3829L136.792 29.3541C136.837 29.3477 136.91 29.3413 137.009 29.3413C137.693 29.3413 137.837 29.7315 137.837 30.0577C137.837 30.2848 137.77 30.4671 137.642 30.595C137.514 30.7198 137.341 30.7965 137.127 30.8157L136.821 30.8445C136.421 30.8797 136.127 31.0012 135.951 31.2091C135.772 31.4202 135.683 31.7336 135.683 32.143V32.3701Z" fill="white"/>
<path d="M147.384 36.2748C147.224 36.0093 146.955 35.7886 146.588 35.6159C146.233 35.4464 145.734 35.2961 145.111 35.165C144.542 35.0467 144.152 34.9283 143.96 34.8132C143.784 34.7108 143.701 34.5637 143.701 34.3654C143.701 34.1543 143.788 33.9944 143.96 33.8729C144.143 33.7449 144.398 33.681 144.721 33.681C144.996 33.681 145.229 33.713 145.411 33.7801C145.6 33.8473 145.83 33.9496 146.092 34.0872C146.243 34.1703 146.371 34.2375 146.469 34.2791C146.578 34.3238 146.69 34.3494 146.805 34.3494C146.981 34.3494 147.131 34.2758 147.253 34.1287C147.368 33.988 147.425 33.8121 147.425 33.6042C147.425 33.2652 147.262 32.9933 146.939 32.7919C146.645 32.6032 146.31 32.456 145.942 32.3569C145.575 32.2577 145.188 32.2065 144.795 32.2065C144.248 32.2065 143.753 32.2993 143.321 32.4848C142.886 32.6703 142.541 32.939 142.292 33.278C142.039 33.6202 141.915 34.0104 141.915 34.4358C141.915 34.9987 142.106 35.4464 142.48 35.7695C142.848 36.0829 143.455 36.3292 144.29 36.4987C144.747 36.5978 145.089 36.6906 145.313 36.7673C145.524 36.8409 145.67 36.9177 145.747 37.0008C145.817 37.0776 145.853 37.1799 145.853 37.3142C145.853 37.5125 145.76 37.6628 145.571 37.778C145.37 37.8995 145.079 37.9603 144.708 37.9603C144.338 37.9603 144.034 37.9251 143.798 37.8547C143.558 37.7812 143.289 37.6756 143.002 37.5413C142.707 37.3846 142.48 37.3079 142.305 37.3079C142.129 37.3079 141.982 37.3782 141.86 37.5125C141.745 37.6437 141.684 37.8164 141.684 38.0242C141.684 38.3825 141.848 38.6607 142.174 38.8526C142.807 39.2588 143.644 39.4635 144.663 39.4635C145.549 39.4635 146.271 39.2652 146.805 38.875C147.352 38.4784 147.626 37.9443 147.626 37.2854C147.626 36.8825 147.543 36.5435 147.384 36.278V36.2748Z" fill="white"/>
<path d="M151.494 32.4978C151.89 32.3027 152.344 32.2036 152.846 32.2036L152.849 32.21C154.495 32.21 155.329 33.1823 155.329 35.0948V38.5106C155.329 38.7952 155.243 39.0224 155.073 39.1887C154.901 39.355 154.671 39.4381 154.377 39.4381C154.082 39.4381 153.849 39.355 153.674 39.1919C153.498 39.0255 153.408 38.7984 153.408 38.5138V35.098C153.408 34.6311 153.316 34.2889 153.133 34.081C152.951 33.8763 152.66 33.7707 152.264 33.7707C151.791 33.7707 151.411 33.921 151.129 34.2153C150.848 34.5096 150.704 34.9125 150.704 35.4147V38.5106C150.704 38.7952 150.615 39.0224 150.439 39.1887C150.266 39.3518 150.033 39.4349 149.739 39.4349C149.445 39.4349 149.212 39.3486 149.042 39.1854C148.873 39.0191 148.786 38.7921 148.786 38.5074V30.2015C148.786 29.9328 148.876 29.7153 149.058 29.549C149.237 29.3859 149.474 29.3027 149.752 29.3027C150.03 29.3027 150.263 29.3795 150.436 29.533C150.615 29.6897 150.704 29.904 150.704 30.1726V33.1247C150.918 32.8624 151.184 32.6513 151.494 32.4978Z" fill="white"/>
<path d="M97.9737 36.2753C97.8139 36.0098 97.5454 35.7891 97.1778 35.6164C96.823 35.4469 96.3244 35.2966 95.7011 35.1655C95.1322 35.0471 94.7423 34.9288 94.5505 34.8136C94.3747 34.7113 94.2916 34.5642 94.2916 34.3659C94.2916 34.1548 94.3779 33.9949 94.5505 33.8733C94.7327 33.7454 94.9884 33.6814 95.3112 33.6814C95.5861 33.6814 95.8194 33.7134 96.0016 33.7806C96.1902 33.8478 96.4203 33.9501 96.6824 34.0876C96.8327 34.1708 96.9605 34.2379 97.0596 34.2795C97.1683 34.3243 97.2801 34.3499 97.3952 34.3499C97.571 34.3499 97.7212 34.2763 97.8427 34.1292C97.9577 33.9885 98.0153 33.8125 98.0153 33.6047C98.0153 33.2657 97.8523 32.9938 97.5295 32.7923C97.2354 32.6036 96.8998 32.4565 96.5322 32.3574C96.1646 32.2582 95.7779 32.207 95.3847 32.207C94.8382 32.207 94.3427 32.2998 93.9112 32.4853C93.4765 32.6708 93.1313 32.9395 92.882 33.2785C92.6295 33.6207 92.5048 34.0109 92.5048 34.4362C92.5048 34.9991 92.6966 35.4469 93.0706 35.7699C93.4382 36.0834 94.0455 36.3296 94.8797 36.4991C95.3368 36.5983 95.6788 36.691 95.9025 36.7678C96.1135 36.8414 96.2605 36.9181 96.3372 37.0013C96.4075 37.078 96.4427 37.1804 96.4427 37.3147C96.4427 37.513 96.35 37.6633 96.1614 37.7785C95.9601 37.9 95.6692 37.9607 95.2984 37.9607C94.9277 37.9607 94.624 37.9256 94.3875 37.8552C94.1477 37.7816 93.8792 37.6761 93.5916 37.5418C93.2975 37.3851 93.0706 37.3083 92.8948 37.3083C92.719 37.3083 92.572 37.3787 92.4505 37.513C92.3354 37.6441 92.2747 37.8168 92.2747 38.0247C92.2747 38.3829 92.4377 38.6612 92.7637 38.8531C93.3966 39.2593 94.234 39.4639 95.2537 39.4639C96.139 39.4639 96.8614 39.2657 97.3952 38.8755C97.9418 38.4789 98.2167 37.9448 98.2167 37.2859C98.2167 36.8829 98.1336 36.5439 97.9737 36.2785V36.2753Z" fill="white"/>
<path d="M102.801 37.9255L103.175 37.9543C103.82 37.9927 103.955 38.3636 103.955 38.6707C103.955 38.9266 103.849 39.1216 103.641 39.256C103.472 39.3647 103.239 39.4191 102.951 39.4191C102.931 39.4191 102.91 39.4184 102.888 39.4176C102.865 39.4168 102.841 39.4159 102.817 39.4159L102.439 39.3871C100.835 39.272 100.023 38.402 100.023 36.7965V33.8604H99.4219C99.1505 33.8604 98.9363 33.7965 98.7863 33.6718C98.6326 33.5438 98.5527 33.3551 98.5527 33.1153C98.5527 32.8754 98.6293 32.6867 98.7863 32.5587C98.9396 32.434 99.1505 32.3701 99.4219 32.3701H100.023V31.1835C100.023 30.9084 100.112 30.6846 100.288 30.5183C100.461 30.3551 100.707 30.272 100.988 30.272C101.27 30.272 101.5 30.3551 101.676 30.5183C101.851 30.6846 101.941 30.9084 101.941 31.1835V32.3701H103.028C103.299 32.3701 103.514 32.434 103.664 32.5587C103.817 32.6867 103.897 32.8754 103.897 33.1153C103.897 33.3551 103.82 33.5438 103.664 33.6718C103.51 33.7965 103.299 33.8604 103.028 33.8604H101.941V36.9212C101.941 37.5545 102.222 37.8839 102.801 37.9255Z" fill="white"/>
<path fill-rule="evenodd" clip-rule="evenodd" d="M110.063 32.9328C109.59 32.4499 108.858 32.2036 107.896 32.2036C107.454 32.2036 107.004 32.2548 106.55 32.3571C106.096 32.4595 105.697 32.6034 105.368 32.7825C105.169 32.8913 105.025 33.0096 104.939 33.1375C104.85 33.2687 104.805 33.4222 104.805 33.5981C104.805 33.8156 104.866 33.9947 104.987 34.1322C105.112 34.2729 105.271 34.3433 105.466 34.3433C105.594 34.3433 105.78 34.2825 106.026 34.1578C106.4 34.0106 106.729 33.8987 107.004 33.822C107.273 33.7452 107.538 33.7068 107.797 33.7068C108.203 33.7068 108.496 33.8028 108.672 33.9915C108.848 34.1802 108.938 34.4936 108.938 34.9222V35.1492H108.682C107.672 35.1492 106.867 35.2164 106.288 35.3476C105.697 35.4819 105.265 35.6994 104.997 36C104.728 36.3038 104.591 36.7196 104.591 37.2409C104.591 37.6567 104.702 38.0373 104.926 38.3763C105.147 38.7122 105.454 38.9808 105.837 39.1727C106.217 39.3646 106.649 39.4606 107.113 39.4606C107.576 39.4606 107.982 39.3518 108.333 39.1407C108.579 38.9936 108.781 38.8017 108.938 38.5714C108.947 38.8145 109.034 39.016 109.193 39.1695C109.363 39.3326 109.583 39.419 109.849 39.419C110.13 39.419 110.357 39.339 110.523 39.1791C110.689 39.0192 110.772 38.7985 110.772 38.5234V35.1333C110.772 34.1578 110.533 33.419 110.06 32.936L110.063 32.9328ZM108.941 36.2495V36.4478C108.941 36.9115 108.803 37.2953 108.528 37.5864C108.254 37.8806 107.905 38.0213 107.464 38.0213C107.18 38.0213 106.95 37.935 106.755 37.7591C106.566 37.5864 106.473 37.3689 106.473 37.097C106.473 36.8795 106.537 36.7164 106.665 36.5949C106.799 36.4701 107.029 36.3806 107.352 36.3262C107.688 36.2718 108.171 36.2431 108.781 36.2431H108.938L108.941 36.2495Z" fill="white"/>
<path d="M116.207 35.7407L118.546 37.8387L118.543 37.8451C118.748 38.0402 118.85 38.2769 118.85 38.5104C118.85 38.7439 118.767 38.9581 118.597 39.1405C118.428 39.3291 118.223 39.4219 117.996 39.4219C117.769 39.4219 117.555 39.3291 117.363 39.1468L114.27 36.3419V38.5104C114.27 38.8046 114.177 39.0349 113.988 39.1916C113.806 39.3451 113.576 39.4219 113.304 39.4219C113.033 39.4219 112.806 39.3451 112.627 39.1916C112.444 39.0349 112.352 38.8046 112.352 38.5104V30.2172C112.352 29.923 112.444 29.6927 112.627 29.536C112.806 29.3824 113.033 29.3057 113.304 29.3057C113.576 29.3057 113.806 29.3824 113.988 29.536C114.177 29.6927 114.272 29.9198 114.272 30.2172V35.2225L117.089 32.5232C117.271 32.3409 117.485 32.2481 117.721 32.2481C117.958 32.2481 118.166 32.3345 118.342 32.5104C118.514 32.6863 118.604 32.8942 118.604 33.1309C118.604 33.3675 118.504 33.5882 118.313 33.7801L116.207 35.7407Z" fill="white"/>
<path fill-rule="evenodd" clip-rule="evenodd" d="M125.297 37.302C125.15 37.302 124.936 37.3787 124.648 37.5322C124.367 37.6602 124.108 37.7625 123.887 37.8329C123.67 37.9033 123.418 37.9384 123.133 37.9384C122.577 37.9384 122.152 37.7945 121.864 37.5131C121.592 37.2444 121.423 36.8254 121.359 36.2625H125.351C125.633 36.2625 125.972 36.1442 125.972 35.5717C125.972 34.8937 125.844 34.2956 125.588 33.7934C125.332 33.2881 124.965 32.8947 124.498 32.6165C124.031 32.3414 123.478 32.2007 122.855 32.2007C122.232 32.2007 121.612 32.3542 121.094 32.658C120.576 32.9619 120.17 33.3937 119.886 33.9438C119.601 34.4907 119.461 35.1271 119.461 35.834C119.461 36.947 119.793 37.8393 120.445 38.4822C121.097 39.125 121.992 39.4544 123.104 39.4544C123.472 39.4544 123.862 39.4001 124.268 39.2913C124.671 39.1826 125.038 39.0387 125.358 38.8596C125.729 38.6485 125.917 38.3798 125.917 38.0568C125.917 37.8329 125.863 37.6506 125.751 37.5131C125.636 37.3691 125.483 37.2988 125.297 37.2988V37.302ZM124.3 35.1495H121.362C121.426 34.6666 121.583 34.2892 121.832 34.0269C122.094 33.7519 122.452 33.6112 122.897 33.6112C123.341 33.6112 123.667 33.7455 123.91 34.0173C124.14 34.2764 124.268 34.6538 124.3 35.1495Z" fill="white"/>
<path d="M130.574 35.9042C130.651 35.2645 130.193 34.6855 129.554 34.6087V34.6055C129.509 34.5991 129.464 34.5991 129.42 34.5991C128.774 34.5991 128.25 35.1205 128.25 35.7667C128.25 36.3584 128.691 36.8543 129.279 36.9246C129.918 37.0014 130.497 36.544 130.574 35.9042Z" fill="white"/>
<path fill-rule="evenodd" clip-rule="evenodd" d="M68.2266 30.5499C72.4968 30.8473 75.4982 33.9464 76.7927 35.5744L76.7959 35.5712C76.8886 35.6895 76.8886 35.8526 76.7959 35.971C75.4982 37.6021 72.5 40.6917 68.2329 40.9827C68.1722 40.9891 68.1147 40.9891 68.054 40.9891C67.2357 39.4283 66.769 37.6565 66.769 35.7695C66.769 33.8825 67.2357 32.1042 68.0572 30.5435C68.0898 30.5473 68.1236 30.5477 68.1579 30.5481C68.1806 30.5483 68.2036 30.5486 68.2266 30.5499ZM72.4265 36.9273C73.0658 37.004 73.6443 36.5466 73.721 35.907V35.9038C73.7978 35.2641 73.3407 34.6852 72.7014 34.6085C72.6567 34.6021 72.6119 34.6021 72.5672 34.6021C71.9215 34.6021 71.3973 35.1234 71.3973 35.7695C71.3973 36.3612 71.8384 36.8569 72.4265 36.9273Z" fill="white"/>
</svg>
