<svg width="208" height="71" viewBox="0 0 208 71" fill="none" xmlns="http://www.w3.org/2000/svg">
<rect x="0.55127" y="0.230469" width="207.316" height="70.1153" rx="32.028" fill="#202020"/>
<path fill-rule="evenodd" clip-rule="evenodd" d="M46.3001 35.4279L49.0715 32.6565L52.5983 36.1833L56.1538 32.6277L58.954 35.4279C59.3712 35.8451 59.3712 36.5214 58.954 36.9386L56.1585 39.7341L52.6076 36.1833L49.0762 39.7147L46.3001 36.9386C45.8829 36.5214 45.8829 35.8451 46.3001 35.4279ZM51.185 29.1696C51.9814 28.3732 53.2727 28.3732 54.0691 29.1696L59.6407 34.7412C60.4371 35.5376 60.4371 36.8289 59.6407 37.6253L54.0691 43.1969C53.2727 43.9933 51.9814 43.9933 51.185 43.1969L45.6134 37.6253C44.817 36.8289 44.817 35.5376 45.6134 34.7412L51.185 29.1696Z" fill="white"/>
<path d="M67.3447 41.2305V33.2495H64.1973V31.3948H72.7684V33.2495H69.621V41.2305H67.3447ZM75.2578 41.2305V31.3948H79.5152C80.3957 31.3948 81.1545 31.54 81.7915 31.8304C82.4285 32.1114 82.9202 32.5188 83.2668 33.0528C83.6134 33.5867 83.7867 34.2237 83.7867 34.9637C83.7867 35.6944 83.6134 36.3267 83.2668 36.8606C82.9202 37.3852 82.4285 37.788 81.7915 38.069C81.1545 38.35 80.3957 38.4905 79.5152 38.4905H76.5223L77.534 37.4929V41.2305H75.2578ZM81.5105 41.2305L79.0515 37.6615H81.4824L83.9694 41.2305H81.5105ZM77.534 37.7458L76.5223 36.6779H79.3888C80.0913 36.6779 80.6159 36.5281 80.9625 36.2283C81.3091 35.9192 81.4824 35.4977 81.4824 34.9637C81.4824 34.4204 81.3091 33.9989 80.9625 33.6991C80.6159 33.3994 80.0913 33.2495 79.3888 33.2495H76.5223L77.534 32.1676V37.7458ZM85.5621 41.2305L89.946 31.3948H92.1942L96.5921 41.2305H94.2034L90.6064 32.547H91.5057L87.8945 41.2305H85.5621ZM87.754 39.1228L88.3582 37.3945H93.4166L94.0348 39.1228H87.754ZM98.8772 41.2305V31.3948H100.76L106.563 38.4765H105.65V31.3948H107.898V41.2305H106.029L100.212 34.1488H101.125V41.2305H98.8772ZM116.197 41.3991C115.438 41.3991 114.731 41.2773 114.075 41.0338C113.429 40.7808 112.867 40.4249 112.389 39.9659C111.911 39.5069 111.536 38.9683 111.265 38.35C111.002 37.7318 110.871 37.0526 110.871 36.3126C110.871 35.5726 111.002 34.8935 111.265 34.2752C111.536 33.657 111.911 33.1184 112.389 32.6594C112.876 32.2004 113.443 31.8491 114.089 31.6055C114.735 31.3526 115.443 31.2262 116.211 31.2262C117.063 31.2262 117.831 31.376 118.515 31.6758C119.208 31.9662 119.789 32.3971 120.257 32.9685L118.796 34.3174C118.459 33.9333 118.084 33.6476 117.672 33.4603C117.26 33.2636 116.81 33.1652 116.323 33.1652C115.864 33.1652 115.443 33.2401 115.059 33.39C114.674 33.5399 114.342 33.7553 114.061 34.0364C113.78 34.3174 113.56 34.6499 113.401 35.034C113.251 35.418 113.176 35.8443 113.176 36.3126C113.176 36.781 113.251 37.2072 113.401 37.5913C113.56 37.9753 113.78 38.3079 114.061 38.5889C114.342 38.8699 114.674 39.0853 115.059 39.2352C115.443 39.3851 115.864 39.46 116.323 39.46C116.81 39.46 117.26 39.3664 117.672 39.179C118.084 38.9823 118.459 38.6872 118.796 38.2938L120.257 39.6427C119.789 40.2141 119.208 40.6497 118.515 40.9494C117.831 41.2492 117.058 41.3991 116.197 41.3991ZM129.804 31.3948H132.08V41.2305H129.804V31.3948ZM125.335 41.2305H123.059V31.3948H125.335V41.2305ZM129.972 37.1978H125.167V35.2728H129.972V37.1978ZM137.765 35.3572H142.5V37.1276H137.765V35.3572ZM137.934 39.4038H143.287V41.2305H135.672V31.3948H143.105V33.2214H137.934V39.4038ZM149.595 41.3991C148.808 41.3991 148.054 41.296 147.332 41.09C146.611 40.8745 146.03 40.5982 145.59 40.2609L146.363 38.5467C146.784 38.8465 147.281 39.0947 147.852 39.2914C148.433 39.4788 149.019 39.5725 149.609 39.5725C150.058 39.5725 150.419 39.5303 150.691 39.446C150.972 39.3523 151.178 39.2259 151.309 39.0666C151.44 38.9074 151.506 38.7247 151.506 38.5186C151.506 38.2563 151.403 38.0503 151.196 37.9004C150.99 37.7411 150.719 37.6147 150.382 37.521C150.044 37.418 149.67 37.3243 149.257 37.24C148.855 37.1463 148.447 37.0339 148.035 36.9028C147.632 36.7716 147.262 36.603 146.925 36.3969C146.588 36.1908 146.311 35.9192 146.096 35.582C145.89 35.2447 145.787 34.8138 145.787 34.2893C145.787 33.7272 145.937 33.2167 146.236 32.7577C146.546 32.2893 147.005 31.9193 147.613 31.6477C148.232 31.3667 149.005 31.2262 149.932 31.2262C150.55 31.2262 151.159 31.3011 151.759 31.451C152.358 31.5915 152.887 31.8069 153.346 32.0973L152.644 33.8256C152.185 33.5633 151.726 33.3713 151.267 33.2495C150.808 33.1184 150.358 33.0528 149.918 33.0528C149.478 33.0528 149.117 33.1043 148.836 33.2073C148.555 33.3104 148.354 33.4462 148.232 33.6148C148.11 33.7741 148.049 33.9614 148.049 34.1769C148.049 34.4298 148.152 34.6359 148.358 34.7951C148.564 34.945 148.836 35.0668 149.173 35.1604C149.51 35.2541 149.88 35.3478 150.283 35.4415C150.695 35.5351 151.103 35.6429 151.506 35.7646C151.918 35.8864 152.292 36.0503 152.63 36.2564C152.967 36.4625 153.239 36.7341 153.445 37.0714C153.66 37.4086 153.768 37.8348 153.768 38.35C153.768 38.9027 153.613 39.4085 153.304 39.8675C152.995 40.3265 152.531 40.6965 151.913 40.9776C151.304 41.2586 150.531 41.3991 149.595 41.3991ZM159.82 41.3991C159.033 41.3991 158.279 41.296 157.557 41.09C156.836 40.8745 156.255 40.5982 155.815 40.2609L156.588 38.5467C157.009 38.8465 157.506 39.0947 158.077 39.2914C158.658 39.4788 159.243 39.5725 159.834 39.5725C160.283 39.5725 160.644 39.5303 160.916 39.446C161.197 39.3523 161.403 39.2259 161.534 39.0666C161.665 38.9074 161.73 38.7247 161.73 38.5186C161.73 38.2563 161.627 38.0503 161.421 37.9004C161.215 37.7411 160.944 37.6147 160.606 37.521C160.269 37.418 159.894 37.3243 159.482 37.24C159.08 37.1463 158.672 37.0339 158.26 36.9028C157.857 36.7716 157.487 36.603 157.15 36.3969C156.813 36.1908 156.536 35.9192 156.321 35.582C156.115 35.2447 156.012 34.8138 156.012 34.2893C156.012 33.7272 156.162 33.2167 156.461 32.7577C156.77 32.2893 157.229 31.9193 157.838 31.6477C158.457 31.3667 159.229 31.2262 160.157 31.2262C160.775 31.2262 161.384 31.3011 161.983 31.451C162.583 31.5915 163.112 31.8069 163.571 32.0973L162.869 33.8256C162.41 33.5633 161.951 33.3713 161.492 33.2495C161.033 33.1184 160.583 33.0528 160.143 33.0528C159.702 33.0528 159.342 33.1043 159.061 33.2073C158.78 33.3104 158.578 33.4462 158.457 33.6148C158.335 33.7741 158.274 33.9614 158.274 34.1769C158.274 34.4298 158.377 34.6359 158.583 34.7951C158.789 34.945 159.061 35.0668 159.398 35.1604C159.735 35.2541 160.105 35.3478 160.508 35.4415C160.92 35.5351 161.328 35.6429 161.73 35.7646C162.143 35.8864 162.517 36.0503 162.855 36.2564C163.192 36.4625 163.463 36.7341 163.669 37.0714C163.885 37.4086 163.993 37.8348 163.993 38.35C163.993 38.9027 163.838 39.4085 163.529 39.8675C163.22 40.3265 162.756 40.6965 162.138 40.9776C161.529 41.2586 160.756 41.3991 159.82 41.3991Z" fill="white"/>
</svg>
